<?xml version="1.0" encoding="utf-8"?>
<!-- Generator: Adobe Illustrator 26.0.3, SVG Export Plug-In . SVG Version: 6.00 Build 0)  -->
<svg version="1.1" id="Layer_1" xmlns="http://www.w3.org/2000/svg" xmlns:xlink="http://www.w3.org/1999/xlink" x="0px" y="0px"
	 viewBox="0 0 1000 1000" style="enable-background:new 0 0 1000 1000;" xml:space="preserve">
<style type="text/css">
	.st0{fill:url(#SVGID_1_);}
	.st1{fill:#E2231A;}
	.st2{fill:#FFFFFF;}
</style>
<g>
	<linearGradient id="SVGID_1_" gradientUnits="userSpaceOnUse" x1="500" y1="1000" x2="500" y2="-9.094947e-13">
		<stop  offset="0.5" style="stop-color:#0079C1"/>
		<stop  offset="1" style="stop-color:#1DACEE"/>
	</linearGradient>
	<circle class="st0" cx="500" cy="500" r="500"/>
	<g>
		<path class="st1" d="M499.8,176.2C321,176.2,176,321.2,176,500s145,323.8,323.8,323.8C679,823.8,824,678.8,824,500
			C824,321.2,679,176.2,499.8,176.2"/>
		<path class="st2" d="M346.8,544.4h305.6v97.2H346.8V544.4z M489.9,401.3L433.8,328c-2.3-3-6.1-4.9-9.9-4.9s-7.6,1.9-9.9,4.6
			l-67.2,84.3V544l66.4-85.4c2.3-3,6.1-4.9,10.2-4.9s8,1.9,10.2,4.9l56.6,74c2.3,2.7,5.7,4.6,9.5,4.6c3.8,0,7.2-1.9,9.5-4.6l56.6-74
			c2.3-3,6.1-4.9,10.2-4.9s8,1.9,10.2,4.9l66.4,85.4V411.9L586,327.7c-2.3-3-5.7-4.6-9.9-4.6s-7.6,1.9-9.9,4.9l-56.2,73.3
			c-2.3,3-5.7,4.9-9.9,4.9C495.6,406.2,492.2,404.3,489.9,401.3"/>
	</g>
</g>
</svg>
