<?xml version="1.0" encoding="UTF-8"?><svg id="logo_x" xmlns="http://www.w3.org/2000/svg" xmlns:xlink="http://www.w3.org/1999/xlink" viewBox="0 0 1080 1080"><defs><style>.cls-1{fill:url(#linear-gradient);}.cls-1,.cls-2,.cls-3{stroke-width:0px;}.cls-2{fill:#e2231a;}.cls-3{fill:#fff;}</style><linearGradient id="linear-gradient" x1="540" y1="2" x2="540" y2="1082" gradientTransform="translate(0 1082) scale(1 -1)" gradientUnits="userSpaceOnUse"><stop offset=".5" stop-color="#0079c1"/><stop offset="1" stop-color="#1dacee"/></linearGradient></defs><circle class="cls-1" cx="540" cy="540" r="540"/><path class="cls-2" d="m539.78,189.97c-193.28,0-350.03,156.75-350.03,350.03s156.75,350.03,350.03,350.03,350.46-156.75,350.46-350.03-156.75-350.03-350.46-350.03"/><path class="cls-3" d="m374.39,588h330.35v105.07h-330.35v-105.07Zm154.69-154.69l-60.64-79.24c-2.49-3.24-6.59-5.3-10.7-5.3s-8.22,2.05-10.7,4.97l-72.64,91.13v142.69l71.78-92.32c2.49-3.24,6.59-5.3,11.03-5.3s8.65,2.05,11.03,5.3l61.18,79.99c2.49,2.92,6.16,4.97,10.27,4.97s7.78-2.05,10.27-4.97l61.18-79.99c2.49-3.24,6.59-5.3,11.03-5.3s8.65,2.05,11.03,5.3l71.78,92.32v-142.8l-71.99-91.02c-2.49-3.24-6.16-4.97-10.7-4.97s-8.22,2.05-10.7,5.3l-60.75,79.24c-2.49,3.24-6.16,5.3-10.7,5.3-4.86,0-8.54-2.05-11.03-5.3"/></svg>