<?xml version="1.0" encoding="utf-8"?>
<!-- Generator: Adobe Illustrator 16.0.0, SVG Export Plug-In . SVG Version: 6.00 Build 0)  -->
<!DOCTYPE svg PUBLIC "-//W3C//DTD SVG 1.1//EN" "http://www.w3.org/Graphics/SVG/1.1/DTD/svg11.dtd">
<svg version="1.1" id="Layer_1" xmlns="http://www.w3.org/2000/svg" xmlns:xlink="http://www.w3.org/1999/xlink" x="0px" y="0px"
	 width="460px" height="72px" viewBox="0 0 460 72" enable-background="new 0 0 460 72" xml:space="preserve">
<g>
	<path fill="#FFFFFF" d="M17.54,32.873c0,2.987-1.369,4.645-4.969,4.645H9.514v-9.157c0.39-0.036,1.695-0.064,2.083-0.064h1.053
		C16.324,28.296,17.54,29.856,17.54,32.873z M24.88,44.752c0-4.715-3.849-6.422-8.514-6.525v-0.178
		c3.964-0.322,7.228-1.985,7.228-5.995c0-4.465-3.692-5.299-7.817-5.299c-4.961,0-10.788,0.132-15.732,0v1.535
		c1.041-0.071,3.582,0.07,3.582,1.388v19.025c0,1.27-2.609,1.445-3.582,1.445v1.496c4.785-0.125,10.461,0,15.267,0
		C20.372,51.645,24.88,49.938,24.88,44.752z M18.545,44.275c0,3.9-1.359,5.752-6.09,5.752H9.514V39.121h3.136
		C16.949,39.121,18.545,40.576,18.545,44.275z"/>
	<path fill="#FFFFFF" d="M56.901,51.605c-2.226,0-4.445-0.027-6.666,0.039v-1.527c1.011,0,3.814-0.059,3.814-1.414V31.057h-0.078
		L43.934,51.979h-1.215l-9.79-20.961h-0.076v17.686c0,1.391,2.779,1.414,3.833,1.414l0.041,1.527c-2.772-0.09-6.555-0.148-9.288,0
		v-1.527c1.058,0,3.443-0.086,3.443-1.414v-19c0-1.305-2.466-1.413-3.443-1.413l-0.038-1.535c3.165,0.132,6.553,0.132,9.709,0
		l8.409,17.633l8.569-17.598c3.041,0.138,6.476,0.097,9.512-0.035v1.535c-1.006,0-3.658,0.07-3.658,1.413v19
		c0,1.355,2.614,1.414,3.658,1.414v1.527C61.382,51.578,59.124,51.605,56.901,51.605z"/>
	<path fill="#FFFFFF" d="M87.004,39.172c0,4.742-0.471,11.367-7.513,11.367c-7.052,0-7.561-6.625-7.561-11.367
		c0-4.739,0.509-11.319,7.561-11.319C86.495,27.853,87.004,34.467,87.004,39.172z M93.593,39.172
		c0-8.233-5.031-12.854-14.103-12.854c-9.082,0-14.152,4.579-14.152,12.854c0,8.285,5.029,12.887,14.152,12.887
		C88.601,52.059,93.593,47.457,93.593,39.172z"/>
</g>
<g>
	<path fill="#FFFFFF" d="M184.454,11.198c-2.361,0-4.275,1.914-4.275,4.279c0,2.358,1.914,4.277,4.275,4.277
		c2.361,0,4.275-1.919,4.275-4.277C188.729,13.112,186.815,11.198,184.454,11.198L184.454,11.198z M184.454,19.16
		c-2,0-3.621-1.65-3.621-3.683c0-2.035,1.621-3.687,3.621-3.687c2.002,0,3.625,1.651,3.625,3.687
		C188.079,17.509,186.456,19.16,184.454,19.16"/>
	<path fill="#FFFFFF" d="M186.435,14.407c0-0.953-0.555-1.384-1.626-1.384h-1.899v4.908h0.593v-2.18h1.029l1.385,2.18h0.715
		l-1.467-2.18C185.952,15.628,186.435,15.089,186.435,14.407L186.435,14.407z M183.503,15.236v-1.701h1.029
		c0.872,0,1.268,0.257,1.268,0.855c0,0.591-0.396,0.846-1.268,0.846H183.503"/>
</g>
<path fill="#E2231A" d="M144.832,0.032c-19.87,0-35.995,16.119-35.995,35.998c0,19.878,16.125,35.99,35.995,35.99
	c19.887,0,36.002-16.111,36.002-35.99C180.834,16.151,164.719,0.032,144.832,0.032z"/>
<path fill="#FFFFFF" d="M143.736,25.046l-6.25-8.149c-0.254-0.334-0.655-0.552-1.109-0.552c-0.439,0-0.833,0.204-1.088,0.524
	l-7.44,9.378v14.692l7.397-9.478c0.264-0.334,0.672-0.551,1.131-0.551c0.465,0,0.876,0.223,1.14,0.561l6.279,8.212
	c0.242,0.314,0.615,0.518,1.04,0.518c0.424,0,0.801-0.203,1.039-0.518l6.279-8.212c0.264-0.338,0.675-0.561,1.142-0.561
	c0.459,0,0.866,0.217,1.128,0.551l7.397,9.478V26.248l-7.439-9.378c-0.255-0.32-0.646-0.524-1.086-0.524
	c-0.454,0-0.857,0.218-1.111,0.552l-6.25,8.149c-0.254,0.327-0.651,0.537-1.099,0.537C144.39,25.583,143.99,25.374,143.736,25.046z
	 M161.821,51.717h-33.973l0.027-0.025l-0.027,0.025V40.939h33.973l-0.027,0.023l0.027-0.023V51.717z"/>
<g>
	<polyline fill="#FFFFFF" points="449.281,31.58 449.281,30.885 453.449,30.885 453.449,31.58 451.754,31.58 451.754,37.135 
		450.973,37.135 450.973,31.58 449.281,31.58 	"/>
	<polyline fill="#FFFFFF" points="457.049,36.049 455.398,30.885 454.141,30.885 454.141,37.135 454.922,37.135 454.922,31.928 
		455.008,31.928 456.656,37.135 457.438,37.135 459.088,31.928 459.174,31.928 459.174,37.135 459.955,37.135 459.955,30.885 
		458.695,30.885 457.049,36.049 	"/>
</g>
<g>
	<path fill="#FFFFFF" d="M225.289,47.514h-3.486l-3.146-12.987c-0.154-0.586-0.342-1.729-0.402-2.344h-0.061
		c-0.092,0.708-0.215,1.633-0.402,2.344l-3.146,12.987h-3.453l-4.877-21.224h3.92l2.652,13.882c0.123,0.586,0.279,1.695,0.34,2.529
		h0.063c0.092-0.834,0.309-1.977,0.43-2.529l3.24-13.882h2.9l3.115,13.882c0.154,0.648,0.309,1.695,0.4,2.529h0.063
		c0.061-0.678,0.248-1.914,0.371-2.529l2.775-13.882h3.578L225.289,47.514z"/>
	<path fill="#FFFFFF" d="M234.947,40.572c0.279,2.9,1.914,4.629,4.658,4.629c1.512,0,3.146-0.434,4.102-0.957l0.898,2.404
		c-1.359,0.711-3.428,1.205-5.523,1.205c-5.029,0-7.807-3.486-7.807-8.701c0-5.211,2.654-8.606,7.158-8.606
		c4.318,0,6.756,2.838,6.756,8.022v0.494L234.947,40.572z M238.311,32.798c-2.377,0-3.578,2.254-3.578,5.524v0.336l6.848-1.08
		C241.549,34.557,240.563,32.798,238.311,32.798z"/>
	<path fill="#FFFFFF" d="M249.172,31.813h-2.037l2.498-7.622c0.4-0.678,1.143-1.142,2.1-1.142c0.955,0,1.387,0.524,1.51,1.142
		L249.172,31.813z"/>
	<path fill="#FFFFFF" d="M260.617,33.354c-0.494-0.215-1.111-0.34-1.697-0.34c-0.678,0-1.355,0.125-1.789,0.34v14.16h-3.764V31.75
		c1.48-0.709,3.549-1.172,6.232-1.172c0.678,0,1.479,0.061,1.787,0.092L260.617,33.354z"/>
	<path fill="#FFFFFF" d="M266.139,40.572c0.277,2.9,1.912,4.629,4.66,4.629c1.512,0,3.146-0.434,4.102-0.957l0.895,2.404
		c-1.357,0.711-3.424,1.205-5.52,1.205c-5.031,0-7.809-3.486-7.809-8.701c0-5.211,2.654-8.606,7.158-8.606
		c4.32,0,6.758,2.838,6.758,8.022v0.494L266.139,40.572z M269.502,32.798c-2.375,0-3.578,2.254-3.578,5.524v0.336l6.85-1.08
		C272.742,34.557,271.754,32.798,269.502,32.798z"/>
	<path fill="#FFFFFF" d="M297.084,47.514v-11.57c0-1.604-0.678-2.9-2.93-2.9c-0.957,0-1.883,0.248-2.686,0.682v13.789h-3.764V23.295
		h3.764v8.302c0.988-0.557,2.252-0.896,3.703-0.896c4.164,0,5.678,2.53,5.678,5.152v11.661H297.084z"/>
	<path fill="#FFFFFF" d="M307.914,40.572c0.277,2.9,1.914,4.629,4.658,4.629c1.512,0,3.148-0.434,4.104-0.957l0.896,2.404
		c-1.357,0.711-3.428,1.205-5.523,1.205c-5.027,0-7.805-3.486-7.805-8.701c0-5.211,2.652-8.606,7.156-8.606
		c4.32,0,6.756,2.838,6.756,8.022v0.494L307.914,40.572z M311.277,32.798c-2.377,0-3.578,2.254-3.578,5.524v0.336l6.848-1.08
		C314.516,34.557,313.529,32.798,311.277,32.798z"/>
	<path fill="#FFFFFF" d="M328.803,33.354c-0.496-0.215-1.111-0.34-1.699-0.34c-0.678,0-1.357,0.125-1.787,0.34v14.16h-3.766V31.75
		c1.482-0.709,3.549-1.172,6.232-1.172c0.678,0,1.48,0.061,1.789,0.092L328.803,33.354z"/>
	<path fill="#FFFFFF" d="M334.631,40.572c0.279,2.9,1.912,4.629,4.66,4.629c1.512,0,3.146-0.434,4.104-0.957l0.893,2.404
		c-1.355,0.711-3.422,1.205-5.52,1.205c-5.027,0-7.805-3.486-7.805-8.701c0-5.211,2.65-8.606,7.156-8.606
		c4.318,0,6.756,2.838,6.756,8.022v0.494L334.631,40.572z M337.996,32.798c-2.375,0-3.58,2.254-3.58,5.524v0.336l6.85-1.08
		C341.234,34.557,340.248,32.798,337.996,32.798z"/>
	<path fill="#FFFFFF" d="M361.6,47.729c-2.777,0-4.445-1.666-4.445-4.598v-9.872h-1.85v-2.374h1.85v-3.67l3.766-1.05v4.72h2.713
		v2.374h-2.713v9.872c0,1.27,0.617,2.01,1.789,2.01c0.338,0,0.646-0.064,0.924-0.154v2.373
		C363.141,47.607,362.43,47.729,361.6,47.729z"/>
	<path fill="#FFFFFF" d="M372.643,47.854c-4.719,0-7.033-3.641-7.033-8.67c0-4.997,2.314-8.637,7.033-8.637
		c4.721,0,7.035,3.641,7.035,8.637C379.678,44.213,377.363,47.854,372.643,47.854z M372.643,32.891c-2.436,0-3.271,2.747-3.271,6.23
		c0,3.486,0.836,6.232,3.271,6.232s3.271-2.746,3.271-6.232C375.914,35.667,375.078,32.891,372.643,32.891z"/>
	<path fill="#FFFFFF" d="M400.379,47.514v-11.57c0-1.604-0.68-2.9-2.93-2.9c-0.959,0-1.883,0.248-2.686,0.682v13.789h-3.762V23.295
		h3.762v8.302c0.986-0.557,2.252-0.896,3.703-0.896c4.164,0,5.676,2.53,5.676,5.152v11.661H400.379z"/>
	<path fill="#FFFFFF" d="M411.209,40.572c0.277,2.9,1.912,4.629,4.66,4.629c1.508,0,3.146-0.434,4.102-0.957l0.895,2.404
		c-1.357,0.711-3.424,1.205-5.521,1.205c-5.029,0-7.807-3.486-7.807-8.701c0-5.211,2.652-8.606,7.158-8.606
		c4.32,0,6.758,2.838,6.758,8.022v0.494L411.209,40.572z M414.572,32.798c-2.375,0-3.58,2.254-3.58,5.524v0.336l6.85-1.08
		C417.811,34.557,416.824,32.798,414.572,32.798z"/>
	<path fill="#FFFFFF" d="M439.008,47.76c-0.988,0-1.945-0.184-2.498-0.367v6.754h-3.734V31.75c1.635-0.803,3.641-1.203,5.738-1.203
		c4.967,0,7.805,3.146,7.805,8.454C446.318,44.457,443.357,47.76,439.008,47.76z M438.451,32.829c-0.678,0-1.416,0.095-1.941,0.341
		v12c0.398,0.152,1.016,0.277,1.664,0.277c2.961,0,4.41-2.283,4.41-6.355C442.584,35.172,441.475,32.829,438.451,32.829z"/>
	<path fill="#FFFFFF" d="M450.299,47.76c-1.232,0-2.252-1.016-2.252-2.25s1.02-2.252,2.252-2.252c1.236,0,2.254,1.018,2.254,2.252
		S451.535,47.76,450.299,47.76z"/>
	<polygon fill="#FFFFFF" points="428.609,47.514 424.846,47.514 424.875,47.484 424.846,47.514 424.846,23.295 428.609,23.295 
		428.582,23.322 428.609,23.295 	"/>
</g>
</svg>
