<?xml version="1.0" encoding="utf-8"?>
<!-- Generator: Adobe Illustrator 16.0.0, SVG Export Plug-In . SVG Version: 6.00 Build 0)  -->
<!DOCTYPE svg PUBLIC "-//W3C//DTD SVG 1.1//EN" "http://www.w3.org/Graphics/SVG/1.1/DTD/svg11.dtd">
<svg version="1.1" id="Layer_1" xmlns="http://www.w3.org/2000/svg" xmlns:xlink="http://www.w3.org/1999/xlink" x="0px" y="0px"
	 width="395.181px" height="71.996px" viewBox="0 0.02 395.181 71.996" enable-background="new 0 0.02 395.181 71.996"
	 xml:space="preserve">
<g>
	<g>
		<path fill="#FFFFFF" d="M17.504,32.838c0,3.127-1.368,4.871-4.965,4.871H9.477v-9.596c0.391-0.037,1.695-0.07,2.084-0.07h1.057
			C16.289,28.043,17.504,29.678,17.504,32.838 M24.848,44.801c0-4.725-3.848-6.422-8.52-6.529v-0.176
			c3.969-0.315,7.234-1.986,7.234-6.002c0-4.461-3.691-5.299-7.82-5.299c-4.964,0-10.793,0.137-15.742,0v1.248
			c1.052-0.068,3.588,0.07,3.588,1.387v19.604c0,1.27-2.611,1.481-3.588,1.481v1.213c4.798-0.143,10.469,0,15.273,0
			C20.335,51.729,24.848,49.984,24.848,44.801z M18.513,44.379c0,4.055-1.36,5.996-6.091,5.996H9.477V39.014h3.141
			C16.914,39.014,18.513,40.533,18.513,44.379z"/>
		<path fill="#FFFFFF" d="M56.869,51.688c-2.221,0-4.443-0.028-6.664,0.039v-1.248c1.014,0,3.815-0.069,3.815-1.448V30.768h-0.077
			L43.738,52.01h-1.053l-9.932-21.242h-0.078V49.03c0,1.418,2.923,1.448,3.973,1.448l0.044,1.248c-2.772-0.11-6.559-0.18-9.287,0
			v-1.248c1.056,0,3.589-0.102,3.589-1.448V29.457c0-1.309-2.611-1.414-3.589-1.414l-0.035-1.248c3.157,0.137,6.55,0.137,9.708,0
			l8.492,17.811l8.646-17.772c3.043,0.131,6.319,0.1,9.358-0.037v1.248c-1.013,0-3.664,0.07-3.664,1.414V49.03
			c0,1.379,2.613,1.448,3.664,1.448v1.248C61.352,51.658,59.092,51.688,56.869,51.688"/>
		<path fill="#FFFFFF" d="M86.98,39.217c0,4.869-0.473,11.648-7.52,11.648c-7.051,0-7.559-6.779-7.559-11.648
			c0-4.863,0.508-11.611,7.559-11.611C86.473,27.605,86.98,34.389,86.98,39.217 M93.574,39.217c0-8.236-5.035-12.854-14.113-12.854
			c-9.076,0-14.148,4.582-14.148,12.854c0,8.273,5.029,12.891,14.148,12.891C88.574,52.107,93.574,47.49,93.574,39.217z"/>
	</g>
	<path fill="#E2231A" d="M144.819,0.02c-19.87,0-35.994,16.121-35.994,36.002c0,19.88,16.124,35.994,35.994,35.994
		c19.892,0,36.004-16.113,36.004-35.994C180.823,16.141,164.711,0.02,144.819,0.02z"/>
	<path fill="#FFFFFF" d="M143.725,25.039l-6.25-8.154c-0.254-0.334-0.655-0.549-1.109-0.549c-0.439,0-0.833,0.203-1.088,0.523
		l-7.44,9.381v14.691l7.397-9.479c0.264-0.334,0.672-0.551,1.131-0.551c0.465,0,0.876,0.221,1.14,0.561l6.279,8.213
		c0.242,0.314,0.615,0.519,1.04,0.519c0.424,0,0.801-0.203,1.039-0.519l6.279-8.213c0.264-0.34,0.675-0.561,1.142-0.561
		c0.459,0,0.866,0.217,1.128,0.551l7.397,9.479V26.24l-7.439-9.381c-0.255-0.32-0.646-0.523-1.086-0.523
		c-0.454,0-0.857,0.215-1.111,0.549l-6.25,8.154c-0.254,0.326-0.651,0.537-1.099,0.537
		C144.378,25.576,143.979,25.365,143.725,25.039z M161.81,51.709h-33.973l0.027-0.025l-0.027,0.025V40.932h33.973l-0.027,0.023
		l0.027-0.023V51.709z"/>
	<g>
		<polygon fill="#FFFFFF" points="210.929,47.664 207,47.664 207.027,47.633 207,47.664 207,26.375 210.929,26.375 210.901,26.402 
			210.929,26.375 		"/>
		<path fill="#FFFFFF" d="M220.892,48.002c-4.055,0-6.776-3.434-6.776-8.695c0-5.258,2.754-8.664,6.776-8.664
			c1.641,0,3.032,0.404,3.991,1.146l-0.836,2.135c-0.587-0.432-1.484-0.711-2.382-0.711c-2.29,0-3.681,2.445-3.681,6.033
			c0,3.557,1.391,6.033,3.681,6.033c0.897,0,1.732-0.279,2.32-0.711l0.897,2.291C223.924,47.6,222.532,48.002,220.892,48.002z"/>
		<path fill="#FFFFFF" d="M229.833,28.139c-1.146,0-2.104-0.836-2.104-1.887c0-1.053,0.958-1.922,2.104-1.922
			c1.146,0,2.103,0.869,2.103,1.922C231.936,27.303,230.979,28.139,229.833,28.139z M227.946,47.664v-16.68h3.773v16.68H227.946z"/>
		<path fill="#FFFFFF" d="M235.682,52.148h-2.291l2.508-7.58c0.463-0.713,1.27-1.205,2.258-1.205c0.99,0,1.516,0.524,1.672,1.205
			L235.682,52.148z"/>
		<path fill="#FFFFFF" d="M257.368,47.91c-0.989,0-1.948-0.184-2.507-0.371v6.775h-3.742V31.852c1.64-0.805,3.65-1.209,5.755-1.209
			c4.981,0,7.829,3.158,7.829,8.48C264.703,44.598,261.732,47.91,257.368,47.91z M256.813,32.934c-0.681,0-1.424,0.092-1.949,0.342
			v12.037c0.402,0.152,1.021,0.273,1.67,0.273c2.971,0,4.426-2.285,4.426-6.371C260.958,35.283,259.845,32.934,256.813,32.934z"/>
		<path fill="#FFFFFF" d="M274.386,48.002c-4.733,0-7.053-3.65-7.053-8.695c0-5.01,2.317-8.664,7.053-8.664s7.056,3.654,7.056,8.664
			C281.439,44.352,279.12,48.002,274.386,48.002z M274.386,32.998c-2.444,0-3.278,2.752-3.278,6.248s0.834,6.25,3.278,6.25
			c2.445,0,3.28-2.754,3.28-6.25C277.666,35.781,276.831,32.998,274.386,32.998z"/>
		<path fill="#FFFFFF" d="M291.34,48.002c-4.392,0-6.65-1.732-6.65-5.662V30.984h3.776v11.479c0,1.949,0.957,3.002,2.938,3.002
			c0.863,0,1.855-0.152,2.443-0.465V30.984h3.772v15.75C296.2,47.447,293.725,48.002,291.34,48.002z"/>
		<path fill="#FFFFFF" d="M308.76,33.459c-0.495-0.215-1.113-0.34-1.701-0.34c-0.682,0-1.361,0.125-1.793,0.34v14.205h-3.775V31.852
			c1.484-0.715,3.557-1.176,6.249-1.176c0.682,0,1.484,0.059,1.796,0.092L308.76,33.459z"/>
		<path fill="#FFFFFF" d="M328.037,47.664h-3.527l-5.507-16.68h4.052l2.907,10.831c0.187,0.68,0.312,1.424,0.403,2.385h0.062
			c0.095-0.898,0.218-1.674,0.435-2.385l3.095-10.831h3.588L328.037,47.664z"/>
		<path fill="#FFFFFF" d="M341.959,48.002c-4.734,0-7.057-3.65-7.057-8.695c0-5.01,2.321-8.664,7.057-8.664
			c4.733,0,7.055,3.654,7.055,8.664C349.014,44.352,346.692,48.002,341.959,48.002z M341.959,32.998
			c-2.443,0-3.281,2.752-3.281,6.248s0.838,6.25,3.281,6.25c2.442,0,3.28-2.754,3.28-6.25
			C345.239,35.781,344.401,32.998,341.959,32.998z"/>
		<path fill="#FFFFFF" d="M358.915,48.002c-4.396,0-6.655-1.732-6.655-5.662V30.984h3.777v11.479c0,1.949,0.958,3.002,2.938,3.002
			c0.866,0,1.855-0.152,2.443-0.465V30.984h3.776v15.75C363.771,47.447,361.296,48.002,358.915,48.002z"/>
		<path fill="#FFFFFF" d="M373.114,48.002c-1.761,0-3.681-0.494-4.827-1.207l1.052-2.35c1.056,0.647,2.261,0.957,3.347,0.957
			c1.67,0,2.721-1.019,2.721-2.353c0-3.465-6.716-2.164-6.716-7.549c0-2.846,2.354-4.859,5.478-4.859
			c1.855,0,3.373,0.404,4.643,1.209l-0.961,2.135c-0.896-0.559-1.979-0.93-2.97-0.93c-1.638,0-2.474,0.963-2.474,2.197
			c0,3.281,6.867,2.072,6.867,7.549C379.271,45.682,376.859,48.002,373.114,48.002z"/>
		<path fill="#FFFFFF" d="M384.224,47.91c-1.238,0-2.26-1.021-2.26-2.26c0-1.239,1.021-2.256,2.26-2.256
			c1.237,0,2.259,1.018,2.259,2.256C386.482,46.888,385.461,47.91,384.224,47.91z"/>
	</g>
	<g>
		<g>
			<path fill="#FFFFFF" d="M394.434,34.877v0.01c-0.07,1.105-0.671,1.791-1.559,1.791c-1.152,0-1.842-0.975-1.842-2.604
				c0-1.213,0.482-2.514,1.835-2.514c0.804,0,1.369,0.492,1.513,1.316l0.003,0.012h0.748l-0.003-0.012
				c-0.161-1.256-1.021-2.037-2.254-2.037c-1.549,0-2.59,1.326-2.59,3.299c0,2.012,0.971,3.262,2.533,3.262
				c1.361,0,2.222-0.911,2.362-2.512v-0.01H394.434z"/>
			<polyline fill="#FFFFFF" points="386.531,36.164 384.875,30.98 383.615,30.98 383.615,37.252 384.396,37.252 384.396,32.029 
				384.483,32.029 386.138,37.252 386.922,37.252 388.574,32.029 388.661,32.029 388.661,37.252 389.449,37.252 389.449,30.98 
				388.186,30.98 386.531,36.164 			"/>
		</g>
		<polyline fill="#FFFFFF" points="183.188,17.307 181.68,12.59 180.53,12.59 180.53,18.297 181.244,18.297 181.244,13.541 
			181.324,13.541 182.83,18.297 183.543,18.297 185.049,13.541 185.129,13.541 185.129,18.297 185.843,18.297 185.843,12.59 
			184.691,12.59 183.188,17.307 		"/>
		<path fill="#FFFFFF" d="M188.561,12.59h-1.646v5.707h1.646c1.914,0,2.436-1.068,2.436-2.988
			C190.996,13.461,190.324,12.59,188.561,12.59 M188.619,17.664h-0.953v-4.441h0.953c1.426,0,1.621,0.813,1.621,2.18
			C190.24,17.506,189.156,17.664,188.619,17.664"/>
	</g>
</g>
</svg>
