<?xml version="1.0" encoding="utf-8"?>
<!-- Generator: Adobe Illustrator 16.0.0, SVG Export Plug-In . SVG Version: 6.00 Build 0)  -->
<!DOCTYPE svg PUBLIC "-//W3C//DTD SVG 1.1//EN" "http://www.w3.org/Graphics/SVG/1.1/DTD/svg11.dtd">
<svg version="1.1" id="Layer_1" xmlns="http://www.w3.org/2000/svg" xmlns:xlink="http://www.w3.org/1999/xlink" x="0px" y="0px"
	 width="520px" height="72px" viewBox="0 0 520 72" enable-background="new 0 0 520 72" xml:space="preserve">
<g>
	<polygon fill="#FFFFFF" points="17.904,36.471 9.202,36.471 9.202,31.758 31.946,31.758 31.946,36.471 23.276,36.471 23.276,58.52 
		17.904,58.52 	"/>
	<polygon fill="#FFFFFF" points="36.627,31.754 42.005,31.754 42.005,42.139 53.958,42.139 53.958,31.754 59.371,31.754 
		59.371,58.518 53.958,58.518 53.958,47.076 42.005,47.076 42.005,58.518 36.627,58.518 	"/>
	<polygon fill="#FFFFFF" points="65.701,31.754 83.506,31.754 83.506,36.471 71.076,36.471 71.076,42.432 80.874,42.432 
		80.874,47.15 71.076,47.15 71.076,53.914 83.506,53.914 83.506,58.518 65.701,58.518 	"/>
	<path fill="#FFFFFF" d="M97.583,45.135c0-11.588,4.678-13.782,11.992-13.782c4.387,0,6.399,0.548,7.642,0.806l-0.914,4.566
		c-1.977-0.324-3.948-0.652-6.801-0.652c-4.681,0-6.286,1.897-6.286,8.004v1.977c0,5.961,1.641,8.221,6.359,8.221
		c3.511,0,5.958-0.615,6.763-0.764l0.879,4.494c-1.429,0.408-3.441,0.881-7.715,0.881C102.118,58.885,97.583,56.727,97.583,45.135"
		/>
	<path fill="#FFFFFF" d="M133.335,38.813c0,0-3.907,10.524-3.945,10.524h7.862L133.335,38.813z M125.993,58.518h-5.377
		l10.386-26.944h4.933l10.383,26.944h-5.665l-1.79-4.824h-11.081L125.993,58.518"/>
	<polygon fill="#FFFFFF" points="150.055,31.754 155.389,31.754 167.167,48.797 167.167,31.754 172.319,31.754 172.319,58.518 
		167.714,58.518 155.21,40.346 155.21,58.518 150.055,58.518 	"/>
	<path fill="#FFFFFF" d="M188.774,38.813c0,0-3.907,10.524-3.942,10.524h7.862L188.774,38.813z M181.431,58.518h-5.378
		l10.387-26.944h4.933l10.384,26.944h-5.665l-1.793-4.824h-11.078L181.431,58.518"/>
	<path fill="#FFFFFF" d="M215.475,54.242c4.678,0,6.471-2.084,6.471-8.229V44.26c0-6.182-1.793-8.12-6.471-8.12h-4.607v18.103
		H215.475z M205.493,31.754h10.019c7.929,0,12.103,1.863,12.103,13.381c0,11.52-4.174,13.383-12.103,13.383h-10.019V31.754"/>
	<rect x="232.517" y="31.754" fill="#FFFFFF" width="5.409" height="26.764"/>
	<path fill="#FFFFFF" d="M254.486,38.813c0,0-3.909,10.524-3.943,10.524h7.859L254.486,38.813z M247.141,58.518h-5.375
		l10.386-26.944h4.931l10.384,26.944h-5.664l-1.789-4.824h-11.079L247.141,58.518"/>
	<polygon fill="#FFFFFF" points="271.089,31.754 276.421,31.754 288.199,48.797 288.199,31.754 293.355,31.754 293.355,58.518 
		288.75,58.518 276.242,40.346 276.242,58.518 271.089,58.518 	"/>
	<path fill="#FFFFFF" d="M320.449,46.014c2.41,0,4.498-0.367,4.498-4.936c0-4.572-2.156-4.897-4.574-4.897h-5.633v9.833H320.449z
		 M309.406,31.754h11.043c6.615,0,9.873,1.756,9.873,9.248c0,7.537-3.365,9.361-9.949,9.361h-5.633v8.154h-5.334V31.754"/>
	<path fill="#FFFFFF" d="M346.048,45.646c2.887,0,4.492-0.658,4.492-4.754c0-4.129-1.791-4.712-4.566-4.712h-5.266v9.466H346.048z
		 M357.671,58.518h-6.141L345.791,50h-5.082v8.518h-5.34V31.754h10.68c6.617,0,9.871,1.573,9.871,9.072
		c0,5.227-1.646,7.238-4.754,8.006L357.671,58.518"/>
	<polygon fill="#FFFFFF" points="362.468,31.754 380.269,31.754 380.269,36.471 367.845,36.471 367.845,42.432 377.638,42.432 
		377.638,47.15 367.845,47.15 367.845,53.914 380.269,53.914 380.269,58.518 362.468,58.518 	"/>
	<path fill="#FFFFFF" d="M385.292,57.748l0.838-4.496c1.1,0.258,5.967,0.99,8.525,0.99c3.799,0,4.967-0.514,4.967-3.293
		c0-2.486-0.77-2.742-5.15-3.621c-7.314-1.461-9.107-2.594-9.107-8.406c0-5.595,3.588-7.492,9.693-7.492
		c3.254,0,7.748,0.545,8.918,0.91l-0.844,4.535c-1.678-0.262-5.041-0.771-8.119-0.771c-3.102,0-4.197,0.701-4.197,2.889
		c0,2.523,0.838,2.822,5.041,3.658c7.021,1.389,9.287,2.268,9.287,8.338c0,5.996-3.359,7.826-10.529,7.826
		C390.558,58.814,386.537,58.113,385.292,57.748"/>
	<path fill="#FFFFFF" d="M409.353,57.748l0.842-4.496c1.102,0.258,5.957,0.99,8.514,0.99c3.811,0,4.977-0.514,4.977-3.293
		c0-2.486-0.766-2.742-5.152-3.621c-7.316-1.461-9.105-2.594-9.105-8.406c0-5.595,3.584-7.492,9.689-7.492
		c3.258,0,7.756,0.545,8.922,0.91l-0.848,4.535c-1.674-0.262-5.039-0.771-8.113-0.771c-3.107,0-4.203,0.701-4.203,2.889
		c0,2.523,0.842,2.822,5.045,3.658c7.02,1.389,9.287,2.268,9.287,8.338c0,5.996-3.365,7.826-10.529,7.826
		C414.617,58.814,410.599,58.113,409.353,57.748"/>
	<path fill="#ED1D24" d="M443.404,30.267V10.621h13.785v21.127h-7.854c1.027,5.344,7.854,7.307,7.854,7.307v2.896
		C457.189,41.951,444.972,39.625,443.404,30.267"/>
	<path fill="#ED1D24" d="M509.203,10.621h-13.787v21.127h7.852c-1.029,5.344-7.852,7.307-7.852,7.307v2.896
		c0,0,12.215-2.326,13.787-11.685"/>
	<path fill="#ED1D24" d="M473.681,17.417L473.681,17.417c-0.031,0.053-0.057,0.079-0.113,0.091
		c-0.059,0.015-0.105-0.003-0.152-0.038l-2.355-1.555l1.564,7.585c0.012,0.085-0.008,0.161-0.082,0.202
		c-0.068,0.035-0.148,0.021-0.199-0.035l-3.535-3.456l-1.174,1.884c-0.016,0.032-0.045,0.059-0.08,0.072
		c-0.041,0.012-0.074,0.012-0.109,0.004l-3.584-0.766l1.248,3.561c0.012,0.025,0.012,0.052,0.006,0.084
		c-0.01,0.044-0.029,0.067-0.063,0.094l-1.566,1.377l7.139,5.214c0.041,0.029,0.068,0.053,0.084,0.1
		c0.012,0.043,0.006,0.09-0.018,0.131l-1.525,2.543l6.26-0.945c0.076-0.012,0.211,0.034,0.211,0.181v5.258h1.49v-5.258
		c0-0.146,0.131-0.192,0.215-0.181l6.26,0.945l-1.527-2.543c-0.023-0.041-0.029-0.088-0.014-0.131c0.012-0.047,0.041-0.07,0.074-0.1
		l7.148-5.214l-1.568-1.377c-0.031-0.026-0.055-0.05-0.064-0.094c-0.008-0.032-0.006-0.059,0.006-0.084l1.252-3.561l-3.588,0.766
		c-0.033,0.008-0.074,0.008-0.109-0.004c-0.035-0.014-0.068-0.04-0.082-0.072l-1.168-1.884l-3.539,3.456
		c-0.051,0.057-0.131,0.07-0.199,0.035c-0.076-0.041-0.1-0.117-0.086-0.202l1.574-7.585l-2.357,1.555
		c-0.051,0.035-0.104,0.053-0.156,0.038c-0.055-0.012-0.086-0.038-0.111-0.091h-0.006l-2.697-5.501L473.681,17.417"/>
</g>
</svg>
