<?xml version="1.0" encoding="utf-8"?>
<!-- Generator: Adobe Illustrator 16.0.0, SVG Export Plug-In . SVG Version: 6.00 Build 0)  -->
<!DOCTYPE svg PUBLIC "-//W3C//DTD SVG 1.1//EN" "http://www.w3.org/Graphics/SVG/1.1/DTD/svg11.dtd">
<svg version="1.1" id="Layer_1" xmlns="http://www.w3.org/2000/svg" xmlns:xlink="http://www.w3.org/1999/xlink" x="0px" y="0px"
	 width="250px" height="72px" viewBox="0 0 250 72" enable-background="new 0 0 250 72" xml:space="preserve">
<g>
	<rect x="-15.777" y="-25.604" fill="none" width="276.026" height="123.208"/>
	<g>
		<path fill="#FFFFFF" d="M112.667,46.261h-3.529c-0.316,0-0.435-0.293-0.577-0.577l-4.165-7.01h-0.639
			c-0.754,0-3.091-0.082-3.756-0.119v7.129c0,0.316-0.234,0.578-0.552,0.578h-2.89c-0.316,0-0.577-0.262-0.577-0.578V26.738
			c0-0.58,0.343-0.782,0.924-0.867c1.505-0.231,4.737-0.375,6.851-0.375c4.451,0,8.563,1.591,8.563,6.533v0.261
			c0,3.062-1.531,4.737-3.901,5.657l4.535,7.736c0.06,0.086,0.06,0.168,0.06,0.233C113.014,46.113,112.898,46.261,112.667,46.261z
			 M108.33,32.029c0-2.168-1.682-3.092-4.573-3.092c-0.609,0-3.239,0.058-3.756,0.114v6.27c0.458,0.028,3.259,0.087,3.756,0.087
			c2.974,0,4.573-0.575,4.573-3.118V32.029z M120.721,40.564c0,2.426,0.093,2.488,2.279,2.488h7.316c0.32,0,0.58,0.262,0.58,0.578
			v1.848c0,0.406-0.146,0.553-0.58,0.607c-0.924,0.146-2.808,0.402-6.245,0.402c-4.798,0-7.344,0.033-7.344-5.924v-9.147
			c0-5.956,2.546-5.922,7.344-5.922c3.438,0,5.321,0.261,6.245,0.404c0.436,0.056,0.58,0.203,0.58,0.608v1.847
			c0,0.316-0.26,0.582-0.58,0.582H123c-2.186,0-2.279,0.064-2.279,2.481v2.652h9.251c0.318,0,0.579,0.262,0.579,0.575v2.086
			c0,0.314-0.261,0.578-0.579,0.578h-9.251V40.564z M143.877,46.489c-4.648,0-8.656-2.021-8.656-8.185V26.277
			c0-0.321,0.264-0.551,0.581-0.551h2.856c0.32,0,0.578,0.23,0.578,0.551v12.03c0,3.297,1.523,4.86,4.641,4.86
			c3.125,0,4.646-1.563,4.646-4.86v-12.03c0-0.321,0.259-0.551,0.576-0.551h2.86c0.319,0,0.581,0.23,0.581,0.551v12.03
			C152.542,44.468,148.535,46.489,143.877,46.489z M171.551,29.078h-5.767v16.605c0,0.316-0.267,0.577-0.585,0.577h-2.86
			c-0.317,0-0.579-0.261-0.579-0.577V29.078h-5.771c-0.313,0-0.574-0.199-0.574-0.518v-2.283c0-0.321,0.261-0.551,0.574-0.551
			h15.563c0.313,0,0.573,0.23,0.573,0.551v2.283C172.125,28.878,171.863,29.078,171.551,29.078z M210.809,46.261h-3.529
			c-0.316,0-0.432-0.293-0.574-0.577l-4.166-7.01h-0.645c-0.748,0-3.088-0.082-3.756-0.119v7.129c0,0.316-0.229,0.578-0.545,0.578
			h-2.888c-0.319,0-0.58-0.262-0.58-0.578V26.738c0-0.58,0.343-0.782,0.923-0.867c1.502-0.231,4.739-0.375,6.846-0.375
			c4.455,0,8.563,1.591,8.563,6.533v0.261c0,3.062-1.534,4.737-3.903,5.657l4.543,7.736c0.06,0.086,0.06,0.168,0.06,0.233
			C211.157,46.113,211.038,46.261,210.809,46.261z M206.473,32.029c0-2.168-1.684-3.092-4.578-3.092
			c-0.604,0-3.233,0.058-3.756,0.114v6.27c0.469,0.028,3.271,0.087,3.756,0.087c2.981,0,4.578-0.575,4.578-3.118V32.029z
			 M221.841,46.503c-2.555,0-5.144-0.438-6.532-0.757c-0.287-0.059-0.55-0.26-0.55-0.577v-2.082c0-0.315,0.263-0.55,0.55-0.55
			c0.028,0,0.028,0,0.057,0c1.158,0.146,3.865,0.521,6.537,0.521c2.57,0,3.356-0.922,3.356-2.596c0-2.17-5.176-3.37-7.702-4.41
			c-2.516-1.041-3.406-3.032-3.406-5.054c0-3.182,2.562-5.495,7.938-5.495c2.756,0,5.279,0.524,6.262,0.76
			c0.291,0.059,0.519,0.261,0.519,0.548v2.139c0,0.286-0.197,0.52-0.491,0.52c-0.025,0-0.025,0-0.055,0
			c-1.91-0.172-3.889-0.524-6.402-0.524c-2.143,0-3.745,0.751-3.745,2.052c0,0.952,1.087,1.825,2.37,2.335
			c1.283,0.505,2.967,1.161,4.891,1.934c2.435,0.985,4.014,2.419,4.014,5.195C229.447,43.38,227.627,46.503,221.841,46.503z
			 M179.09,40.564c0,2.426,0.09,2.488,2.28,2.488h7.323c0.311,0,0.572,0.262,0.572,0.578v1.848c0,0.406-0.146,0.553-0.572,0.607
			c-0.932,0.146-2.812,0.402-6.248,0.402c-4.809,0-7.348,0.033-7.348-5.924v-9.147c0-5.956,2.539-5.922,7.348-5.922
			c3.438,0,5.316,0.261,6.248,0.404c0.428,0.056,0.572,0.203,0.572,0.608v1.847c0,0.316-0.263,0.582-0.572,0.582h-7.323
			c-2.19,0-2.28,0.064-2.28,2.481v2.652h9.253c0.32,0,0.572,0.262,0.572,0.575v2.086c0,0.314-0.252,0.578-0.572,0.578h-9.253V40.564
			z"/>
		<g>
			
				<linearGradient id="SVGID_1_" gradientUnits="userSpaceOnUse" x1="152.4355" y1="-235.1455" x2="134.803" y2="-245.3257" gradientTransform="matrix(0.9996 0.0286 0.0286 -0.9996 -88.8858 -208.2507)">
				<stop  offset="0" style="stop-color:#FF9100"/>
				<stop  offset="0.05" style="stop-color:#FF8D00"/>
				<stop  offset="0.2503" style="stop-color:#FF8300"/>
				<stop  offset="0.5" style="stop-color:#FF8000"/>
				<stop  offset="0.7497" style="stop-color:#FF8300"/>
				<stop  offset="0.95" style="stop-color:#FF8D00"/>
				<stop  offset="1" style="stop-color:#FF9100"/>
			</linearGradient>
			<path fill="url(#SVGID_1_)" d="M44.404,26.982c0.333,0.622,0.107,1.402-0.518,1.74c-0.632,0.339-1.408,0.099-1.747-0.526
				c-0.342-0.621-0.106-1.403,0.517-1.739C43.283,26.117,44.069,26.352,44.404,26.982z M38.047,37.045
				c-0.363,0.202-0.501,0.664-0.302,1.029c0.201,0.373,0.662,0.502,1.023,0.298c0.368-0.188,0.517-0.656,0.309-1.021
				C38.872,36.986,38.422,36.848,38.047,37.045z M37.919,33.952c-0.424,0.227-0.581,0.765-0.354,1.188
				c0.237,0.435,0.77,0.592,1.2,0.362c0.425-0.233,0.587-0.776,0.358-1.198C38.889,33.874,38.356,33.714,37.919,33.952z
				 M38.722,30.974c-0.49,0.265-0.671,0.879-0.415,1.366c0.27,0.487,0.881,0.675,1.369,0.409c0.492-0.262,0.679-0.877,0.414-1.369
				C39.817,30.894,39.21,30.712,38.722,30.974z M40.359,28.399c-0.559,0.305-0.765,0.983-0.463,1.545
				c0.299,0.546,0.979,0.754,1.53,0.457c0.562-0.297,0.766-0.991,0.468-1.535C41.601,28.314,40.907,28.097,40.359,28.399z
				 M39.105,39.977c-0.31,0.162-0.42,0.545-0.256,0.859c0.167,0.303,0.544,0.418,0.859,0.257c0.303-0.174,0.419-0.555,0.251-0.862
				C39.792,39.93,39.408,39.811,39.105,39.977z M53.731,29.439c0.197,0.366,0.655,0.501,1.033,0.313
				c0.365-0.208,0.507-0.666,0.308-1.034c-0.204-0.368-0.66-0.509-1.025-0.306C53.67,28.618,53.536,29.075,53.731,29.439z
				 M51.163,27.804c0.231,0.429,0.778,0.585,1.193,0.353c0.438-0.233,0.596-0.767,0.361-1.195c-0.226-0.43-0.769-0.588-1.189-0.363
				C51.096,26.837,50.932,27.38,51.163,27.804z M48.193,27.009c0.259,0.489,0.87,0.672,1.357,0.404
				c0.5-0.268,0.675-0.875,0.415-1.366c-0.259-0.488-0.873-0.675-1.364-0.403C48.107,25.906,47.933,26.515,48.193,27.009z
				 M45.093,27.131c0.294,0.56,0.989,0.758,1.541,0.467c0.55-0.302,0.751-0.988,0.457-1.544c-0.292-0.548-0.989-0.759-1.541-0.457
				C44.998,25.893,44.803,26.585,45.093,27.131z M55.662,31.755c0.163,0.308,0.547,0.418,0.846,0.254
				c0.31-0.164,0.424-0.541,0.257-0.848c-0.167-0.312-0.543-0.426-0.857-0.269C55.614,31.063,55.491,31.456,55.662,31.755z
				 M53.48,43.792c-0.339-0.629-1.119-0.873-1.75-0.522c-0.622,0.332-0.862,1.112-0.515,1.739c0.339,0.623,1.12,0.851,1.747,0.522
				C53.583,45.188,53.814,44.402,53.48,43.792z M41.881,42.545c-0.194-0.363-0.655-0.496-1.022-0.305
				c-0.368,0.191-0.505,0.658-0.308,1.021c0.194,0.371,0.653,0.507,1.023,0.304C41.939,43.375,42.078,42.915,41.881,42.545z
				 M44.454,44.18c-0.237-0.424-0.771-0.589-1.193-0.354c-0.438,0.238-0.593,0.768-0.357,1.193c0.222,0.432,0.762,0.596,1.19,0.363
				C44.524,45.145,44.684,44.604,44.454,44.18z M47.43,44.977c-0.259-0.488-0.878-0.662-1.375-0.408
				c-0.492,0.266-0.666,0.882-0.407,1.367c0.269,0.494,0.881,0.676,1.37,0.414C47.516,46.09,47.696,45.471,47.43,44.977z
				 M50.526,44.852c-0.3-0.551-0.984-0.754-1.542-0.459c-0.555,0.293-0.747,0.979-0.446,1.539c0.288,0.545,0.974,0.764,1.528,0.453
				C50.623,46.096,50.82,45.4,50.526,44.852z M57.559,34.95c0.372-0.214,0.514-0.676,0.32-1.038
				c-0.202-0.37-0.664-0.503-1.024-0.305c-0.374,0.195-0.514,0.662-0.31,1.029C56.736,35.001,57.204,35.138,57.559,34.95z
				 M57.701,38.038c0.429-0.233,0.583-0.771,0.35-1.197c-0.228-0.43-0.76-0.585-1.191-0.357c-0.432,0.237-0.584,0.766-0.362,1.204
				C56.725,38.109,57.277,38.266,57.701,38.038z M56.892,41.014c0.501-0.271,0.676-0.875,0.42-1.371
				c-0.267-0.485-0.875-0.676-1.37-0.408c-0.493,0.26-0.672,0.886-0.413,1.375C55.8,41.092,56.411,41.275,56.892,41.014z
				 M55.266,43.577c0.551-0.285,0.754-0.986,0.457-1.533c-0.304-0.549-0.988-0.762-1.536-0.459c-0.555,0.3-0.755,0.99-0.458,1.538
				C54.019,43.676,54.709,43.882,55.266,43.577z"/>
			
				<linearGradient id="SVGID_2_" gradientUnits="userSpaceOnUse" x1="150.2061" y1="-174.8262" x2="122.79" y2="-174.8262" gradientTransform="matrix(0.9595 0.2818 0.2818 -0.9595 -33.8991 -170.2108)">
				<stop  offset="0" style="stop-color:#FF9100"/>
				<stop  offset="0.05" style="stop-color:#FF8D00"/>
				<stop  offset="0.2503" style="stop-color:#FF8300"/>
				<stop  offset="0.5" style="stop-color:#FF8000"/>
				<stop  offset="0.7497" style="stop-color:#FF8300"/>
				<stop  offset="0.95" style="stop-color:#FF8D00"/>
				<stop  offset="1" style="stop-color:#FF9100"/>
			</linearGradient>
			<path fill="url(#SVGID_2_)" d="M53.086,23.909c-0.256,0.872-1.175,1.373-2.052,1.111c-0.89-0.261-1.377-1.175-1.122-2.056
				c0.253-0.875,1.171-1.381,2.055-1.126C52.849,22.098,53.353,23.021,53.086,23.909z M37.221,27.816
				c-0.434-0.117-0.888,0.124-1.016,0.558c-0.128,0.429,0.123,0.884,0.555,1.008c0.432,0.127,0.882-0.118,1.013-0.55
				C37.907,28.402,37.651,27.95,37.221,27.816z M40.091,24.659c-0.539-0.159-1.094,0.153-1.249,0.685
				c-0.157,0.538,0.145,1.094,0.683,1.252c0.533,0.157,1.095-0.153,1.253-0.684C40.934,25.379,40.626,24.819,40.091,24.659z
				 M43.77,22.433c-0.684-0.196-1.392,0.193-1.595,0.867c-0.198,0.679,0.195,1.39,0.874,1.591c0.677,0.2,1.393-0.183,1.59-0.867
				C44.831,23.347,44.441,22.634,43.77,22.433z M47.844,21.522c-0.773-0.23-1.563,0.212-1.792,0.975
				c-0.227,0.765,0.207,1.561,0.974,1.79c0.765,0.226,1.562-0.216,1.789-0.973C49.044,22.549,48.606,21.744,47.844,21.522z
				 M35.406,31.725c-0.322-0.095-0.661,0.09-0.752,0.411c-0.095,0.326,0.084,0.669,0.409,0.764c0.327,0.094,0.664-0.095,0.759-0.418
				C35.916,32.159,35.734,31.821,35.406,31.725z M60.122,35.398c-0.129,0.429,0.117,0.889,0.556,1.014
				c0.434,0.129,0.885-0.121,1.013-0.556c0.125-0.427-0.117-0.882-0.553-1.012C60.705,34.72,60.243,34.967,60.122,35.398z
				 M59.178,31.313c-0.165,0.542,0.153,1.102,0.685,1.257c0.539,0.159,1.095-0.149,1.252-0.685c0.157-0.536-0.146-1.095-0.681-1.249
				C59.899,30.477,59.331,30.783,59.178,31.313z M56.953,27.638c-0.202,0.688,0.19,1.395,0.867,1.594
				c0.681,0.2,1.389-0.194,1.591-0.873c0.203-0.674-0.185-1.385-0.869-1.584C57.868,26.575,57.159,26.965,56.953,27.638z
				 M53.822,24.784c-0.227,0.762,0.214,1.563,0.978,1.789c0.766,0.225,1.565-0.22,1.789-0.982c0.228-0.76-0.208-1.563-0.973-1.788
				C54.846,23.576,54.049,24.021,53.822,24.784z M59.791,39.521c-0.089,0.322,0.091,0.666,0.41,0.758
				c0.329,0.097,0.664-0.088,0.757-0.415c0.099-0.321-0.086-0.663-0.412-0.759C60.229,39.016,59.885,39.199,59.791,39.521z
				 M45.705,49.04c0.257-0.88-0.239-1.804-1.125-2.062c-0.881-0.256-1.802,0.244-2.055,1.123c-0.253,0.887,0.239,1.799,1.125,2.061
				C44.528,50.415,45.455,49.91,45.705,49.04z M35.491,36.602c0.129-0.43-0.116-0.883-0.551-1.015
				c-0.432-0.128-0.884,0.126-1.019,0.557c-0.131,0.43,0.125,0.879,0.557,1.008C34.908,37.281,35.361,37.038,35.491,36.602z
				 M36.438,40.686c0.158-0.535-0.15-1.096-0.681-1.244c-0.542-0.162-1.102,0.144-1.251,0.68c-0.149,0.533,0.14,1.097,0.683,1.253
				C35.716,41.535,36.28,41.223,36.438,40.686z M38.665,44.364c0.199-0.677-0.195-1.396-0.875-1.599
				c-0.68-0.199-1.383,0.194-1.588,0.875c-0.201,0.678,0.184,1.387,0.867,1.59C37.755,45.434,38.46,45.044,38.665,44.364z
				 M41.796,47.223c0.221-0.758-0.215-1.565-0.983-1.789c-0.766-0.225-1.559,0.213-1.783,0.982
				c-0.223,0.756,0.207,1.559,0.974,1.784C40.771,48.421,41.568,47.982,41.796,47.223z M58.389,44.182
				c0.44,0.127,0.895-0.121,1.021-0.553c0.125-0.43-0.122-0.889-0.554-1.018c-0.43-0.125-0.886,0.121-1.015,0.555
				C57.715,43.602,57.963,44.059,58.389,44.182z M55.524,47.343c0.532,0.158,1.092-0.149,1.248-0.679
				c0.162-0.541-0.145-1.102-0.677-1.257c-0.538-0.161-1.099,0.151-1.259,0.683C54.682,46.621,54.993,47.184,55.524,47.343z
				 M51.846,49.568c0.686,0.201,1.392-0.186,1.594-0.869c0.198-0.672-0.185-1.385-0.869-1.586c-0.68-0.205-1.398,0.188-1.595,0.865
				C50.778,48.66,51.171,49.371,51.846,49.568z M47.776,50.477c0.766,0.231,1.569-0.207,1.787-0.968
				c0.221-0.768-0.208-1.567-0.973-1.792c-0.769-0.226-1.568,0.213-1.794,0.979C46.574,49.454,47.012,50.25,47.776,50.477z"/>
			
				<linearGradient id="SVGID_3_" gradientUnits="userSpaceOnUse" x1="142.0195" y1="-204.3867" x2="110.9961" y2="-185.2156" gradientTransform="matrix(0.9732 0.2298 0.2298 -0.9732 -30.5441 -182.6584)">
				<stop  offset="0" style="stop-color:#FF9100"/>
				<stop  offset="0.05" style="stop-color:#FF8D00"/>
				<stop  offset="0.2503" style="stop-color:#FF8300"/>
				<stop  offset="0.5" style="stop-color:#FF8000"/>
				<stop  offset="0.7497" style="stop-color:#FF8300"/>
				<stop  offset="0.95" style="stop-color:#FF8D00"/>
				<stop  offset="1" style="stop-color:#FF9100"/>
			</linearGradient>
			<path fill="url(#SVGID_3_)" d="M61.323,24.75c-0.802,0.848-2.15,0.892-3.004,0.082c-0.859-0.809-0.893-2.152-0.083-3.004
				c0.801-0.854,2.143-0.899,3.002-0.093C62.09,22.542,62.13,23.886,61.323,24.75z M40.134,19.918
				c-0.425-0.396-1.088-0.376-1.484,0.043c-0.395,0.422-0.376,1.079,0.042,1.48c0.425,0.395,1.087,0.377,1.484-0.044
				C40.573,20.979,40.551,20.313,40.134,19.918z M45.446,17.897c-0.525-0.49-1.34-0.459-1.828,0.056
				c-0.49,0.523-0.467,1.337,0.056,1.832c0.516,0.487,1.337,0.46,1.829-0.058C45.989,19.209,45.966,18.386,45.446,17.897z
				 M51.145,17.481c-0.661-0.624-1.7-0.586-2.324,0.067c-0.619,0.661-0.59,1.702,0.073,2.325c0.66,0.624,1.703,0.592,2.32-0.067
				C51.838,19.141,51.803,18.106,51.145,17.481z M56.536,18.86c-0.754-0.708-1.915-0.665-2.614,0.076
				c-0.7,0.742-0.67,1.907,0.073,2.613c0.743,0.701,1.92,0.665,2.616-0.076C57.309,20.732,57.279,19.559,56.536,18.86z
				 M35.63,23.457c-0.321-0.293-0.812-0.279-1.104,0.033c-0.298,0.315-0.284,0.807,0.03,1.104c0.32,0.3,0.812,0.283,1.104-0.031
				C35.956,24.246,35.943,23.754,35.63,23.457z M62.836,42.74c-0.397,0.419-0.378,1.085,0.043,1.484
				c0.426,0.396,1.089,0.375,1.486-0.05c0.394-0.419,0.377-1.084-0.044-1.483C63.896,42.299,63.233,42.318,62.836,42.74z
				 M64.18,37.326c-0.486,0.52-0.458,1.339,0.06,1.826c0.526,0.494,1.337,0.466,1.83-0.055c0.489-0.52,0.47-1.337-0.058-1.828
				C65.496,36.782,64.672,36.807,64.18,37.326z M63.768,31.624c-0.625,0.66-0.593,1.701,0.071,2.323
				c0.66,0.626,1.702,0.589,2.323-0.071c0.626-0.656,0.592-1.699-0.07-2.322C65.429,30.933,64.389,30.962,63.768,31.624z
				 M61.777,26.34c-0.7,0.742-0.668,1.913,0.079,2.613c0.746,0.703,1.916,0.66,2.612-0.078c0.704-0.747,0.669-1.91-0.079-2.616
				C63.652,25.559,62.48,25.599,61.777,26.34z M59.949,47.438c-0.294,0.313-0.278,0.811,0.035,1.104
				c0.317,0.292,0.808,0.28,1.102-0.04c0.297-0.311,0.287-0.805-0.034-1.098C60.745,47.105,60.244,47.12,59.949,47.438z
				 M37.382,50.169c0.806-0.856,0.765-2.196-0.089-3.01c-0.86-0.806-2.203-0.763-3.006,0.091c-0.802,0.864-0.765,2.195,0.093,3.008
				C35.232,51.063,36.581,51.025,37.382,50.169z M32.779,29.257c0.39-0.42,0.375-1.083-0.047-1.479
				c-0.421-0.4-1.082-0.375-1.48,0.039c-0.402,0.419-0.378,1.081,0.047,1.481C31.716,29.691,32.378,29.676,32.779,29.257z
				 M31.43,34.674c0.49-0.518,0.461-1.344-0.054-1.832c-0.527-0.494-1.347-0.466-1.833,0.057c-0.482,0.524-0.468,1.333,0.055,1.826
				C30.116,35.217,30.939,35.188,31.43,34.674z M31.845,40.373c0.624-0.657,0.593-1.701-0.069-2.329
				c-0.662-0.626-1.699-0.586-2.326,0.071c-0.619,0.656-0.59,1.703,0.072,2.324C30.185,41.066,31.224,41.033,31.845,40.373z
				 M33.832,45.659c0.7-0.742,0.666-1.918-0.076-2.614c-0.746-0.709-1.914-0.656-2.609,0.08c-0.701,0.736-0.676,1.907,0.07,2.613
				C31.966,46.436,33.138,46.396,33.832,45.659z M55.479,52.079c0.425,0.397,1.088,0.378,1.482-0.045
				c0.397-0.417,0.378-1.079-0.045-1.479c-0.42-0.397-1.083-0.379-1.48,0.043C55.039,51.021,55.059,51.686,55.479,52.079z
				 M50.167,54.098c0.522,0.492,1.34,0.461,1.83-0.058c0.489-0.515,0.471-1.336-0.053-1.825c-0.523-0.49-1.342-0.465-1.834,0.057
				C49.623,52.786,49.647,53.607,50.167,54.098z M44.464,54.509c0.668,0.63,1.701,0.599,2.323-0.063
				c0.624-0.658,0.597-1.702-0.065-2.321c-0.661-0.628-1.707-0.59-2.329,0.063C43.772,52.85,43.802,53.895,44.464,54.509z
				 M39.084,53.137c0.743,0.703,1.916,0.665,2.609-0.076c0.698-0.746,0.672-1.914-0.078-2.613c-0.745-0.7-1.917-0.663-2.614,0.082
				C38.304,51.262,38.337,52.436,39.084,53.137z"/>
			
				<linearGradient id="SVGID_4_" gradientUnits="userSpaceOnUse" x1="188.9814" y1="-231.1787" x2="164.9312" y2="-189.5224" gradientTransform="matrix(0.9932 0.1161 0.1161 -0.9932 -103.5263 -193.4636)">
				<stop  offset="0" style="stop-color:#FF9100"/>
				<stop  offset="0.05" style="stop-color:#FF8D00"/>
				<stop  offset="0.2503" style="stop-color:#FF8300"/>
				<stop  offset="0.5" style="stop-color:#FF8000"/>
				<stop  offset="0.7497" style="stop-color:#FF8300"/>
				<stop  offset="0.95" style="stop-color:#FF8D00"/>
				<stop  offset="1" style="stop-color:#FF9100"/>
			</linearGradient>
			<path fill="url(#SVGID_4_)" d="M69.958,29.252c-1.306,0.563-2.821-0.041-3.386-1.349c-0.565-1.313,0.04-2.819,1.349-3.385
				c1.304-0.561,2.817,0.034,3.382,1.347C71.868,27.17,71.263,28.688,69.958,29.252z M51.872,12.858
				c-0.155-0.778-0.902-1.27-1.671-1.116c-0.772,0.153-1.272,0.896-1.116,1.671c0.154,0.768,0.902,1.269,1.673,1.114
				C51.527,14.373,52.025,13.625,51.872,12.858z M57.973,14.185c-0.237-0.927-1.177-1.478-2.094-1.242
				c-0.921,0.234-1.481,1.167-1.243,2.094c0.235,0.92,1.176,1.48,2.096,1.241C57.65,16.044,58.208,15.104,57.973,14.185z
				 M63.598,16.899c-0.355-1.136-1.557-1.765-2.687-1.408c-1.129,0.351-1.767,1.552-1.411,2.688
				c0.353,1.131,1.561,1.762,2.689,1.409C63.321,19.235,63.95,18.029,63.598,16.899z M68.085,20.898
				c-0.457-1.233-1.819-1.851-3.041-1.397c-1.227,0.453-1.857,1.809-1.399,3.041c0.455,1.228,1.817,1.854,3.039,1.401
				C67.91,23.49,68.539,22.125,68.085,20.898z M39.642,14.457c-0.227-0.528-0.836-0.765-1.361-0.539
				c-0.525,0.224-0.769,0.832-0.541,1.36c0.226,0.522,0.836,0.762,1.359,0.537C39.624,15.589,39.868,14.98,39.642,14.457z
				 M65.448,48.589c-0.642,0.455-0.792,1.343-0.339,1.981c0.457,0.645,1.342,0.793,1.985,0.34c0.639-0.453,0.792-1.338,0.334-1.983
				C66.976,48.288,66.088,48.134,65.448,48.589z M68.275,43.044c-0.804,0.511-1.045,1.574-0.536,2.376
				c0.51,0.807,1.573,1.042,2.376,0.534c0.802-0.509,1.045-1.567,0.534-2.377C70.14,42.775,69.076,42.537,68.275,43.044z
				 M69.612,36.803c-1.03,0.578-1.402,1.889-0.821,2.926c0.584,1.037,1.892,1.396,2.922,0.815c1.036-0.58,1.404-1.884,0.821-2.921
				C71.953,36.589,70.648,36.221,69.612,36.803z M69.531,30.545c-1.167,0.578-1.649,1.999-1.07,3.168
				c0.585,1.182,2.001,1.651,3.173,1.07c1.169-0.576,1.654-1.99,1.07-3.169C72.125,30.445,70.701,29.964,69.531,30.545z
				 M56.51,56.186c-0.524,0.228-0.767,0.834-0.541,1.357c0.229,0.529,0.835,0.768,1.359,0.541c0.525-0.227,0.77-0.833,0.543-1.359
				C57.645,56.201,57.035,55.959,56.51,56.186z M27.69,47.48c1.304-0.563,1.905-2.08,1.341-3.389
				c-0.564-1.309-2.077-1.904-3.38-1.343c-1.305,0.562-1.915,2.071-1.348,3.385C24.866,47.441,26.388,48.043,27.69,47.48z
				 M30.16,23.411c0.64-0.455,0.793-1.342,0.339-1.979c-0.458-0.647-1.34-0.792-1.98-0.34c-0.642,0.456-0.798,1.337-0.339,1.983
				C28.634,23.713,29.521,23.864,30.16,23.411z M27.335,28.956c0.806-0.507,1.043-1.575,0.535-2.38
				c-0.51-0.807-1.572-1.039-2.377-0.532c-0.801,0.511-1.044,1.568-0.531,2.375C25.468,29.224,26.533,29.463,27.335,28.956z
				 M25.994,35.198c1.034-0.579,1.402-1.891,0.821-2.923c-0.583-1.037-1.891-1.4-2.924-0.818c-1.035,0.579-1.403,1.884-0.82,2.921
				C23.652,35.409,24.959,35.779,25.994,35.198z M26.077,41.457c1.171-0.58,1.65-2.001,1.069-3.173
				c-0.583-1.181-1.999-1.652-3.174-1.069c-1.166,0.577-1.654,1.992-1.071,3.17C23.482,41.559,24.906,42.036,26.077,41.457z
				 M43.736,59.146c0.155,0.772,0.905,1.271,1.675,1.117c0.768-0.156,1.269-0.904,1.114-1.678c-0.154-0.768-0.904-1.268-1.674-1.113
				C44.082,57.627,43.582,58.379,43.736,59.146z M37.638,57.814c0.235,0.928,1.172,1.479,2.093,1.244
				c0.923-0.236,1.481-1.168,1.245-2.095c-0.235-0.921-1.175-1.478-2.097-1.241C37.96,55.959,37.404,56.893,37.638,57.814z
				 M32.011,55.1c0.354,1.141,1.554,1.765,2.686,1.408c1.132-0.351,1.767-1.549,1.413-2.686c-0.353-1.131-1.56-1.762-2.691-1.409
				C32.287,52.764,31.656,53.967,32.011,55.1z M27.523,51.1c0.457,1.236,1.82,1.853,3.041,1.396c1.23-0.454,1.858-1.809,1.401-3.042
				c-0.455-1.226-1.816-1.853-3.042-1.396C27.698,48.512,27.068,49.878,27.523,51.1z M61.388,53.186
				c-0.477,0.381-0.562,1.08-0.181,1.56c0.381,0.483,1.08,0.56,1.56,0.181c0.482-0.38,0.564-1.074,0.185-1.56
				C62.571,52.886,61.873,52.805,61.388,53.186z M50.976,57.673c-0.604,0.091-1.025,0.655-0.936,1.263
				c0.089,0.609,0.655,1.025,1.259,0.938c0.607-0.091,1.03-0.65,0.94-1.26C52.152,58.004,51.587,57.586,50.976,57.673z
				 M45.572,13.066c-0.089-0.608-0.654-1.026-1.264-0.936c-0.604,0.089-1.026,0.648-0.938,1.258c0.09,0.61,0.654,1.025,1.261,0.938
				C45.238,14.236,45.66,13.675,45.572,13.066z M34.403,17.255c-0.383-0.484-1.078-0.559-1.563-0.182
				c-0.478,0.382-0.563,1.076-0.182,1.56c0.382,0.483,1.081,0.562,1.56,0.184C34.7,18.434,34.785,17.738,34.403,17.255z"/>
			
				<linearGradient id="SVGID_5_" gradientUnits="userSpaceOnUse" x1="213.8027" y1="-263.8003" x2="213.8027" y2="-202.1982" gradientTransform="matrix(1 0 0 -1 -166 -197)">
				<stop  offset="0" style="stop-color:#FF9100"/>
				<stop  offset="0.05" style="stop-color:#FF8D00"/>
				<stop  offset="0.2503" style="stop-color:#FF8300"/>
				<stop  offset="0.5" style="stop-color:#FF8000"/>
				<stop  offset="0.7497" style="stop-color:#FF8300"/>
				<stop  offset="0.95" style="stop-color:#FF8D00"/>
				<stop  offset="1" style="stop-color:#FF9100"/>
			</linearGradient>
			<path fill="url(#SVGID_5_)" d="M77.279,39.299c-1.82,0-3.295-1.479-3.295-3.303c0-1.83,1.476-3.294,3.3-3.294
				c1.819,0,3.297,1.465,3.297,3.299C80.581,37.82,79.103,39.299,77.279,39.299z M64.327,10.844c0.211-0.99-0.419-1.949-1.401-2.158
				c-0.986-0.21-1.951,0.41-2.161,1.397c-0.208,0.985,0.418,1.951,1.403,2.161C63.151,12.454,64.118,11.826,64.327,10.844z
				 M70.828,15.499c0.192-1.21-0.633-2.331-1.832-2.522c-1.204-0.19-2.333,0.623-2.526,1.833c-0.191,1.203,0.631,2.336,1.834,2.526
				C69.504,17.526,70.638,16.702,70.828,15.499z M76.066,21.547c0.159-1.517-0.936-2.864-2.446-3.024
				c-1.506-0.158-2.864,0.932-3.024,2.449c-0.159,1.509,0.943,2.864,2.448,3.022C74.556,24.154,75.907,23.056,76.066,21.547z
				 M79.313,28.525c0.089-1.682-1.201-3.098-2.868-3.185c-1.671-0.089-3.099,1.185-3.187,2.867
				c-0.087,1.674,1.198,3.101,2.864,3.188C77.796,31.483,79.226,30.198,79.313,28.525z M49.131,6.521
				c0-0.735-0.595-1.323-1.328-1.323c-0.729,0-1.324,0.587-1.324,1.323c0,0.733,0.595,1.324,1.324,1.324
				C48.536,7.845,49.131,7.254,49.131,6.521z M62.168,59.753c-0.985,0.21-1.613,1.179-1.403,2.16
				c0.21,0.987,1.176,1.614,2.162,1.403c0.981-0.209,1.611-1.172,1.401-2.164C64.118,60.174,63.151,59.545,62.168,59.753z
				 M68.305,54.666c-1.204,0.189-2.027,1.32-1.835,2.523c0.191,1.209,1.322,2.021,2.525,1.832c1.199-0.191,2.023-1.313,1.832-2.523
				C70.637,55.295,69.505,54.479,68.305,54.666z M73.044,48.004c-1.507,0.158-2.607,1.514-2.448,3.021
				c0.16,1.518,1.517,2.604,3.023,2.447c1.511-0.16,2.606-1.506,2.447-3.021C75.906,48.939,74.554,47.846,73.044,48.004z
				 M76.123,40.604c-1.666,0.088-2.952,1.516-2.864,3.186c0.088,1.684,1.514,2.954,3.187,2.867c1.667-0.088,2.955-1.502,2.868-3.186
				C79.226,41.801,77.795,40.518,76.123,40.604z M47.803,64.154c-0.729,0-1.324,0.591-1.324,1.324s0.595,1.322,1.324,1.322
				c0.733,0,1.328-0.589,1.328-1.324C49.131,64.745,48.536,64.154,47.803,64.154z M18.327,39.299c1.816,0,3.293-1.479,3.293-3.303
				c0-1.83-1.477-3.294-3.293-3.294c-1.817,0-3.302,1.465-3.302,3.299C15.025,37.82,16.51,39.299,18.327,39.299z M33.439,12.245
				c0.984-0.21,1.613-1.176,1.403-2.161c-0.209-0.988-1.175-1.608-2.16-1.399c-0.982,0.21-1.613,1.169-1.403,2.159
				C31.489,11.826,32.457,12.454,33.439,12.245z M27.304,17.334c1.205-0.19,2.026-1.323,1.835-2.527
				c-0.191-1.208-1.321-2.022-2.526-1.832c-1.201,0.19-2.022,1.313-1.831,2.522C24.973,16.701,26.103,17.525,27.304,17.334z
				 M22.562,23.994c1.509-0.159,2.608-1.513,2.448-3.021c-0.159-1.518-1.514-2.608-3.022-2.449c-1.513,0.16-2.607,1.507-2.446,3.024
				C19.699,23.056,21.049,24.154,22.562,23.994z M19.483,31.396c1.671-0.087,2.955-1.514,2.868-3.188
				c-0.087-1.682-1.514-2.956-3.191-2.868c-1.665,0.088-2.957,1.503-2.868,3.186C16.38,30.198,17.812,31.483,19.483,31.396z
				 M31.281,61.154c-0.211,0.99,0.419,1.953,1.4,2.164c0.984,0.209,1.951-0.418,2.162-1.405c0.209-0.981-0.419-1.95-1.403-2.16
				C32.458,59.545,31.489,60.174,31.281,61.154z M24.784,56.498c-0.192,1.21,0.629,2.333,1.831,2.523
				c1.204,0.189,2.333-0.623,2.526-1.832c0.19-1.203-0.632-2.332-1.836-2.522C26.104,54.479,24.974,55.297,24.784,56.498z
				 M19.542,50.451c-0.161,1.518,0.933,2.859,2.445,3.021c1.509,0.156,2.864-0.931,3.022-2.447c0.16-1.51-0.939-2.863-2.448-3.021
				C21.05,47.846,19.7,48.941,19.542,50.451z M16.293,43.471c-0.087,1.684,1.203,3.1,2.868,3.186
				c1.677,0.088,3.104-1.186,3.192-2.867c0.087-1.67-1.198-3.098-2.868-3.186C17.813,40.518,16.38,41.801,16.293,43.471z
				 M55.064,63.1c-0.757,0.203-1.209,0.983-1.007,1.743c0.205,0.761,0.987,1.206,1.743,1.003c0.761-0.203,1.213-0.979,1.01-1.74
				C56.607,63.346,55.824,62.896,55.064,63.1z M40.542,63.1c-0.756-0.201-1.538,0.246-1.743,1.008
				c-0.202,0.761,0.25,1.535,1.007,1.738c0.761,0.203,1.542-0.242,1.746-1.005C41.754,64.083,41.302,63.303,40.542,63.1z
				 M56.811,7.895c0.204-0.761-0.25-1.537-1.01-1.741c-0.758-0.202-1.537,0.242-1.741,1.003c-0.204,0.762,0.249,1.54,1.006,1.743
				C55.825,9.104,56.607,8.655,56.811,7.895z M41.551,7.156c-0.205-0.761-0.985-1.206-1.746-1.002
				c-0.757,0.203-1.211,0.979-1.007,1.739c0.204,0.762,0.987,1.21,1.743,1.008C41.302,8.696,41.754,7.918,41.551,7.156z"/>
		</g>
	</g>
</g>
</svg>
