<?xml version="1.0" encoding="utf-8"?>
<!-- Generator: Adobe Illustrator 16.0.0, SVG Export Plug-In . SVG Version: 6.00 Build 0)  -->
<!DOCTYPE svg PUBLIC "-//W3C//DTD SVG 1.1//EN" "http://www.w3.org/Graphics/SVG/1.1/DTD/svg11.dtd">
<svg version="1.1" id="Layer_1" xmlns="http://www.w3.org/2000/svg" xmlns:xlink="http://www.w3.org/1999/xlink" x="0px" y="0px"
	 width="520px" height="72px" viewBox="0 0 520 72" enable-background="new 0 0 520 72" xml:space="preserve">
<polyline fill="#FFFFFF" points="23.44,44.759 35.871,44.759 35.871,49.362 18.066,49.362 18.066,22.599 23.44,22.603 "/>
<path fill="#ED1D24" d="M232.43,36.016c0-11.588,4.678-13.782,11.992-13.782c4.387,0,6.4,0.548,7.643,0.806l-0.914,4.566
	c-1.979-0.324-3.949-0.652-6.803-0.652c-4.68,0-6.285,1.897-6.285,8.004v1.977c0,5.961,1.641,8.221,6.359,8.221
	c3.512,0,5.957-0.615,6.764-0.764l0.879,4.494c-1.43,0.408-3.441,0.881-7.717,0.881C236.965,49.766,232.43,47.607,232.43,36.016"/>
<path fill="#ED1D24" d="M268.182,29.694c0,0-3.906,10.524-3.945,10.524h7.861L268.182,29.694z M260.84,49.398h-5.379l10.387-26.944
	h4.934l10.383,26.944H275.5l-1.791-4.824h-11.08L260.84,49.398"/>
<polygon fill="#ED1D24" points="284.903,22.635 290.235,22.635 302.014,39.678 302.014,22.635 307.167,22.635 307.167,49.398 
	302.561,49.398 290.057,31.227 290.057,49.398 284.903,49.398 "/>
<path fill="#ED1D24" d="M323.622,29.694c0,0-3.908,10.524-3.943,10.524h7.861L323.622,29.694z M316.278,49.398h-5.377l10.385-26.944
	h4.934l10.383,26.944h-5.664l-1.793-4.824h-11.078L316.278,49.398"/>
<path fill="#ED1D24" d="M350.323,45.123c4.678,0,6.471-2.084,6.471-8.229v-1.754c0-6.182-1.793-8.12-6.471-8.12h-4.607v18.103
	H350.323z M340.34,22.635h10.018c7.93,0,12.104,1.863,12.104,13.381c0,11.52-4.174,13.383-12.104,13.383H340.34V22.635"/>
<rect x="367.364" y="22.635" fill="#ED1D24" width="5.41" height="26.764"/>
<path fill="#FFFFFF" d="M52.529,29.748c0,0-3.909,10.524-3.943,10.524h7.859L52.529,29.748z M45.185,49.452H39.81l10.385-26.944
	h4.931L65.51,49.452h-5.664l-1.789-4.824H46.978L45.185,49.452"/>
<polygon fill="#ED1D24" points="401.313,22.544 406.645,22.544 418.422,39.587 418.422,22.544 423.579,22.544 423.579,49.308 
	418.973,49.308 406.465,31.136 406.465,49.308 401.313,49.308 "/>
<polygon fill="#ED1D24" points="428.647,22.638 433.979,22.638 445.756,39.681 445.756,22.638 450.913,22.638 450.913,49.401 
	446.307,49.401 433.799,31.229 433.799,49.401 428.647,49.401 "/>
<path fill="#FFFFFF" d="M88.775,36.875c2.41,0,4.498-0.367,4.498-4.936c0-4.572-2.156-4.897-4.574-4.897h-5.633v9.833H88.775z
	 M77.732,22.615h11.043c6.615,0,9.873,1.756,9.873,9.248c0,7.537-3.365,9.361-9.949,9.361h-5.633v8.154h-5.334V22.615"/>
<path fill="#FFFFFF" d="M114.375,36.508c2.887,0,4.492-0.658,4.492-4.754c0-4.129-1.791-4.712-4.566-4.712h-5.266v9.466H114.375z
	 M125.998,49.379h-6.141l-5.74-8.518h-5.082v8.518h-5.34V22.615h10.68c6.617,0,9.871,1.573,9.871,9.072
	c0,5.227-1.646,7.238-4.754,8.006L125.998,49.379"/>
<polygon fill="#FFFFFF" points="129.794,22.615 147.595,22.615 147.595,27.332 135.171,27.332 135.171,33.293 144.964,33.293 
	144.964,38.012 135.171,38.012 135.171,44.775 147.595,44.775 147.595,49.379 129.794,49.379 "/>
<polygon fill="#ED1D24" points="378.614,22.635 396.415,22.635 396.415,27.352 383.991,27.352 383.991,33.313 393.784,33.313 
	393.784,38.031 383.991,38.031 383.991,44.795 396.415,44.795 396.415,49.398 378.614,49.398 "/>
<polygon fill="#ED1D24" points="455.948,22.638 473.747,22.638 473.747,27.354 461.325,27.354 461.325,33.315 471.118,33.315 
	471.118,38.034 461.325,38.034 461.325,44.798 473.747,44.798 473.747,49.401 455.948,49.401 "/>
<polygon fill="#FFFFFF" points="201.83,22.618 219.63,22.618 219.63,27.335 207.207,27.335 207.207,33.296 217,33.296 217,38.015 
	207.207,38.015 207.207,44.778 219.63,44.778 219.63,49.382 201.83,49.382 "/>
<path fill="#FFFFFF" d="M152.619,48.609l0.838-4.496c1.1,0.258,5.967,0.99,8.525,0.99c3.799,0,4.967-0.514,4.967-3.293
	c0-2.486-0.77-2.742-5.15-3.621c-7.314-1.461-9.107-2.594-9.107-8.406c0-5.595,3.588-7.492,9.693-7.492
	c3.254,0,7.748,0.545,8.918,0.91l-0.844,4.535c-1.678-0.262-5.041-0.771-8.119-0.771c-3.102,0-4.197,0.701-4.197,2.889
	c0,2.523,0.838,2.822,5.041,3.658c7.021,1.389,9.287,2.268,9.287,8.338c0,5.996-3.359,7.826-10.529,7.826
	C157.884,49.676,153.863,48.975,152.619,48.609"/>
<path fill="#FFFFFF" d="M176.679,48.609l0.842-4.496c1.102,0.258,5.957,0.99,8.514,0.99c3.811,0,4.977-0.514,4.977-3.293
	c0-2.486-0.766-2.742-5.152-3.621c-7.316-1.461-9.105-2.594-9.105-8.406c0-5.595,3.584-7.492,9.689-7.492
	c3.258,0,7.756,0.545,8.922,0.91l-0.848,4.535c-1.674-0.262-5.039-0.771-8.113-0.771c-3.107,0-4.203,0.701-4.203,2.889
	c0,2.523,0.842,2.822,5.045,3.658c7.02,1.389,9.287,2.268,9.287,8.338c0,5.996-3.365,7.826-10.529,7.826
	C181.943,49.676,177.925,48.975,176.679,48.609"/>
</svg>
