<?xml version="1.0" encoding="iso-8859-1"?>
<!-- Generator: Adobe Illustrator 16.0.0, SVG Export Plug-In . SVG Version: 6.00 Build 0)  -->
<!DOCTYPE svg PUBLIC "-//W3C//DTD SVG 1.1//EN" "http://www.w3.org/Graphics/SVG/1.1/DTD/svg11.dtd">
<svg version="1.1" xmlns="http://www.w3.org/2000/svg" xmlns:xlink="http://www.w3.org/1999/xlink" x="0px" y="0px" width="256px"
	 height="256px" viewBox="0 0 256 256" style="enable-background:new 0 0 256 256;" xml:space="preserve">
<g id="bg_light" style="display:none;">
	<rect style="display:inline;fill:#0079C1;" width="256" height="256"/>
</g>
<g id="guides" style="display:none;">
	<g style="display:inline;">
		<g>
			<g>
				<line style="fill:none;stroke:#FFFFFF;stroke-width:0.25;stroke-miterlimit:10;" x1="40.5" y1="0" x2="40.5" y2="2"/>
				
					<line style="fill:none;stroke:#FFFFFF;stroke-width:0.25;stroke-miterlimit:10;stroke-dasharray:4,4;" x1="40.5" y1="6" x2="40.5" y2="252"/>
				<line style="fill:none;stroke:#FFFFFF;stroke-width:0.25;stroke-miterlimit:10;" x1="40.5" y1="254" x2="40.5" y2="256"/>
			</g>
		</g>
		<g>
			<g>
				<line style="fill:none;stroke:#FFFFFF;stroke-width:0.25;stroke-miterlimit:10;" x1="215.5" y1="0" x2="215.5" y2="2"/>
				
					<line style="fill:none;stroke:#FFFFFF;stroke-width:0.25;stroke-miterlimit:10;stroke-dasharray:4,4;" x1="215.5" y1="6" x2="215.5" y2="252"/>
				<line style="fill:none;stroke:#FFFFFF;stroke-width:0.25;stroke-miterlimit:10;" x1="215.5" y1="254" x2="215.5" y2="256"/>
			</g>
		</g>
		<g>
			<g>
				<line style="fill:none;stroke:#FFFFFF;stroke-width:0.25;stroke-miterlimit:10;" x1="256" y1="40.5" x2="254" y2="40.5"/>
				
					<line style="fill:none;stroke:#FFFFFF;stroke-width:0.25;stroke-miterlimit:10;stroke-dasharray:4,4;" x1="250" y1="40.5" x2="4" y2="40.5"/>
				<line style="fill:none;stroke:#FFFFFF;stroke-width:0.25;stroke-miterlimit:10;" x1="2" y1="40.5" x2="0" y2="40.5"/>
			</g>
		</g>
		<g>
			<g>
				<line style="fill:none;stroke:#FFFFFF;stroke-width:0.25;stroke-miterlimit:10;" x1="256" y1="215.5" x2="254" y2="215.5"/>
				
					<line style="fill:none;stroke:#FFFFFF;stroke-width:0.25;stroke-miterlimit:10;stroke-dasharray:4,4;" x1="250" y1="215.5" x2="4" y2="215.5"/>
				<line style="fill:none;stroke:#FFFFFF;stroke-width:0.25;stroke-miterlimit:10;" x1="2" y1="215.5" x2="0" y2="215.5"/>
			</g>
		</g>
	</g>
</g>
<g id="border">
	<rect style="opacity:0;fill:none;stroke:#231F20;stroke-width:0.1;stroke-miterlimit:10;" width="256" height="256"/>
</g>
<g id="icons">
	<g>
		<g>
			<path style="fill:#FFFFFF;" d="M126.631,130.322l-12.668,46.024h16.946l0.087,37.822l37.305-58.845h-16.784l8.555-25.002H126.631
				z"/>
		</g>
		<g>
			<path style="fill:#D5D6DB;" d="M199.001,127.407c0.032-0.521,0.057-1.046,0.057-1.574c0-12.979-10.519-23.503-23.495-23.503
				c-4.161,0-8.067,1.09-11.454,2.986c-3.635-16.023-17.959-27.98-35.077-27.98c-19.864,0-35.967,16.104-35.967,35.97
				c0,0.207,0,0.417,0.006,0.623c-14.167,3.138-24.761,15.772-24.761,30.882c0,17.472,14.16,31.635,31.631,31.635h9.592
				l13.865-50.366h42.614l-8.556,24.999h18.564l-16.081,25.367h30.256c13.975,0,25.305-11.332,25.305-25.307
				C215.5,140.261,208.633,130.984,199.001,127.407z"/>
		</g>
		<g>
			<path style="fill:#F0C419;" d="M94.076,56.114c0.984,0,1.788-0.793,1.788-1.776v-10.72c0-0.985-0.804-1.787-1.788-1.787
				s-1.788,0.802-1.788,1.787v10.72C92.288,55.321,93.092,56.114,94.076,56.114z"/>
			<path style="fill:#F0C419;" d="M54.781,95.407c0-0.984-0.792-1.787-1.776-1.787h-10.72c-0.985,0-1.785,0.803-1.785,1.787
				s0.8,1.787,1.785,1.787h10.72C53.989,97.194,54.781,96.392,54.781,95.407z"/>
			<path style="fill:#F0C419;" d="M123.124,68.148c0.451,0,0.913-0.174,1.264-0.522l10.237-10.246c0.697-0.699,0.697-1.823,0-2.521
				s-1.823-0.698-2.52,0l-10.247,10.238c-0.697,0.697-0.697,1.83,0,2.529C122.208,67.975,122.66,68.148,123.124,68.148z"/>
			<path style="fill:#F0C419;" d="M66.294,123.188c-0.7-0.696-1.833-0.696-2.529,0l-10.237,10.248c-0.699,0.699-0.699,1.824,0,2.52
				c0.349,0.348,0.8,0.522,1.254,0.522c0.462,0,0.919-0.175,1.266-0.522l10.247-10.236
				C66.991,125.022,66.991,123.888,66.294,123.188z"/>
			<path style="fill:#F0C419;" d="M63.765,67.626c0.349,0.349,0.811,0.522,1.262,0.522c0.464,0,0.916-0.174,1.268-0.522
				c0.697-0.699,0.697-1.832,0-2.529L56.047,54.858c-0.698-0.698-1.823-0.698-2.52,0c-0.699,0.698-0.699,1.822,0,2.521
				L63.765,67.626z"/>
			<path style="fill:#F0C419;" d="M57.913,110.754c-0.392-0.906-1.44-1.325-2.346-0.939l-4.936,2.092
				c-0.907,0.383-1.326,1.43-0.941,2.337c0.287,0.68,0.949,1.091,1.646,1.091c0.228,0,0.462-0.046,0.689-0.142l4.938-2.092
				C57.867,112.718,58.3,111.661,57.913,110.754z"/>
			<path style="fill:#F0C419;" d="M50.354,79.669l4.97,2.005c0.218,0.097,0.445,0.13,0.664,0.13c0.713,0,1.378-0.419,1.658-1.115
				c0.373-0.916-0.072-1.954-0.988-2.32l-4.97-2.014c-0.914-0.365-1.954,0.078-2.319,0.993
				C49.004,78.254,49.438,79.301,50.354,79.669z"/>
			<path style="fill:#F0C419;" d="M76.383,58.295c0.289,0.682,0.95,1.089,1.646,1.089c0.229,0,0.472-0.043,0.699-0.139
				c0.905-0.393,1.325-1.439,0.941-2.345l-2.093-4.936c-0.384-0.907-1.431-1.336-2.338-0.942c-0.905,0.383-1.332,1.429-0.949,2.337
				L76.383,58.295z"/>
			<path style="fill:#F0C419;" d="M108.795,58.977c0.219,0.097,0.444,0.128,0.664,0.128c0.705,0,1.378-0.417,1.655-1.116
				l2.016-4.968c0.365-0.911-0.079-1.954-0.994-2.32c-0.907-0.374-1.954,0.069-2.318,0.983l-2.006,4.973
				C107.437,57.57,107.88,58.609,108.795,58.977z"/>
			<path style="fill:#F0C419;" d="M76.22,115.374c-5.482-4.904-8.934-12.03-8.934-19.967c0-14.798,11.992-26.788,26.79-26.788
				c7.089,0,13.526,2.757,18.318,7.251c3.149-1.185,6.497-1.954,9.979-2.242c-6.528-8.473-16.772-13.938-28.297-13.938
				c-19.725,0-35.718,15.994-35.718,35.718c0,10.65,4.668,20.206,12.062,26.752c0.656-1.019,1.361-2.007,2.129-2.95
				C73.67,117.829,74.903,116.549,76.22,115.374z"/>
			<path style="fill:#FFE001;" d="M67.286,95.407c0,7.937,3.451,15.063,8.934,19.967c3.492-3.116,7.615-5.478,12.068-6.895
				c0.9-14.959,10.673-27.556,24.106-32.609c-4.792-4.494-11.229-7.251-18.318-7.251C79.278,68.619,67.286,80.609,67.286,95.407z"/>
		</g>
	</g>
</g>
</svg>
