<?xml version="1.0" encoding="iso-8859-1"?>
<!-- Generator: Adobe Illustrator 16.0.0, SVG Export Plug-In . SVG Version: 6.00 Build 0)  -->
<!DOCTYPE svg PUBLIC "-//W3C//DTD SVG 1.1//EN" "http://www.w3.org/Graphics/SVG/1.1/DTD/svg11.dtd">
<svg version="1.1" xmlns="http://www.w3.org/2000/svg" xmlns:xlink="http://www.w3.org/1999/xlink" x="0px" y="0px" width="256px"
	 height="256px" viewBox="0 0 256 256" style="enable-background:new 0 0 256 256;" xml:space="preserve">
<g id="bg_light" style="display:none;">
	<rect style="display:inline;fill:#0079C1;" width="256" height="256"/>
</g>
<g id="guides" style="display:none;">
	<g style="display:inline;">
		<g>
			<g>
				<line style="fill:none;stroke:#FFFFFF;stroke-width:0.25;stroke-miterlimit:10;" x1="40.5" y1="0" x2="40.5" y2="2"/>
				
					<line style="fill:none;stroke:#FFFFFF;stroke-width:0.25;stroke-miterlimit:10;stroke-dasharray:4,4;" x1="40.5" y1="6" x2="40.5" y2="252"/>
				<line style="fill:none;stroke:#FFFFFF;stroke-width:0.25;stroke-miterlimit:10;" x1="40.5" y1="254" x2="40.5" y2="256"/>
			</g>
		</g>
		<g>
			<g>
				<line style="fill:none;stroke:#FFFFFF;stroke-width:0.25;stroke-miterlimit:10;" x1="215.5" y1="0" x2="215.5" y2="2"/>
				
					<line style="fill:none;stroke:#FFFFFF;stroke-width:0.25;stroke-miterlimit:10;stroke-dasharray:4,4;" x1="215.5" y1="6" x2="215.5" y2="252"/>
				<line style="fill:none;stroke:#FFFFFF;stroke-width:0.25;stroke-miterlimit:10;" x1="215.5" y1="254" x2="215.5" y2="256"/>
			</g>
		</g>
		<g>
			<g>
				<line style="fill:none;stroke:#FFFFFF;stroke-width:0.25;stroke-miterlimit:10;" x1="256" y1="40.5" x2="254" y2="40.5"/>
				
					<line style="fill:none;stroke:#FFFFFF;stroke-width:0.25;stroke-miterlimit:10;stroke-dasharray:4,4;" x1="250" y1="40.5" x2="4" y2="40.5"/>
				<line style="fill:none;stroke:#FFFFFF;stroke-width:0.25;stroke-miterlimit:10;" x1="2" y1="40.5" x2="0" y2="40.5"/>
			</g>
		</g>
		<g>
			<g>
				<line style="fill:none;stroke:#FFFFFF;stroke-width:0.25;stroke-miterlimit:10;" x1="256" y1="215.5" x2="254" y2="215.5"/>
				
					<line style="fill:none;stroke:#FFFFFF;stroke-width:0.25;stroke-miterlimit:10;stroke-dasharray:4,4;" x1="250" y1="215.5" x2="4" y2="215.5"/>
				<line style="fill:none;stroke:#FFFFFF;stroke-width:0.25;stroke-miterlimit:10;" x1="2" y1="215.5" x2="0" y2="215.5"/>
			</g>
		</g>
	</g>
</g>
<g id="border">
	<rect style="opacity:0;fill:none;stroke:#231F20;stroke-width:0.1;stroke-miterlimit:10;" width="256" height="256"/>
</g>
<g id="icons">
	<g>
		<g>
			<path style="fill:#D5D6DB;" d="M114.102,142.979h-3.166l-4.849,4.846c-0.793,0.801-1.825,1.351-2.934,1.584h4.516
				L114.102,142.979z"/>
			<path style="fill:#D5D6DB;" d="M145.459,142.979h-3.17l6.434,6.43h4.503c-1.101-0.231-2.113-0.774-2.927-1.591L145.459,142.979z"
				/>
			<path style="fill:#D5D6DB;" d="M97.82,147.81c-0.874-0.87-1.439-1.989-1.628-3.206l-3.227,3.222
				c-0.807,0.811-1.816,1.352-2.914,1.583h10.718C99.66,149.175,98.625,148.62,97.82,147.81z"/>
			<path style="fill:#D5D6DB;" d="M184.98,100.471c0.034-0.521,0.058-1.044,0.058-1.572c0-12.953-10.5-23.453-23.45-23.453
				c-4.152,0-8.047,1.083-11.429,2.978C146.533,62.436,132.236,50.5,115.151,50.5c-19.824,0-35.896,16.072-35.896,35.897
				c0,0.206,0.003,0.415,0.009,0.622c-14.139,3.133-24.711,15.743-24.711,30.821c0,17.435,14.133,31.569,31.568,31.569h1.517
				c-1.104-0.232-2.119-0.776-2.932-1.597c-1.678-1.679-2.111-4.149-1.298-6.242c-1.248-1.071-2.041-2.661-2.041-4.431
				c0-1.772,0.794-3.364,2.045-4.436c-0.814-2.09-0.38-4.56,1.301-6.246c1.112-1.109,2.575-1.713,4.13-1.713
				c1.556,0,3.02,0.606,4.122,1.707l3.227,3.222c0.189-1.215,0.756-2.335,1.643-3.222c1.099-1.1,2.565-1.707,4.125-1.707
				c1.56,0,3.026,0.606,4.128,1.708l4.848,4.848h3.169l-9.641-9.646h-7.419c-3.219,0-5.839-2.619-5.839-5.838
				c0-2.046,1.063-3.85,2.666-4.891c-0.666-0.967-1.025-2.108-1.025-3.305c0-1.56,0.609-3.027,1.716-4.13
				c1.094-1.095,2.559-1.704,4.119-1.704c1.196,0,2.338,0.359,3.303,1.025c1.041-1.603,2.844-2.666,4.89-2.666
				c3.22,0,5.84,2.62,5.84,5.839v7.418l9.644,9.641v-3.168l-4.849-4.849c-2.275-2.276-2.275-5.979,0-8.255
				c0.887-0.887,2.008-1.452,3.222-1.64l-3.224-3.228c-2.27-2.269-2.271-5.968-0.001-8.243c1.112-1.108,2.576-1.712,4.129-1.712
				c0.74,0,1.46,0.137,2.13,0.399c1.071-1.249,2.66-2.042,4.431-2.042c1.77,0,3.359,0.792,4.43,2.04
				c0.669-0.261,1.387-0.397,2.126-0.397c1.558,0,3.022,0.604,4.125,1.704c2.279,2.283,2.277,5.982,0.004,8.255l-3.22,3.225
				c1.215,0.189,2.336,0.754,3.221,1.641c1.101,1.101,1.708,2.567,1.708,4.126c0,1.561-0.607,3.027-1.71,4.129l-4.846,4.847v3.166
				l9.636-9.638v-7.418c0-3.22,2.619-5.839,5.837-5.839c2.049,0,3.854,1.061,4.897,2.662c0.963-0.664,2.105-1.022,3.302-1.022
				c1.561,0,3.027,0.609,4.13,1.712c2.015,2.009,2.245,5.151,0.684,7.425c1.604,1.039,2.666,2.844,2.666,4.892
				c0,3.219-2.619,5.838-5.838,5.838h-7.42l-9.645,9.646h3.174l4.846-4.847c1.106-1.104,2.571-1.709,4.125-1.709
				c1.556,0,3.021,0.605,4.123,1.706c0.911,0.911,1.456,2.049,1.639,3.232l3.229-3.23c1.104-1.102,2.57-1.708,4.129-1.708
				c1.558,0,3.023,0.605,4.125,1.705c1.689,1.691,2.125,4.165,1.31,6.256c1.251,1.07,2.045,2.662,2.045,4.434
				c0,1.769-0.792,3.358-2.039,4.429c0.262,0.669,0.397,1.388,0.397,2.127c0,1.561-0.607,3.027-1.71,4.129
				c-0.799,0.802-1.831,1.352-2.937,1.584h7.451c13.948,0,25.254-11.309,25.254-25.256
				C201.447,113.296,194.594,104.041,184.98,100.471z"/>
			<path style="fill:#D5D6DB;" d="M163.409,147.812l-3.212-3.212c-0.188,1.217-0.755,2.339-1.643,3.226
				c-0.805,0.81-1.815,1.352-2.913,1.583h10.717C165.249,149.175,164.214,148.622,163.409,147.812z"/>
		</g>
		<path style="fill:#FFFFFF;" d="M171.672,137.139c0-1.368-1.113-2.481-2.481-2.481h-2.217l2.332-2.331
			c0.963-0.964,0.963-2.534-0.001-3.5c-0.937-0.935-2.572-0.936-3.509,0l-5.831,5.831h-6.107l2.325-2.331
			c0.964-0.963,0.964-2.534,0-3.5c-0.937-0.935-2.563-0.936-3.501,0l-5.831,5.831h-12.67l16.359-16.36h8.812
			c1.369,0,2.481-1.112,2.481-2.48c0-1.363-1.112-2.472-2.481-2.472h-3.852l3.967-3.972c0.964-0.968,0.963-2.539,0-3.501
			c-0.936-0.938-2.574-0.937-3.509,0l-3.964,3.964v-3.85c0-1.369-1.113-2.481-2.481-2.481c-1.367,0-2.48,1.113-2.48,2.481v8.81
			l-16.351,16.353v-12.662l5.83-5.832c0.468-0.468,0.726-1.09,0.726-1.754c0-0.663-0.258-1.285-0.726-1.753
			c-0.937-0.937-2.573-0.938-3.51,0.001l-2.32,2.326v-6.103l5.83-5.839c0.964-0.964,0.964-2.534-0.001-3.502
			c-0.937-0.934-2.57-0.935-3.508,0.001l-2.321,2.322v-2.208c0-1.368-1.114-2.481-2.481-2.481c-1.368,0-2.481,1.113-2.481,2.481
			v2.211l-2.331-2.325c-0.935-0.935-2.56-0.937-3.501,0.001c-0.964,0.966-0.963,2.536,0,3.5l5.832,5.839v6.106l-2.33-2.329
			c-0.936-0.939-2.564-0.939-3.501-0.001c-0.468,0.468-0.726,1.09-0.726,1.753c0,0.664,0.258,1.286,0.726,1.754l5.831,5.832v12.663
			l-16.36-16.354v-8.81c0-1.369-1.113-2.481-2.482-2.481c-1.362,0-2.47,1.113-2.47,2.481v3.852l-3.973-3.967
			c-0.938-0.938-2.567-0.936-3.498-0.001c-0.47,0.468-0.729,1.089-0.729,1.75c0,0.66,0.258,1.283,0.727,1.753l3.966,3.971h-3.852
			c-1.368,0-2.481,1.109-2.481,2.472c0,1.368,1.113,2.48,2.481,2.48h8.81l16.354,16.36h-12.663l-5.832-5.831
			c-0.936-0.935-2.572-0.935-3.505,0c-0.469,0.469-0.728,1.091-0.727,1.752c0,0.66,0.258,1.282,0.727,1.748l2.33,2.331h-6.106
			l-5.838-5.831c-0.936-0.935-2.56-0.937-3.502,0.001c-0.963,0.965-0.962,2.535,0,3.5l2.326,2.331h-2.212
			c-1.368,0-2.48,1.114-2.48,2.481c0,1.368,1.112,2.481,2.48,2.481h2.209l-2.322,2.322c-0.468,0.467-0.726,1.09-0.726,1.753
			s0.258,1.286,0.723,1.752c0.931,0.936,2.562,0.946,3.504,0.002l5.838-5.829h6.104l-2.326,2.32
			c-0.47,0.469-0.728,1.092-0.728,1.755c0,0.664,0.258,1.287,0.724,1.75c0.92,0.93,2.595,0.927,3.509,0.003l5.832-5.829h12.663
			l-16.353,16.35h-8.81c-1.368,0-2.481,1.113-2.481,2.481c0,1.368,1.113,2.481,2.481,2.481h3.851l-3.962,3.963
			c-0.469,0.467-0.729,1.089-0.729,1.753c0,0.663,0.258,1.288,0.729,1.759c0.941,0.938,2.562,0.93,3.498-0.001l3.973-3.967v3.853
			c0,1.368,1.108,2.48,2.47,2.48c1.369,0,2.482-1.113,2.482-2.48v-8.812l16.36-16.36v12.67l-5.832,5.833
			c-0.964,0.965-0.963,2.535,0,3.498c0.929,0.932,2.558,0.941,3.501,0.002l2.331-2.326v6.109l-5.831,5.832
			c-0.468,0.468-0.726,1.091-0.726,1.754s0.258,1.286,0.722,1.749c0.928,0.94,2.567,0.949,3.504,0.004l2.331-2.329v2.219
			c0,1.367,1.113,2.479,2.481,2.479c1.368,0,2.481-1.112,2.481-2.479v-2.216l2.318,2.324c0.923,0.928,2.59,0.927,3.512,0.002
			c0.468-0.466,0.726-1.089,0.726-1.752s-0.258-1.286-0.726-1.754l-5.83-5.832v-6.106l2.322,2.323
			c0.923,0.921,2.581,0.923,3.508-0.001c0.964-0.963,0.964-2.533,0-3.5l-5.83-5.832v-12.67l16.351,16.36v8.812
			c0,1.368,1.113,2.48,2.48,2.48c1.368,0,2.481-1.113,2.481-2.48v-3.851l3.965,3.966c0.93,0.925,2.568,0.93,3.508-0.002
			c0.468-0.469,0.726-1.092,0.726-1.755c0-0.664-0.258-1.287-0.727-1.754l-3.964-3.964h3.85c1.369,0,2.481-1.114,2.481-2.481
			c0-1.368-1.112-2.481-2.481-2.481h-8.812l-16.358-16.35h12.669l5.83,5.828c0.936,0.938,2.566,0.941,3.502,0.001
			c0.469-0.467,0.727-1.091,0.727-1.754s-0.258-1.286-0.726-1.753l-2.323-2.322h6.105l5.829,5.827
			c0.921,0.927,2.587,0.929,3.512,0.002c0.467-0.468,0.725-1.091,0.725-1.754s-0.258-1.286-0.726-1.754l-2.327-2.321h2.214
			C170.56,139.621,171.672,138.507,171.672,137.139z"/>
		<path style="fill:#FFFFFF;" d="M85.198,167.026c0-0.275-0.225-0.5-0.5-0.5h-0.447l0.47-0.47c0.194-0.194,0.194-0.51,0-0.705
			c-0.189-0.189-0.519-0.189-0.708,0l-1.174,1.174h-1.231l0.469-0.47c0.194-0.194,0.194-0.51,0-0.705
			c-0.188-0.189-0.516-0.189-0.705,0l-1.174,1.174h-2.553l3.296-3.296h1.774c0.276,0,0.5-0.225,0.5-0.5
			c0-0.274-0.224-0.497-0.5-0.497H81.94l0.799-0.8c0.194-0.196,0.194-0.511,0-0.706c-0.188-0.188-0.519-0.188-0.707,0l-0.799,0.8
			v-0.777c0-0.275-0.225-0.5-0.5-0.5c-0.276,0-0.5,0.225-0.5,0.5v1.775l-3.294,3.294v-2.551l1.174-1.175
			c0.095-0.094,0.147-0.22,0.147-0.353c0-0.134-0.052-0.259-0.147-0.354c-0.188-0.188-0.518-0.189-0.707,0l-0.468,0.469v-1.229
			l1.174-1.177c0.194-0.195,0.194-0.51,0-0.706c-0.188-0.188-0.518-0.188-0.707,0l-0.468,0.468v-0.445c0-0.276-0.224-0.5-0.5-0.5
			c-0.276,0-0.5,0.224-0.5,0.5v0.445l-0.47-0.468c-0.188-0.188-0.515-0.188-0.705,0c-0.194,0.196-0.194,0.511,0,0.706l1.175,1.177
			v1.23l-0.47-0.47c-0.188-0.189-0.517-0.189-0.705,0c-0.095,0.094-0.146,0.219-0.146,0.354c0,0.133,0.052,0.259,0.146,0.353
			l1.175,1.175v2.551l-3.296-3.295v-1.774c0-0.275-0.225-0.5-0.5-0.5c-0.274,0-0.498,0.225-0.498,0.5v0.777l-0.8-0.8
			c-0.189-0.189-0.517-0.188-0.705,0c-0.095,0.093-0.146,0.219-0.146,0.353c0,0.133,0.052,0.259,0.146,0.354l0.799,0.8h-0.776
			c-0.276,0-0.5,0.223-0.5,0.497c0,0.275,0.224,0.5,0.5,0.5h1.774l3.295,3.296h-2.552l-1.175-1.174
			c-0.188-0.189-0.518-0.189-0.706,0c-0.094,0.095-0.146,0.219-0.146,0.352c0,0.133,0.052,0.259,0.146,0.353l0.47,0.47h-1.23
			l-1.175-1.174c-0.189-0.189-0.517-0.189-0.707,0c-0.193,0.194-0.193,0.51,0,0.705l0.469,0.47h-0.445c-0.275,0-0.5,0.225-0.5,0.5
			c0,0.276,0.224,0.5,0.5,0.5h0.445l-0.468,0.468c-0.094,0.094-0.146,0.219-0.146,0.354c0,0.133,0.052,0.259,0.145,0.353
			c0.188,0.189,0.517,0.19,0.708,0l1.175-1.174h1.229l-0.468,0.467c-0.094,0.095-0.146,0.22-0.146,0.354
			c0,0.133,0.052,0.259,0.146,0.353c0.186,0.186,0.523,0.186,0.707,0l1.175-1.174h2.551l-3.294,3.293h-1.774
			c-0.276,0-0.5,0.225-0.5,0.5c0,0.276,0.224,0.5,0.5,0.5h0.776l-0.798,0.799c-0.095,0.093-0.146,0.219-0.146,0.353
			c0,0.133,0.052,0.259,0.146,0.355c0.189,0.188,0.516,0.187,0.705-0.001l0.8-0.798v0.775c0,0.275,0.223,0.5,0.498,0.5
			c0.275,0,0.5-0.225,0.5-0.5v-1.774l3.296-3.298v2.554l-1.175,1.175c-0.194,0.194-0.194,0.51,0,0.705
			c0.187,0.187,0.516,0.189,0.705,0l0.47-0.469v1.231l-1.175,1.174c-0.095,0.095-0.146,0.221-0.146,0.354
			c0,0.134,0.052,0.26,0.146,0.353c0.187,0.189,0.518,0.191,0.706,0.001l0.47-0.47v0.448c0,0.276,0.224,0.5,0.5,0.5
			c0.275,0,0.5-0.224,0.5-0.5v-0.446l0.468,0.469c0.186,0.186,0.521,0.186,0.707,0c0.095-0.093,0.147-0.219,0.147-0.354
			c0-0.133-0.052-0.259-0.147-0.354l-1.174-1.174v-1.23l0.468,0.468c0.185,0.185,0.52,0.186,0.706,0c0.194-0.194,0.194-0.51,0-0.705
			l-1.174-1.175v-2.554l3.294,3.298v1.774c0,0.275,0.224,0.5,0.5,0.5c0.275,0,0.5-0.225,0.5-0.5v-0.775l0.799,0.799
			c0.188,0.186,0.518,0.187,0.707-0.001c0.094-0.093,0.146-0.22,0.146-0.354c0-0.133-0.052-0.259-0.146-0.353l-0.798-0.799h0.775
			c0.276,0,0.5-0.224,0.5-0.5c0-0.275-0.224-0.5-0.5-0.5h-1.774l-3.296-3.293h2.553l1.174,1.174c0.189,0.189,0.518,0.19,0.706,0
			c0.095-0.094,0.146-0.219,0.146-0.353c0-0.134-0.051-0.26-0.146-0.354l-0.467-0.468h1.229l1.174,1.174
			c0.186,0.186,0.521,0.187,0.708,0c0.095-0.094,0.146-0.219,0.146-0.353c0-0.134-0.051-0.26-0.146-0.354l-0.469-0.467h0.446
			C84.974,167.526,85.198,167.302,85.198,167.026z"/>
		<path style="fill:#FFFFFF;" d="M111.657,189.976c0-0.275-0.224-0.5-0.5-0.5h-0.447l0.47-0.47c0.194-0.194,0.194-0.511,0-0.705
			c-0.188-0.189-0.518-0.189-0.707,0l-1.175,1.174h-1.231l0.469-0.47c0.194-0.194,0.194-0.511,0-0.705
			c-0.188-0.189-0.516-0.189-0.705,0l-1.174,1.174h-2.553l3.296-3.296h1.775c0.275,0,0.5-0.225,0.5-0.5
			c0-0.275-0.224-0.497-0.5-0.497h-0.776l0.799-0.8c0.194-0.195,0.194-0.512,0-0.705c-0.188-0.189-0.518-0.189-0.707-0.001
			l-0.799,0.799V183.7c0-0.275-0.225-0.499-0.5-0.499c-0.275,0-0.5,0.224-0.5,0.499v1.775l-3.294,3.295v-2.551l1.174-1.175
			c0.095-0.094,0.147-0.22,0.147-0.353c0-0.133-0.052-0.259-0.147-0.354c-0.189-0.188-0.518-0.189-0.707,0l-0.468,0.469v-1.229
			l1.174-1.176c0.195-0.195,0.195-0.51,0-0.706c-0.189-0.188-0.518-0.188-0.707,0l-0.468,0.468v-0.445c0-0.275-0.224-0.5-0.5-0.5
			c-0.276,0-0.5,0.225-0.5,0.5v0.445l-0.47-0.468c-0.189-0.188-0.516-0.188-0.706,0c-0.194,0.196-0.194,0.511,0,0.706l1.176,1.176
			v1.23l-0.469-0.47c-0.189-0.189-0.517-0.189-0.706,0c-0.095,0.094-0.146,0.22-0.146,0.354c0,0.133,0.052,0.259,0.146,0.353
			l1.175,1.175v2.551l-3.297-3.296V183.7c0-0.275-0.224-0.499-0.5-0.499c-0.274,0-0.497,0.224-0.497,0.499v0.776l-0.801-0.799
			c-0.188-0.189-0.517-0.188-0.705,0c-0.095,0.094-0.146,0.219-0.146,0.353c0,0.133,0.051,0.259,0.146,0.354l0.799,0.8h-0.776
			c-0.275,0-0.5,0.222-0.5,0.497c0,0.275,0.225,0.5,0.5,0.5h1.774l3.295,3.296h-2.551l-1.175-1.174
			c-0.188-0.189-0.518-0.189-0.707,0c-0.095,0.094-0.146,0.219-0.146,0.353c0,0.132,0.052,0.258,0.146,0.352l0.469,0.47h-1.23
			l-1.176-1.174c-0.188-0.189-0.516-0.189-0.706,0c-0.194,0.194-0.193,0.51,0,0.705l0.469,0.47H94.64c-0.275,0-0.5,0.225-0.5,0.5
			s0.224,0.5,0.5,0.5h0.446l-0.468,0.468c-0.094,0.094-0.146,0.22-0.146,0.354c0,0.133,0.052,0.258,0.146,0.352
			c0.187,0.189,0.516,0.19,0.706,0l1.176-1.173h1.229l-0.468,0.467c-0.095,0.095-0.146,0.221-0.146,0.354
			c0,0.133,0.052,0.258,0.146,0.352c0.186,0.187,0.522,0.187,0.707,0l1.175-1.173h2.55l-3.294,3.293h-1.775
			c-0.275,0-0.5,0.225-0.5,0.5s0.225,0.5,0.5,0.5h0.776l-0.798,0.798c-0.095,0.095-0.146,0.22-0.146,0.354
			c-0.001,0.134,0.051,0.259,0.146,0.354c0.19,0.189,0.517,0.187,0.705-0.001l0.801-0.798v0.776c0,0.275,0.223,0.5,0.497,0.5
			c0.276,0,0.5-0.225,0.5-0.5v-1.775l3.297-3.296v2.553l-1.176,1.174c-0.194,0.195-0.194,0.511,0,0.706
			c0.187,0.187,0.516,0.188,0.706,0l0.47-0.469v1.23l-1.175,1.175c-0.095,0.095-0.146,0.22-0.146,0.354
			c0,0.134,0.052,0.26,0.145,0.353c0.188,0.189,0.518,0.191,0.707,0.001l0.47-0.47v0.448c0,0.276,0.224,0.499,0.5,0.499
			c0.275,0,0.5-0.223,0.5-0.499v-0.447l0.468,0.469c0.185,0.186,0.522,0.186,0.707,0c0.095-0.094,0.147-0.22,0.147-0.354
			c0-0.133-0.052-0.259-0.147-0.354l-1.174-1.175v-1.229l0.468,0.468c0.185,0.185,0.52,0.186,0.706,0
			c0.195-0.195,0.195-0.511,0-0.706l-1.174-1.174v-2.553l3.294,3.296v1.775c0,0.275,0.225,0.5,0.5,0.5c0.275,0,0.5-0.225,0.5-0.5
			v-0.776l0.799,0.799c0.188,0.186,0.518,0.187,0.706-0.001c0.094-0.093,0.146-0.219,0.146-0.354c0-0.133-0.052-0.259-0.147-0.353
			l-0.798-0.799h0.776c0.275,0,0.5-0.225,0.5-0.5s-0.224-0.5-0.5-0.5h-1.775l-3.296-3.293h2.553l1.174,1.173
			c0.189,0.189,0.517,0.19,0.706,0c0.095-0.094,0.146-0.219,0.146-0.352c0-0.134-0.052-0.26-0.146-0.354l-0.468-0.468h1.23
			l1.174,1.173c0.185,0.187,0.521,0.188,0.707,0c0.094-0.094,0.146-0.219,0.146-0.352c0-0.134-0.052-0.26-0.146-0.354l-0.469-0.467
			h0.446C111.433,190.476,111.657,190.251,111.657,189.976z"/>
		<path style="fill:#FFFFFF;" d="M149.983,196.741c0-0.275-0.224-0.499-0.5-0.499h-0.446l0.47-0.47c0.194-0.194,0.194-0.511,0-0.706
			c-0.189-0.188-0.518-0.188-0.707,0l-1.175,1.176h-1.231l0.469-0.47c0.194-0.194,0.194-0.511,0-0.706
			c-0.188-0.188-0.516-0.188-0.705,0l-1.174,1.176h-2.553l3.296-3.296h1.775c0.275,0,0.5-0.225,0.5-0.5
			c0-0.274-0.224-0.498-0.5-0.498h-0.776l0.799-0.8c0.195-0.194,0.195-0.511,0-0.705c-0.188-0.189-0.518-0.189-0.707,0l-0.798,0.798
			v-0.775c0-0.276-0.225-0.5-0.5-0.5c-0.275,0-0.5,0.224-0.5,0.5v1.774l-3.294,3.294v-2.551l1.174-1.175
			c0.095-0.094,0.147-0.219,0.147-0.354c0-0.133-0.053-0.258-0.147-0.352c-0.188-0.189-0.517-0.189-0.707,0l-0.468,0.468v-1.229
			l1.174-1.176c0.195-0.194,0.195-0.511,0-0.706c-0.188-0.187-0.517-0.188-0.707,0.001l-0.468,0.468v-0.445
			c0-0.276-0.224-0.5-0.5-0.5s-0.5,0.224-0.5,0.5v0.445l-0.47-0.468c-0.189-0.188-0.516-0.189-0.705,0
			c-0.195,0.194-0.195,0.511,0,0.705l1.175,1.176v1.23l-0.469-0.469c-0.189-0.189-0.517-0.189-0.705,0
			c-0.095,0.094-0.147,0.219-0.147,0.352c0,0.134,0.052,0.26,0.147,0.354l1.174,1.175v2.552l-3.296-3.295v-1.774
			c0-0.276-0.225-0.5-0.5-0.5s-0.498,0.224-0.498,0.5v0.775l-0.8-0.798c-0.189-0.189-0.518-0.188-0.706-0.001
			c-0.094,0.095-0.146,0.221-0.146,0.354c0,0.133,0.052,0.258,0.145,0.353l0.799,0.799h-0.775c-0.276,0-0.5,0.224-0.5,0.498
			c0,0.275,0.224,0.5,0.5,0.5h1.774l3.296,3.296h-2.552l-1.174-1.176c-0.188-0.188-0.519-0.188-0.707,0
			c-0.094,0.095-0.146,0.221-0.146,0.354c0,0.133,0.052,0.258,0.146,0.352l0.47,0.47h-1.23l-1.176-1.176
			c-0.189-0.188-0.516-0.188-0.706,0.001c-0.194,0.193-0.193,0.51,0,0.705l0.469,0.47h-0.446c-0.275,0-0.5,0.224-0.5,0.499
			c0,0.276,0.224,0.5,0.5,0.5h0.446l-0.468,0.468c-0.094,0.094-0.146,0.219-0.146,0.354c0,0.133,0.052,0.259,0.146,0.354
			c0.187,0.188,0.516,0.19,0.706,0l1.176-1.175h1.229l-0.468,0.468c-0.094,0.094-0.146,0.219-0.146,0.354
			c0,0.134,0.052,0.259,0.146,0.353c0.186,0.187,0.522,0.187,0.708,0.001l1.174-1.175h2.551l-3.294,3.295h-1.775
			c-0.276,0-0.5,0.223-0.5,0.499c0,0.275,0.224,0.5,0.5,0.5h0.775l-0.798,0.799c-0.094,0.093-0.146,0.219-0.146,0.352
			c0,0.134,0.052,0.26,0.146,0.354c0.19,0.189,0.517,0.188,0.706,0l0.8-0.799v0.776c0,0.276,0.223,0.5,0.498,0.5s0.5-0.224,0.5-0.5
			v-1.775l3.296-3.296v2.553l-1.175,1.176c-0.195,0.193-0.195,0.509,0,0.704c0.186,0.188,0.515,0.19,0.705,0.001l0.47-0.469v1.231
			l-1.174,1.174c-0.095,0.095-0.147,0.219-0.147,0.353c0,0.134,0.052,0.26,0.146,0.354c0.187,0.189,0.517,0.191,0.706,0.001
			l0.47-0.47V205c0,0.275,0.224,0.5,0.5,0.5s0.5-0.225,0.5-0.5v-0.447l0.468,0.469c0.186,0.187,0.522,0.187,0.707,0.001
			c0.095-0.095,0.147-0.22,0.147-0.354c0-0.133-0.053-0.258-0.147-0.353l-1.174-1.174v-1.231l0.468,0.469
			c0.186,0.185,0.521,0.185,0.706-0.001c0.195-0.194,0.195-0.51,0-0.705l-1.174-1.175v-2.553l3.294,3.296v1.775
			c0,0.276,0.225,0.5,0.5,0.5c0.275,0,0.5-0.224,0.5-0.5v-0.776l0.799,0.799c0.188,0.188,0.518,0.188,0.706,0
			c0.094-0.095,0.146-0.221,0.146-0.354c0-0.134-0.052-0.26-0.147-0.353l-0.797-0.799h0.775c0.275,0,0.5-0.225,0.5-0.5
			c0-0.276-0.224-0.499-0.5-0.499h-1.775l-3.296-3.295h2.553l1.174,1.175c0.189,0.189,0.518,0.189,0.706,0
			c0.094-0.095,0.146-0.221,0.146-0.354c0-0.134-0.052-0.259-0.146-0.354l-0.467-0.468h1.229l1.174,1.175
			c0.185,0.186,0.521,0.186,0.708,0c0.094-0.095,0.146-0.221,0.146-0.354c0-0.134-0.051-0.259-0.146-0.354l-0.469-0.468h0.445
			C149.759,197.241,149.983,197.017,149.983,196.741z"/>
		<path style="fill:#FFFFFF;" d="M190.75,165.961c0-0.275-0.224-0.5-0.5-0.5h-0.447l0.47-0.47c0.194-0.194,0.194-0.51,0-0.705
			c-0.189-0.189-0.519-0.189-0.707,0l-1.175,1.174h-1.23l0.469-0.47c0.194-0.194,0.194-0.51,0-0.705
			c-0.188-0.189-0.516-0.189-0.705,0l-1.175,1.174h-2.553l3.296-3.296h1.775c0.276,0,0.5-0.225,0.5-0.5
			c0-0.274-0.224-0.497-0.5-0.497h-0.776l0.799-0.8c0.194-0.196,0.194-0.511,0-0.706c-0.188-0.188-0.519-0.188-0.707,0l-0.799,0.8
			v-0.777c0-0.275-0.225-0.5-0.5-0.5c-0.275,0-0.5,0.225-0.5,0.5v1.775l-3.294,3.294v-2.551l1.175-1.175
			c0.095-0.094,0.146-0.22,0.146-0.353c0-0.134-0.052-0.259-0.146-0.354c-0.189-0.188-0.518-0.189-0.707,0l-0.468,0.469v-1.229
			l1.175-1.177c0.194-0.195,0.194-0.51,0-0.706c-0.189-0.188-0.518-0.188-0.707,0l-0.468,0.468v-0.445c0-0.275-0.224-0.5-0.5-0.5
			s-0.499,0.224-0.499,0.5v0.445l-0.471-0.468c-0.188-0.188-0.515-0.188-0.705,0c-0.194,0.196-0.194,0.511,0,0.706l1.176,1.177v1.23
			l-0.47-0.47c-0.188-0.189-0.516-0.189-0.705,0c-0.095,0.094-0.146,0.219-0.146,0.354c0,0.133,0.052,0.259,0.146,0.353l1.175,1.175
			v2.551l-3.297-3.295v-1.774c0-0.275-0.224-0.5-0.5-0.5c-0.274,0-0.498,0.225-0.498,0.5v0.777l-0.8-0.8
			c-0.189-0.189-0.517-0.188-0.705,0c-0.095,0.093-0.146,0.219-0.146,0.353c0,0.133,0.052,0.259,0.146,0.354l0.799,0.8h-0.776
			c-0.276,0-0.5,0.223-0.5,0.497c0,0.275,0.224,0.5,0.5,0.5h1.774l3.295,3.296h-2.551l-1.176-1.174
			c-0.187-0.189-0.517-0.189-0.706,0c-0.095,0.095-0.146,0.219-0.146,0.352c0,0.133,0.052,0.259,0.146,0.353l0.469,0.47h-1.23
			l-1.175-1.174c-0.189-0.189-0.516-0.189-0.707,0c-0.194,0.194-0.193,0.51,0,0.705l0.469,0.47h-0.446c-0.276,0-0.5,0.225-0.5,0.5
			c0,0.276,0.224,0.5,0.5,0.5h0.445l-0.468,0.468c-0.094,0.094-0.146,0.219-0.146,0.354c0,0.133,0.052,0.259,0.145,0.353
			c0.188,0.189,0.517,0.19,0.707,0l1.175-1.174h1.229l-0.468,0.467c-0.095,0.095-0.146,0.22-0.146,0.354
			c0,0.133,0.052,0.259,0.146,0.353c0.185,0.186,0.522,0.186,0.706,0l1.176-1.174h2.55l-3.294,3.293h-1.775
			c-0.276,0-0.5,0.225-0.5,0.5c0,0.276,0.224,0.5,0.5,0.5h0.776l-0.798,0.798c-0.095,0.094-0.146,0.22-0.146,0.354
			c0,0.133,0.052,0.259,0.146,0.355c0.19,0.188,0.516,0.187,0.705-0.001l0.8-0.798v0.775c0,0.275,0.223,0.5,0.498,0.5
			c0.276,0,0.5-0.225,0.5-0.5v-1.774l3.297-3.298v2.554l-1.176,1.175c-0.194,0.194-0.194,0.51,0,0.705
			c0.187,0.187,0.516,0.189,0.705,0l0.471-0.469v1.231l-1.175,1.174c-0.095,0.095-0.146,0.221-0.146,0.354
			c0,0.134,0.052,0.26,0.146,0.353c0.188,0.189,0.518,0.191,0.706,0.001l0.471-0.47v0.447c0,0.276,0.224,0.5,0.499,0.5
			s0.5-0.224,0.5-0.5v-0.446l0.468,0.469c0.186,0.186,0.521,0.186,0.707,0c0.095-0.093,0.146-0.219,0.146-0.354
			c0-0.133-0.052-0.259-0.146-0.354l-1.175-1.174v-1.23l0.468,0.468c0.186,0.185,0.52,0.186,0.707,0
			c0.194-0.194,0.194-0.511,0-0.705l-1.175-1.175v-2.554l3.294,3.298v1.774c0,0.275,0.225,0.5,0.5,0.5c0.274,0,0.5-0.225,0.5-0.5
			v-0.775l0.799,0.799c0.188,0.186,0.517,0.187,0.707-0.001c0.094-0.093,0.146-0.22,0.146-0.354c0-0.133-0.052-0.259-0.146-0.354
			l-0.798-0.798h0.775c0.276,0,0.5-0.224,0.5-0.5c0-0.275-0.224-0.5-0.5-0.5h-1.775l-3.296-3.293h2.553l1.174,1.174
			c0.188,0.189,0.517,0.19,0.706,0c0.095-0.094,0.146-0.219,0.146-0.353c0-0.134-0.052-0.26-0.146-0.354l-0.468-0.468h1.229
			l1.175,1.174c0.185,0.186,0.521,0.187,0.707,0c0.095-0.094,0.146-0.219,0.146-0.353c0-0.134-0.051-0.26-0.146-0.354l-0.469-0.467
			h0.446C190.526,166.461,190.75,166.237,190.75,165.961z"/>
		<path style="fill:#FFFFFF;" d="M77.419,193.345c0-0.275-0.224-0.499-0.5-0.499h-0.447l0.47-0.47c0.194-0.195,0.194-0.511,0-0.706
			c-0.189-0.188-0.519-0.188-0.707,0l-1.175,1.176h-1.23l0.469-0.47c0.194-0.195,0.194-0.511,0-0.706
			c-0.189-0.188-0.516-0.188-0.705,0l-1.175,1.176h-2.553l3.296-3.296h1.775c0.276,0,0.5-0.225,0.5-0.5
			c0-0.274-0.224-0.498-0.5-0.498h-0.776l0.799-0.8c0.194-0.194,0.194-0.511,0-0.705c-0.188-0.189-0.519-0.189-0.707,0l-0.799,0.798
			v-0.776c0-0.275-0.225-0.5-0.5-0.5c-0.276,0-0.5,0.225-0.5,0.5v1.775l-3.294,3.294v-2.551l1.175-1.175
			c0.095-0.093,0.146-0.219,0.146-0.354c0-0.133-0.052-0.259-0.146-0.352c-0.189-0.189-0.518-0.189-0.707,0l-0.468,0.468v-1.229
			l1.175-1.177c0.195-0.194,0.195-0.51,0-0.706c-0.189-0.188-0.518-0.188-0.707,0.001l-0.468,0.468v-0.445
			c0-0.277-0.224-0.5-0.5-0.5c-0.275,0-0.499,0.223-0.499,0.5v0.445l-0.47-0.468c-0.188-0.188-0.515-0.189-0.705,0
			c-0.194,0.194-0.194,0.51,0,0.705l1.175,1.177v1.229l-0.47-0.469c-0.188-0.189-0.516-0.189-0.705,0
			c-0.095,0.093-0.146,0.219-0.146,0.352c0,0.134,0.052,0.26,0.146,0.354l1.175,1.175v2.552l-3.296-3.295v-1.775
			c0-0.275-0.224-0.5-0.5-0.5c-0.274,0-0.498,0.225-0.498,0.5v0.776l-0.8-0.798c-0.189-0.189-0.517-0.188-0.705-0.001
			c-0.095,0.095-0.146,0.22-0.146,0.353c0,0.133,0.052,0.259,0.146,0.354l0.799,0.799h-0.776c-0.276,0-0.5,0.224-0.5,0.498
			c0,0.275,0.224,0.5,0.5,0.5h1.774l3.295,3.296h-2.551l-1.175-1.176c-0.188-0.188-0.518-0.188-0.706,0
			c-0.095,0.095-0.147,0.221-0.147,0.354c0,0.133,0.052,0.258,0.147,0.353l0.469,0.47h-1.23l-1.176-1.176
			c-0.189-0.188-0.516-0.188-0.706,0.001c-0.194,0.194-0.193,0.51,0,0.705l0.469,0.47h-0.446c-0.275,0-0.5,0.224-0.5,0.499
			c0,0.276,0.224,0.5,0.5,0.5h0.445l-0.468,0.468c-0.094,0.095-0.146,0.22-0.146,0.354c0,0.133,0.052,0.259,0.146,0.354
			c0.187,0.188,0.516,0.19,0.706,0l1.176-1.175h1.229l-0.468,0.468c-0.095,0.095-0.147,0.22-0.147,0.354
			c0,0.134,0.052,0.259,0.146,0.353c0.185,0.187,0.522,0.187,0.707,0.001l1.175-1.175h2.551l-3.294,3.294h-1.775
			c-0.276,0-0.5,0.224-0.5,0.499c0,0.276,0.224,0.5,0.5,0.5h0.776l-0.798,0.799c-0.095,0.093-0.146,0.219-0.146,0.352
			c0,0.134,0.052,0.26,0.146,0.354c0.19,0.189,0.516,0.187,0.705,0l0.8-0.799v0.776c0,0.275,0.223,0.5,0.498,0.5
			c0.276,0,0.5-0.225,0.5-0.5v-1.775l3.296-3.296v2.552l-1.175,1.176c-0.194,0.193-0.194,0.509,0,0.704
			c0.187,0.188,0.516,0.19,0.705,0.001l0.47-0.469v1.231l-1.175,1.174c-0.095,0.095-0.146,0.22-0.146,0.353
			c0,0.134,0.052,0.26,0.146,0.353c0.188,0.189,0.518,0.191,0.706,0.001l0.47-0.47v0.447c0,0.275,0.224,0.5,0.499,0.5
			c0.276,0,0.5-0.225,0.5-0.5v-0.447l0.468,0.469c0.186,0.188,0.521,0.188,0.707,0.001c0.095-0.094,0.146-0.22,0.146-0.354
			c0-0.133-0.052-0.258-0.146-0.353l-1.175-1.174v-1.231l0.468,0.469c0.186,0.185,0.52,0.185,0.707-0.001
			c0.195-0.194,0.195-0.51,0-0.705l-1.175-1.175v-2.552l3.294,3.296v1.775c0,0.275,0.224,0.5,0.5,0.5c0.274,0,0.5-0.225,0.5-0.5
			v-0.776l0.799,0.799c0.187,0.187,0.517,0.187,0.706,0c0.094-0.095,0.146-0.221,0.146-0.354c0-0.134-0.052-0.26-0.146-0.353
			l-0.798-0.799h0.775c0.276,0,0.5-0.225,0.5-0.5c0-0.275-0.224-0.499-0.5-0.499h-1.775l-3.296-3.294h2.553l1.174,1.175
			c0.188,0.189,0.517,0.189,0.706,0c0.095-0.095,0.146-0.221,0.146-0.354c0-0.134-0.052-0.259-0.146-0.354l-0.468-0.468h1.229
			l1.174,1.175c0.185,0.186,0.521,0.186,0.708,0c0.094-0.095,0.146-0.221,0.146-0.354c0-0.134-0.052-0.259-0.146-0.354l-0.469-0.468
			h0.446C77.195,193.845,77.419,193.621,77.419,193.345z"/>
		<path style="fill:#FFFFFF;" d="M182.034,192.281c0-0.275-0.224-0.499-0.5-0.499h-0.447l0.471-0.47
			c0.193-0.195,0.193-0.511-0.001-0.706c-0.188-0.188-0.518-0.188-0.707,0l-1.174,1.176h-1.231l0.469-0.47
			c0.194-0.195,0.194-0.511,0-0.706c-0.189-0.188-0.516-0.188-0.705,0l-1.175,1.176h-2.553l3.296-3.297h1.774
			c0.275,0,0.5-0.224,0.5-0.499c0-0.274-0.224-0.498-0.5-0.498h-0.776l0.799-0.8c0.195-0.195,0.195-0.511,0-0.705
			c-0.188-0.189-0.519-0.189-0.707,0l-0.799,0.798v-0.776c0-0.275-0.225-0.5-0.5-0.5c-0.276,0-0.5,0.225-0.5,0.5v1.775l-3.294,3.294
			v-2.551l1.175-1.175c0.095-0.093,0.147-0.219,0.147-0.354c0-0.133-0.052-0.259-0.147-0.353c-0.189-0.188-0.518-0.188-0.707,0
			l-0.468,0.469v-1.229l1.175-1.177c0.195-0.194,0.195-0.51,0-0.706c-0.189-0.188-0.518-0.188-0.707,0.001l-0.468,0.468v-0.446
			c0-0.276-0.224-0.499-0.5-0.499c-0.275,0-0.5,0.223-0.5,0.499v0.446l-0.47-0.468c-0.188-0.188-0.516-0.189-0.705,0
			c-0.195,0.194-0.195,0.51,0,0.705l1.175,1.177v1.229l-0.469-0.47c-0.189-0.188-0.517-0.188-0.705,0
			c-0.095,0.094-0.146,0.22-0.146,0.353c0,0.134,0.052,0.26,0.146,0.354l1.174,1.175v2.552l-3.296-3.295v-1.775
			c0-0.275-0.225-0.5-0.5-0.5c-0.274,0-0.497,0.225-0.497,0.5v0.776l-0.8-0.798c-0.189-0.189-0.518-0.188-0.705-0.001
			c-0.095,0.095-0.146,0.22-0.146,0.353c0,0.133,0.052,0.259,0.146,0.354l0.799,0.799h-0.776c-0.275,0-0.499,0.224-0.499,0.498
			c0,0.275,0.224,0.499,0.499,0.499h1.775l3.295,3.297h-2.552l-1.174-1.176c-0.188-0.188-0.519-0.188-0.707,0
			c-0.095,0.095-0.146,0.22-0.146,0.353c0,0.134,0.052,0.258,0.146,0.353l0.469,0.47h-1.23l-1.177-1.176
			c-0.188-0.188-0.515-0.188-0.706,0.001c-0.194,0.194-0.193,0.51,0,0.705l0.469,0.47h-0.446c-0.275,0-0.5,0.224-0.5,0.499
			s0.224,0.5,0.5,0.5h0.445l-0.468,0.468c-0.094,0.095-0.146,0.22-0.146,0.354c0,0.133,0.052,0.259,0.146,0.354
			c0.188,0.188,0.517,0.19,0.706,0l1.177-1.175h1.229l-0.468,0.468c-0.095,0.095-0.146,0.22-0.146,0.354
			c0,0.134,0.052,0.259,0.146,0.353c0.185,0.187,0.522,0.187,0.707,0.001l1.174-1.175h2.551l-3.294,3.294h-1.775
			c-0.275,0-0.499,0.224-0.499,0.499c0,0.276,0.224,0.5,0.499,0.5h0.776l-0.798,0.8c-0.095,0.093-0.146,0.219-0.146,0.352
			c0,0.134,0.052,0.26,0.146,0.354c0.19,0.189,0.516,0.187,0.705,0l0.8-0.799v0.776c0,0.275,0.223,0.5,0.497,0.5
			c0.275,0,0.5-0.225,0.5-0.5v-1.775l3.296-3.296v2.552l-1.175,1.175c-0.195,0.194-0.195,0.51,0,0.705
			c0.187,0.188,0.515,0.19,0.705,0.001l0.47-0.469v1.231l-1.174,1.174c-0.095,0.095-0.146,0.22-0.146,0.353
			c0,0.134,0.052,0.26,0.146,0.353c0.187,0.189,0.517,0.191,0.706,0.001l0.47-0.47v0.447c0,0.275,0.224,0.5,0.5,0.5
			c0.276,0,0.5-0.225,0.5-0.5v-0.447l0.468,0.469c0.186,0.188,0.522,0.188,0.707,0.001c0.095-0.094,0.147-0.22,0.147-0.354
			c0-0.133-0.052-0.258-0.147-0.353l-1.175-1.174v-1.231l0.468,0.469c0.186,0.185,0.521,0.185,0.707-0.001
			c0.195-0.194,0.195-0.51,0-0.705l-1.175-1.175v-2.552l3.294,3.296v1.775c0,0.275,0.225,0.5,0.5,0.5c0.275,0,0.5-0.225,0.5-0.5
			v-0.776l0.799,0.799c0.187,0.186,0.517,0.187,0.706,0c0.094-0.095,0.146-0.221,0.146-0.354c0-0.134-0.052-0.26-0.146-0.353
			l-0.798-0.8h0.775c0.275,0,0.5-0.224,0.5-0.5c0-0.275-0.224-0.499-0.5-0.499h-1.774l-3.296-3.294h2.553l1.174,1.175
			c0.188,0.189,0.517,0.189,0.706,0c0.095-0.095,0.146-0.221,0.146-0.354c0-0.134-0.051-0.259-0.146-0.354l-0.468-0.468h1.23
			l1.174,1.175c0.185,0.186,0.521,0.186,0.708,0c0.094-0.095,0.146-0.221,0.146-0.354c0-0.134-0.052-0.259-0.146-0.354l-0.469-0.468
			h0.446C181.81,192.78,182.034,192.556,182.034,192.281z"/>
	</g>
</g>
</svg>
