<?xml version="1.0" encoding="iso-8859-1"?>
<!-- Generator: Adobe Illustrator 16.0.0, SVG Export Plug-In . SVG Version: 6.00 Build 0)  -->
<!DOCTYPE svg PUBLIC "-//W3C//DTD SVG 1.1//EN" "http://www.w3.org/Graphics/SVG/1.1/DTD/svg11.dtd">
<svg version="1.1" xmlns="http://www.w3.org/2000/svg" xmlns:xlink="http://www.w3.org/1999/xlink" x="0px" y="0px" width="256px"
	 height="256px" viewBox="0 0 256 256" style="enable-background:new 0 0 256 256;" xml:space="preserve">
<g id="bg_light" style="display:none;">
	<rect style="display:inline;fill:#0079C1;" width="256" height="256"/>
</g>
<g id="guides" style="display:none;">
	<g style="display:inline;">
		<g>
			<g>
				<line style="fill:none;stroke:#FFFFFF;stroke-width:0.25;stroke-miterlimit:10;" x1="40.5" y1="0" x2="40.5" y2="2"/>
				
					<line style="fill:none;stroke:#FFFFFF;stroke-width:0.25;stroke-miterlimit:10;stroke-dasharray:4,4;" x1="40.5" y1="6" x2="40.5" y2="252"/>
				<line style="fill:none;stroke:#FFFFFF;stroke-width:0.25;stroke-miterlimit:10;" x1="40.5" y1="254" x2="40.5" y2="256"/>
			</g>
		</g>
		<g>
			<g>
				<line style="fill:none;stroke:#FFFFFF;stroke-width:0.25;stroke-miterlimit:10;" x1="215.5" y1="0" x2="215.5" y2="2"/>
				
					<line style="fill:none;stroke:#FFFFFF;stroke-width:0.25;stroke-miterlimit:10;stroke-dasharray:4,4;" x1="215.5" y1="6" x2="215.5" y2="252"/>
				<line style="fill:none;stroke:#FFFFFF;stroke-width:0.25;stroke-miterlimit:10;" x1="215.5" y1="254" x2="215.5" y2="256"/>
			</g>
		</g>
		<g>
			<g>
				<line style="fill:none;stroke:#FFFFFF;stroke-width:0.25;stroke-miterlimit:10;" x1="256" y1="40.5" x2="254" y2="40.5"/>
				
					<line style="fill:none;stroke:#FFFFFF;stroke-width:0.25;stroke-miterlimit:10;stroke-dasharray:4,4;" x1="250" y1="40.5" x2="4" y2="40.5"/>
				<line style="fill:none;stroke:#FFFFFF;stroke-width:0.25;stroke-miterlimit:10;" x1="2" y1="40.5" x2="0" y2="40.5"/>
			</g>
		</g>
		<g>
			<g>
				<line style="fill:none;stroke:#FFFFFF;stroke-width:0.25;stroke-miterlimit:10;" x1="256" y1="215.5" x2="254" y2="215.5"/>
				
					<line style="fill:none;stroke:#FFFFFF;stroke-width:0.25;stroke-miterlimit:10;stroke-dasharray:4,4;" x1="250" y1="215.5" x2="4" y2="215.5"/>
				<line style="fill:none;stroke:#FFFFFF;stroke-width:0.25;stroke-miterlimit:10;" x1="2" y1="215.5" x2="0" y2="215.5"/>
			</g>
		</g>
	</g>
</g>
<g id="border">
	<rect style="opacity:0;fill:none;stroke:#231F20;stroke-width:0.1;stroke-miterlimit:10;" width="256" height="256"/>
</g>
<g id="icons">
	<g>
		<g>
			<g>
				<path style="fill:#FFFFFF;" d="M115.342,146.145c-0.918,0-1.665-0.747-1.665-1.664v-2.429l-2.315,2.314
					c-0.313,0.314-0.729,0.49-1.17,0.49c-0.447,0-0.866-0.176-1.18-0.492c-0.313-0.313-0.485-0.73-0.485-1.175
					s0.173-0.863,0.487-1.176l4.663-4.664v-5.6l-2.315,2.31c-0.314,0.314-0.73,0.487-1.17,0.487c-0.446,0-0.865-0.173-1.178-0.487
					c-0.647-0.646-0.647-1.7,0-2.348l4.663-4.664v-10.755l-13.418,13.419v7.039c0,0.917-0.747,1.665-1.665,1.665
					c-0.915,0-1.657-0.748-1.657-1.665v-3.71l-3.604,3.599c-0.317,0.314-0.734,0.487-1.178,0.487c-0.44,0-0.855-0.173-1.17-0.486
					c-0.315-0.316-0.489-0.736-0.489-1.181c0-0.444,0.173-0.861,0.489-1.175l3.597-3.597h-3.708c-0.918,0-1.666-0.748-1.666-1.666
					c0-0.919,0.748-1.666,1.666-1.666h7.037l13.412-13.41h-10.748l-4.664,4.663c-0.309,0.31-0.737,0.488-1.177,0.488
					c-0.439,0-0.869-0.179-1.177-0.49c-0.313-0.312-0.487-0.731-0.487-1.176c0-0.445,0.174-0.863,0.489-1.177l2.313-2.308h-5.598
					l-4.669,4.663c-0.314,0.315-0.73,0.488-1.17,0.488c-0.447,0-0.865-0.173-1.18-0.49c-0.646-0.647-0.646-1.704,0.001-2.353
					l2.308-2.309h-2.419c-0.917,0-1.664-0.746-1.664-1.665c0-0.917,0.747-1.664,1.664-1.664h2.421l-2.31-2.316
					c-0.646-0.646-0.646-1.7,0-2.349c0.316-0.314,0.733-0.486,1.175-0.486c0.443,0,0.86,0.173,1.174,0.486l4.669,4.665h5.598
					l-2.314-2.316c-0.314-0.313-0.488-0.731-0.488-1.173c0-0.443,0.173-0.862,0.487-1.176c0.315-0.313,0.732-0.486,1.177-0.486
					s0.863,0.173,1.176,0.486l4.665,4.665h10.748L97.911,97.199h-7.037c-0.918,0-1.666-0.748-1.666-1.664
					c0-0.915,0.748-1.657,1.666-1.657h3.708l-3.599-3.604c-0.314-0.317-0.487-0.733-0.487-1.176c0-0.443,0.173-0.861,0.489-1.174
					c0.313-0.314,0.73-0.487,1.173-0.487c0.443,0,0.86,0.173,1.175,0.487l3.604,3.601v-3.711c0-0.918,0.743-1.664,1.657-1.664
					c0.918,0,1.665,0.746,1.665,1.664v7.038l13.418,13.412V97.515l-4.663-4.666c-0.314-0.313-0.487-0.731-0.487-1.176
					c0-0.444,0.173-0.863,0.487-1.176c0.314-0.315,0.731-0.488,1.174-0.488c0.444,0,0.86,0.172,1.174,0.488l2.315,2.315v-5.598
					l-4.663-4.67c-0.647-0.647-0.647-1.701,0-2.349c0.314-0.314,0.731-0.486,1.174-0.486c0.444,0,0.86,0.172,1.174,0.486
					l2.315,2.309v-2.421c0-0.917,0.746-1.664,1.665-1.664c0.917,0,1.665,0.747,1.665,1.664v2.421l2.309-2.309
					c0.314-0.314,0.733-0.486,1.177-0.486c0.446,0,0.863,0.172,1.177,0.485c0.648,0.649,0.648,1.703,0,2.35l-4.663,4.67v5.596
					l2.308-2.313c0.315-0.315,0.734-0.488,1.178-0.488c0.446,0,0.863,0.172,1.177,0.488c0.314,0.313,0.487,0.732,0.487,1.176
					c0,0.445-0.173,0.863-0.487,1.177l-4.663,4.665v10.747l13.602-13.602v4.703l-11.253,11.254h11.253v3.329h-11.253l11.253,11.248
					v4.709l-13.602-13.609v10.755l4.663,4.663c0.647,0.649,0.647,1.703,0,2.349c-0.31,0.31-0.739,0.487-1.177,0.487
					c-0.438,0-0.867-0.177-1.177-0.486l-2.309-2.31v5.599l4.663,4.665c0.314,0.313,0.487,0.73,0.487,1.175s-0.173,0.863-0.487,1.177
					c-0.309,0.31-0.738,0.49-1.177,0.49c-0.439,0-0.869-0.18-1.179-0.492l-2.307-2.311v2.427
					C117.007,145.398,116.26,146.145,115.342,146.145z"/>
				<path style="fill:#FFFFFF;" d="M115.342,78.793c0.71,0,1.289,0.578,1.289,1.289v3.327l2.949-2.95
					c0.252-0.25,0.583-0.376,0.913-0.376s0.66,0.126,0.912,0.376c0.502,0.504,0.502,1.315,0,1.818l-4.773,4.78v6.661l2.949-2.958
					c0.252-0.251,0.583-0.376,0.913-0.376s0.66,0.125,0.912,0.376c0.502,0.502,0.502,1.32,0,1.822l-4.773,4.775v11.81l13.603-13.603
					v3.642l-11.785,11.785h11.785v2.578h-11.785l11.785,11.779v3.646l-13.603-13.608v11.817l4.773,4.773
					c0.502,0.504,0.502,1.315,0,1.816c-0.252,0.252-0.585,0.377-0.912,0.377c-0.327,0-0.66-0.125-0.913-0.377l-2.949-2.949v6.661
					l4.773,4.774c0.502,0.501,0.502,1.32,0,1.822c-0.252,0.253-0.585,0.38-0.912,0.38c-0.327,0-0.66-0.126-0.913-0.38l-2.949-2.956
					v3.335c0,0.708-0.579,1.287-1.289,1.287c-0.712,0-1.289-0.579-1.289-1.287v-3.335l-2.957,2.956
					c-0.252,0.253-0.577,0.38-0.905,0.38c-0.333,0-0.662-0.126-0.913-0.38c-0.502-0.502-0.502-1.32,0-1.822l4.774-4.774v-6.661
					l-2.957,2.949c-0.252,0.252-0.577,0.377-0.905,0.377c-0.333,0-0.662-0.125-0.913-0.377c-0.502-0.501-0.502-1.313,0-1.816
					l4.774-4.773v-11.817l-14.169,14.169v7.195c0,0.71-0.572,1.289-1.29,1.289c-0.71,0-1.282-0.579-1.282-1.289v-4.616l-4.244,4.239
					c-0.252,0.25-0.58,0.377-0.914,0.377c-0.327,0-0.654-0.127-0.905-0.377c-0.504-0.504-0.504-1.321,0-1.823l4.24-4.24h-4.616
					c-0.719,0-1.29-0.578-1.29-1.29c0-0.709,0.571-1.29,1.29-1.29h7.193l14.163-14.161h-11.812l-4.772,4.772
					c-0.252,0.252-0.584,0.378-0.912,0.378c-0.327,0-0.659-0.126-0.91-0.378c-0.504-0.502-0.504-1.319,0-1.822l2.955-2.951h-6.66
					l-4.78,4.772c-0.251,0.252-0.579,0.378-0.905,0.378c-0.332,0-0.661-0.126-0.912-0.378c-0.502-0.502-0.502-1.319,0-1.822
					l2.949-2.951h-3.326c-0.711,0-1.289-0.578-1.289-1.289c0-0.711,0.578-1.289,1.289-1.289h3.326l-2.949-2.956
					c-0.502-0.502-0.502-1.314,0-1.817c0.252-0.251,0.58-0.376,0.909-0.376c0.33,0,0.659,0.125,0.909,0.376l4.78,4.773h6.66
					l-2.955-2.956c-0.504-0.502-0.504-1.314,0-1.817c0.251-0.251,0.581-0.376,0.91-0.376c0.33,0,0.66,0.125,0.912,0.376l4.772,4.773
					h11.812L98.067,96.823h-7.193c-0.719,0-1.29-0.571-1.29-1.288c0-0.712,0.571-1.281,1.29-1.281h4.616l-4.24-4.246
					c-0.504-0.505-0.504-1.316,0-1.819c0.251-0.251,0.58-0.377,0.909-0.377s0.657,0.126,0.91,0.377l4.244,4.24v-4.616
					c0-0.718,0.572-1.289,1.282-1.289c0.718,0,1.29,0.571,1.29,1.289v7.193l14.169,14.163v-11.81l-4.774-4.775
					c-0.502-0.502-0.502-1.32,0-1.822c0.251-0.251,0.581-0.376,0.909-0.376s0.657,0.125,0.908,0.376l2.957,2.958v-6.661l-4.774-4.78
					c-0.502-0.502-0.502-1.314,0-1.818c0.251-0.25,0.581-0.376,0.909-0.376s0.657,0.126,0.908,0.376l2.957,2.95v-3.327
					C114.054,79.372,114.63,78.793,115.342,78.793 M115.342,78.042c-1.125,0-2.04,0.915-2.04,2.04v1.516l-1.674-1.67
					c-0.384-0.385-0.895-0.597-1.439-0.597c-0.542,0-1.054,0.212-1.439,0.596c-0.794,0.796-0.794,2.088-0.001,2.881l4.554,4.56
					v4.536l-1.674-1.674c-0.384-0.386-0.895-0.598-1.439-0.598c-0.543,0-1.054,0.212-1.44,0.597
					c-0.384,0.385-0.598,0.897-0.598,1.443c0,0.545,0.213,1.058,0.597,1.442l4.554,4.555v9.686l-12.667-12.662v-6.881
					c0-1.125-0.915-2.04-2.041-2.04c-1.121,0-2.033,0.915-2.033,2.04v2.805l-2.963-2.96c-0.386-0.386-0.897-0.597-1.44-0.597
					c-0.543,0-1.055,0.212-1.44,0.599c-0.385,0.383-0.597,0.894-0.597,1.438c0,0.543,0.211,1.055,0.597,1.441l2.958,2.963h-2.803
					c-1.125,0-2.042,0.911-2.042,2.033c0,1.124,0.916,2.04,2.042,2.04h6.881l12.661,12.667h-9.687l-4.554-4.554
					c-0.385-0.385-0.896-0.596-1.442-0.596c-0.545,0-1.057,0.211-1.441,0.596c-0.386,0.385-0.598,0.896-0.598,1.441
					c0,0.543,0.211,1.054,0.598,1.439l1.673,1.673H90.43l-4.56-4.554c-0.385-0.385-0.896-0.596-1.44-0.596
					c-0.542,0-1.053,0.211-1.439,0.595c-0.794,0.797-0.793,2.088-0.001,2.881l1.67,1.674h-1.516c-1.125,0-2.041,0.915-2.041,2.04
					c0,1.126,0.916,2.041,2.041,2.041h1.513l-1.667,1.667c-0.795,0.795-0.795,2.089,0,2.884c0.381,0.386,0.895,0.599,1.443,0.599
					c0.542,0,1.052-0.213,1.438-0.599l4.558-4.551h4.533l-1.67,1.667c-0.386,0.385-0.598,0.896-0.598,1.442
					c0,0.545,0.211,1.059,0.598,1.445c0.376,0.378,0.903,0.597,1.441,0.597c0.54,0,1.066-0.219,1.445-0.601l4.551-4.549h9.686
					l-12.661,12.659h-6.881c-1.125,0-2.042,0.915-2.042,2.041c0,1.125,0.916,2.041,2.042,2.041h2.801l-2.957,2.958
					c-0.385,0.383-0.597,0.894-0.597,1.439c-0.001,0.547,0.211,1.06,0.597,1.446c0.389,0.386,0.897,0.597,1.437,0.597
					c0.544,0,1.056-0.211,1.442-0.595l2.964-2.96v2.804c0,1.125,0.913,2.04,2.033,2.04c1.125,0,2.041-0.916,2.041-2.04v-6.884
					l12.667-12.667v9.692l-4.554,4.554c-0.792,0.795-0.792,2.086,0,2.88c0.384,0.384,0.897,0.596,1.444,0.596
					c0.541,0,1.05-0.211,1.436-0.596l1.674-1.67v4.539l-4.554,4.554c-0.384,0.384-0.597,0.896-0.597,1.441
					c0,0.545,0.213,1.057,0.597,1.443c0.381,0.385,0.896,0.6,1.444,0.6c0.542,0,1.054-0.214,1.438-0.603l1.672-1.671v1.522
					c0,1.125,0.915,2.039,2.04,2.039s2.041-0.914,2.041-2.039v-1.519l1.666,1.669c0.378,0.381,0.905,0.601,1.444,0.601
					s1.066-0.22,1.445-0.602c0.384-0.384,0.595-0.896,0.595-1.441c0-0.546-0.212-1.057-0.597-1.442l-4.553-4.553v-4.536l1.667,1.667
					c0.38,0.38,0.907,0.596,1.443,0.596c0.537,0,1.063-0.216,1.443-0.596c0.793-0.793,0.794-2.085,0.001-2.879l-4.555-4.555v-9.691
					l12.318,12.325l1.283,1.284v-1.815v-3.646v-0.311l-0.219-0.22l-10.501-10.497h9.97h0.75v-0.752v-2.578v-0.751h-0.75h-9.971
					l10.502-10.503l0.219-0.219v-0.311v-3.642v-1.813l-1.281,1.282l-12.32,12.32V97.67l4.553-4.555
					c0.384-0.384,0.597-0.896,0.597-1.442c0-0.545-0.212-1.058-0.597-1.443c-0.385-0.385-0.897-0.597-1.443-0.597
					c-0.545,0-1.058,0.212-1.443,0.597l-1.667,1.671v-4.533l4.554-4.56c0.793-0.792,0.793-2.084,0-2.878
					c-0.387-0.386-0.898-0.599-1.444-0.599c-0.545,0-1.057,0.212-1.443,0.596l-1.667,1.667v-1.513
					C117.383,78.958,116.467,78.042,115.342,78.042L115.342,78.042z"/>
			</g>
		</g>
		<path style="fill:#FFFFFF;" d="M149.301,192c-0.967,0-1.946-0.053-2.925-0.166c-11.698-1.292-21.168-10.73-22.502-22.417
			c-1.071-9.356,2.929-18.365,10.491-23.794V78.938c0-8.239,6.699-14.938,14.936-14.938c8.231,0,14.929,6.7,14.929,14.938v66.685
			c6.698,4.814,10.667,12.491,10.667,20.771c0,6.846-2.656,13.273-7.499,18.107C162.563,189.333,156.135,192,149.301,192
			L149.301,192z M149.301,68.272c-5.885,0-10.667,4.781-10.667,10.666v68.958l-0.967,0.635c-6.822,4.459-10.488,12.271-9.563,20.397
			c1.125,9.739,9.01,17.591,18.749,18.667c6.533,0.738,12.929-1.513,17.532-6.104c4.032-4.033,6.25-9.396,6.25-15.097
			c0-7.219-3.624-13.893-9.708-17.863l-0.958-0.625V78.938C159.97,73.054,155.179,68.272,149.301,68.272L149.301,68.272z
			 M149.301,68.272"/>
		<path style="fill:#5AC8FA;" d="M153.81,151.96l-0.001-9.881c0-2.49-2.018-4.508-4.508-4.508c-2.489,0-4.507,2.019-4.507,4.508
			l0.001,9.881c-6.303,1.927-10.886,7.789-10.886,14.722c0,8.502,6.891,15.395,15.393,15.395c8.503,0,15.395-6.892,15.395-15.395
			C164.696,159.749,160.113,153.887,153.81,151.96z"/>
	</g>
</g>
</svg>
