<?xml version="1.0" encoding="iso-8859-1"?>
<!-- Generator: Adobe Illustrator 16.0.0, SVG Export Plug-In . SVG Version: 6.00 Build 0)  -->
<!DOCTYPE svg PUBLIC "-//W3C//DTD SVG 1.1//EN" "http://www.w3.org/Graphics/SVG/1.1/DTD/svg11.dtd">
<svg version="1.1" xmlns="http://www.w3.org/2000/svg" xmlns:xlink="http://www.w3.org/1999/xlink" x="0px" y="0px" width="256px"
	 height="256px" viewBox="0 0 256 256" style="enable-background:new 0 0 256 256;" xml:space="preserve">
<g id="bg_light" style="display:none;">
	<rect style="display:inline;fill:#0079C1;" width="256" height="256"/>
</g>
<g id="guides" style="display:none;">
	<g style="display:inline;">
		<g>
			<g>
				<line style="fill:none;stroke:#FFFFFF;stroke-width:0.25;stroke-miterlimit:10;" x1="40.5" y1="0" x2="40.5" y2="2"/>
				
					<line style="fill:none;stroke:#FFFFFF;stroke-width:0.25;stroke-miterlimit:10;stroke-dasharray:4,4;" x1="40.5" y1="6" x2="40.5" y2="252"/>
				<line style="fill:none;stroke:#FFFFFF;stroke-width:0.25;stroke-miterlimit:10;" x1="40.5" y1="254" x2="40.5" y2="256"/>
			</g>
		</g>
		<g>
			<g>
				<line style="fill:none;stroke:#FFFFFF;stroke-width:0.25;stroke-miterlimit:10;" x1="215.5" y1="0" x2="215.5" y2="2"/>
				
					<line style="fill:none;stroke:#FFFFFF;stroke-width:0.25;stroke-miterlimit:10;stroke-dasharray:4,4;" x1="215.5" y1="6" x2="215.5" y2="252"/>
				<line style="fill:none;stroke:#FFFFFF;stroke-width:0.25;stroke-miterlimit:10;" x1="215.5" y1="254" x2="215.5" y2="256"/>
			</g>
		</g>
		<g>
			<g>
				<line style="fill:none;stroke:#FFFFFF;stroke-width:0.25;stroke-miterlimit:10;" x1="256" y1="40.5" x2="254" y2="40.5"/>
				
					<line style="fill:none;stroke:#FFFFFF;stroke-width:0.25;stroke-miterlimit:10;stroke-dasharray:4,4;" x1="250" y1="40.5" x2="4" y2="40.5"/>
				<line style="fill:none;stroke:#FFFFFF;stroke-width:0.25;stroke-miterlimit:10;" x1="2" y1="40.5" x2="0" y2="40.5"/>
			</g>
		</g>
		<g>
			<g>
				<line style="fill:none;stroke:#FFFFFF;stroke-width:0.25;stroke-miterlimit:10;" x1="256" y1="215.5" x2="254" y2="215.5"/>
				
					<line style="fill:none;stroke:#FFFFFF;stroke-width:0.25;stroke-miterlimit:10;stroke-dasharray:4,4;" x1="250" y1="215.5" x2="4" y2="215.5"/>
				<line style="fill:none;stroke:#FFFFFF;stroke-width:0.25;stroke-miterlimit:10;" x1="2" y1="215.5" x2="0" y2="215.5"/>
			</g>
		</g>
	</g>
</g>
<g id="border">
	<rect style="opacity:0;fill:none;stroke:#231F20;stroke-width:0.1;stroke-miterlimit:10;" width="256" height="256"/>
</g>
<g id="icons">
	<g>
		<g>
			<path style="fill:#D5D6DB;" d="M114.494,139.867h-3.076l-4.711,4.709c-0.771,0.778-1.774,1.313-2.851,1.541h4.388
				L114.494,139.867z"/>
			<path style="fill:#D5D6DB;" d="M144.966,139.867h-3.08l6.252,6.25h4.377c-1.07-0.227-2.053-0.754-2.844-1.548L144.966,139.867z"
				/>
			<path style="fill:#D5D6DB;" d="M98.674,144.563c-0.85-0.846-1.4-1.933-1.583-3.116l-3.136,3.131
				c-0.785,0.788-1.765,1.313-2.832,1.54h10.416C100.46,145.888,99.453,145.35,98.674,144.563z"/>
			<path style="fill:#969AA4;" d="M183.37,98.56c0.034-0.506,0.059-1.014,0.059-1.526c0-12.589-10.204-22.792-22.789-22.792
				c-4.035,0-7.82,1.054-11.106,2.895C146.01,61.599,132.117,50,115.515,50c-19.264,0-34.882,15.617-34.882,34.884
				c0,0.199,0.003,0.403,0.008,0.603c-13.739,3.045-24.014,15.299-24.014,29.952c0,16.941,13.735,30.678,30.678,30.678h1.474
				c-1.073-0.227-2.06-0.757-2.85-1.553c-1.632-1.632-2.053-4.031-1.262-6.065c-1.213-1.041-1.983-2.586-1.983-4.305
				c0-1.726,0.772-3.27,1.987-4.31c-0.791-2.033-0.37-4.433,1.265-6.072c1.08-1.078,2.502-1.665,4.015-1.665
				c1.511,0,2.935,0.589,4.005,1.659l3.136,3.132c0.183-1.182,0.734-2.271,1.597-3.132c1.067-1.069,2.493-1.659,4.008-1.659
				c1.517,0,2.941,0.59,4.013,1.661l4.71,4.711h3.08l-9.369-9.373H97.92c-3.128,0-5.675-2.546-5.675-5.674
				c0-1.988,1.032-3.742,2.591-4.752c-0.647-0.938-0.995-2.049-0.995-3.21c0-1.517,0.592-2.941,1.667-4.013
				c1.063-1.065,2.486-1.657,4.001-1.657c1.163,0,2.274,0.349,3.211,0.997c1.012-1.559,2.765-2.591,4.753-2.591
				c3.129,0,5.674,2.545,5.674,5.674v7.209l9.373,9.369v-3.079l-4.712-4.712c-2.211-2.211-2.211-5.811,0-8.022
				c0.862-0.862,1.952-1.412,3.131-1.595l-3.133-3.136c-2.206-2.204-2.207-5.8-0.001-8.01c1.081-1.078,2.503-1.664,4.013-1.664
				c0.718,0,1.419,0.132,2.068,0.388c1.042-1.215,2.586-1.986,4.307-1.986c1.72,0,3.266,0.771,4.307,1.983
				c0.649-0.255,1.347-0.385,2.064-0.385c1.515,0,2.938,0.586,4.009,1.656c2.214,2.218,2.213,5.813,0.004,8.021l-3.13,3.133
				c1.183,0.184,2.271,0.734,3.131,1.595c1.07,1.07,1.661,2.494,1.661,4.01s-0.591,2.941-1.662,4.013l-4.709,4.709v3.076
				l9.363-9.364v-7.21c0-3.128,2.544-5.674,5.673-5.674c1.991,0,3.746,1.031,4.759,2.587c0.937-0.646,2.045-0.993,3.209-0.993
				c1.517,0,2.941,0.591,4.014,1.666c1.958,1.952,2.181,5.004,0.664,7.215c1.558,1.01,2.591,2.763,2.591,4.752
				c0,3.127-2.546,5.674-5.675,5.674h-7.21l-9.373,9.373h3.084l4.71-4.711c1.075-1.073,2.497-1.661,4.009-1.661
				s2.935,0.588,4.006,1.657c0.885,0.886,1.415,1.992,1.592,3.143l3.139-3.139c1.072-1.072,2.497-1.661,4.013-1.661
				c1.514,0,2.937,0.588,4.008,1.657c1.642,1.644,2.065,4.046,1.273,6.08c1.215,1.04,1.986,2.584,1.986,4.31
				c0,1.716-0.77,3.263-1.981,4.304c0.255,0.65,0.387,1.349,0.387,2.065c0,1.518-0.59,2.941-1.663,4.013
				c-0.776,0.779-1.778,1.313-2.854,1.541h7.241c13.555,0,24.542-10.991,24.542-24.544
				C199.373,111.023,192.714,102.029,183.37,98.56z"/>
			<path style="fill:#D5D6DB;" d="M162.409,144.564l-3.122-3.122c-0.183,1.183-0.733,2.274-1.595,3.135
				c-0.783,0.787-1.766,1.313-2.833,1.54h10.415C164.197,145.888,163.19,145.352,162.409,144.564z"/>
		</g>
		<path style="fill:#FFFFFF;" d="M170.438,134.194c0-1.331-1.081-2.413-2.411-2.413h-2.154l2.266-2.262
			c0.937-0.939,0.937-2.465-0.002-3.404c-0.909-0.909-2.498-0.91-3.408,0l-5.667,5.666h-5.935l2.259-2.262
			c0.938-0.939,0.938-2.465,0-3.404c-0.911-0.909-2.49-0.91-3.402,0l-5.666,5.666h-12.313l15.897-15.898h8.563
			c1.331,0,2.412-1.081,2.412-2.41c0-1.323-1.081-2.4-2.412-2.4h-3.742l3.854-3.861c0.937-0.94,0.937-2.466,0-3.401
			c-0.911-0.912-2.502-0.912-3.411-0.001l-3.852,3.853v-3.742c0-1.329-1.082-2.41-2.411-2.41c-1.328,0-2.409,1.081-2.409,2.41v8.561
			l-15.891,15.891v-12.304l5.667-5.667c0.454-0.455,0.705-1.061,0.705-1.705c0-0.643-0.251-1.249-0.705-1.704
			c-0.911-0.912-2.501-0.912-3.411,0.001l-2.256,2.26v-5.928l5.667-5.676c0.937-0.937,0.938-2.462-0.002-3.403
			c-0.911-0.906-2.497-0.907-3.408,0l-2.257,2.256v-2.145c0-1.329-1.082-2.411-2.411-2.411c-1.327,0-2.409,1.082-2.409,2.411v2.149
			l-2.267-2.26c-0.907-0.907-2.486-0.91-3.402,0.002c-0.937,0.938-0.936,2.463,0,3.4l5.669,5.676v5.932l-2.265-2.263
			c-0.909-0.913-2.491-0.913-3.403-0.001c-0.454,0.455-0.705,1.061-0.705,1.704c0,0.644,0.251,1.25,0.705,1.705l5.668,5.667v12.304
			l-15.899-15.891v-8.561c0-1.329-1.082-2.41-2.411-2.41c-1.325,0-2.4,1.081-2.4,2.41v3.744l-3.861-3.855
			c-0.912-0.911-2.494-0.908-3.399-0.001c-0.456,0.456-0.709,1.06-0.709,1.702c0,0.641,0.251,1.246,0.707,1.703l3.854,3.86H97.92
			c-1.33,0-2.412,1.077-2.412,2.4c0,1.329,1.082,2.41,2.412,2.41h8.562l15.892,15.898h-12.306l-5.668-5.666
			c-0.908-0.909-2.499-0.909-3.406,0c-0.457,0.456-0.708,1.061-0.707,1.703c0,0.642,0.252,1.246,0.706,1.702l2.266,2.262h-5.936
			l-5.672-5.666c-0.909-0.909-2.488-0.911-3.404,0c-0.936,0.939-0.935,2.465,0,3.404l2.261,2.262h-2.149
			c-1.329,0-2.41,1.082-2.41,2.413c0,1.328,1.081,2.408,2.41,2.408h2.146l-2.257,2.259c-0.455,0.453-0.705,1.059-0.705,1.702
			c0,0.646,0.25,1.249,0.702,1.703c0.905,0.91,2.49,0.919,3.406,0.002l5.672-5.666h5.932l-2.26,2.258
			c-0.456,0.454-0.708,1.059-0.708,1.703c0,0.646,0.252,1.25,0.704,1.701c0.894,0.902,2.521,0.901,3.409,0.004l5.668-5.666h12.304
			l-15.889,15.889H97.92c-1.33,0-2.412,1.085-2.412,2.413c0,1.327,1.082,2.41,2.412,2.41h3.741l-3.85,3.853
			c-0.456,0.453-0.708,1.058-0.709,1.703c0,0.645,0.251,1.25,0.709,1.71c0.914,0.909,2.49,0.902,3.399,0l3.861-3.856v3.742
			c0,1.329,1.075,2.41,2.4,2.41c1.329,0,2.411-1.081,2.411-2.41v-8.563l15.899-15.898v12.313l-5.669,5.669
			c-0.937,0.938-0.936,2.461,0,3.397c0.903,0.905,2.486,0.916,3.402,0.002l2.267-2.261v5.938l-5.668,5.668
			c-0.454,0.454-0.705,1.057-0.705,1.703c0,0.646,0.251,1.25,0.701,1.698c0.902,0.914,2.495,0.922,3.405,0.004l2.267-2.265v2.159
			c0,1.328,1.082,2.409,2.409,2.409c1.329,0,2.411-1.081,2.411-2.409v-2.155l2.254,2.259c0.896,0.902,2.517,0.901,3.412,0.002
			c0.455-0.452,0.706-1.057,0.706-1.702c0-0.646-0.251-1.249-0.705-1.703l-5.667-5.668v-5.934l2.258,2.257
			c0.896,0.896,2.507,0.898,3.409-0.002c0.937-0.937,0.938-2.46,0-3.4l-5.667-5.666v-12.313l15.891,15.898v8.563
			c0,1.329,1.081,2.41,2.409,2.41c1.329,0,2.411-1.081,2.411-2.41v-3.74l3.854,3.854c0.903,0.896,2.495,0.902,3.409-0.002
			c0.454-0.458,0.705-1.063,0.705-1.707c0-0.645-0.251-1.251-0.706-1.704l-3.853-3.853h3.741c1.331,0,2.412-1.083,2.412-2.41
			c0-1.328-1.081-2.413-2.412-2.413h-8.563l-15.896-15.889h12.311l5.664,5.665c0.911,0.911,2.495,0.915,3.404,0.001
			c0.455-0.455,0.706-1.06,0.706-1.705c0-0.644-0.251-1.249-0.706-1.702l-2.257-2.259h5.933l5.665,5.664
			c0.895,0.9,2.514,0.901,3.412,0.002c0.454-0.456,0.705-1.06,0.705-1.705c0-0.644-0.251-1.249-0.707-1.703l-2.26-2.258h2.15
			C169.357,136.603,170.438,135.522,170.438,134.194z"/>
		<g>
			<path style="fill:#5AC8FA;" d="M64.501,187.442c-0.85,0-1.708-0.245-2.46-0.761c-1.982-1.362-2.487-4.071-1.127-6.054
				l16.361-23.848c1.361-1.986,4.071-2.49,6.052-1.13c1.983,1.36,2.488,4.069,1.129,6.053l-16.361,23.848
				C67.251,186.782,65.888,187.442,64.501,187.442z"/>
		</g>
		<g>
			<path style="fill:#5AC8FA;" d="M166.182,187.442c-0.85,0-1.706-0.245-2.458-0.761c-1.984-1.362-2.488-4.071-1.129-6.054
				l16.361-23.848c1.362-1.986,4.07-2.49,6.054-1.13s2.487,4.069,1.127,6.053l-16.361,23.848
				C168.931,186.782,167.567,187.442,166.182,187.442z"/>
		</g>
		<g>
			<path style="fill:#5AC8FA;" d="M81.105,202.422c-0.862,0-1.733-0.255-2.493-0.785c-1.971-1.38-2.449-4.094-1.07-6.064
				l14.874-21.247c1.379-1.973,4.093-2.448,6.064-1.072c1.969,1.38,2.448,4.095,1.068,6.065l-14.874,21.246
				C83.828,201.776,82.478,202.422,81.105,202.422z"/>
		</g>
		<g>
			<path style="fill:#5AC8FA;" d="M110.693,199.133c-0.862,0-1.733-0.257-2.493-0.789c-1.97-1.378-2.448-4.094-1.069-6.062
				l6.439-9.197c1.378-1.969,4.092-2.448,6.063-1.07c1.969,1.38,2.447,4.096,1.068,6.064l-6.438,9.197
				C113.417,198.485,112.065,199.133,110.693,199.133z"/>
		</g>
		<g>
			<path style="fill:#5AC8FA;" d="M132.554,206c-0.841,0-1.69-0.241-2.439-0.75c-1.99-1.349-2.51-4.058-1.161-6.046l13.371-19.724
				c1.349-1.989,4.057-2.51,6.046-1.163c1.99,1.351,2.51,4.057,1.16,6.048l-13.368,19.725C135.319,205.33,133.949,206,132.554,206z"
				/>
		</g>
	</g>
</g>
</svg>
