<?xml version="1.0" encoding="iso-8859-1"?>
<!-- Generator: Adobe Illustrator 16.0.0, SVG Export Plug-In . SVG Version: 6.00 Build 0)  -->
<!DOCTYPE svg PUBLIC "-//W3C//DTD SVG 1.1//EN" "http://www.w3.org/Graphics/SVG/1.1/DTD/svg11.dtd">
<svg version="1.1" xmlns="http://www.w3.org/2000/svg" xmlns:xlink="http://www.w3.org/1999/xlink" x="0px" y="0px" width="256px"
	 height="256px" viewBox="0 0 256 256" style="enable-background:new 0 0 256 256;" xml:space="preserve">
<g id="bg_light" style="display:none;">
	<rect style="display:inline;fill:#0079C1;" width="256" height="256"/>
</g>
<g id="guides" style="display:none;">
	<g style="display:inline;">
		<g>
			<g>
				<line style="fill:none;stroke:#FFFFFF;stroke-width:0.25;stroke-miterlimit:10;" x1="40.5" y1="0" x2="40.5" y2="2"/>
				
					<line style="fill:none;stroke:#FFFFFF;stroke-width:0.25;stroke-miterlimit:10;stroke-dasharray:4,4;" x1="40.5" y1="6" x2="40.5" y2="252"/>
				<line style="fill:none;stroke:#FFFFFF;stroke-width:0.25;stroke-miterlimit:10;" x1="40.5" y1="254" x2="40.5" y2="256"/>
			</g>
		</g>
		<g>
			<g>
				<line style="fill:none;stroke:#FFFFFF;stroke-width:0.25;stroke-miterlimit:10;" x1="215.5" y1="0" x2="215.5" y2="2"/>
				
					<line style="fill:none;stroke:#FFFFFF;stroke-width:0.25;stroke-miterlimit:10;stroke-dasharray:4,4;" x1="215.5" y1="6" x2="215.5" y2="252"/>
				<line style="fill:none;stroke:#FFFFFF;stroke-width:0.25;stroke-miterlimit:10;" x1="215.5" y1="254" x2="215.5" y2="256"/>
			</g>
		</g>
		<g>
			<g>
				<line style="fill:none;stroke:#FFFFFF;stroke-width:0.25;stroke-miterlimit:10;" x1="256" y1="40.5" x2="254" y2="40.5"/>
				
					<line style="fill:none;stroke:#FFFFFF;stroke-width:0.25;stroke-miterlimit:10;stroke-dasharray:4,4;" x1="250" y1="40.5" x2="4" y2="40.5"/>
				<line style="fill:none;stroke:#FFFFFF;stroke-width:0.25;stroke-miterlimit:10;" x1="2" y1="40.5" x2="0" y2="40.5"/>
			</g>
		</g>
		<g>
			<g>
				<line style="fill:none;stroke:#FFFFFF;stroke-width:0.25;stroke-miterlimit:10;" x1="256" y1="215.5" x2="254" y2="215.5"/>
				
					<line style="fill:none;stroke:#FFFFFF;stroke-width:0.25;stroke-miterlimit:10;stroke-dasharray:4,4;" x1="250" y1="215.5" x2="4" y2="215.5"/>
				<line style="fill:none;stroke:#FFFFFF;stroke-width:0.25;stroke-miterlimit:10;" x1="2" y1="215.5" x2="0" y2="215.5"/>
			</g>
		</g>
	</g>
</g>
<g id="border">
	<rect style="opacity:0;fill:none;stroke:#231F20;stroke-width:0.1;stroke-miterlimit:10;" width="256" height="256"/>
</g>
<g id="icons">
	<g>
		<path style="fill:#F0C419;" d="M121.516,61.941c1.477,0,2.684-1.19,2.684-2.668V43.184c0-1.481-1.207-2.684-2.684-2.684
			s-2.684,1.202-2.684,2.684v16.089C118.832,60.751,120.039,61.941,121.516,61.941z"/>
		<path style="fill:#F0C419;" d="M180.502,120.928c0,1.478,1.191,2.684,2.67,2.684h16.088c1.48,0,2.684-1.206,2.684-2.684
			c0-1.477-1.203-2.684-2.684-2.684h-16.088C181.693,118.245,180.502,119.451,180.502,120.928z"/>
		<path style="fill:#F0C419;" d="M62.527,120.928c0-1.477-1.189-2.684-2.666-2.684h-16.09c-1.482,0-2.684,1.207-2.684,2.684
			c0,1.478,1.201,2.684,2.684,2.684h16.09C61.338,123.612,62.527,122.406,62.527,120.928z"/>
		<path style="fill:#F0C419;" d="M165.121,80.007c0.68,0,1.373-0.262,1.896-0.785l15.369-15.382c1.047-1.049,1.047-2.738,0-3.783
			c-1.047-1.049-2.736-1.049-3.783,0l-15.381,15.369c-1.047,1.046-1.047,2.749,0,3.797
			C163.746,79.746,164.426,80.007,165.121,80.007z"/>
		<path style="fill:#F0C419;" d="M79.811,162.633c-1.049-1.044-2.752-1.044-3.797,0l-15.369,15.383
			c-1.049,1.049-1.049,2.738,0,3.783c0.523,0.522,1.203,0.784,1.883,0.784c0.693,0,1.379-0.261,1.9-0.784l15.383-15.369
			C80.857,165.386,80.857,163.681,79.811,162.633z"/>
		<path style="fill:#F0C419;" d="M76.014,79.223c0.523,0.523,1.217,0.785,1.895,0.785c0.695,0,1.375-0.262,1.902-0.785
			c1.047-1.048,1.047-2.751,0-3.797L64.428,60.057c-1.049-1.049-2.738-1.049-3.783,0c-1.049,1.045-1.049,2.734,0,3.783
			L76.014,79.223z"/>
		<path style="fill:#F0C419;" d="M175.803,97.889c0.445,1.023,1.426,1.621,2.475,1.621c0.352,0,0.705-0.063,1.047-0.208l7.408-3.144
			c1.361-0.572,1.99-2.145,1.414-3.507s-2.16-2.002-3.508-1.426l-7.41,3.142C175.867,94.944,175.227,96.527,175.803,97.889z"/>
		<path style="fill:#F0C419;" d="M67.229,143.967c-0.588-1.36-2.162-1.989-3.521-1.414l-7.408,3.144
			c-1.361,0.574-1.992,2.145-1.414,3.509c0.432,1.019,1.428,1.634,2.473,1.634c0.342,0,0.693-0.065,1.035-0.21l7.41-3.141
			C67.162,146.913,67.807,145.328,67.229,143.967z"/>
		<path style="fill:#F0C419;" d="M55.879,97.3l7.465,3.012c0.322,0.145,0.666,0.196,0.994,0.196c1.072,0,2.068-0.628,2.488-1.678
			c0.563-1.373-0.109-2.933-1.484-3.48l-7.457-3.024c-1.375-0.55-2.932,0.118-3.482,1.492C53.854,95.178,54.506,96.75,55.879,97.3z"
			/>
		<path style="fill:#F0C419;" d="M94.955,65.215c0.432,1.023,1.428,1.635,2.473,1.635c0.342,0,0.707-0.064,1.049-0.208
			c1.359-0.589,1.99-2.162,1.414-3.521l-3.145-7.409c-0.572-1.362-2.145-2.004-3.508-1.414c-1.359,0.576-2,2.147-1.424,3.508
			L94.955,65.215z"/>
		<path style="fill:#F0C419;" d="M143.613,66.238c0.326,0.143,0.666,0.193,0.994,0.193c1.061,0,2.068-0.626,2.488-1.676l3.023-7.459
			c0.549-1.363-0.119-2.932-1.492-3.481c-1.361-0.563-2.934,0.104-3.482,1.479l-3.012,7.463
			C141.57,64.128,142.238,65.688,143.613,66.238z"/>
		<path style="fill:#F0C419;" d="M81.301,120.928c0-22.214,18-40.214,40.215-40.214c21.598,0,39.207,17.015,40.168,38.375
			c4.775,0.361,9.299,1.625,13.406,3.625c0.02-0.594,0.045-1.187,0.045-1.786c0-29.611-24.008-53.619-53.619-53.619
			s-53.619,24.008-53.619,53.619c0,18.216,9.094,34.3,22.979,43.991c0.492-4.824,2.313-9.258,5.086-12.937
			C87.008,144.607,81.301,133.437,81.301,120.928z"/>
		<path style="fill:#FFE001;" d="M121.516,80.714c-22.215,0-40.215,18-40.215,40.214c0,12.508,5.707,23.679,14.66,31.054
			c4.736-6.284,12.258-10.357,20.713-10.357c2.525,0,5.037,0.372,7.441,1.094c5.467-14.217,19.07-23.747,34.734-23.747
			c0.953,0,1.898,0.047,2.834,0.118C160.723,97.729,143.113,80.714,121.516,80.714z"/>
		<g>
			<path style="fill:#D5D6DB;" d="M192.471,158.838c12.84,2.846,22.441,14.295,22.441,27.992c0,15.833-12.834,28.669-28.67,28.669
				h-81.797c-12.67,0-22.938-10.27-22.938-22.936c0-9.858,6.223-18.267,14.953-21.507c-0.031-0.473-0.053-0.949-0.053-1.428
				c0-11.764,9.535-21.302,21.297-21.302c3.773,0,7.311,0.987,10.381,2.707c3.293-14.521,16.277-25.359,31.795-25.359
				c18,0,32.598,14.595,32.598,32.601C192.479,158.462,192.477,158.651,192.471,158.838L192.471,158.838z M192.471,158.838"/>
		</g>
	</g>
</g>
</svg>
