<?xml version="1.0" encoding="iso-8859-1"?>
<!-- Generator: Adobe Illustrator 16.0.0, SVG Export Plug-In . SVG Version: 6.00 Build 0)  -->
<!DOCTYPE svg PUBLIC "-//W3C//DTD SVG 1.1//EN" "http://www.w3.org/Graphics/SVG/1.1/DTD/svg11.dtd">
<svg version="1.1" xmlns="http://www.w3.org/2000/svg" xmlns:xlink="http://www.w3.org/1999/xlink" x="0px" y="0px" width="256px"
	 height="256px" viewBox="0 0 256 256" style="enable-background:new 0 0 256 256;" xml:space="preserve">
<g id="bg_light" style="display:none;">
	<rect style="display:inline;fill:#0079C1;" width="256" height="256"/>
</g>
<g id="guides" style="display:none;">
	<g style="display:inline;">
		<g>
			<g>
				<line style="fill:none;stroke:#FFFFFF;stroke-width:0.25;stroke-miterlimit:10;" x1="40.5" y1="0" x2="40.5" y2="2"/>
				
					<line style="fill:none;stroke:#FFFFFF;stroke-width:0.25;stroke-miterlimit:10;stroke-dasharray:4,4;" x1="40.5" y1="6" x2="40.5" y2="252"/>
				<line style="fill:none;stroke:#FFFFFF;stroke-width:0.25;stroke-miterlimit:10;" x1="40.5" y1="254" x2="40.5" y2="256"/>
			</g>
		</g>
		<g>
			<g>
				<line style="fill:none;stroke:#FFFFFF;stroke-width:0.25;stroke-miterlimit:10;" x1="215.5" y1="0" x2="215.5" y2="2"/>
				
					<line style="fill:none;stroke:#FFFFFF;stroke-width:0.25;stroke-miterlimit:10;stroke-dasharray:4,4;" x1="215.5" y1="6" x2="215.5" y2="252"/>
				<line style="fill:none;stroke:#FFFFFF;stroke-width:0.25;stroke-miterlimit:10;" x1="215.5" y1="254" x2="215.5" y2="256"/>
			</g>
		</g>
		<g>
			<g>
				<line style="fill:none;stroke:#FFFFFF;stroke-width:0.25;stroke-miterlimit:10;" x1="256" y1="40.5" x2="254" y2="40.5"/>
				
					<line style="fill:none;stroke:#FFFFFF;stroke-width:0.25;stroke-miterlimit:10;stroke-dasharray:4,4;" x1="250" y1="40.5" x2="4" y2="40.5"/>
				<line style="fill:none;stroke:#FFFFFF;stroke-width:0.25;stroke-miterlimit:10;" x1="2" y1="40.5" x2="0" y2="40.5"/>
			</g>
		</g>
		<g>
			<g>
				<line style="fill:none;stroke:#FFFFFF;stroke-width:0.25;stroke-miterlimit:10;" x1="256" y1="215.5" x2="254" y2="215.5"/>
				
					<line style="fill:none;stroke:#FFFFFF;stroke-width:0.25;stroke-miterlimit:10;stroke-dasharray:4,4;" x1="250" y1="215.5" x2="4" y2="215.5"/>
				<line style="fill:none;stroke:#FFFFFF;stroke-width:0.25;stroke-miterlimit:10;" x1="2" y1="215.5" x2="0" y2="215.5"/>
			</g>
		</g>
	</g>
</g>
<g id="border">
	<rect style="opacity:0;fill:none;stroke:#231F20;stroke-width:0.1;stroke-miterlimit:10;" width="256" height="256"/>
</g>
<g id="icons">
	<g>
		<g>
			<path style="fill:#969AA4;" d="M133.065,189.061c-3.205,0-6.398-0.646-9.25-1.982c-6.2-2.902-9.685-8.574-9.56-15.557
				c0.046-2.57,2.177-4.604,4.737-4.57c2.57,0.045,4.617,2.166,4.571,4.736c-0.06,3.332,1.314,5.609,4.2,6.961
				c4.174,1.953,10.292,1.189,13.64-1.703c2.376-2.053,3.008-4.787,1.934-8.357c-2.263-7.514-9.509-10.352-15.19-11.41
				c-12.785-2.385-29.26,2.283-35.252,9.986c-1.579,2.029-4.503,2.396-6.532,0.818c-2.029-1.58-2.395-4.504-0.816-6.533
				c8.122-10.441,27.998-16.461,44.307-13.424c11.625,2.166,19.579,8.516,22.398,17.877c2.122,7.047,0.386,13.639-4.761,18.086
				C143.652,187.305,138.346,189.061,133.065,189.061z"/>
		</g>
		<g>
			<g>
				<path style="fill:#969AA4;" d="M153.046,128.215c10.136-0.152,17.979-4.725,21.517-12.545c3.19-7.051,2.085-15.319-2.814-21.065
					c-5.296-6.21-13.871-8.262-23.528-5.629c-2.48,0.676-3.942,3.235-3.266,5.715c0.677,2.479,3.236,3.941,5.715,3.266
					c6.124-1.67,11.092-0.715,13.995,2.688c2.532,2.969,3.101,7.464,1.417,11.187c-2.02,4.465-6.699,6.978-13.175,7.075
					c-5.531,0.078-11.279-0.832-17.273-2.035c-0.804,3.079-1.917,6.032-3.296,8.83C139.205,127.121,146.194,128.325,153.046,128.215
					z"/>
				<path style="fill:#969AA4;" d="M204.844,145.611c-2.678-8.371-9.542-14.4-18.363-16.133c-7.619-1.498-14.964,0.697-21.445,2.635
					c-2.422,0.725-4.709,1.408-6.951,1.904c-6.985,1.543-13.748,0.166-20.908-1.291c-2.566-0.523-5.219-1.064-7.951-1.486
					c-0.03-0.004-0.06-0.008-0.09-0.014c-2.089,3.092-4.538,5.918-7.283,8.424c1.933,0.211,3.916,0.477,5.952,0.791
					c2.513,0.389,5.055,0.904,7.514,1.406c7.796,1.588,15.857,3.229,24.774,1.26c2.573-0.568,5.133-1.334,7.608-2.074
					c5.978-1.787,11.623-3.473,16.985-2.42c5.522,1.084,9.638,4.67,11.29,9.834c1.755,5.486,0.324,11.385-3.829,15.777
					c-3.4,3.594-7.288,3.814-9.95,3.367c-5.086-0.855-10.015-4.773-12.264-9.752c-1.059-2.342-3.816-3.381-6.158-2.324
					c-2.343,1.059-3.384,3.816-2.325,6.158c3.526,7.805,11.064,13.73,19.204,15.098c1.216,0.207,2.417,0.307,3.599,0.307
					c5.549,0,10.659-2.229,14.658-6.459C205.334,163.828,207.607,154.246,204.844,145.611z"/>
			</g>
			<path style="fill:#FFFFFF;" d="M130.47,107.174c0-1.296-1.055-2.351-2.351-2.351h-1.908l2.056-2.054
				c0.912-0.914,0.912-2.401-0.002-3.319c-0.889-0.884-2.435-0.885-3.324,0.001l-5.373,5.372h-5.48l2.05-2.054
				c0.913-0.915,0.914-2.402-0.001-3.32c-0.889-0.885-2.429-0.885-3.318,0.001l-5.371,5.372H95.903l15.002-15.003h8.12
				c1.296,0,2.35-1.055,2.35-2.35c0-1.292-1.054-2.342-2.35-2.342h-3.42l3.566-3.571c0.914-0.918,0.914-2.407-0.001-3.318
				c-0.887-0.888-2.438-0.888-3.325,0l-3.564,3.565v-3.419c0-1.296-1.054-2.35-2.35-2.35s-2.351,1.054-2.351,2.35v8.118
				l-14.994,14.996V89.96l5.371-5.373c0.443-0.443,0.687-1.033,0.687-1.662c0-0.627-0.244-1.219-0.687-1.662
				c-0.888-0.889-2.438-0.889-3.326,0.001l-2.045,2.05v-5.475l5.371-5.379c0.913-0.913,0.914-2.401-0.001-3.319
				c-0.888-0.884-2.436-0.885-3.324,0.001l-2.046,2.047v-1.9c0-1.296-1.055-2.351-2.351-2.351c-1.296,0-2.351,1.055-2.351,2.351
				v1.904l-2.054-2.05c-0.885-0.884-2.425-0.888-3.318,0.001c-0.913,0.916-0.913,2.404,0,3.316l5.373,5.38v5.479l-2.053-2.054
				c-0.886-0.888-2.429-0.89-3.318-0.001c-0.443,0.443-0.688,1.034-0.688,1.662c0,0.628,0.244,1.219,0.688,1.662l5.372,5.373v11.539
				L72.881,86.502v-8.118c0-1.296-1.055-2.35-2.352-2.35c-1.292,0-2.342,1.054-2.342,2.35v3.421l-3.572-3.567
				c-0.888-0.888-2.433-0.886-3.315-0.001c-0.444,0.442-0.689,1.031-0.69,1.656c0,0.627,0.243,1.218,0.689,1.664l3.565,3.571h-3.419
				c-1.297,0-2.352,1.05-2.352,2.342c0,1.295,1.055,2.35,2.352,2.35h8.117l14.997,15.003H73.021l-5.372-5.373
				c-0.888-0.885-2.438-0.884-3.322,0c-0.445,0.444-0.69,1.034-0.69,1.661c0,0.625,0.245,1.215,0.69,1.658l2.053,2.054h-5.479
				l-5.379-5.373c-0.888-0.885-2.426-0.888-3.319,0.001c-0.912,0.916-0.912,2.403,0,3.317l2.051,2.054h-1.904
				c-1.296,0-2.351,1.055-2.351,2.351c0,1.296,1.055,2.352,2.351,2.352h1.901l-2.048,2.047c-0.916,0.916-0.916,2.406-0.001,3.321
				c0.882,0.888,2.427,0.896,3.319,0.002l5.378-5.371h5.476l-2.05,2.046c-0.445,0.443-0.69,1.033-0.69,1.662
				c0,0.629,0.245,1.219,0.687,1.659c0.873,0.88,2.456,0.879,3.325,0.003l5.372-5.37h11.538l-14.996,14.994h-8.117
				c-1.297,0-2.352,1.055-2.352,2.352c0,1.295,1.055,2.35,2.352,2.35h3.417l-3.563,3.564c-0.444,0.443-0.689,1.031-0.689,1.66
				c0,0.631,0.244,1.221,0.69,1.668c0.894,0.889,2.431,0.881,3.315-0.002l3.572-3.566v3.42c0,1.295,1.05,2.35,2.342,2.35
				c1.296,0,2.352-1.055,2.352-2.35v-8.12l15.003-15.004v11.546l-5.373,5.373c-0.913,0.914-0.913,2.402,0,3.314
				c0.88,0.883,2.423,0.895,3.318,0.002l2.054-2.051v5.48l-5.372,5.373c-0.443,0.445-0.688,1.033-0.688,1.662
				c0,0.627,0.244,1.219,0.683,1.656c0.878,0.893,2.434,0.9,3.322,0.006l2.054-2.055v1.91c0,1.297,1.055,2.35,2.351,2.35
				c1.296,0,2.351-1.053,2.351-2.35v-1.908l2.043,2.049c0.88,0.889,2.451,0.887,3.328,0.004c0.443-0.443,0.687-1.035,0.687-1.662
				c0-0.629-0.244-1.217-0.687-1.662l-5.371-5.373v-5.477l2.047,2.047c0.875,0.873,2.444,0.877,3.324-0.002
				c0.914-0.912,0.914-2.4,0-3.314l-5.371-5.373v-11.545l14.994,15.003v8.12c0,1.295,1.055,2.35,2.351,2.35s2.35-1.055,2.35-2.35
				v-3.418l3.566,3.566c0.883,0.877,2.433,0.881,3.323-0.002c0.444-0.445,0.688-1.035,0.688-1.664c0-0.627-0.245-1.219-0.689-1.662
				l-3.563-3.564h3.418c1.296,0,2.35-1.054,2.35-2.35c0-1.297-1.054-2.352-2.35-2.352h-8.12l-15.001-14.994h11.544l5.371,5.37
				c0.887,0.887,2.429,0.892,3.318,0c0.444-0.444,0.688-1.034,0.688-1.663c0-0.628-0.245-1.218-0.688-1.661l-2.047-2.047h5.477
				l5.37,5.368c0.872,0.877,2.449,0.88,3.328,0.002c0.916-0.917,0.916-2.407-0.001-3.324l-2.051-2.046h1.905
				C129.415,109.525,130.47,108.47,130.47,107.174z"/>
		</g>
	</g>
</g>
</svg>
