<?xml version="1.0" encoding="iso-8859-1"?>
<!-- Generator: Adobe Illustrator 16.0.0, SVG Export Plug-In . SVG Version: 6.00 Build 0)  -->
<!DOCTYPE svg PUBLIC "-//W3C//DTD SVG 1.1//EN" "http://www.w3.org/Graphics/SVG/1.1/DTD/svg11.dtd">
<svg version="1.1" xmlns="http://www.w3.org/2000/svg" xmlns:xlink="http://www.w3.org/1999/xlink" x="0px" y="0px" width="256px"
	 height="256px" viewBox="0 0 256 256" style="enable-background:new 0 0 256 256;" xml:space="preserve">
<g id="bg_light" style="display:none;">
	<rect style="display:inline;fill:#0079C1;" width="256" height="256"/>
</g>
<g id="guides" style="display:none;">
	<g style="display:inline;">
		<g>
			<g>
				<line style="fill:none;stroke:#FFFFFF;stroke-width:0.25;stroke-miterlimit:10;" x1="40.5" y1="0" x2="40.5" y2="2"/>
				
					<line style="fill:none;stroke:#FFFFFF;stroke-width:0.25;stroke-miterlimit:10;stroke-dasharray:4,4;" x1="40.5" y1="6" x2="40.5" y2="252"/>
				<line style="fill:none;stroke:#FFFFFF;stroke-width:0.25;stroke-miterlimit:10;" x1="40.5" y1="254" x2="40.5" y2="256"/>
			</g>
		</g>
		<g>
			<g>
				<line style="fill:none;stroke:#FFFFFF;stroke-width:0.25;stroke-miterlimit:10;" x1="215.5" y1="0" x2="215.5" y2="2"/>
				
					<line style="fill:none;stroke:#FFFFFF;stroke-width:0.25;stroke-miterlimit:10;stroke-dasharray:4,4;" x1="215.5" y1="6" x2="215.5" y2="252"/>
				<line style="fill:none;stroke:#FFFFFF;stroke-width:0.25;stroke-miterlimit:10;" x1="215.5" y1="254" x2="215.5" y2="256"/>
			</g>
		</g>
		<g>
			<g>
				<line style="fill:none;stroke:#FFFFFF;stroke-width:0.25;stroke-miterlimit:10;" x1="256" y1="40.5" x2="254" y2="40.5"/>
				
					<line style="fill:none;stroke:#FFFFFF;stroke-width:0.25;stroke-miterlimit:10;stroke-dasharray:4,4;" x1="250" y1="40.5" x2="4" y2="40.5"/>
				<line style="fill:none;stroke:#FFFFFF;stroke-width:0.25;stroke-miterlimit:10;" x1="2" y1="40.5" x2="0" y2="40.5"/>
			</g>
		</g>
		<g>
			<g>
				<line style="fill:none;stroke:#FFFFFF;stroke-width:0.25;stroke-miterlimit:10;" x1="256" y1="215.5" x2="254" y2="215.5"/>
				
					<line style="fill:none;stroke:#FFFFFF;stroke-width:0.25;stroke-miterlimit:10;stroke-dasharray:4,4;" x1="250" y1="215.5" x2="4" y2="215.5"/>
				<line style="fill:none;stroke:#FFFFFF;stroke-width:0.25;stroke-miterlimit:10;" x1="2" y1="215.5" x2="0" y2="215.5"/>
			</g>
		</g>
	</g>
</g>
<g id="border">
	<rect style="opacity:0;fill:none;stroke:#231F20;stroke-width:0.1;stroke-miterlimit:10;" width="256" height="256"/>
</g>
<g id="icons">
	<g>
		<g>
			<path style="fill:#FFFFFF;" d="M126.708,123.966l-11.948,43.41h15.984l0.081,35.675l35.187-55.503h-15.831l8.069-23.582H126.708z
				"/>
		</g>
		<g>
			<path style="fill:#D5D6DB;" d="M194.969,121.216c0.03-0.49,0.054-0.986,0.054-1.484c0-12.243-9.922-22.168-22.162-22.168
				c-3.924,0-7.608,1.028-10.802,2.816c-3.43-15.113-16.94-26.391-33.086-26.391c-18.736,0-33.925,15.189-33.925,33.926
				c0,0.196,0,0.394,0.006,0.588c-13.361,2.96-23.354,14.877-23.354,29.128c0,16.479,13.355,29.838,29.835,29.838h9.046
				l13.078-47.506h40.194l-8.069,23.579h17.51l-15.168,23.927h28.538c13.181,0,23.868-10.688,23.868-23.869
				C210.531,133.34,204.054,124.59,194.969,121.216z"/>
		</g>
		<g>
			<path style="fill:#F0C419;" d="M96.003,53.972c0.928,0,1.686-0.747,1.686-1.676v-10.11c0-0.931-0.758-1.686-1.686-1.686
				c-0.929,0-1.687,0.755-1.687,1.686v10.11C94.316,53.225,95.074,53.972,96.003,53.972z"/>
			<path style="fill:#F0C419;" d="M58.939,91.033c0-0.928-0.747-1.686-1.676-1.686H47.152c-0.929,0-1.684,0.758-1.684,1.686
				c0,0.93,0.755,1.687,1.684,1.687h10.111C58.192,92.72,58.939,91.963,58.939,91.033z"/>
			<path style="fill:#F0C419;" d="M123.4,65.322c0.426,0,0.861-0.163,1.192-0.492l9.656-9.663c0.657-0.661,0.657-1.721,0-2.379
				c-0.658-0.659-1.721-0.659-2.377,0l-9.665,9.656c-0.657,0.658-0.657,1.726,0,2.386C122.536,65.159,122.963,65.322,123.4,65.322z"
				/>
			<path style="fill:#F0C419;" d="M69.798,117.237c-0.66-0.657-1.729-0.657-2.386,0l-9.655,9.665c-0.66,0.66-0.66,1.721,0,2.378
				c0.328,0.327,0.754,0.493,1.183,0.493c0.435,0,0.867-0.166,1.193-0.493l9.665-9.656
				C70.456,118.967,70.456,117.896,69.798,117.237z"/>
			<path style="fill:#F0C419;" d="M67.412,64.83c0.329,0.329,0.765,0.492,1.19,0.492c0.438,0,0.863-0.163,1.195-0.492
				c0.658-0.66,0.658-1.728,0-2.386l-9.665-9.656c-0.658-0.659-1.72-0.659-2.376,0c-0.66,0.658-0.66,1.718,0,2.379L67.412,64.83z"/>
			<path style="fill:#F0C419;" d="M61.894,105.51c-0.369-0.857-1.359-1.251-2.213-0.888l-4.655,1.974
				c-0.856,0.36-1.251,1.348-0.888,2.204c0.271,0.642,0.895,1.028,1.553,1.028c0.215,0,0.436-0.043,0.65-0.133l4.657-1.973
				C61.85,107.36,62.259,106.365,61.894,105.51z"/>
			<path style="fill:#F0C419;" d="M54.764,76.188l4.687,1.893c0.205,0.091,0.42,0.122,0.627,0.122c0.672,0,1.3-0.396,1.563-1.053
				c0.353-0.863-0.067-1.842-0.932-2.188l-4.688-1.898c-0.862-0.345-1.844,0.073-2.188,0.936
				C53.49,74.854,53.899,75.841,54.764,76.188z"/>
			<path style="fill:#F0C419;" d="M79.313,56.029c0.273,0.643,0.896,1.027,1.554,1.027c0.216,0,0.444-0.042,0.659-0.132
				c0.854-0.37,1.25-1.356,0.888-2.211l-1.974-4.655c-0.361-0.856-1.35-1.26-2.205-0.89c-0.854,0.362-1.257,1.348-0.896,2.205
				L79.313,56.029z"/>
			<path style="fill:#F0C419;" d="M109.886,56.672c0.206,0.091,0.419,0.121,0.626,0.121c0.665,0,1.3-0.395,1.562-1.053l1.901-4.687
				c0.344-0.859-0.075-1.843-0.938-2.188c-0.856-0.353-1.844,0.065-2.188,0.927l-1.893,4.691
				C108.604,55.346,109.022,56.325,109.886,56.672z"/>
			<path style="fill:#F0C419;" d="M79.16,109.867c-5.171-4.626-8.426-11.348-8.426-18.834c0-13.957,11.311-25.268,25.269-25.268
				c6.686,0,12.758,2.602,17.278,6.841c2.97-1.118,6.127-1.844,9.411-2.115c-6.158-7.991-15.82-13.146-26.689-13.146
				c-18.605,0-33.689,15.086-33.689,33.688c0,10.047,4.403,19.059,11.376,25.232c0.62-0.96,1.284-1.892,2.009-2.782
				C76.755,112.182,77.918,110.975,79.16,109.867z"/>
			<path style="fill:#FFE001;" d="M70.734,91.033c0,7.486,3.255,14.208,8.426,18.834c3.294-2.94,7.184-5.168,11.383-6.504
				c0.85-14.108,10.067-25.99,22.738-30.757c-4.521-4.239-10.593-6.841-17.278-6.841C82.045,65.766,70.734,77.076,70.734,91.033z"/>
		</g>
		<g>
			<path style="fill:#5AC8FA;" d="M153.891,213.746c-1.008,0-2.023-0.292-2.916-0.903c-2.353-1.616-2.95-4.83-1.338-7.181
				l19.406-28.287c1.614-2.356,4.829-2.953,7.182-1.341c2.352,1.614,2.95,4.827,1.337,7.18l-19.407,28.288
				C157.152,212.961,155.535,213.746,153.891,213.746z"/>
		</g>
		<g>
			<path style="fill:#5AC8FA;" d="M96.69,215.5c-1.023,0-2.057-0.303-2.957-0.932c-2.337-1.636-2.905-4.857-1.27-7.193l14.82-21.071
				c1.635-2.339,4.854-2.904,7.192-1.271c2.336,1.637,2.904,4.856,1.268,7.193l-14.819,21.071
				C99.921,214.734,98.319,215.5,96.69,215.5z"/>
		</g>
		<g>
			<path style="fill:#5AC8FA;" d="M184.51,208.947c-0.998,0-2.007-0.286-2.892-0.891c-2.362-1.6-2.979-4.813-1.379-7.172
				l9.167-13.486c1.6-2.359,4.813-2.977,7.171-1.379c2.36,1.602,2.977,4.812,1.377,7.173l-9.164,13.487
				C187.789,208.153,186.164,208.947,184.51,208.947z"/>
		</g>
		<g>
			<path style="fill:#5AC8FA;" d="M79.034,198.154c-0.997,0-2.007-0.287-2.894-0.89c-2.36-1.601-2.977-4.814-1.377-7.173
				l9.166-13.487c1.601-2.359,4.813-2.977,7.171-1.378c2.362,1.601,2.978,4.811,1.376,7.173l-9.163,13.487
				C82.313,197.36,80.688,198.154,79.034,198.154z"/>
		</g>
	</g>
</g>
</svg>
