<?xml version="1.0" encoding="iso-8859-1"?>
<!-- Generator: Adobe Illustrator 16.0.0, SVG Export Plug-In . SVG Version: 6.00 Build 0)  -->
<!DOCTYPE svg PUBLIC "-//W3C//DTD SVG 1.1//EN" "http://www.w3.org/Graphics/SVG/1.1/DTD/svg11.dtd">
<svg version="1.1" xmlns="http://www.w3.org/2000/svg" xmlns:xlink="http://www.w3.org/1999/xlink" x="0px" y="0px" width="256px"
	 height="256px" viewBox="0 0 256 256" style="enable-background:new 0 0 256 256;" xml:space="preserve">
<g id="bg_light" style="display:none;">
	<rect style="display:inline;fill:#0079C1;" width="256" height="256"/>
</g>
<g id="guides" style="display:none;">
	<g style="display:inline;">
		<g>
			<g>
				<line style="fill:none;stroke:#FFFFFF;stroke-width:0.25;stroke-miterlimit:10;" x1="40.5" y1="0" x2="40.5" y2="2"/>
				
					<line style="fill:none;stroke:#FFFFFF;stroke-width:0.25;stroke-miterlimit:10;stroke-dasharray:4,4;" x1="40.5" y1="6" x2="40.5" y2="252"/>
				<line style="fill:none;stroke:#FFFFFF;stroke-width:0.25;stroke-miterlimit:10;" x1="40.5" y1="254" x2="40.5" y2="256"/>
			</g>
		</g>
		<g>
			<g>
				<line style="fill:none;stroke:#FFFFFF;stroke-width:0.25;stroke-miterlimit:10;" x1="215.5" y1="0" x2="215.5" y2="2"/>
				
					<line style="fill:none;stroke:#FFFFFF;stroke-width:0.25;stroke-miterlimit:10;stroke-dasharray:4,4;" x1="215.5" y1="6" x2="215.5" y2="252"/>
				<line style="fill:none;stroke:#FFFFFF;stroke-width:0.25;stroke-miterlimit:10;" x1="215.5" y1="254" x2="215.5" y2="256"/>
			</g>
		</g>
		<g>
			<g>
				<line style="fill:none;stroke:#FFFFFF;stroke-width:0.25;stroke-miterlimit:10;" x1="256" y1="40.5" x2="254" y2="40.5"/>
				
					<line style="fill:none;stroke:#FFFFFF;stroke-width:0.25;stroke-miterlimit:10;stroke-dasharray:4,4;" x1="250" y1="40.5" x2="4" y2="40.5"/>
				<line style="fill:none;stroke:#FFFFFF;stroke-width:0.25;stroke-miterlimit:10;" x1="2" y1="40.5" x2="0" y2="40.5"/>
			</g>
		</g>
		<g>
			<g>
				<line style="fill:none;stroke:#FFFFFF;stroke-width:0.25;stroke-miterlimit:10;" x1="256" y1="215.5" x2="254" y2="215.5"/>
				
					<line style="fill:none;stroke:#FFFFFF;stroke-width:0.25;stroke-miterlimit:10;stroke-dasharray:4,4;" x1="250" y1="215.5" x2="4" y2="215.5"/>
				<line style="fill:none;stroke:#FFFFFF;stroke-width:0.25;stroke-miterlimit:10;" x1="2" y1="215.5" x2="0" y2="215.5"/>
			</g>
		</g>
	</g>
</g>
<g id="border">
	<rect style="opacity:0;fill:none;stroke:#231F20;stroke-width:0.1;stroke-miterlimit:10;" width="256" height="256"/>
</g>
<g id="icons">
	<g>
		<path style="fill:#FFFFFF;" d="M147.647,97.424c2.4-0.749,4.912-1.135,7.439-1.135c9.606,0,17.966,5.453,22.145,13.423
			c7.715-2.766,14.217-8.085,18.465-14.951c-2.048,0.363-4.154,0.563-6.307,0.563c-19.853,0-35.945-16.091-35.945-35.943
			c0-6.926,1.964-13.392,5.362-18.88c-16.842,2.983-29.635,17.683-29.635,35.378c0,0.56,0.017,1.113,0.042,1.662
			C137.61,81.43,144.29,88.479,147.647,97.424z"/>
		<g>
			<path style="fill:#969AA4;" d="M82.187,110.758c-0.004-0.186-0.006-0.37-0.006-0.555c0-17.554,14.229-31.787,31.787-31.787
				c15.13,0,27.789,10.569,31.001,24.728c2.993-1.677,6.444-2.636,10.118-2.636c11.47,0,20.77,9.299,20.77,20.767
				c0,0.471-0.023,0.934-0.053,1.394c8.514,3.16,14.583,11.354,14.583,20.97c0,12.353-10.012,22.365-22.364,22.365H88.258
				c-15.437,0-27.954-12.515-27.954-27.958C60.304,124.695,69.668,113.53,82.187,110.758L82.187,110.758z M82.187,110.758"/>
		</g>
		<g>
			<g>
				<path style="fill:#5AC8FA;" d="M69.378,205.4c-0.912,0-1.831-0.271-2.635-0.833c-2.082-1.458-2.589-4.328-1.131-6.41
					l18.512-26.436c1.458-2.081,4.328-2.587,6.408-1.131c2.084,1.459,2.588,4.328,1.13,6.411l-18.511,26.436
					C72.256,204.716,70.829,205.4,69.378,205.4z"/>
			</g>
			<g>
				<path style="fill:#5AC8FA;" d="M83.24,215.5c-0.911,0-1.832-0.27-2.636-0.833c-2.082-1.458-2.589-4.328-1.131-6.409
					l25.584-36.538c1.459-2.081,4.33-2.587,6.408-1.131c2.083,1.459,2.589,4.328,1.132,6.411l-25.584,36.537
					C86.119,214.816,84.691,215.5,83.24,215.5z"/>
			</g>
			<g>
				<path style="fill:#5AC8FA;" d="M111.248,205.4c-0.912,0-1.833-0.271-2.636-0.833c-2.082-1.458-2.589-4.328-1.13-6.41
					l18.512-26.436c1.457-2.081,4.327-2.587,6.407-1.131c2.083,1.459,2.59,4.328,1.132,6.411l-18.512,26.436
					C114.126,204.716,112.698,205.4,111.248,205.4z"/>
			</g>
			<g>
				<path style="fill:#5AC8FA;" d="M153.117,205.4c-0.912,0-1.832-0.271-2.636-0.833c-2.083-1.458-2.588-4.328-1.129-6.41
					l18.511-26.436c1.458-2.081,4.328-2.587,6.408-1.131c2.083,1.459,2.589,4.328,1.131,6.411l-18.512,26.436
					C155.995,204.716,154.568,205.4,153.117,205.4z"/>
			</g>
			<g>
				<path style="fill:#5AC8FA;" d="M125.109,215.5c-0.912,0-1.832-0.27-2.635-0.833c-2.082-1.458-2.588-4.328-1.131-6.409
					l25.584-36.538c1.459-2.081,4.327-2.587,6.409-1.131c2.082,1.459,2.588,4.328,1.13,6.411l-25.583,36.537
					C127.989,214.816,126.562,215.5,125.109,215.5z"/>
			</g>
		</g>
	</g>
</g>
</svg>
