<?xml version="1.0" encoding="iso-8859-1"?>
<!-- Generator: Adobe Illustrator 16.0.0, SVG Export Plug-In . SVG Version: 6.00 Build 0)  -->
<!DOCTYPE svg PUBLIC "-//W3C//DTD SVG 1.1//EN" "http://www.w3.org/Graphics/SVG/1.1/DTD/svg11.dtd">
<svg version="1.1" xmlns="http://www.w3.org/2000/svg" xmlns:xlink="http://www.w3.org/1999/xlink" x="0px" y="0px" width="256px"
	 height="256px" viewBox="0 0 256 256" style="enable-background:new 0 0 256 256;" xml:space="preserve">
<g id="bg_light" style="display:none;">
	<rect style="display:inline;fill:#0079C1;" width="256" height="256"/>
</g>
<g id="guides" style="display:none;">
	<g style="display:inline;">
		<g>
			<g>
				<line style="fill:none;stroke:#FFFFFF;stroke-width:0.25;stroke-miterlimit:10;" x1="40.5" y1="0" x2="40.5" y2="2"/>
				
					<line style="fill:none;stroke:#FFFFFF;stroke-width:0.25;stroke-miterlimit:10;stroke-dasharray:4,4;" x1="40.5" y1="6" x2="40.5" y2="252"/>
				<line style="fill:none;stroke:#FFFFFF;stroke-width:0.25;stroke-miterlimit:10;" x1="40.5" y1="254" x2="40.5" y2="256"/>
			</g>
		</g>
		<g>
			<g>
				<line style="fill:none;stroke:#FFFFFF;stroke-width:0.25;stroke-miterlimit:10;" x1="215.5" y1="0" x2="215.5" y2="2"/>
				
					<line style="fill:none;stroke:#FFFFFF;stroke-width:0.25;stroke-miterlimit:10;stroke-dasharray:4,4;" x1="215.5" y1="6" x2="215.5" y2="252"/>
				<line style="fill:none;stroke:#FFFFFF;stroke-width:0.25;stroke-miterlimit:10;" x1="215.5" y1="254" x2="215.5" y2="256"/>
			</g>
		</g>
		<g>
			<g>
				<line style="fill:none;stroke:#FFFFFF;stroke-width:0.25;stroke-miterlimit:10;" x1="256" y1="40.5" x2="254" y2="40.5"/>
				
					<line style="fill:none;stroke:#FFFFFF;stroke-width:0.25;stroke-miterlimit:10;stroke-dasharray:4,4;" x1="250" y1="40.5" x2="4" y2="40.5"/>
				<line style="fill:none;stroke:#FFFFFF;stroke-width:0.25;stroke-miterlimit:10;" x1="2" y1="40.5" x2="0" y2="40.5"/>
			</g>
		</g>
		<g>
			<g>
				<line style="fill:none;stroke:#FFFFFF;stroke-width:0.25;stroke-miterlimit:10;" x1="256" y1="215.5" x2="254" y2="215.5"/>
				
					<line style="fill:none;stroke:#FFFFFF;stroke-width:0.25;stroke-miterlimit:10;stroke-dasharray:4,4;" x1="250" y1="215.5" x2="4" y2="215.5"/>
				<line style="fill:none;stroke:#FFFFFF;stroke-width:0.25;stroke-miterlimit:10;" x1="2" y1="215.5" x2="0" y2="215.5"/>
			</g>
		</g>
	</g>
</g>
<g id="border">
	<rect style="opacity:0;fill:none;stroke:#231F20;stroke-width:0.1;stroke-miterlimit:10;" width="256" height="256"/>
</g>
<g id="icons">
	<g>
		<g>
			<path style="fill:#D5D6DB;" d="M114.102,143.478h-3.166l-4.848,4.846c-0.793,0.8-1.825,1.351-2.934,1.584h4.516L114.102,143.478z
				"/>
			<path style="fill:#D5D6DB;" d="M145.459,143.478h-3.17l6.434,6.431h4.503c-1.101-0.231-2.114-0.774-2.927-1.591L145.459,143.478z
				"/>
			<path style="fill:#D5D6DB;" d="M97.82,148.31c-0.874-0.87-1.439-1.989-1.628-3.206l-3.227,3.221
				c-0.807,0.811-1.815,1.353-2.914,1.583h10.718C99.66,149.675,98.625,149.121,97.82,148.31z"/>
			<path style="fill:#969AA4;" d="M184.979,100.971c0.035-0.521,0.059-1.043,0.059-1.571c0-12.954-10.5-23.454-23.45-23.454
				c-4.152,0-8.047,1.084-11.429,2.979C146.533,62.936,132.236,51,115.152,51c-19.824,0-35.896,16.072-35.896,35.897
				c0,0.206,0.003,0.415,0.008,0.622c-14.139,3.133-24.711,15.742-24.711,30.821c0,17.435,14.133,31.569,31.568,31.569h1.517
				c-1.104-0.232-2.119-0.777-2.932-1.597c-1.679-1.679-2.112-4.149-1.298-6.241c-1.249-1.072-2.041-2.661-2.041-4.432
				c0-1.772,0.794-3.364,2.045-4.435c-0.814-2.091-0.38-4.561,1.301-6.247c1.112-1.109,2.576-1.713,4.131-1.713
				c1.556,0,3.02,0.606,4.122,1.707l3.227,3.223c0.188-1.215,0.756-2.336,1.644-3.223c1.099-1.1,2.565-1.707,4.125-1.707
				c1.561,0,3.026,0.606,4.128,1.708l4.848,4.848h3.169l-9.641-9.646h-7.419c-3.22,0-5.839-2.618-5.839-5.838
				c0-2.046,1.062-3.85,2.666-4.891c-0.666-0.967-1.025-2.108-1.025-3.305c0-1.56,0.609-3.027,1.716-4.13
				c1.093-1.095,2.559-1.703,4.119-1.703c1.196,0,2.339,0.358,3.303,1.025c1.04-1.603,2.844-2.666,4.891-2.666
				c3.22,0,5.84,2.62,5.84,5.839v7.419l9.645,9.641v-3.168l-4.849-4.85c-2.275-2.275-2.275-5.978,0-8.254
				c0.887-0.887,2.008-1.452,3.222-1.641l-3.224-3.228c-2.27-2.269-2.271-5.968-0.001-8.243c1.112-1.108,2.576-1.712,4.129-1.712
				c0.74,0,1.46,0.137,2.13,0.399c1.071-1.25,2.66-2.042,4.432-2.042c1.77,0,3.359,0.791,4.43,2.04
				c0.669-0.261,1.387-0.397,2.126-0.397c1.558,0,3.022,0.605,4.124,1.704c2.279,2.283,2.277,5.982,0.004,8.255l-3.22,3.224
				c1.216,0.189,2.336,0.755,3.222,1.642c1.101,1.101,1.708,2.566,1.708,4.127c0,1.56-0.608,3.026-1.71,4.129l-4.846,4.847v3.165
				l9.635-9.637v-7.419c0-3.219,2.619-5.839,5.838-5.839c2.049,0,3.854,1.061,4.897,2.662c0.963-0.664,2.105-1.021,3.302-1.021
				c1.561,0,3.027,0.608,4.13,1.712c2.015,2.009,2.245,5.151,0.684,7.425c1.604,1.04,2.666,2.844,2.666,4.892
				c0,3.22-2.619,5.838-5.838,5.838h-7.42l-9.645,9.646h3.174l4.846-4.847c1.106-1.104,2.571-1.709,4.125-1.709
				c1.556,0,3.021,0.605,4.123,1.706c0.91,0.911,1.456,2.049,1.639,3.232l3.229-3.23c1.104-1.102,2.57-1.708,4.129-1.708
				c1.558,0,3.023,0.605,4.125,1.705c1.689,1.691,2.125,4.164,1.31,6.255c1.251,1.071,2.045,2.663,2.045,4.435
				c0,1.77-0.792,3.358-2.039,4.429c0.261,0.67,0.397,1.388,0.397,2.127c0,1.561-0.607,3.027-1.71,4.129
				c-0.799,0.802-1.831,1.352-2.937,1.584h7.451c13.947,0,25.254-11.309,25.254-25.256
				C201.447,113.796,194.594,104.541,184.979,100.971z"/>
			<path style="fill:#D5D6DB;" d="M163.41,148.312l-3.213-3.212c-0.188,1.217-0.754,2.339-1.642,3.226
				c-0.806,0.81-1.815,1.353-2.914,1.583h10.718C165.249,149.675,164.214,149.122,163.41,148.312z"/>
		</g>
		<path style="fill:#FFFFFF;" d="M171.672,137.639c0-1.368-1.113-2.481-2.481-2.481h-2.217l2.332-2.331
			c0.963-0.965,0.963-2.535-0.001-3.501c-0.937-0.934-2.571-0.936-3.508,0l-5.832,5.832h-6.107l2.325-2.331
			c0.964-0.964,0.964-2.535,0-3.501c-0.938-0.934-2.563-0.936-3.501,0l-5.83,5.832h-12.67l16.359-16.361h8.812
			c1.368,0,2.481-1.112,2.481-2.48c0-1.363-1.113-2.472-2.481-2.472h-3.852l3.966-3.972c0.964-0.968,0.963-2.538,0-3.501
			c-0.936-0.938-2.574-0.937-3.509,0l-3.964,3.965v-3.851c0-1.368-1.113-2.481-2.481-2.481c-1.367,0-2.48,1.113-2.48,2.481v8.81
			l-16.351,16.352v-12.662l5.831-5.832c0.468-0.468,0.726-1.09,0.726-1.753s-0.258-1.286-0.726-1.754
			c-0.937-0.937-2.573-0.938-3.51,0.001l-2.321,2.327v-6.103l5.831-5.839c0.964-0.963,0.964-2.534-0.001-3.502
			c-0.937-0.934-2.571-0.935-3.508,0.001l-2.321,2.322v-2.208c0-1.368-1.113-2.481-2.481-2.481c-1.368,0-2.481,1.114-2.481,2.481
			v2.211l-2.331-2.325c-0.935-0.935-2.56-0.937-3.501,0.001c-0.964,0.966-0.963,2.537,0,3.5l5.832,5.839v6.106l-2.33-2.33
			c-0.936-0.938-2.564-0.938-3.501-0.001c-0.468,0.468-0.726,1.091-0.726,1.754s0.258,1.286,0.726,1.753l5.831,5.832v12.664
			l-16.36-16.354v-8.81c0-1.368-1.114-2.481-2.482-2.481c-1.362,0-2.471,1.113-2.471,2.481v3.853l-3.973-3.967
			c-0.939-0.938-2.567-0.936-3.499-0.001c-0.47,0.468-0.729,1.089-0.729,1.75c0,0.66,0.258,1.283,0.728,1.752l3.965,3.971h-3.852
			c-1.368,0-2.481,1.109-2.481,2.472c0,1.368,1.113,2.48,2.481,2.48h8.81l16.354,16.361h-12.663l-5.832-5.832
			c-0.936-0.934-2.573-0.934-3.506,0c-0.469,0.469-0.728,1.092-0.727,1.753c0,0.66,0.258,1.282,0.727,1.749l2.33,2.331h-6.106
			l-5.838-5.832c-0.936-0.934-2.561-0.937-3.503,0.001c-0.963,0.965-0.962,2.535,0,3.5l2.326,2.331h-2.212
			c-1.367,0-2.48,1.113-2.48,2.481c0,1.368,1.113,2.481,2.48,2.481h2.209l-2.322,2.323c-0.468,0.466-0.726,1.089-0.726,1.752
			s0.258,1.286,0.723,1.751c0.931,0.937,2.562,0.947,3.504,0.002l5.838-5.829h6.103l-2.325,2.32
			c-0.47,0.469-0.728,1.091-0.728,1.754c0,0.665,0.258,1.287,0.723,1.75c0.921,0.93,2.595,0.927,3.51,0.003l5.832-5.829h12.663
			l-16.353,16.349h-8.81c-1.368,0-2.481,1.113-2.481,2.481s1.113,2.481,2.481,2.481h3.851l-3.962,3.963
			c-0.469,0.467-0.728,1.089-0.729,1.752c0,0.664,0.258,1.288,0.729,1.759c0.941,0.938,2.562,0.93,3.498-0.001l3.973-3.966v3.852
			c0,1.368,1.108,2.48,2.471,2.48c1.368,0,2.482-1.112,2.482-2.48v-8.812l16.36-16.361v12.67l-5.832,5.833
			c-0.964,0.966-0.963,2.536,0,3.498c0.929,0.931,2.558,0.942,3.501,0.002l2.331-2.326v6.109l-5.831,5.832
			c-0.468,0.468-0.726,1.091-0.726,1.754s0.258,1.286,0.721,1.749c0.929,0.94,2.568,0.949,3.505,0.004l2.331-2.33v2.219
			c0,1.367,1.113,2.479,2.481,2.479c1.368,0,2.481-1.112,2.481-2.479v-2.216l2.319,2.324c0.922,0.928,2.59,0.927,3.511,0.002
			c0.468-0.467,0.726-1.089,0.726-1.752s-0.258-1.286-0.726-1.754l-5.831-5.832v-6.106l2.322,2.323
			c0.923,0.921,2.581,0.923,3.508-0.001c0.964-0.963,0.964-2.533,0-3.5l-5.831-5.832v-12.67l16.351,16.361v8.812
			c0,1.368,1.113,2.48,2.48,2.48c1.368,0,2.481-1.112,2.481-2.48v-3.85l3.966,3.966c0.93,0.925,2.568,0.93,3.507-0.002
			c0.468-0.469,0.726-1.091,0.726-1.754c0-0.664-0.258-1.287-0.727-1.754l-3.964-3.964h3.851c1.368,0,2.481-1.113,2.481-2.481
			s-1.113-2.481-2.481-2.481h-8.812l-16.358-16.349h12.669l5.829,5.828c0.936,0.938,2.567,0.941,3.502,0.001
			c0.469-0.467,0.727-1.091,0.727-1.754s-0.258-1.286-0.726-1.752l-2.322-2.323h6.104l5.829,5.826
			c0.921,0.927,2.587,0.93,3.512,0.002c0.467-0.468,0.725-1.091,0.725-1.754s-0.258-1.286-0.726-1.753l-2.327-2.321h2.214
			C170.559,140.121,171.672,139.007,171.672,137.639z"/>
		<path style="fill:#FFFFFF;" d="M85.199,167.526c0-0.275-0.225-0.5-0.5-0.5h-0.447l0.47-0.47c0.195-0.194,0.195-0.51,0-0.705
			c-0.188-0.189-0.518-0.189-0.707,0l-1.175,1.174h-1.23l0.469-0.47c0.194-0.194,0.194-0.51,0-0.705
			c-0.189-0.189-0.516-0.189-0.706,0l-1.174,1.174h-2.553l3.296-3.296h1.775c0.275,0,0.5-0.224,0.5-0.5
			c0-0.274-0.225-0.497-0.5-0.497H81.94l0.799-0.8c0.194-0.196,0.194-0.512,0-0.706c-0.188-0.188-0.519-0.188-0.707,0l-0.799,0.799
			v-0.776c0-0.275-0.225-0.5-0.5-0.5c-0.275,0-0.5,0.225-0.5,0.5v1.775l-3.294,3.294v-2.551l1.174-1.176
			c0.095-0.093,0.147-0.219,0.147-0.352c0-0.134-0.052-0.259-0.147-0.354c-0.188-0.188-0.518-0.189-0.707,0l-0.468,0.469v-1.229
			l1.174-1.177c0.194-0.194,0.194-0.51,0-0.706c-0.188-0.188-0.518-0.188-0.707,0l-0.468,0.468v-0.445c0-0.275-0.224-0.5-0.5-0.5
			c-0.276,0-0.5,0.225-0.5,0.5v0.445l-0.47-0.468c-0.188-0.188-0.516-0.188-0.705,0c-0.194,0.196-0.194,0.512,0,0.706l1.175,1.177
			v1.229l-0.47-0.47c-0.188-0.189-0.517-0.189-0.705,0c-0.095,0.095-0.146,0.219-0.146,0.354c0,0.133,0.052,0.259,0.146,0.352
			l1.175,1.176v2.551l-3.296-3.295v-1.774c0-0.275-0.225-0.5-0.5-0.5c-0.274,0-0.498,0.225-0.498,0.5v0.776l-0.8-0.799
			c-0.189-0.189-0.517-0.188-0.705,0c-0.095,0.094-0.147,0.219-0.147,0.353c0,0.133,0.052,0.259,0.146,0.354l0.799,0.8h-0.776
			c-0.275,0-0.5,0.222-0.5,0.497c0,0.276,0.225,0.5,0.5,0.5h1.774l3.295,3.296h-2.551l-1.175-1.174
			c-0.188-0.189-0.518-0.189-0.706,0c-0.094,0.094-0.146,0.219-0.146,0.352c0,0.133,0.052,0.259,0.146,0.353l0.47,0.47h-1.23
			l-1.176-1.174c-0.189-0.189-0.516-0.189-0.706,0c-0.194,0.194-0.193,0.51,0,0.705l0.469,0.47h-0.445c-0.276,0-0.5,0.225-0.5,0.5
			s0.224,0.5,0.5,0.5h0.445l-0.468,0.468c-0.095,0.094-0.146,0.219-0.146,0.354c0,0.133,0.052,0.259,0.146,0.353
			c0.188,0.189,0.517,0.19,0.707,0l1.176-1.174h1.229l-0.468,0.467c-0.094,0.095-0.146,0.22-0.146,0.354
			c0,0.133,0.052,0.259,0.146,0.353c0.186,0.186,0.523,0.186,0.707,0l1.175-1.174h2.551l-3.294,3.293h-1.775
			c-0.275,0-0.5,0.224-0.5,0.5c0,0.275,0.225,0.5,0.5,0.5h0.776l-0.798,0.798c-0.095,0.093-0.147,0.219-0.147,0.353
			c0,0.133,0.052,0.259,0.147,0.354c0.189,0.189,0.516,0.188,0.705-0.001l0.8-0.798v0.775c0,0.276,0.223,0.5,0.498,0.5
			c0.275,0,0.5-0.224,0.5-0.5v-1.774l3.296-3.297v2.554l-1.175,1.175c-0.194,0.194-0.194,0.51,0,0.705
			c0.187,0.188,0.516,0.189,0.705,0l0.47-0.469v1.231l-1.175,1.174c-0.095,0.095-0.146,0.221-0.146,0.354
			c0,0.134,0.052,0.26,0.146,0.353c0.187,0.189,0.518,0.191,0.706,0.001l0.47-0.47v0.447c0,0.276,0.224,0.5,0.5,0.5
			c0.275,0,0.5-0.224,0.5-0.5v-0.446l0.468,0.469c0.186,0.186,0.521,0.186,0.707,0c0.095-0.094,0.147-0.219,0.147-0.354
			c0-0.133-0.052-0.259-0.147-0.354l-1.174-1.174v-1.23l0.468,0.468c0.186,0.185,0.52,0.186,0.706,0
			c0.194-0.194,0.194-0.511,0-0.705l-1.174-1.175v-2.554l3.294,3.297v1.774c0,0.276,0.225,0.5,0.5,0.5c0.275,0,0.5-0.224,0.5-0.5
			v-0.775l0.799,0.799c0.188,0.186,0.518,0.188,0.707-0.001c0.094-0.093,0.146-0.22,0.146-0.354c0-0.133-0.052-0.259-0.146-0.353
			l-0.798-0.798h0.775c0.275,0,0.5-0.225,0.5-0.5c0-0.276-0.225-0.5-0.5-0.5h-1.775l-3.296-3.293h2.553l1.174,1.174
			c0.189,0.189,0.517,0.19,0.706,0c0.094-0.094,0.146-0.219,0.146-0.353c0-0.134-0.051-0.26-0.146-0.354l-0.468-0.468h1.229
			l1.174,1.174c0.185,0.186,0.521,0.187,0.707,0c0.095-0.094,0.146-0.219,0.146-0.353c0-0.134-0.052-0.26-0.146-0.354l-0.469-0.467
			h0.446C84.974,168.026,85.199,167.801,85.199,167.526z"/>
		<path style="fill:#FFFFFF;" d="M111.657,189.476c0-0.275-0.224-0.5-0.5-0.5h-0.447l0.47-0.47c0.194-0.194,0.194-0.51,0-0.706
			c-0.188-0.188-0.518-0.188-0.707,0l-1.175,1.175h-1.231l0.469-0.47c0.194-0.194,0.194-0.51-0.001-0.706
			c-0.188-0.188-0.516-0.188-0.705,0l-1.175,1.175h-2.553l3.296-3.296h1.775c0.275,0,0.5-0.225,0.5-0.5
			c0-0.274-0.224-0.497-0.5-0.497h-0.776l0.799-0.801c0.195-0.195,0.195-0.511,0-0.705c-0.188-0.189-0.519-0.189-0.707-0.001
			l-0.799,0.799V183.2c0-0.275-0.225-0.499-0.5-0.499c-0.275,0-0.5,0.224-0.5,0.499v1.775l-3.294,3.294v-2.551l1.175-1.175
			c0.095-0.094,0.147-0.22,0.147-0.353c0-0.133-0.052-0.259-0.147-0.354c-0.188-0.188-0.518-0.189-0.707,0l-0.468,0.469v-1.229
			l1.175-1.177c0.195-0.194,0.195-0.511,0-0.706c-0.188-0.188-0.518-0.188-0.707,0l-0.468,0.468v-0.445c0-0.275-0.224-0.5-0.5-0.5
			c-0.275,0-0.499,0.225-0.499,0.5v0.445l-0.47-0.468c-0.188-0.188-0.516-0.188-0.705,0c-0.194,0.195-0.194,0.512,0,0.706
			l1.175,1.177v1.229l-0.47-0.47c-0.189-0.189-0.517-0.189-0.705,0c-0.095,0.095-0.146,0.22-0.146,0.354
			c0,0.133,0.052,0.259,0.146,0.353l1.175,1.175v2.551l-3.296-3.295V183.2c0-0.275-0.225-0.499-0.5-0.499
			c-0.274,0-0.498,0.224-0.498,0.499v0.776l-0.8-0.799c-0.189-0.189-0.517-0.188-0.705,0c-0.094,0.095-0.146,0.219-0.146,0.353
			c0,0.133,0.052,0.259,0.146,0.353l0.799,0.801h-0.776c-0.275,0-0.5,0.222-0.5,0.497c0,0.275,0.224,0.5,0.5,0.5h1.774l3.295,3.296
			h-2.552l-1.174-1.175c-0.188-0.188-0.518-0.188-0.707,0c-0.095,0.095-0.146,0.22-0.146,0.354c0,0.132,0.052,0.258,0.146,0.352
			l0.469,0.47h-1.23l-1.176-1.175c-0.188-0.188-0.516-0.188-0.706,0c-0.194,0.195-0.193,0.511,0,0.706l0.469,0.47H94.64
			c-0.275,0-0.5,0.225-0.5,0.5s0.224,0.5,0.5,0.5h0.446l-0.468,0.468c-0.094,0.094-0.146,0.219-0.146,0.354
			c0,0.133,0.052,0.259,0.146,0.353c0.187,0.189,0.516,0.19,0.706,0l1.176-1.174h1.229l-0.468,0.467
			c-0.095,0.095-0.146,0.22-0.146,0.354c0,0.133,0.052,0.259,0.146,0.353c0.185,0.186,0.522,0.186,0.707,0l1.174-1.174h2.551
			l-3.294,3.293h-1.775c-0.275,0-0.5,0.225-0.5,0.5c0,0.276,0.224,0.5,0.5,0.5h0.776l-0.798,0.798
			c-0.094,0.095-0.146,0.22-0.146,0.354c0,0.134,0.052,0.259,0.146,0.354c0.19,0.189,0.516,0.187,0.705-0.001l0.8-0.798v0.775
			c0,0.275,0.223,0.5,0.498,0.5c0.275,0,0.5-0.225,0.5-0.5v-1.774l3.296-3.296v2.553l-1.175,1.175c-0.194,0.194-0.194,0.51,0,0.705
			c0.187,0.187,0.516,0.189,0.705,0l0.47-0.469v1.231l-1.175,1.174c-0.095,0.095-0.146,0.221-0.146,0.354
			c0,0.134,0.052,0.26,0.146,0.353c0.187,0.189,0.517,0.191,0.706,0.001l0.47-0.47v0.448c0,0.275,0.224,0.499,0.499,0.499
			c0.276,0,0.5-0.224,0.5-0.499v-0.447l0.468,0.469c0.186,0.186,0.522,0.186,0.707,0c0.095-0.094,0.147-0.219,0.147-0.354
			c0-0.133-0.052-0.259-0.147-0.354l-1.175-1.174v-1.23l0.468,0.468c0.186,0.185,0.521,0.186,0.707,0
			c0.195-0.194,0.195-0.51,0-0.705l-1.175-1.175v-2.553l3.294,3.296v1.774c0,0.275,0.225,0.5,0.5,0.5c0.275,0,0.5-0.225,0.5-0.5
			v-0.775l0.799,0.799c0.187,0.186,0.517,0.187,0.706-0.001c0.094-0.094,0.146-0.219,0.146-0.354c0-0.133-0.052-0.259-0.147-0.353
			l-0.797-0.799h0.775c0.275,0,0.5-0.224,0.5-0.5c0-0.275-0.224-0.5-0.5-0.5H107.4l-3.296-3.293h2.553l1.174,1.174
			c0.188,0.189,0.517,0.19,0.706,0c0.094-0.094,0.146-0.22,0.146-0.353c0-0.134-0.052-0.26-0.146-0.354l-0.468-0.468h1.23
			l1.174,1.174c0.185,0.186,0.521,0.187,0.707,0c0.094-0.094,0.146-0.22,0.146-0.353c0-0.134-0.052-0.26-0.146-0.354l-0.469-0.467
			h0.446C111.433,189.976,111.657,189.751,111.657,189.476z"/>
		<path style="fill:#FFFFFF;" d="M149.983,196.241c0-0.275-0.224-0.499-0.5-0.499h-0.447l0.471-0.47
			c0.194-0.194,0.194-0.512,0-0.706c-0.189-0.188-0.518-0.188-0.707,0l-1.174,1.176h-1.231l0.469-0.47
			c0.194-0.194,0.194-0.512,0-0.706c-0.188-0.188-0.516-0.188-0.705,0l-1.175,1.176h-2.553l3.296-3.296h1.775
			c0.275,0,0.5-0.224,0.5-0.5c0-0.274-0.224-0.498-0.5-0.498h-0.776l0.799-0.801c0.194-0.194,0.194-0.511,0-0.705
			c-0.188-0.189-0.519-0.189-0.708,0l-0.798,0.798v-0.775c0-0.275-0.225-0.5-0.5-0.5c-0.275,0-0.5,0.225-0.5,0.5v1.774l-3.294,3.294
			v-2.551l1.175-1.175c0.094-0.093,0.147-0.219,0.147-0.354c0-0.133-0.053-0.259-0.147-0.352c-0.189-0.189-0.518-0.189-0.707,0
			l-0.468,0.468v-1.229l1.175-1.177c0.195-0.194,0.195-0.51,0-0.706c-0.189-0.187-0.518-0.188-0.707,0.001l-0.468,0.468v-0.445
			c0-0.276-0.224-0.5-0.5-0.5s-0.5,0.224-0.5,0.5v0.445l-0.47-0.468c-0.189-0.188-0.516-0.189-0.706,0
			c-0.194,0.194-0.194,0.51,0,0.705l1.175,1.177v1.23l-0.469-0.469c-0.189-0.189-0.517-0.189-0.706,0
			c-0.094,0.093-0.146,0.219-0.146,0.352c0,0.134,0.052,0.26,0.146,0.354l1.175,1.175v2.552l-3.296-3.295v-1.774
			c0-0.275-0.225-0.5-0.5-0.5c-0.274,0-0.497,0.225-0.497,0.5v0.775l-0.801-0.798c-0.189-0.189-0.517-0.188-0.705-0.001
			c-0.095,0.094-0.146,0.22-0.146,0.354c0,0.133,0.052,0.259,0.146,0.353l0.799,0.8h-0.776c-0.276,0-0.5,0.223-0.5,0.498
			c0,0.276,0.223,0.5,0.5,0.5h1.774l3.295,3.296h-2.551l-1.174-1.176c-0.188-0.188-0.519-0.188-0.707,0
			c-0.095,0.095-0.146,0.221-0.146,0.354c0,0.133,0.052,0.258,0.146,0.353l0.469,0.47h-1.23l-1.176-1.176
			c-0.189-0.188-0.516-0.188-0.706,0.001c-0.194,0.193-0.193,0.511,0,0.705l0.469,0.47h-0.446c-0.275,0-0.5,0.224-0.5,0.499
			s0.224,0.5,0.5,0.5h0.445l-0.468,0.468c-0.094,0.095-0.146,0.219-0.146,0.354c0,0.133,0.052,0.259,0.146,0.354
			c0.187,0.188,0.516,0.19,0.706,0l1.176-1.175h1.229l-0.468,0.468c-0.095,0.095-0.146,0.219-0.146,0.354
			c0,0.134,0.052,0.259,0.146,0.352c0.185,0.188,0.522,0.188,0.707,0.001l1.174-1.175h2.551l-3.293,3.294h-1.775
			c-0.276,0-0.5,0.224-0.5,0.499s0.223,0.5,0.5,0.5h0.776l-0.798,0.799c-0.095,0.094-0.146,0.22-0.146,0.353
			c0,0.134,0.052,0.26,0.146,0.354c0.189,0.189,0.516,0.187,0.705,0l0.801-0.799v0.776c0,0.275,0.223,0.5,0.497,0.5
			c0.275,0,0.5-0.225,0.5-0.5v-1.775l3.296-3.296v2.553l-1.175,1.176c-0.194,0.193-0.194,0.509,0,0.704
			c0.187,0.188,0.516,0.19,0.706,0.001l0.47-0.469v1.231l-1.175,1.174c-0.094,0.095-0.146,0.219-0.146,0.353
			c0,0.134,0.052,0.26,0.146,0.354c0.187,0.189,0.517,0.191,0.706,0.001l0.47-0.47v0.447c0,0.275,0.224,0.5,0.5,0.5
			s0.5-0.225,0.5-0.5v-0.447l0.468,0.469c0.186,0.187,0.522,0.187,0.707,0.001c0.094-0.095,0.147-0.22,0.147-0.354
			c0-0.133-0.053-0.258-0.147-0.353l-1.175-1.174v-1.231l0.468,0.469c0.186,0.185,0.52,0.185,0.707-0.001
			c0.195-0.194,0.195-0.51,0-0.705l-1.175-1.175v-2.553l3.294,3.296v1.775c0,0.275,0.225,0.5,0.5,0.5c0.275,0,0.5-0.225,0.5-0.5
			v-0.776l0.799,0.799c0.188,0.187,0.518,0.187,0.707,0c0.094-0.095,0.146-0.22,0.146-0.354c0-0.134-0.052-0.26-0.146-0.354
			l-0.798-0.799h0.775c0.275,0,0.5-0.225,0.5-0.5s-0.224-0.499-0.5-0.499h-1.775l-3.296-3.294h2.553l1.174,1.175
			c0.189,0.189,0.518,0.189,0.706,0c0.094-0.095,0.146-0.221,0.146-0.354c0-0.134-0.052-0.259-0.146-0.354l-0.468-0.468h1.23
			l1.174,1.175c0.185,0.186,0.521,0.186,0.708,0c0.094-0.095,0.146-0.221,0.146-0.354c0-0.134-0.052-0.259-0.146-0.354l-0.469-0.468
			h0.445C149.759,196.741,149.983,196.517,149.983,196.241z"/>
		<path style="fill:#FFFFFF;" d="M190.75,166.461c0-0.275-0.224-0.5-0.5-0.5h-0.447l0.47-0.47c0.194-0.194,0.194-0.51,0-0.705
			c-0.188-0.189-0.518-0.189-0.707,0l-1.174,1.174h-1.231l0.469-0.47c0.194-0.194,0.194-0.51,0-0.705
			c-0.188-0.189-0.516-0.189-0.705,0l-1.175,1.174h-2.553l3.296-3.296h1.775c0.275,0,0.5-0.224,0.5-0.5
			c0-0.274-0.225-0.497-0.5-0.497h-0.776l0.799-0.8c0.194-0.196,0.194-0.512,0-0.706c-0.188-0.188-0.519-0.188-0.707,0l-0.799,0.799
			v-0.776c0-0.275-0.224-0.5-0.5-0.5c-0.275,0-0.5,0.225-0.5,0.5v1.775l-3.294,3.294v-2.551l1.175-1.176
			c0.094-0.093,0.147-0.219,0.147-0.352c0-0.134-0.053-0.259-0.147-0.354c-0.189-0.188-0.518-0.189-0.707,0l-0.468,0.469v-1.229
			l1.175-1.177c0.194-0.194,0.194-0.51,0-0.706c-0.189-0.188-0.518-0.188-0.707,0l-0.468,0.468v-0.445c0-0.275-0.224-0.5-0.5-0.5
			s-0.5,0.225-0.5,0.5v0.445l-0.47-0.468c-0.188-0.188-0.516-0.188-0.706,0c-0.194,0.196-0.194,0.512,0,0.706l1.175,1.177v1.229
			l-0.469-0.47c-0.188-0.189-0.517-0.189-0.706,0c-0.094,0.095-0.146,0.219-0.146,0.354c0,0.133,0.052,0.259,0.146,0.352
			l1.175,1.176v2.551l-3.296-3.295v-1.774c0-0.275-0.224-0.5-0.5-0.5c-0.274,0-0.497,0.225-0.497,0.5v0.776l-0.801-0.799
			c-0.189-0.189-0.517-0.188-0.705,0c-0.095,0.094-0.146,0.219-0.146,0.353c0,0.133,0.052,0.259,0.146,0.354l0.799,0.8h-0.776
			c-0.276,0-0.5,0.222-0.5,0.497c0,0.276,0.224,0.5,0.5,0.5h1.774l3.295,3.296h-2.551l-1.175-1.174
			c-0.188-0.189-0.518-0.189-0.706,0c-0.095,0.094-0.146,0.219-0.146,0.352c0,0.133,0.052,0.259,0.146,0.353l0.469,0.47h-1.23
			l-1.175-1.174c-0.189-0.189-0.516-0.189-0.707,0c-0.194,0.194-0.193,0.51,0,0.705l0.469,0.47h-0.445c-0.276,0-0.5,0.225-0.5,0.5
			s0.224,0.5,0.5,0.5h0.445l-0.468,0.468c-0.095,0.094-0.146,0.219-0.146,0.354c0,0.133,0.051,0.259,0.145,0.353
			c0.188,0.189,0.517,0.19,0.707,0l1.175-1.174h1.229l-0.468,0.467c-0.095,0.095-0.146,0.22-0.146,0.354
			c0,0.133,0.052,0.259,0.146,0.353c0.185,0.186,0.522,0.186,0.706,0l1.175-1.174h2.551l-3.294,3.293h-1.775
			c-0.276,0-0.5,0.224-0.5,0.5c0,0.275,0.224,0.5,0.5,0.5h0.776l-0.798,0.798c-0.095,0.093-0.146,0.219-0.146,0.353
			c0,0.133,0.052,0.259,0.146,0.354c0.19,0.189,0.516,0.188,0.705-0.001l0.801-0.798v0.775c0,0.276,0.223,0.5,0.497,0.5
			c0.276,0,0.5-0.224,0.5-0.5v-1.774l3.296-3.297v2.554l-1.175,1.175c-0.194,0.194-0.194,0.51,0,0.705
			c0.187,0.187,0.516,0.189,0.706,0l0.47-0.469v1.231l-1.175,1.174c-0.094,0.095-0.146,0.221-0.146,0.354
			c0,0.134,0.052,0.26,0.146,0.353c0.188,0.189,0.518,0.191,0.706,0.001l0.47-0.47v0.447c0,0.277,0.224,0.5,0.5,0.5
			s0.5-0.223,0.5-0.5v-0.446l0.468,0.469c0.186,0.186,0.522,0.186,0.707,0c0.094-0.094,0.147-0.219,0.147-0.354
			c0-0.133-0.053-0.259-0.147-0.354l-1.175-1.174v-1.23l0.468,0.468c0.186,0.185,0.521,0.186,0.707,0
			c0.194-0.194,0.194-0.51,0-0.705l-1.175-1.175v-2.554l3.294,3.297v1.774c0,0.276,0.225,0.5,0.5,0.5c0.275,0,0.5-0.224,0.5-0.5
			v-0.775l0.799,0.799c0.188,0.186,0.518,0.188,0.707-0.001c0.094-0.093,0.146-0.22,0.146-0.354c0-0.133-0.052-0.259-0.146-0.353
			l-0.798-0.798h0.775c0.275,0,0.5-0.225,0.5-0.5c0-0.276-0.225-0.5-0.5-0.5h-1.775l-3.296-3.293h2.553l1.174,1.174
			c0.188,0.189,0.517,0.19,0.706,0c0.095-0.094,0.146-0.219,0.146-0.353c0-0.134-0.051-0.26-0.146-0.354l-0.468-0.468h1.23
			l1.174,1.174c0.185,0.186,0.521,0.187,0.707,0c0.095-0.094,0.146-0.219,0.146-0.353c0-0.134-0.051-0.26-0.146-0.354l-0.469-0.467
			h0.446C190.526,166.961,190.75,166.737,190.75,166.461z"/>
		<path style="fill:#FFFFFF;" d="M77.419,192.845c0-0.275-0.224-0.499-0.5-0.499h-0.447l0.47-0.47c0.194-0.194,0.194-0.512,0-0.706
			c-0.189-0.188-0.518-0.188-0.707,0l-1.175,1.176h-1.23l0.469-0.47c0.194-0.194,0.194-0.512,0-0.706
			c-0.188-0.188-0.516-0.188-0.705,0l-1.175,1.176h-2.553l3.296-3.296h1.775c0.275,0,0.5-0.225,0.5-0.5
			c0-0.274-0.224-0.498-0.5-0.498h-0.776l0.799-0.8c0.194-0.194,0.194-0.511,0-0.705c-0.188-0.189-0.519-0.189-0.707,0l-0.799,0.798
			v-0.775c0-0.276-0.225-0.5-0.5-0.5c-0.275,0-0.5,0.224-0.5,0.5v1.774l-3.294,3.294v-2.551l1.175-1.175
			c0.094-0.093,0.147-0.219,0.147-0.354c0-0.133-0.053-0.259-0.147-0.352c-0.189-0.189-0.518-0.189-0.707,0l-0.468,0.468v-1.229
			l1.175-1.177c0.195-0.194,0.195-0.51,0-0.706c-0.189-0.187-0.518-0.188-0.707,0.001l-0.468,0.468v-0.445
			c0-0.276-0.224-0.5-0.5-0.5s-0.5,0.224-0.5,0.5v0.445l-0.47-0.468c-0.189-0.188-0.516-0.189-0.706,0
			c-0.194,0.194-0.194,0.51,0,0.705l1.175,1.177v1.23l-0.469-0.469c-0.189-0.189-0.517-0.189-0.706,0
			c-0.094,0.093-0.146,0.219-0.146,0.352c0,0.134,0.052,0.26,0.146,0.354l1.175,1.175v2.552l-3.296-3.295v-1.774
			c0-0.276-0.225-0.5-0.5-0.5c-0.274,0-0.497,0.224-0.497,0.5v0.775l-0.801-0.798c-0.189-0.189-0.517-0.188-0.705-0.001
			c-0.095,0.094-0.146,0.22-0.146,0.354c0,0.133,0.052,0.259,0.146,0.353l0.799,0.799h-0.776c-0.275,0-0.5,0.224-0.5,0.498
			c0,0.275,0.224,0.5,0.5,0.5h1.774l3.295,3.296h-2.551l-1.175-1.176c-0.188-0.188-0.518-0.188-0.706,0
			c-0.095,0.095-0.146,0.22-0.146,0.353s0.052,0.258,0.146,0.353l0.469,0.47h-1.23l-1.176-1.176
			c-0.189-0.188-0.516-0.188-0.706,0.001c-0.194,0.193-0.193,0.511,0,0.705l0.469,0.47h-0.446c-0.275,0-0.5,0.224-0.5,0.499
			s0.224,0.5,0.5,0.5h0.445l-0.468,0.468c-0.094,0.095-0.146,0.219-0.146,0.354c0,0.133,0.052,0.259,0.146,0.353
			c0.187,0.188,0.516,0.19,0.706,0l1.176-1.174h1.229l-0.468,0.468c-0.095,0.095-0.146,0.219-0.146,0.354
			c0,0.134,0.052,0.259,0.146,0.352c0.185,0.188,0.522,0.188,0.707,0.001l1.175-1.174h2.551l-3.294,3.294h-1.775
			c-0.275,0-0.5,0.224-0.5,0.499s0.224,0.5,0.5,0.5h0.776l-0.798,0.799c-0.095,0.094-0.146,0.219-0.146,0.353
			c0,0.134,0.052,0.26,0.146,0.354c0.189,0.189,0.516,0.187,0.705,0l0.801-0.799v0.776c0,0.275,0.223,0.5,0.497,0.5
			c0.275,0,0.5-0.225,0.5-0.5v-1.775l3.296-3.296v2.553l-1.175,1.176c-0.194,0.193-0.194,0.509,0,0.704
			c0.187,0.188,0.516,0.19,0.706,0.001l0.47-0.469v1.23l-1.175,1.175c-0.094,0.095-0.146,0.219-0.146,0.353
			c0,0.134,0.052,0.26,0.146,0.354c0.187,0.189,0.517,0.191,0.706,0.001l0.47-0.47v0.447c0,0.275,0.224,0.5,0.5,0.5
			s0.5-0.225,0.5-0.5v-0.447l0.468,0.469c0.186,0.187,0.522,0.187,0.707,0.001c0.094-0.095,0.147-0.221,0.147-0.354
			c0-0.133-0.053-0.258-0.147-0.353l-1.175-1.175v-1.23l0.468,0.469c0.186,0.186,0.52,0.186,0.707-0.001
			c0.195-0.194,0.195-0.51,0-0.705l-1.175-1.174v-2.553l3.294,3.296v1.775c0,0.275,0.225,0.5,0.5,0.5c0.275,0,0.5-0.225,0.5-0.5
			v-0.776l0.799,0.799c0.188,0.187,0.518,0.187,0.707,0c0.094-0.095,0.146-0.22,0.146-0.354c0-0.134-0.052-0.26-0.146-0.354
			l-0.798-0.799h0.775c0.275,0,0.5-0.225,0.5-0.5s-0.224-0.499-0.5-0.499h-1.775l-3.296-3.294h2.553l1.174,1.174
			c0.189,0.189,0.518,0.189,0.706,0c0.095-0.094,0.146-0.22,0.146-0.353c0-0.134-0.051-0.259-0.146-0.354l-0.468-0.468h1.229
			l1.174,1.174c0.185,0.187,0.521,0.187,0.708,0c0.094-0.094,0.146-0.22,0.146-0.353c0-0.134-0.052-0.259-0.146-0.354l-0.469-0.468
			h0.446C77.195,193.345,77.419,193.121,77.419,192.845z"/>
		<path style="fill:#FFFFFF;" d="M182.034,191.781c0-0.275-0.224-0.499-0.5-0.499h-0.447l0.47-0.47c0.194-0.194,0.194-0.512,0-0.706
			c-0.188-0.188-0.518-0.188-0.707,0l-1.174,1.176h-1.231l0.469-0.47c0.194-0.194,0.194-0.512,0-0.706
			c-0.188-0.188-0.516-0.188-0.705,0l-1.175,1.176h-2.553l3.296-3.297h1.775c0.276,0,0.5-0.224,0.5-0.499
			c0-0.274-0.224-0.498-0.5-0.498h-0.776l0.799-0.8c0.194-0.195,0.194-0.511,0-0.705c-0.188-0.189-0.519-0.189-0.707,0l-0.799,0.798
			v-0.775c0-0.276-0.224-0.5-0.499-0.5c-0.276,0-0.5,0.224-0.5,0.5v1.774l-3.294,3.294v-2.551l1.175-1.175
			c0.094-0.093,0.147-0.219,0.147-0.354c0-0.133-0.053-0.259-0.147-0.353c-0.189-0.188-0.518-0.188-0.707,0l-0.468,0.469v-1.229
			l1.175-1.177c0.195-0.194,0.195-0.51,0-0.706c-0.189-0.187-0.518-0.188-0.707,0.001l-0.468,0.468v-0.446
			c0-0.275-0.224-0.499-0.5-0.499s-0.5,0.224-0.5,0.499v0.446l-0.47-0.468c-0.189-0.188-0.516-0.189-0.706,0
			c-0.194,0.194-0.194,0.51,0,0.705l1.175,1.177v1.23l-0.469-0.47c-0.189-0.188-0.517-0.188-0.705,0
			c-0.095,0.094-0.147,0.22-0.147,0.353c0,0.134,0.052,0.26,0.147,0.354l1.174,1.175v2.552l-3.296-3.295v-1.774
			c0-0.276-0.224-0.5-0.5-0.5c-0.274,0-0.497,0.224-0.497,0.5v0.775l-0.8-0.798c-0.189-0.189-0.518-0.188-0.705-0.001
			c-0.095,0.094-0.146,0.22-0.146,0.354c0,0.133,0.052,0.259,0.146,0.353l0.799,0.799h-0.776c-0.275,0-0.499,0.224-0.499,0.498
			c0,0.275,0.224,0.499,0.499,0.499h1.775l3.295,3.297h-2.552l-1.174-1.176c-0.188-0.188-0.519-0.188-0.707,0
			c-0.095,0.095-0.146,0.22-0.146,0.354c0,0.133,0.052,0.258,0.146,0.353l0.469,0.47h-1.23l-1.176-1.176
			c-0.189-0.188-0.516-0.188-0.706,0.001c-0.194,0.193-0.193,0.511,0,0.705l0.469,0.47h-0.446c-0.275,0-0.5,0.224-0.5,0.499
			s0.224,0.5,0.5,0.5h0.445l-0.468,0.468c-0.094,0.095-0.146,0.219-0.146,0.354c0,0.133,0.052,0.259,0.146,0.353
			c0.187,0.188,0.516,0.19,0.706,0l1.176-1.174h1.229l-0.468,0.468c-0.095,0.095-0.146,0.219-0.146,0.354
			c0,0.134,0.052,0.259,0.146,0.352c0.185,0.188,0.522,0.188,0.707,0.001l1.174-1.174h2.551l-3.294,3.294h-1.775
			c-0.275,0-0.499,0.224-0.499,0.499s0.224,0.5,0.499,0.5h0.776l-0.798,0.799c-0.095,0.094-0.146,0.219-0.146,0.353
			c0,0.134,0.052,0.26,0.146,0.354c0.19,0.189,0.516,0.187,0.705,0l0.8-0.799v0.776c0,0.275,0.223,0.5,0.497,0.5
			c0.276,0,0.5-0.225,0.5-0.5v-1.775l3.296-3.296v2.553l-1.175,1.174c-0.194,0.194-0.194,0.511,0,0.705
			c0.187,0.188,0.516,0.19,0.706,0.001l0.47-0.469v1.23l-1.174,1.175c-0.095,0.095-0.147,0.219-0.147,0.353
			c0,0.134,0.052,0.26,0.146,0.354c0.188,0.189,0.517,0.191,0.706,0.001l0.47-0.47v0.447c0,0.275,0.224,0.5,0.5,0.5
			s0.5-0.225,0.5-0.5v-0.447l0.468,0.469c0.186,0.187,0.522,0.187,0.707,0.001c0.094-0.095,0.147-0.221,0.147-0.354
			c0-0.133-0.053-0.258-0.147-0.353l-1.175-1.175v-1.23l0.468,0.469c0.186,0.185,0.521,0.185,0.707-0.001
			c0.195-0.194,0.195-0.511,0-0.705l-1.175-1.174v-2.553l3.294,3.296v1.775c0,0.275,0.224,0.5,0.5,0.5
			c0.275,0,0.499-0.225,0.499-0.5v-0.776l0.8,0.799c0.187,0.186,0.517,0.187,0.706,0c0.094-0.095,0.146-0.22,0.146-0.354
			c0-0.134-0.052-0.26-0.146-0.354l-0.798-0.799h0.775c0.276,0,0.5-0.225,0.5-0.5s-0.224-0.499-0.5-0.499h-1.775l-3.296-3.294h2.553
			l1.174,1.174c0.188,0.189,0.517,0.189,0.706,0c0.095-0.094,0.146-0.22,0.146-0.353c0-0.134-0.051-0.259-0.146-0.354l-0.468-0.468
			h1.23l1.174,1.174c0.185,0.187,0.521,0.187,0.708,0c0.094-0.094,0.146-0.22,0.146-0.353c0-0.134-0.052-0.259-0.146-0.354
			l-0.469-0.468h0.446C181.81,192.281,182.034,192.056,182.034,191.781z"/>
	</g>
</g>
</svg>
