<?xml version="1.0" encoding="iso-8859-1"?>
<!-- Generator: Adobe Illustrator 16.0.0, SVG Export Plug-In . SVG Version: 6.00 Build 0)  -->
<!DOCTYPE svg PUBLIC "-//W3C//DTD SVG 1.1//EN" "http://www.w3.org/Graphics/SVG/1.1/DTD/svg11.dtd">
<svg version="1.1" xmlns="http://www.w3.org/2000/svg" xmlns:xlink="http://www.w3.org/1999/xlink" x="0px" y="0px" width="256px"
	 height="256px" viewBox="0 0 256 256" style="enable-background:new 0 0 256 256;" xml:space="preserve">
<g id="bg_light" style="display:none;">
	<rect style="display:inline;fill:#0079C1;" width="256" height="256"/>
</g>
<g id="guides" style="display:none;">
	<g style="display:inline;">
		<g>
			<g>
				<line style="fill:none;stroke:#FFFFFF;stroke-width:0.25;stroke-miterlimit:10;" x1="40.5" y1="0" x2="40.5" y2="2"/>
				
					<line style="fill:none;stroke:#FFFFFF;stroke-width:0.25;stroke-miterlimit:10;stroke-dasharray:4,4;" x1="40.5" y1="6" x2="40.5" y2="252"/>
				<line style="fill:none;stroke:#FFFFFF;stroke-width:0.25;stroke-miterlimit:10;" x1="40.5" y1="254" x2="40.5" y2="256"/>
			</g>
		</g>
		<g>
			<g>
				<line style="fill:none;stroke:#FFFFFF;stroke-width:0.25;stroke-miterlimit:10;" x1="215.5" y1="0" x2="215.5" y2="2"/>
				
					<line style="fill:none;stroke:#FFFFFF;stroke-width:0.25;stroke-miterlimit:10;stroke-dasharray:4,4;" x1="215.5" y1="6" x2="215.5" y2="252"/>
				<line style="fill:none;stroke:#FFFFFF;stroke-width:0.25;stroke-miterlimit:10;" x1="215.5" y1="254" x2="215.5" y2="256"/>
			</g>
		</g>
		<g>
			<g>
				<line style="fill:none;stroke:#FFFFFF;stroke-width:0.25;stroke-miterlimit:10;" x1="256" y1="40.5" x2="254" y2="40.5"/>
				
					<line style="fill:none;stroke:#FFFFFF;stroke-width:0.25;stroke-miterlimit:10;stroke-dasharray:4,4;" x1="250" y1="40.5" x2="4" y2="40.5"/>
				<line style="fill:none;stroke:#FFFFFF;stroke-width:0.25;stroke-miterlimit:10;" x1="2" y1="40.5" x2="0" y2="40.5"/>
			</g>
		</g>
		<g>
			<g>
				<line style="fill:none;stroke:#FFFFFF;stroke-width:0.25;stroke-miterlimit:10;" x1="256" y1="215.5" x2="254" y2="215.5"/>
				
					<line style="fill:none;stroke:#FFFFFF;stroke-width:0.25;stroke-miterlimit:10;stroke-dasharray:4,4;" x1="250" y1="215.5" x2="4" y2="215.5"/>
				<line style="fill:none;stroke:#FFFFFF;stroke-width:0.25;stroke-miterlimit:10;" x1="2" y1="215.5" x2="0" y2="215.5"/>
			</g>
		</g>
	</g>
</g>
<g id="border">
	<rect style="opacity:0;fill:none;stroke:#231F20;stroke-width:0.1;stroke-miterlimit:10;" width="256" height="256"/>
</g>
<g id="icons">
	<g>
		<g>
			<path style="fill:#969AA4;" d="M206,152.711h-22.983c-2.485,0-4.5-2.015-4.5-4.5s2.015-4.5,4.5-4.5H206
				c2.485,0,4.5,2.015,4.5,4.5S208.485,152.711,206,152.711z"/>
		</g>
		<g>
			<path style="fill:#969AA4;" d="M79.253,171.26H50c-2.485,0-4.5-2.015-4.5-4.5s2.015-4.5,4.5-4.5h29.253
				c2.485,0,4.5,2.015,4.5,4.5S81.738,171.26,79.253,171.26z"/>
		</g>
		<g>
			<path style="fill:#969AA4;" d="M206,171.26h-29.342c-2.485,0-4.5-2.015-4.5-4.5s2.015-4.5,4.5-4.5H206c2.485,0,4.5,2.015,4.5,4.5
				S208.485,171.26,206,171.26z"/>
		</g>
		<g>
			<path style="fill:#FFFFFF;" d="M164.02,171.26H91.98c-2.485,0-4.5-2.015-4.5-4.5s2.015-4.5,4.5-4.5h72.039
				c2.485,0,4.5,2.015,4.5,4.5S166.505,171.26,164.02,171.26z"/>
		</g>
		<g>
			<path style="fill:#969AA4;" d="M73.166,152.711H50c-2.485,0-4.5-2.015-4.5-4.5s2.015-4.5,4.5-4.5h23.166
				c2.485,0,4.5,2.015,4.5,4.5S75.651,152.711,73.166,152.711z"/>
		</g>
		<g>
			<path style="fill:#969AA4;" d="M206,189.811H50c-2.485,0-4.5-2.015-4.5-4.5s2.015-4.5,4.5-4.5h156c2.485,0,4.5,2.015,4.5,4.5
				S208.485,189.811,206,189.811z"/>
		</g>
		<g>
			<path style="fill:#FFFFFF;" d="M174.103,136.256c-2.765,0.49-5.604,0.76-8.51,0.76c-26.777,0-48.483-21.706-48.483-48.483
				c0-9.345,2.651-18.066,7.23-25.469c-22.717,4.024-39.975,23.853-39.975,47.724c0,12.713,4.899,24.277,12.905,32.924h71.147
				C170.541,141.418,172.45,138.926,174.103,136.256z"/>
			<path style="fill:#FFFFFF;" d="M170.99,143.711h-2.572H97.271H85.01c-2.485,0-4.5,2.015-4.5,4.5s2.015,4.5,4.5,4.5h23.499h48.676
				h13.806c2.485,0,4.5-2.015,4.5-4.5S173.476,143.711,170.99,143.711z"/>
		</g>
	</g>
</g>
</svg>
