<?xml version="1.0" encoding="iso-8859-1"?>
<!-- Generator: Adobe Illustrator 16.0.0, SVG Export Plug-In . SVG Version: 6.00 Build 0)  -->
<!DOCTYPE svg PUBLIC "-//W3C//DTD SVG 1.1//EN" "http://www.w3.org/Graphics/SVG/1.1/DTD/svg11.dtd">
<svg version="1.1" xmlns="http://www.w3.org/2000/svg" xmlns:xlink="http://www.w3.org/1999/xlink" x="0px" y="0px" width="256px"
	 height="256px" viewBox="0 0 256 256" style="enable-background:new 0 0 256 256;" xml:space="preserve">
<g id="bg_light" style="display:none;">
	<rect style="display:inline;fill:#0079C1;" width="256" height="256"/>
</g>
<g id="guides" style="display:none;">
	<g style="display:inline;">
		<g>
			<g>
				<line style="fill:none;stroke:#FFFFFF;stroke-width:0.25;stroke-miterlimit:10;" x1="40.5" y1="0" x2="40.5" y2="2"/>
				
					<line style="fill:none;stroke:#FFFFFF;stroke-width:0.25;stroke-miterlimit:10;stroke-dasharray:4,4;" x1="40.5" y1="6" x2="40.5" y2="252"/>
				<line style="fill:none;stroke:#FFFFFF;stroke-width:0.25;stroke-miterlimit:10;" x1="40.5" y1="254" x2="40.5" y2="256"/>
			</g>
		</g>
		<g>
			<g>
				<line style="fill:none;stroke:#FFFFFF;stroke-width:0.25;stroke-miterlimit:10;" x1="215.5" y1="0" x2="215.5" y2="2"/>
				
					<line style="fill:none;stroke:#FFFFFF;stroke-width:0.25;stroke-miterlimit:10;stroke-dasharray:4,4;" x1="215.5" y1="6" x2="215.5" y2="252"/>
				<line style="fill:none;stroke:#FFFFFF;stroke-width:0.25;stroke-miterlimit:10;" x1="215.5" y1="254" x2="215.5" y2="256"/>
			</g>
		</g>
		<g>
			<g>
				<line style="fill:none;stroke:#FFFFFF;stroke-width:0.25;stroke-miterlimit:10;" x1="256" y1="40.5" x2="254" y2="40.5"/>
				
					<line style="fill:none;stroke:#FFFFFF;stroke-width:0.25;stroke-miterlimit:10;stroke-dasharray:4,4;" x1="250" y1="40.5" x2="4" y2="40.5"/>
				<line style="fill:none;stroke:#FFFFFF;stroke-width:0.25;stroke-miterlimit:10;" x1="2" y1="40.5" x2="0" y2="40.5"/>
			</g>
		</g>
		<g>
			<g>
				<line style="fill:none;stroke:#FFFFFF;stroke-width:0.25;stroke-miterlimit:10;" x1="256" y1="215.5" x2="254" y2="215.5"/>
				
					<line style="fill:none;stroke:#FFFFFF;stroke-width:0.25;stroke-miterlimit:10;stroke-dasharray:4,4;" x1="250" y1="215.5" x2="4" y2="215.5"/>
				<line style="fill:none;stroke:#FFFFFF;stroke-width:0.25;stroke-miterlimit:10;" x1="2" y1="215.5" x2="0" y2="215.5"/>
			</g>
		</g>
	</g>
</g>
<g id="border">
	<rect style="opacity:0;fill:none;stroke:#231F20;stroke-width:0.1;stroke-miterlimit:10;" width="256" height="256"/>
</g>
<g id="icons">
	<g>
		<g>
			<path style="fill:#D5D6DB;" d="M129.266,159.26h-2.854l-4.369,4.366c-0.715,0.722-1.645,1.218-2.643,1.428h4.068L129.266,159.26z
				"/>
			<path style="fill:#D5D6DB;" d="M157.523,159.26h-2.857l5.799,5.794h4.059c-0.992-0.208-1.904-0.697-2.637-1.433L157.523,159.26z"
				/>
			<path style="fill:#D5D6DB;" d="M114.592,163.613c-0.785-0.784-1.297-1.793-1.467-2.89l-2.908,2.904
				c-0.727,0.73-1.637,1.218-2.625,1.426h9.658C116.25,164.844,115.318,164.344,114.592,163.613z"/>
			<path style="fill:#D5D6DB;" d="M193.139,120.952c0.029-0.469,0.053-0.939,0.053-1.416c0-11.673-9.463-21.135-21.133-21.135
				c-3.742,0-7.252,0.976-10.299,2.684c-3.268-14.408-16.152-25.165-31.549-25.165c-17.863,0-32.348,14.484-32.348,32.35
				c0,0.186,0.004,0.375,0.008,0.561c-12.742,2.824-22.27,14.188-22.27,27.775c0,15.711,12.736,28.448,28.447,28.448h1.367
				c-0.994-0.209-1.908-0.699-2.643-1.438c-1.512-1.514-1.902-3.739-1.168-5.625c-1.125-0.965-1.84-2.397-1.84-3.993
				c0-1.597,0.715-3.031,1.842-3.997c-0.732-1.884-0.342-4.109,1.174-5.629c1.002-1,2.32-1.544,3.723-1.544
				c1.4,0,2.721,0.546,3.715,1.538l2.906,2.904c0.17-1.095,0.682-2.105,1.482-2.904c0.988-0.991,2.311-1.538,3.717-1.538
				c1.404,0,2.727,0.546,3.721,1.539l4.369,4.369h2.854l-8.688-8.692h-6.686c-2.9,0-5.262-2.359-5.262-5.262
				c0-1.844,0.957-3.469,2.402-4.407c-0.6-0.871-0.924-1.898-0.924-2.978c0-1.405,0.549-2.728,1.547-3.721
				c0.984-0.987,2.307-1.537,3.711-1.537c1.078,0,2.107,0.324,2.977,0.924c0.938-1.443,2.564-2.401,4.406-2.401
				c2.902,0,5.264,2.361,5.264,5.262v6.686l8.691,8.688v-2.855l-4.369-4.37c-2.051-2.051-2.051-5.388,0-7.438
				c0.799-0.8,1.809-1.309,2.904-1.479l-2.906-2.909c-2.045-2.044-2.047-5.378-0.002-7.429c1.004-0.998,2.322-1.542,3.721-1.542
				c0.668,0,1.316,0.123,1.92,0.359c0.965-1.126,2.398-1.84,3.994-1.84s3.027,0.714,3.992,1.838c0.604-0.235,1.25-0.357,1.916-0.357
				c1.404,0,2.725,0.544,3.717,1.535c2.055,2.057,2.053,5.392,0.004,7.438l-2.9,2.906c1.094,0.17,2.104,0.68,2.902,1.479
				c0.992,0.992,1.539,2.314,1.539,3.719c0,1.406-0.547,2.729-1.541,3.722l-4.367,4.368v2.853l8.684-8.686v-6.686
				c0-2.9,2.359-5.262,5.26-5.262c1.848,0,3.475,0.956,4.414,2.399c0.867-0.599,1.898-0.922,2.977-0.922
				c1.406,0,2.727,0.55,3.721,1.544c1.816,1.811,2.023,4.642,0.615,6.691c1.445,0.937,2.404,2.563,2.404,4.407
				c0,2.902-2.361,5.262-5.264,5.262h-6.688l-8.689,8.692h2.859l4.367-4.368c0.998-0.994,2.318-1.54,3.717-1.54
				c1.402,0,2.723,0.546,3.715,1.536c0.822,0.822,1.314,1.848,1.479,2.913l2.91-2.91c0.994-0.993,2.314-1.539,3.721-1.539
				c1.402,0,2.723,0.546,3.717,1.536c1.521,1.524,1.914,3.753,1.18,5.638c1.127,0.965,1.844,2.399,1.844,3.996
				c0,1.595-0.713,3.026-1.838,3.991c0.236,0.604,0.357,1.252,0.357,1.917c0,1.406-0.547,2.729-1.541,3.721
				c-0.719,0.723-1.65,1.218-2.646,1.428h6.715c12.57,0,22.76-10.191,22.76-22.76C207.979,132.511,201.803,124.17,193.139,120.952z"
				/>
			<path style="fill:#D5D6DB;" d="M173.699,163.615l-2.895-2.895c-0.17,1.096-0.682,2.108-1.48,2.907
				c-0.727,0.729-1.637,1.218-2.625,1.426h9.656C175.357,164.844,174.424,164.345,173.699,163.615z"/>
		</g>
		<path style="fill:#FFFFFF;" d="M181.146,153.997c0-1.232-1.004-2.235-2.236-2.235h-1.998l2.102-2.101
			c0.867-0.869,0.867-2.284-0.002-3.155c-0.844-0.842-2.318-0.843-3.162,0l-5.254,5.256h-5.504l2.094-2.101
			c0.871-0.869,0.871-2.284,0-3.155c-0.844-0.842-2.309-0.843-3.154,0l-5.254,5.256h-11.418l14.742-14.745h7.939
			c1.234,0,2.236-1.001,2.236-2.235c0-1.228-1.002-2.227-2.236-2.227h-3.471l3.574-3.58c0.869-0.872,0.869-2.288,0-3.154
			c-0.842-0.845-2.32-0.844-3.162,0l-3.572,3.572v-3.47c0-1.232-1.002-2.235-2.236-2.235c-1.23,0-2.234,1.003-2.234,2.235v7.94
			l-14.734,14.735v-11.411l5.254-5.256c0.422-0.42,0.654-0.981,0.654-1.58c0-0.597-0.232-1.158-0.654-1.579
			c-0.844-0.845-2.318-0.846-3.164,0l-2.09,2.097v-5.5l5.254-5.262c0.869-0.868,0.869-2.283,0-3.155
			c-0.846-0.842-2.316-0.843-3.162,0.001l-2.092,2.093v-1.99c0-1.233-1.004-2.235-2.236-2.235s-2.236,1.002-2.236,2.235v1.992
			l-2.1-2.095c-0.842-0.843-2.307-0.845-3.156,0c-0.867,0.871-0.867,2.286,0.002,3.154l5.254,5.262v5.503l-2.098-2.1
			c-0.844-0.846-2.313-0.846-3.156,0c-0.422,0.421-0.654,0.982-0.654,1.579c0,0.599,0.232,1.16,0.654,1.58l5.254,5.256v11.413
			l-14.742-14.737v-7.94c0-1.232-1.004-2.235-2.238-2.235c-1.227,0-2.225,1.003-2.225,2.235v3.472l-3.582-3.574
			c-0.844-0.845-2.313-0.844-3.152-0.001c-0.422,0.422-0.656,0.982-0.656,1.577s0.232,1.156,0.654,1.58l3.576,3.578h-3.473
			c-1.232,0-2.236,0.999-2.236,2.227c0,1.234,1.004,2.235,2.236,2.235h7.939l14.736,14.745h-11.41l-5.256-5.256
			c-0.844-0.842-2.318-0.842-3.158,0c-0.424,0.422-0.658,0.983-0.656,1.579c0,0.595,0.232,1.156,0.656,1.576l2.098,2.101h-5.502
			l-5.262-5.256c-0.844-0.842-2.307-0.843-3.156,0.002c-0.867,0.869-0.867,2.284,0,3.153l2.096,2.101h-1.992
			c-1.234,0-2.236,1.003-2.236,2.235c0,1.233,1.002,2.236,2.236,2.236h1.99l-2.094,2.093c-0.422,0.421-0.654,0.981-0.654,1.579
			s0.232,1.159,0.652,1.579c0.84,0.843,2.309,0.853,3.158,0.002l5.262-5.253h5.5l-2.096,2.091c-0.424,0.423-0.656,0.983-0.656,1.581
			c0,0.599,0.232,1.16,0.652,1.577c0.828,0.838,2.338,0.836,3.162,0.004l5.256-5.253h11.41l-14.736,14.734h-7.939
			c-1.232,0-2.236,1.002-2.236,2.235c0,1.231,1.004,2.236,2.236,2.236h3.471l-3.572,3.572c-0.422,0.42-0.656,0.98-0.656,1.578
			c0,0.599,0.232,1.161,0.658,1.586c0.848,0.845,2.309,0.838,3.15-0.002l3.582-3.574v3.472c0,1.233,0.998,2.235,2.225,2.235
			c1.234,0,2.238-1.002,2.238-2.235v-7.94l14.742-14.745v11.419l-5.256,5.257c-0.867,0.869-0.867,2.284,0,3.152
			c0.838,0.84,2.305,0.849,3.156,0.002l2.1-2.097v5.505l-5.254,5.255c-0.422,0.422-0.654,0.983-0.654,1.58
			c0,0.599,0.232,1.16,0.65,1.576c0.836,0.848,2.314,0.854,3.158,0.004l2.1-2.099v1.999c0,1.232,1.004,2.234,2.236,2.234
			s2.236-1.002,2.236-2.234v-1.997l2.088,2.095c0.832,0.837,2.334,0.835,3.166,0.002c0.422-0.42,0.654-0.981,0.654-1.58
			c0-0.597-0.232-1.158-0.654-1.58l-5.254-5.255v-5.503l2.092,2.095c0.832,0.829,2.326,0.831,3.162-0.002
			c0.869-0.868,0.869-2.283,0-3.154l-5.254-5.255v-11.419l14.734,14.745v7.94c0,1.233,1.004,2.235,2.234,2.235
			c1.234,0,2.236-1.002,2.236-2.235v-3.47l3.574,3.574c0.838,0.834,2.314,0.838,3.16-0.002c0.422-0.423,0.654-0.983,0.654-1.582
			c0-0.598-0.232-1.16-0.654-1.58l-3.572-3.572h3.469c1.234,0,2.236-1.005,2.236-2.236c0-1.233-1.002-2.235-2.236-2.235h-7.939
			l-14.742-14.734h11.418l5.254,5.252c0.842,0.846,2.313,0.848,3.154,0.001c0.424-0.421,0.656-0.983,0.656-1.581
			s-0.232-1.158-0.656-1.579l-2.092-2.093h5.502l5.252,5.251c0.83,0.836,2.332,0.838,3.164,0.002
			c0.422-0.422,0.654-0.983,0.654-1.581s-0.232-1.158-0.654-1.58l-2.098-2.092h1.996
			C180.143,156.233,181.146,155.23,181.146,153.997z"/>
		<path style="fill:#FFFFFF;" d="M153.68,200.678c0-0.249,0.201-0.451,0.449-0.451h0.402l-0.422-0.424
			c-0.176-0.175-0.176-0.46,0-0.635c0.17-0.171,0.465-0.171,0.637,0l1.057,1.059h1.111l-0.424-0.424
			c-0.174-0.175-0.174-0.46,0.002-0.635c0.168-0.171,0.465-0.171,0.635,0l1.059,1.059h2.301l-2.971-2.971h-1.6
			c-0.248,0-0.451-0.202-0.451-0.451c0-0.247,0.203-0.446,0.451-0.446h0.699l-0.721-0.722c-0.174-0.177-0.174-0.462,0-0.636
			c0.17-0.171,0.467-0.171,0.639-0.001l0.719,0.721v-0.7c0-0.248,0.203-0.449,0.449-0.449c0.248,0,0.451,0.201,0.451,0.449v1.6
			l2.969,2.97v-2.299l-1.059-1.06c-0.086-0.085-0.133-0.198-0.133-0.317c0-0.121,0.047-0.233,0.133-0.319
			c0.17-0.17,0.467-0.171,0.637,0l0.422,0.423v-1.108l-1.059-1.06c-0.176-0.176-0.176-0.459,0-0.636c0.17-0.17,0.467-0.17,0.637,0
			l0.422,0.421v-0.401c0-0.248,0.203-0.45,0.451-0.45s0.449,0.202,0.449,0.45v0.401l0.424-0.421c0.17-0.17,0.463-0.17,0.635,0
			c0.176,0.177,0.176,0.46,0,0.636l-1.059,1.06v1.109l0.424-0.424c0.17-0.171,0.465-0.171,0.635,0
			c0.086,0.086,0.131,0.198,0.131,0.319c0,0.119-0.045,0.232-0.131,0.317l-1.059,1.06v2.299l2.971-2.971v-1.599
			c0-0.248,0.201-0.449,0.451-0.449c0.246,0,0.447,0.201,0.447,0.449v0.7l0.723-0.721c0.17-0.17,0.465-0.17,0.635,0
			c0.084,0.086,0.131,0.198,0.131,0.317c0,0.12-0.047,0.233-0.131,0.319l-0.721,0.722h0.699c0.248,0,0.451,0.199,0.451,0.446
			c0,0.249-0.203,0.451-0.451,0.451h-1.598l-2.969,2.971h2.297l1.059-1.059c0.17-0.171,0.467-0.171,0.637,0
			c0.086,0.085,0.133,0.197,0.133,0.317s-0.047,0.232-0.133,0.317l-0.422,0.424h1.107l1.061-1.059c0.17-0.171,0.465-0.171,0.637,0
			c0.174,0.175,0.174,0.46,0,0.635l-0.424,0.424h0.402c0.248,0,0.449,0.202,0.449,0.451c0,0.248-0.201,0.45-0.449,0.45h-0.402
			l0.424,0.421c0.084,0.084,0.131,0.198,0.131,0.318s-0.047,0.233-0.131,0.317c-0.17,0.171-0.465,0.172-0.637,0l-1.061-1.057h-1.107
			l0.422,0.421c0.086,0.084,0.133,0.198,0.133,0.318s-0.047,0.233-0.133,0.317c-0.166,0.168-0.469,0.168-0.637,0l-1.059-1.057
			h-2.297l2.967,2.968h1.6c0.248,0,0.451,0.202,0.451,0.45s-0.203,0.45-0.451,0.45h-0.699l0.721,0.72
			c0.084,0.085,0.131,0.198,0.131,0.318s-0.047,0.233-0.131,0.319c-0.172,0.171-0.467,0.169-0.635-0.001l-0.723-0.719v0.698
			c0,0.249-0.201,0.451-0.447,0.451c-0.25,0-0.451-0.202-0.451-0.451v-1.6l-2.971-2.97v2.301l1.059,1.058
			c0.176,0.177,0.176,0.461,0,0.636c-0.168,0.169-0.465,0.171-0.635,0l-0.424-0.422v1.108l1.059,1.059
			c0.086,0.086,0.131,0.198,0.131,0.318c0,0.121-0.045,0.234-0.129,0.318c-0.17,0.171-0.467,0.172-0.637,0.001l-0.424-0.424v0.403
			c0,0.249-0.201,0.45-0.449,0.45s-0.451-0.201-0.451-0.45v-0.402l-0.422,0.423c-0.166,0.168-0.471,0.168-0.637,0
			c-0.086-0.085-0.133-0.198-0.133-0.319c0-0.12,0.047-0.232,0.133-0.318l1.059-1.059v-1.108l-0.422,0.422
			c-0.168,0.167-0.469,0.167-0.637,0c-0.176-0.175-0.176-0.459,0-0.636l1.059-1.058v-2.301l-2.969,2.97v1.6
			c0,0.249-0.203,0.451-0.451,0.451c-0.246,0-0.449-0.202-0.449-0.451v-0.698l-0.721,0.72c-0.168,0.167-0.467,0.169-0.637-0.001
			c-0.084-0.083-0.131-0.198-0.131-0.318s0.047-0.233,0.131-0.317l0.721-0.721h-0.699c-0.248,0-0.451-0.202-0.451-0.45
			s0.203-0.45,0.451-0.45h1.6l2.971-2.968h-2.301l-1.059,1.057c-0.17,0.171-0.467,0.172-0.637,0
			c-0.084-0.084-0.131-0.197-0.131-0.317s0.047-0.234,0.131-0.318l0.422-0.421h-1.109l-1.057,1.057
			c-0.166,0.168-0.469,0.169-0.637,0c-0.086-0.084-0.133-0.197-0.133-0.317s0.047-0.234,0.133-0.318l0.422-0.421h-0.402
			C153.881,201.128,153.68,200.926,153.68,200.678z"/>
		<path style="fill:#FFFFFF;" d="M122.855,207.605c0-0.247,0.199-0.448,0.449-0.448h0.402l-0.424-0.424
			c-0.176-0.175-0.176-0.461,0-0.636c0.17-0.17,0.467-0.17,0.639,0l1.057,1.06h1.109l-0.422-0.424c-0.176-0.175-0.176-0.461,0-0.636
			c0.17-0.17,0.465-0.17,0.635,0l1.061,1.06h2.299l-2.971-2.971h-1.6c-0.248,0-0.449-0.203-0.449-0.451
			c0-0.246,0.201-0.448,0.449-0.448h0.701l-0.721-0.722c-0.176-0.175-0.176-0.46,0-0.634c0.17-0.171,0.467-0.171,0.637,0
			l0.721,0.719v-0.699c0-0.249,0.203-0.45,0.449-0.45c0.248,0,0.451,0.201,0.451,0.45v1.6l2.969,2.969v-2.299l-1.059-1.059
			c-0.086-0.085-0.133-0.197-0.133-0.319c0-0.119,0.047-0.232,0.133-0.316c0.17-0.171,0.465-0.171,0.637,0l0.422,0.421v-1.107
			l-1.059-1.06c-0.176-0.176-0.176-0.461,0-0.637c0.17-0.169,0.465-0.169,0.637,0.001l0.422,0.421v-0.4
			c0-0.249,0.201-0.45,0.449-0.45s0.451,0.201,0.451,0.45v0.4l0.422-0.421c0.172-0.17,0.465-0.17,0.637,0
			c0.176,0.175,0.176,0.46,0,0.636l-1.059,1.06v1.108l0.422-0.422c0.172-0.171,0.467-0.171,0.637,0
			c0.084,0.084,0.131,0.197,0.131,0.316c0,0.122-0.047,0.234-0.131,0.319l-1.059,1.059v2.299l2.969-2.969v-1.6
			c0-0.249,0.203-0.45,0.451-0.45s0.449,0.201,0.449,0.45v0.699l0.721-0.719c0.17-0.171,0.467-0.171,0.637-0.002
			c0.084,0.086,0.131,0.199,0.131,0.318c0,0.121-0.047,0.233-0.131,0.318l-0.721,0.721h0.699c0.248,0,0.451,0.202,0.451,0.448
			c0,0.248-0.203,0.451-0.451,0.451h-1.598l-2.973,2.971h2.301l1.059-1.06c0.17-0.17,0.467-0.17,0.637,0
			c0.084,0.085,0.133,0.199,0.133,0.318c0,0.12-0.049,0.232-0.133,0.317l-0.424,0.424h1.109l1.061-1.06
			c0.17-0.17,0.465-0.17,0.635,0.001c0.176,0.174,0.176,0.46,0,0.635l-0.422,0.424h0.402c0.248,0,0.449,0.201,0.449,0.448
			c0,0.25-0.201,0.451-0.449,0.451h-0.402l0.422,0.422c0.086,0.085,0.131,0.197,0.131,0.319c0,0.119-0.045,0.232-0.131,0.318
			c-0.168,0.169-0.465,0.172-0.635,0l-1.061-1.06h-1.107l0.422,0.422c0.084,0.085,0.133,0.197,0.133,0.319
			c0,0.12-0.049,0.232-0.133,0.317c-0.168,0.168-0.471,0.168-0.637,0.001l-1.059-1.06h-2.299l2.969,2.969h1.6
			c0.248,0,0.451,0.202,0.451,0.451c0,0.247-0.203,0.45-0.451,0.45h-0.699l0.721,0.72c0.084,0.085,0.131,0.197,0.131,0.317
			c0,0.121-0.047,0.234-0.131,0.32c-0.172,0.171-0.467,0.169-0.637,0l-0.721-0.721v0.699c0,0.248-0.201,0.451-0.449,0.451
			s-0.451-0.203-0.451-0.451v-1.6l-2.969-2.971v2.301l1.059,1.06c0.176,0.175,0.176,0.459,0,0.635c-0.168,0.169-0.465,0.171-0.637,0
			l-0.422-0.423v1.11l1.059,1.059c0.084,0.084,0.131,0.197,0.131,0.316c0,0.122-0.047,0.234-0.131,0.318
			c-0.168,0.171-0.465,0.173-0.637,0.002l-0.422-0.424v0.403c0,0.248-0.203,0.45-0.451,0.45s-0.449-0.202-0.449-0.45v-0.403
			l-0.422,0.422c-0.168,0.169-0.471,0.169-0.637,0.002c-0.086-0.086-0.133-0.198-0.133-0.32c0-0.119,0.047-0.232,0.133-0.316
			l1.059-1.059v-1.11l-0.424,0.423c-0.166,0.167-0.467,0.167-0.635,0c-0.176-0.176-0.176-0.46,0-0.636l1.059-1.059v-2.301
			l-2.969,2.971v1.6c0,0.248-0.203,0.451-0.451,0.451c-0.246,0-0.449-0.203-0.449-0.451v-0.699l-0.721,0.721
			c-0.17,0.169-0.467,0.169-0.637,0c-0.084-0.086-0.133-0.199-0.133-0.318c0-0.122,0.049-0.234,0.133-0.319l0.719-0.72h-0.699
			c-0.248,0-0.449-0.203-0.449-0.45c0-0.249,0.201-0.451,0.449-0.451h1.6l2.971-2.969h-2.299l-1.059,1.06
			c-0.172,0.171-0.467,0.171-0.637,0c-0.086-0.086-0.131-0.199-0.131-0.318c0-0.122,0.045-0.234,0.131-0.319l0.422-0.422h-1.109
			l-1.057,1.06c-0.168,0.167-0.471,0.167-0.639,0c-0.084-0.086-0.131-0.199-0.131-0.318c0-0.122,0.047-0.234,0.131-0.319
			l0.424-0.422h-0.402C123.055,208.057,122.855,207.855,122.855,207.605z"/>
		<path style="fill:#FFFFFF;" d="M184.504,186.813c0-0.247,0.201-0.449,0.449-0.449h0.402l-0.424-0.423
			c-0.174-0.176-0.174-0.461,0.002-0.637c0.17-0.169,0.467-0.169,0.637,0l1.059,1.06h1.107l-0.422-0.423
			c-0.174-0.176-0.174-0.461,0.002-0.637c0.17-0.169,0.465-0.169,0.633,0l1.061,1.06h2.301l-2.971-2.971h-1.6
			c-0.25,0-0.449-0.202-0.449-0.45c0-0.247,0.199-0.449,0.449-0.449h0.699l-0.719-0.721c-0.178-0.176-0.178-0.461,0-0.635
			c0.168-0.171,0.467-0.171,0.635,0l0.721,0.72v-0.7c0-0.248,0.203-0.45,0.449-0.45c0.25,0,0.451,0.202,0.451,0.45v1.6l2.969,2.969
			v-2.298l-1.059-1.06c-0.086-0.084-0.133-0.197-0.133-0.319c0-0.119,0.047-0.232,0.133-0.316c0.17-0.171,0.467-0.171,0.637,0
			l0.422,0.422v-1.107l-1.059-1.061c-0.176-0.176-0.176-0.46,0-0.637c0.17-0.169,0.467-0.169,0.637,0.001l0.422,0.422v-0.4
			c0-0.25,0.203-0.45,0.451-0.45s0.449,0.2,0.449,0.45v0.4l0.424-0.422c0.17-0.17,0.465-0.17,0.635,0
			c0.176,0.176,0.176,0.46,0,0.636l-1.059,1.061v1.107l0.424-0.422c0.17-0.171,0.465-0.171,0.635,0
			c0.086,0.084,0.133,0.197,0.133,0.316c0,0.122-0.047,0.235-0.133,0.319l-1.059,1.06v2.298l2.971-2.969v-1.6
			c0-0.248,0.201-0.45,0.451-0.45c0.248,0,0.447,0.202,0.447,0.45v0.7l0.723-0.72c0.17-0.171,0.465-0.17,0.635-0.001
			c0.084,0.085,0.131,0.198,0.131,0.317c0,0.121-0.047,0.234-0.131,0.318l-0.719,0.721h0.697c0.248,0,0.451,0.202,0.451,0.449
			c0,0.248-0.203,0.45-0.451,0.45h-1.598l-2.971,2.971h2.301l1.057-1.06c0.17-0.169,0.469-0.169,0.639,0
			c0.084,0.086,0.131,0.199,0.131,0.318c0,0.121-0.047,0.232-0.131,0.318l-0.424,0.423h1.109l1.059-1.06
			c0.17-0.169,0.465-0.169,0.637,0.002c0.174,0.174,0.174,0.459,0,0.635l-0.422,0.423h0.4c0.248,0,0.451,0.202,0.451,0.449
			c0,0.249-0.203,0.451-0.451,0.451h-0.4l0.422,0.421c0.084,0.086,0.131,0.198,0.131,0.319c0,0.119-0.047,0.233-0.131,0.318
			c-0.17,0.169-0.465,0.172-0.637,0l-1.059-1.059h-1.109l0.424,0.421c0.084,0.086,0.131,0.198,0.131,0.319s-0.047,0.233-0.131,0.318
			c-0.168,0.167-0.473,0.167-0.639,0l-1.057-1.059h-2.299l2.967,2.968h1.6c0.248,0,0.451,0.203,0.451,0.451s-0.203,0.45-0.451,0.45
			h-0.697l0.719,0.72c0.084,0.085,0.131,0.197,0.131,0.318c0.002,0.12-0.047,0.233-0.131,0.319c-0.172,0.171-0.465,0.169-0.635,0
			l-0.723-0.72v0.698c0,0.248-0.199,0.451-0.447,0.451c-0.25,0-0.451-0.203-0.451-0.451v-1.6l-2.971-2.97v2.3l1.059,1.061
			c0.176,0.174,0.176,0.459,0,0.634c-0.168,0.17-0.465,0.172-0.635,0.001l-0.424-0.423v1.11l1.059,1.058
			c0.086,0.085,0.133,0.198,0.133,0.317c0,0.121-0.047,0.234-0.131,0.317c-0.17,0.171-0.467,0.173-0.637,0.002l-0.424-0.424v0.403
			c0,0.248-0.201,0.45-0.449,0.45s-0.451-0.202-0.451-0.45v-0.403l-0.422,0.422c-0.166,0.169-0.469,0.169-0.637,0.002
			c-0.086-0.085-0.133-0.198-0.133-0.319c0-0.119,0.047-0.232,0.133-0.317l1.059-1.058v-1.11l-0.422,0.423
			c-0.168,0.166-0.469,0.166-0.637-0.001c-0.176-0.175-0.176-0.46,0-0.636l1.059-1.059v-2.3l-2.969,2.97v1.6
			c0,0.248-0.201,0.451-0.451,0.451c-0.246,0-0.449-0.203-0.449-0.451v-0.698l-0.721,0.72c-0.168,0.169-0.465,0.169-0.635,0
			c-0.086-0.086-0.133-0.199-0.133-0.318c0-0.122,0.047-0.234,0.133-0.319l0.719-0.72h-0.699c-0.25,0-0.449-0.202-0.449-0.45
			s0.199-0.451,0.449-0.451h1.6l2.971-2.968h-2.301l-1.059,1.059c-0.17,0.171-0.465,0.171-0.637,0
			c-0.084-0.085-0.131-0.199-0.131-0.318c0-0.121,0.047-0.233,0.131-0.319l0.422-0.421h-1.107l-1.059,1.059
			c-0.168,0.167-0.471,0.167-0.637,0c-0.086-0.085-0.133-0.199-0.133-0.318c0-0.121,0.047-0.233,0.133-0.319l0.422-0.421h-0.402
			C184.705,187.265,184.504,187.063,184.504,186.813z"/>
		<path style="fill:#FFFFFF;" d="M92.029,193.745c0-0.248,0.201-0.45,0.451-0.45h0.402l-0.424-0.423
			c-0.176-0.176-0.176-0.461,0-0.637c0.17-0.169,0.467-0.169,0.637,0l1.059,1.06h1.109l-0.422-0.423
			c-0.176-0.176-0.176-0.461,0-0.637c0.17-0.169,0.465-0.169,0.635,0l1.059,1.06h2.301l-2.971-2.972h-1.598
			c-0.248,0-0.451-0.2-0.451-0.448s0.203-0.449,0.451-0.449h0.697l-0.719-0.722c-0.176-0.176-0.176-0.461,0-0.636
			c0.168-0.17,0.467-0.17,0.637,0l0.721,0.721v-0.699c0-0.248,0.201-0.45,0.449-0.45s0.451,0.202,0.451,0.45v1.599l2.967,2.969
			v-2.299l-1.057-1.06c-0.086-0.082-0.133-0.197-0.133-0.318c0-0.119,0.047-0.232,0.133-0.316c0.17-0.171,0.467-0.171,0.637,0
			l0.42,0.422v-1.106l-1.057-1.062c-0.176-0.177-0.176-0.46,0-0.636c0.17-0.169,0.467-0.171,0.637,0l0.42,0.423v-0.403
			c0-0.248,0.203-0.449,0.451-0.449s0.451,0.201,0.451,0.449v0.403l0.422-0.423c0.172-0.169,0.465-0.171,0.635,0
			c0.178,0.176,0.178,0.459,0,0.636l-1.057,1.062v1.106l0.422-0.422c0.172-0.171,0.465-0.171,0.635,0
			c0.086,0.084,0.133,0.197,0.133,0.316c0,0.121-0.047,0.236-0.133,0.318l-1.057,1.06v2.299l2.971-2.969v-1.599
			c0-0.248,0.201-0.45,0.449-0.45s0.449,0.202,0.449,0.45v0.699l0.721-0.721c0.172-0.17,0.467-0.169,0.635,0
			c0.086,0.085,0.133,0.197,0.133,0.317c0,0.121-0.047,0.234-0.133,0.318l-0.719,0.722h0.699c0.248,0,0.449,0.201,0.449,0.449
			s-0.201,0.448-0.449,0.448h-1.6l-2.969,2.972h2.299l1.059-1.06c0.17-0.169,0.467-0.169,0.637,0
			c0.086,0.086,0.131,0.198,0.131,0.318c0,0.121-0.045,0.232-0.131,0.318l-0.422,0.423h1.107l1.061-1.06
			c0.168-0.169,0.465-0.169,0.635,0.001c0.176,0.175,0.174,0.46,0,0.636l-0.422,0.423h0.402c0.248,0,0.449,0.202,0.449,0.45
			s-0.201,0.45-0.449,0.45h-0.402l0.422,0.421c0.084,0.086,0.133,0.199,0.133,0.318c0,0.12-0.049,0.234-0.133,0.319
			c-0.168,0.17-0.465,0.172-0.635,0l-1.061-1.059h-1.107l0.422,0.421c0.086,0.086,0.131,0.199,0.131,0.318
			c0,0.122-0.045,0.234-0.131,0.319c-0.166,0.167-0.471,0.167-0.637,0l-1.059-1.059h-2.299l2.969,2.968h1.6
			c0.248,0,0.449,0.202,0.449,0.451c0,0.248-0.201,0.45-0.449,0.45h-0.699l0.719,0.72c0.086,0.085,0.133,0.197,0.133,0.318
			c0,0.12-0.047,0.234-0.133,0.319c-0.17,0.17-0.465,0.169-0.635,0l-0.721-0.721v0.699c0,0.248-0.201,0.45-0.449,0.45
			s-0.449-0.202-0.449-0.45v-1.6l-2.971-2.97v2.301l1.057,1.058c0.178,0.176,0.178,0.461,0,0.636
			c-0.166,0.17-0.463,0.172-0.635,0.001l-0.422-0.422v1.108l1.057,1.059c0.086,0.086,0.133,0.198,0.133,0.318
			c0,0.119-0.047,0.233-0.131,0.316c-0.168,0.171-0.465,0.173-0.637,0.002l-0.422-0.424v0.402c0,0.248-0.203,0.451-0.451,0.451
			s-0.451-0.203-0.451-0.451v-0.402l-0.42,0.422c-0.168,0.169-0.471,0.169-0.637,0.002c-0.086-0.085-0.133-0.199-0.133-0.318
			c0-0.12,0.047-0.232,0.133-0.318l1.057-1.059v-1.108l-0.42,0.422c-0.168,0.166-0.471,0.166-0.637-0.001
			c-0.176-0.175-0.176-0.46,0-0.636l1.057-1.058v-2.301l-2.967,2.97v1.6c0,0.248-0.203,0.45-0.451,0.45s-0.449-0.202-0.449-0.45
			v-0.699l-0.721,0.721c-0.168,0.167-0.467,0.169-0.637,0c-0.084-0.085-0.133-0.199-0.133-0.319c0-0.121,0.049-0.233,0.133-0.318
			l0.719-0.72h-0.697c-0.248,0-0.451-0.202-0.451-0.45c0-0.249,0.203-0.451,0.451-0.451h1.598l2.971-2.968h-2.301l-1.057,1.059
			c-0.172,0.17-0.467,0.17-0.637,0c-0.086-0.085-0.131-0.199-0.131-0.319c0-0.119,0.045-0.232,0.131-0.318l0.422-0.421h-1.109
			l-1.059,1.059c-0.166,0.167-0.469,0.167-0.637,0c-0.084-0.085-0.131-0.199-0.131-0.319c0-0.119,0.047-0.232,0.131-0.318
			l0.422-0.421h-0.4C92.23,194.195,92.029,193.993,92.029,193.745z"/>
		<g>
			<path style="fill:#F0C419;" d="M99.039,54.101c0.936,0,1.699-0.755,1.699-1.693V42.201c0-0.939-0.764-1.701-1.699-1.701
				c-0.939,0-1.703,0.762-1.703,1.701v10.206C97.336,53.346,98.1,54.101,99.039,54.101z"/>
			<path style="fill:#F0C419;" d="M61.623,91.514c0-0.937-0.756-1.7-1.693-1.7H49.723c-0.939,0-1.701,0.764-1.701,1.7
				c0,0.94,0.762,1.703,1.701,1.703H59.93C60.867,93.217,61.623,92.454,61.623,91.514z"/>
			<path style="fill:#F0C419;" d="M126.697,65.559c0.43,0,0.867-0.165,1.203-0.497l9.748-9.757c0.664-0.667,0.664-1.736,0-2.399
				c-0.662-0.665-1.736-0.665-2.398,0l-9.758,9.747c-0.664,0.665-0.664,1.744,0,2.409C125.824,65.394,126.256,65.559,126.697,65.559
				z"/>
			<path style="fill:#F0C419;" d="M72.584,117.969c-0.666-0.663-1.746-0.663-2.41,0l-9.746,9.758c-0.666,0.665-0.666,1.737,0,2.399
				c0.332,0.331,0.76,0.498,1.195,0.498c0.438,0,0.873-0.167,1.203-0.498l9.758-9.748C73.248,119.714,73.248,118.633,72.584,117.969
				z"/>
			<path style="fill:#F0C419;" d="M70.174,65.062c0.332,0.332,0.773,0.497,1.203,0.497c0.441,0,0.871-0.165,1.207-0.497
				c0.664-0.665,0.664-1.744,0-2.409l-9.758-9.747c-0.666-0.665-1.736-0.665-2.398,0c-0.666,0.663-0.666,1.732,0,2.399
				L70.174,65.062z"/>
			<path style="fill:#F0C419;" d="M64.604,106.129c-0.371-0.864-1.373-1.263-2.232-0.896l-4.701,1.992
				c-0.863,0.363-1.264,1.36-0.895,2.226c0.271,0.646,0.9,1.037,1.564,1.037c0.219,0,0.441-0.042,0.658-0.134l4.701-1.992
				C64.561,107.998,64.973,106.993,64.604,106.129z"/>
			<path style="fill:#F0C419;" d="M57.404,76.528l4.734,1.911c0.207,0.092,0.422,0.123,0.631,0.123c0.68,0,1.313-0.401,1.58-1.063
				c0.355-0.87-0.07-1.858-0.943-2.209l-4.73-1.916c-0.871-0.348-1.861,0.073-2.209,0.943
				C56.119,75.182,56.533,76.178,57.404,76.528z"/>
			<path style="fill:#F0C419;" d="M82.189,56.177c0.275,0.649,0.904,1.037,1.568,1.037c0.219,0,0.447-0.042,0.666-0.134
				c0.863-0.373,1.262-1.367,0.895-2.23l-1.992-4.701c-0.363-0.864-1.361-1.271-2.225-0.896c-0.863,0.363-1.27,1.358-0.906,2.224
				L82.189,56.177z"/>
			<path style="fill:#F0C419;" d="M113.053,56.826c0.209,0.09,0.424,0.122,0.633,0.122c0.67,0,1.313-0.397,1.576-1.064l1.92-4.729
				c0.348-0.868-0.076-1.861-0.947-2.209c-0.865-0.356-1.861,0.064-2.209,0.936l-1.908,4.735
				C111.762,55.488,112.182,56.476,113.053,56.826z"/>
			<path style="fill:#F0C419;" d="M82.035,110.528c-5.221-4.67-8.506-11.456-8.506-19.015c0-14.089,11.418-25.508,25.51-25.508
				c6.748,0,12.877,2.627,17.443,6.906c2.996-1.13,6.184-1.86,9.5-2.136c-6.217-8.067-15.971-13.272-26.943-13.272
				c-18.785,0-34.014,15.23-34.014,34.01c0,10.144,4.447,19.242,11.486,25.475c0.625-0.97,1.295-1.91,2.029-2.809
				C79.607,112.865,80.781,111.646,82.035,110.528z"/>
			<path style="fill:#FFE001;" d="M73.529,91.514c0,7.559,3.285,14.345,8.506,19.015c3.324-2.969,7.252-5.218,11.492-6.565
				c0.857-14.242,10.162-26.238,22.955-31.051c-4.566-4.279-10.695-6.906-17.443-6.906C84.947,66.006,73.529,77.425,73.529,91.514z"
				/>
		</g>
	</g>
</g>
</svg>
