<?xml version="1.0" encoding="iso-8859-1"?>
<!-- Generator: Adobe Illustrator 16.0.0, SVG Export Plug-In . SVG Version: 6.00 Build 0)  -->
<!DOCTYPE svg PUBLIC "-//W3C//DTD SVG 1.1//EN" "http://www.w3.org/Graphics/SVG/1.1/DTD/svg11.dtd">
<svg version="1.1" xmlns="http://www.w3.org/2000/svg" xmlns:xlink="http://www.w3.org/1999/xlink" x="0px" y="0px" width="256px"
	 height="256px" viewBox="0 0 256 256" style="enable-background:new 0 0 256 256;" xml:space="preserve">
<g id="bg_light" style="display:none;">
	<rect style="display:inline;fill:#0079C1;" width="256" height="256"/>
</g>
<g id="guides" style="display:none;">
	<g style="display:inline;">
		<g>
			<g>
				<line style="fill:none;stroke:#FFFFFF;stroke-width:0.25;stroke-miterlimit:10;" x1="40.5" y1="0" x2="40.5" y2="2"/>
				
					<line style="fill:none;stroke:#FFFFFF;stroke-width:0.25;stroke-miterlimit:10;stroke-dasharray:4,4;" x1="40.5" y1="6" x2="40.5" y2="252"/>
				<line style="fill:none;stroke:#FFFFFF;stroke-width:0.25;stroke-miterlimit:10;" x1="40.5" y1="254" x2="40.5" y2="256"/>
			</g>
		</g>
		<g>
			<g>
				<line style="fill:none;stroke:#FFFFFF;stroke-width:0.25;stroke-miterlimit:10;" x1="215.5" y1="0" x2="215.5" y2="2"/>
				
					<line style="fill:none;stroke:#FFFFFF;stroke-width:0.25;stroke-miterlimit:10;stroke-dasharray:4,4;" x1="215.5" y1="6" x2="215.5" y2="252"/>
				<line style="fill:none;stroke:#FFFFFF;stroke-width:0.25;stroke-miterlimit:10;" x1="215.5" y1="254" x2="215.5" y2="256"/>
			</g>
		</g>
		<g>
			<g>
				<line style="fill:none;stroke:#FFFFFF;stroke-width:0.25;stroke-miterlimit:10;" x1="256" y1="40.5" x2="254" y2="40.5"/>
				
					<line style="fill:none;stroke:#FFFFFF;stroke-width:0.25;stroke-miterlimit:10;stroke-dasharray:4,4;" x1="250" y1="40.5" x2="4" y2="40.5"/>
				<line style="fill:none;stroke:#FFFFFF;stroke-width:0.25;stroke-miterlimit:10;" x1="2" y1="40.5" x2="0" y2="40.5"/>
			</g>
		</g>
		<g>
			<g>
				<line style="fill:none;stroke:#FFFFFF;stroke-width:0.25;stroke-miterlimit:10;" x1="256" y1="215.5" x2="254" y2="215.5"/>
				
					<line style="fill:none;stroke:#FFFFFF;stroke-width:0.25;stroke-miterlimit:10;stroke-dasharray:4,4;" x1="250" y1="215.5" x2="4" y2="215.5"/>
				<line style="fill:none;stroke:#FFFFFF;stroke-width:0.25;stroke-miterlimit:10;" x1="2" y1="215.5" x2="0" y2="215.5"/>
			</g>
		</g>
	</g>
</g>
<g id="border">
	<rect style="opacity:0;fill:none;stroke:#231F20;stroke-width:0.1;stroke-miterlimit:10;" width="256" height="256"/>
</g>
<g id="icons">
	<g>
		<g>
			<path style="fill:#D5D6DB;" d="M130.026,155.976h-2.768l-4.24,4.239c-0.694,0.7-1.597,1.181-2.566,1.387h3.949L130.026,155.976z"
				/>
			<path style="fill:#D5D6DB;" d="M157.453,155.976h-2.771l5.627,5.626h3.939c-0.963-0.204-1.848-0.679-2.56-1.393L157.453,155.976z
				"/>
			<path style="fill:#D5D6DB;" d="M115.788,160.2c-0.765-0.76-1.261-1.738-1.425-2.803l-2.823,2.818
				c-0.706,0.708-1.588,1.182-2.548,1.386h9.375C117.396,161.395,116.488,160.911,115.788,160.2z"/>
			<path style="fill:#D5D6DB;" d="M192.021,118.797c0.031-0.456,0.052-0.913,0.052-1.373c0-11.333-9.185-20.516-20.511-20.516
				c-3.633,0-7.04,0.949-9.997,2.604c-3.171-13.984-15.676-24.425-30.619-24.425c-17.338,0-31.396,14.058-31.396,31.399
				c0,0.18,0.002,0.362,0.007,0.542c-12.366,2.742-21.614,13.771-21.614,26.958c0,15.251,12.362,27.614,27.612,27.614h1.326
				c-0.966-0.204-1.854-0.682-2.565-1.397c-1.469-1.47-1.848-3.629-1.135-5.46c-1.092-0.938-1.786-2.327-1.786-3.876
				c0-1.551,0.695-2.941,1.79-3.877c-0.712-1.831-0.333-3.989,1.139-5.466c0.971-0.97,2.251-1.499,3.613-1.499
				c1.36,0,2.641,0.531,3.604,1.494l2.823,2.82c0.165-1.063,0.661-2.046,1.438-2.82c0.96-0.962,2.244-1.494,3.607-1.494
				c1.364,0,2.647,0.532,3.611,1.496l4.24,4.24h2.772l-8.433-8.437h-6.489c-2.815,0-5.107-2.294-5.107-5.108
				c0-1.788,0.929-3.367,2.332-4.276c-0.582-0.844-0.896-1.844-0.896-2.891c0-1.363,0.533-2.646,1.501-3.611
				c0.955-0.958,2.237-1.491,3.601-1.491c1.046,0,2.047,0.314,2.89,0.896c0.911-1.402,2.488-2.332,4.278-2.332
				c2.816,0,5.106,2.292,5.106,5.107v6.489l8.437,8.433v-2.771l-4.242-4.241c-1.989-1.991-1.989-5.23,0-7.222
				c0.777-0.774,1.758-1.27,2.819-1.434l-2.82-2.822c-1.985-1.985-1.986-5.221-0.001-7.209c0.974-0.971,2.253-1.497,3.612-1.497
				c0.646,0,1.278,0.118,1.862,0.348c0.938-1.095,2.328-1.785,3.876-1.785c1.548,0,2.94,0.69,3.876,1.783
				c0.585-0.229,1.212-0.346,1.859-0.346c1.363,0,2.644,0.528,3.608,1.489c1.993,1.996,1.992,5.231,0.003,7.22l-2.816,2.819
				c1.063,0.165,2.044,0.661,2.817,1.435c0.964,0.965,1.496,2.246,1.496,3.61c0,1.365-0.532,2.646-1.496,3.613l-4.238,4.238v2.769
				l8.427-8.429v-6.49c0-2.815,2.29-5.107,5.106-5.107c1.792,0,3.372,0.929,4.284,2.329c0.842-0.581,1.84-0.894,2.888-0.894
				c1.365,0,2.647,0.533,3.612,1.5c1.763,1.755,1.963,4.504,0.598,6.493c1.402,0.909,2.332,2.487,2.332,4.276
				c0,2.814-2.291,5.108-5.107,5.108h-6.489l-8.437,8.437h2.775l4.24-4.24c0.968-0.965,2.247-1.496,3.608-1.496
				c1.36,0,2.641,0.531,3.605,1.492c0.796,0.798,1.274,1.793,1.432,2.829l2.825-2.825c0.965-0.965,2.248-1.496,3.611-1.496
				c1.363,0,2.644,0.531,3.608,1.492c1.478,1.478,1.859,3.642,1.146,5.473c1.093,0.936,1.788,2.326,1.788,3.877
				c0,1.546-0.692,2.937-1.783,3.875c0.229,0.585,0.348,1.215,0.348,1.859c0,1.365-0.53,2.648-1.497,3.612
				c-0.699,0.701-1.6,1.181-2.568,1.387h6.517c12.2,0,22.09-9.893,22.09-22.092C206.424,130.014,200.43,121.918,192.021,118.797z"/>
			<path style="fill:#D5D6DB;" d="M173.154,160.204l-2.811-2.811c-0.164,1.064-0.66,2.047-1.435,2.822
				c-0.705,0.708-1.59,1.182-2.55,1.386h9.374C174.763,161.395,173.857,160.913,173.154,160.204z"/>
		</g>
		<path style="fill:#FFFFFF;" d="M180.38,150.868c0-1.196-0.972-2.17-2.169-2.17h-1.939l2.04-2.036
			c0.842-0.846,0.842-2.218-0.002-3.063c-0.818-0.819-2.249-0.82-3.068,0l-5.1,5.1h-5.342l2.033-2.036
			c0.845-0.846,0.845-2.218,0-3.063c-0.82-0.819-2.242-0.82-3.063,0l-5.1,5.1h-11.082l14.309-14.31h7.707
			c1.198,0,2.171-0.974,2.171-2.171c0-1.189-0.974-2.16-2.171-2.16h-3.368l3.469-3.476c0.843-0.846,0.843-2.219,0-3.062
			c-0.819-0.819-2.252-0.819-3.07-0.001l-3.467,3.47v-3.369c0-1.196-0.973-2.17-2.17-2.17c-1.196,0-2.168,0.974-2.168,2.17v7.705
			l-14.303,14.304v-11.075l5.101-5.1c0.41-0.41,0.635-0.955,0.635-1.535c0-0.578-0.226-1.123-0.635-1.534
			c-0.819-0.82-2.25-0.82-3.069,0.001l-2.031,2.034v-5.336l5.101-5.107c0.844-0.845,0.845-2.217-0.001-3.063
			c-0.82-0.816-2.247-0.817-3.067,0l-2.032,2.029v-1.93c0-1.195-0.974-2.169-2.17-2.169c-1.194,0-2.167,0.974-2.167,2.169v1.935
			l-2.04-2.034c-0.817-0.816-2.238-0.818-3.063,0.001c-0.843,0.845-0.842,2.217,0,3.062l5.103,5.107v5.339l-2.039-2.037
			c-0.818-0.821-2.242-0.821-3.063-0.001c-0.409,0.411-0.635,0.956-0.635,1.534c0,0.58,0.226,1.125,0.635,1.535l5.102,5.1v11.075
			l-14.311-14.304v-7.705c0-1.196-0.974-2.17-2.17-2.17c-1.193,0-2.161,0.974-2.161,2.17v3.371l-3.475-3.472
			c-0.821-0.818-2.245-0.817-3.061-0.001c-0.41,0.411-0.637,0.954-0.637,1.532c0,0.577,0.226,1.123,0.635,1.532l3.469,3.475h-3.369
			c-1.197,0-2.17,0.971-2.17,2.16c0,1.197,0.973,2.171,2.17,2.171h7.706l14.304,14.31h-11.075l-5.103-5.1
			c-0.817-0.819-2.249-0.819-3.065,0c-0.411,0.409-0.638,0.953-0.637,1.533c0,0.576,0.227,1.119,0.636,1.53l2.039,2.036h-5.342
			l-5.104-5.1c-0.819-0.819-2.241-0.82-3.065,0c-0.842,0.846-0.841,2.218,0,3.063l2.036,2.036h-1.935
			c-1.196,0-2.169,0.974-2.169,2.17c0,1.197,0.973,2.169,2.169,2.169h1.932l-2.032,2.033c-0.41,0.409-0.634,0.952-0.634,1.532
			c0,0.581,0.224,1.123,0.632,1.532c0.814,0.819,2.241,0.827,3.066,0.002l5.104-5.1h5.339l-2.034,2.032
			c-0.411,0.41-0.638,0.953-0.638,1.533c0,0.581,0.227,1.124,0.634,1.532c0.804,0.811,2.27,0.81,3.068,0.002l5.103-5.1h11.073
			l-14.301,14.303h-7.707c-1.197,0-2.17,0.976-2.17,2.171c0,1.194,0.973,2.17,2.17,2.17h3.368l-3.466,3.466
			c-0.41,0.408-0.636,0.952-0.637,1.534c0,0.58,0.226,1.124,0.637,1.538c0.823,0.818,2.243,0.813,3.061,0l3.475-3.47v3.367
			c0,1.196,0.968,2.168,2.161,2.168c1.196,0,2.17-0.972,2.17-2.168v-7.708l14.311-14.31v11.083l-5.103,5.103
			c-0.843,0.845-0.842,2.216,0,3.057c0.813,0.815,2.238,0.826,3.063,0.002l2.04-2.034v5.345l-5.102,5.102
			c-0.409,0.408-0.635,0.951-0.635,1.532c0,0.582,0.226,1.126,0.632,1.53c0.812,0.822,2.246,0.828,3.065,0.003l2.04-2.038v1.941
			c0,1.196,0.973,2.171,2.167,2.171c1.197,0,2.17-0.975,2.17-2.171v-1.938l2.029,2.034c0.807,0.813,2.265,0.811,3.071,0.001
			c0.41-0.407,0.636-0.951,0.636-1.533c0-0.581-0.226-1.124-0.635-1.532l-5.101-5.102v-5.342l2.033,2.031
			c0.806,0.807,2.255,0.81,3.067-0.002c0.844-0.841,0.845-2.212,0-3.059l-5.101-5.101v-11.083l14.303,14.31v7.708
			c0,1.196,0.973,2.168,2.168,2.168c1.197,0,2.17-0.972,2.17-2.168v-3.365l3.469,3.468c0.813,0.808,2.246,0.813,3.068-0.002
			c0.409-0.412,0.635-0.956,0.635-1.535c0-0.581-0.226-1.127-0.635-1.535l-3.468-3.466h3.368c1.198,0,2.171-0.976,2.171-2.17
			c0-1.195-0.974-2.171-2.171-2.171h-7.707l-14.307-14.303h11.081l5.098,5.099c0.821,0.82,2.246,0.823,3.065,0.001
			c0.409-0.41,0.635-0.953,0.635-1.534c0-0.58-0.227-1.123-0.635-1.532l-2.032-2.033h5.34l5.098,5.098
			c0.805,0.811,2.263,0.813,3.072,0.002c0.409-0.411,0.634-0.953,0.634-1.534c0-0.58-0.226-1.123-0.636-1.533l-2.034-2.032h1.936
			C179.408,153.037,180.38,152.065,180.38,150.868z"/>
		<g>
			<path style="fill:#5AC8FA;" d="M85.03,198.798c-0.765,0-1.538-0.222-2.214-0.686c-1.785-1.227-2.238-3.664-1.015-5.449
				l14.727-21.464c1.225-1.787,3.664-2.242,5.447-1.018c1.786,1.224,2.239,3.663,1.017,5.447l-14.727,21.467
				C87.504,198.203,86.277,198.798,85.03,198.798z"/>
		</g>
		<g>
			<path style="fill:#5AC8FA;" d="M176.549,198.798c-0.765,0-1.535-0.222-2.212-0.686c-1.786-1.227-2.24-3.664-1.016-5.449
				l14.727-21.464c1.226-1.787,3.664-2.242,5.449-1.018c1.785,1.224,2.238,3.663,1.014,5.447l-14.727,21.467
				C179.024,198.203,177.796,198.798,176.549,198.798z"/>
		</g>
		<g>
			<path style="fill:#5AC8FA;" d="M99.975,212.279c-0.776,0-1.56-0.229-2.244-0.707c-1.773-1.241-2.205-3.685-0.963-5.459
				l13.387-19.124c1.242-1.774,3.684-2.202,5.459-0.964c1.772,1.242,2.203,3.686,0.961,5.46l-13.388,19.122
				C102.425,211.698,101.21,212.279,99.975,212.279z"/>
		</g>
		<g>
			<path style="fill:#5AC8FA;" d="M126.606,209.319c-0.776,0-1.56-0.231-2.244-0.711c-1.773-1.241-2.204-3.684-0.962-5.455
				l5.795-8.278c1.241-1.772,3.683-2.204,5.457-0.964c1.771,1.242,2.203,3.688,0.961,5.46l-5.795,8.276
				C129.057,208.734,127.841,209.319,126.606,209.319z"/>
		</g>
		<g>
			<path style="fill:#5AC8FA;" d="M146.282,215.5c-0.757,0-1.522-0.217-2.196-0.676c-1.792-1.213-2.259-3.65-1.045-5.44
				l12.035-17.753c1.214-1.791,3.652-2.26,5.442-1.046c1.791,1.214,2.259,3.65,1.044,5.442l-12.033,17.753
				C148.771,214.896,147.538,215.5,146.282,215.5z"/>
		</g>
		<g>
			<path style="fill:#F0C419;" d="M99.681,53.857c0.92,0,1.671-0.741,1.671-1.662V42.171c0-0.923-0.751-1.671-1.671-1.671
				c-0.92,0-1.672,0.748-1.672,1.671v10.024C98.009,53.116,98.76,53.857,99.681,53.857z"/>
			<path style="fill:#F0C419;" d="M62.933,90.604c0-0.92-0.741-1.671-1.662-1.671H51.246c-0.921,0-1.669,0.751-1.669,1.671
				c0,0.922,0.749,1.673,1.669,1.673h10.025C62.192,92.276,62.933,91.525,62.933,90.604z"/>
			<path style="fill:#F0C419;" d="M126.846,65.111c0.422,0,0.854-0.162,1.182-0.488l9.574-9.581c0.651-0.655,0.651-1.706,0-2.358
				c-0.653-0.653-1.706-0.653-2.357,0l-9.583,9.574c-0.651,0.652-0.651,1.711,0,2.365C125.989,64.949,126.412,65.111,126.846,65.111
				z"/>
			<path style="fill:#F0C419;" d="M73.699,116.585c-0.655-0.651-1.714-0.651-2.366,0l-9.573,9.583c-0.654,0.654-0.654,1.706,0,2.357
				c0.325,0.325,0.748,0.489,1.173,0.489c0.431,0,0.859-0.164,1.183-0.489l9.583-9.574C74.351,118.3,74.351,117.237,73.699,116.585z
				"/>
			<path style="fill:#F0C419;" d="M71.333,64.623c0.326,0.326,0.758,0.488,1.18,0.488c0.434,0,0.856-0.162,1.186-0.488
				c0.652-0.654,0.652-1.713,0-2.365l-9.583-9.574c-0.653-0.653-1.705-0.653-2.356,0c-0.654,0.652-0.654,1.703,0,2.358
				L71.333,64.623z"/>
			<path style="fill:#F0C419;" d="M65.861,104.957c-0.366-0.85-1.348-1.24-2.194-0.88l-4.616,1.957
				c-0.849,0.357-1.241,1.336-0.88,2.186c0.268,0.636,0.887,1.02,1.54,1.02c0.213,0,0.432-0.043,0.645-0.132l4.618-1.956
				C65.818,106.792,66.224,105.806,65.861,104.957z"/>
			<path style="fill:#F0C419;" d="M58.792,75.885l4.647,1.877c0.203,0.09,0.416,0.121,0.622,0.121c0.666,0,1.289-0.394,1.55-1.044
				c0.349-0.855-0.067-1.826-0.924-2.17l-4.648-1.882c-0.855-0.342-1.828,0.072-2.17,0.927
				C57.529,74.563,57.935,75.54,58.792,75.885z"/>
			<path style="fill:#F0C419;" d="M83.133,55.897c0.271,0.637,0.889,1.019,1.541,1.019c0.214,0,0.44-0.042,0.653-0.131
				c0.848-0.367,1.24-1.345,0.88-2.192l-1.957-4.615c-0.358-0.85-1.338-1.249-2.186-0.882c-0.847,0.358-1.246,1.336-0.888,2.186
				L83.133,55.897z"/>
			<path style="fill:#F0C419;" d="M113.446,56.534c0.204,0.09,0.416,0.12,0.621,0.12c0.659,0,1.289-0.391,1.548-1.044l1.885-4.646
				c0.341-0.852-0.075-1.827-0.93-2.17c-0.849-0.35-1.828,0.065-2.169,0.919l-1.876,4.651
				C112.175,55.22,112.59,56.19,113.446,56.534z"/>
			<path style="fill:#F0C419;" d="M82.981,109.277c-5.127-4.586-8.354-11.251-8.354-18.674c0-13.838,11.214-25.053,25.054-25.053
				c6.629,0,12.649,2.579,17.132,6.783c2.944-1.109,6.075-1.828,9.331-2.098c-6.106-7.923-15.686-13.035-26.463-13.035
				c-18.447,0-33.403,14.958-33.403,33.402c0,9.962,4.366,18.896,11.279,25.019c0.615-0.952,1.273-1.876,1.992-2.759
				C80.596,111.572,81.75,110.376,82.981,109.277z"/>
			<path style="fill:#FFE001;" d="M74.627,90.604c0,7.423,3.228,14.088,8.354,18.674c3.266-2.915,7.123-5.124,11.286-6.448
				c0.843-13.988,9.982-25.77,22.545-30.495c-4.482-4.204-10.503-6.783-17.132-6.783C85.841,65.551,74.627,76.766,74.627,90.604z"/>
		</g>
	</g>
</g>
</svg>
