<?xml version="1.0" encoding="iso-8859-1"?>
<!-- Generator: Adobe Illustrator 16.0.0, SVG Export Plug-In . SVG Version: 6.00 Build 0)  -->
<!DOCTYPE svg PUBLIC "-//W3C//DTD SVG 1.1//EN" "http://www.w3.org/Graphics/SVG/1.1/DTD/svg11.dtd">
<svg version="1.1" xmlns="http://www.w3.org/2000/svg" xmlns:xlink="http://www.w3.org/1999/xlink" x="0px" y="0px" width="256px"
	 height="256px" viewBox="0 0 256 256" style="enable-background:new 0 0 256 256;" xml:space="preserve">
<g id="bg_light" style="display:none;">
	<rect style="display:inline;fill:#0079C1;" width="256" height="256"/>
</g>
<g id="guides" style="display:none;">
	<g style="display:inline;">
		<g>
			<g>
				<line style="fill:none;stroke:#FFFFFF;stroke-width:0.25;stroke-miterlimit:10;" x1="40.5" y1="0" x2="40.5" y2="2"/>
				
					<line style="fill:none;stroke:#FFFFFF;stroke-width:0.25;stroke-miterlimit:10;stroke-dasharray:4,4;" x1="40.5" y1="6" x2="40.5" y2="252"/>
				<line style="fill:none;stroke:#FFFFFF;stroke-width:0.25;stroke-miterlimit:10;" x1="40.5" y1="254" x2="40.5" y2="256"/>
			</g>
		</g>
		<g>
			<g>
				<line style="fill:none;stroke:#FFFFFF;stroke-width:0.25;stroke-miterlimit:10;" x1="215.5" y1="0" x2="215.5" y2="2"/>
				
					<line style="fill:none;stroke:#FFFFFF;stroke-width:0.25;stroke-miterlimit:10;stroke-dasharray:4,4;" x1="215.5" y1="6" x2="215.5" y2="252"/>
				<line style="fill:none;stroke:#FFFFFF;stroke-width:0.25;stroke-miterlimit:10;" x1="215.5" y1="254" x2="215.5" y2="256"/>
			</g>
		</g>
		<g>
			<g>
				<line style="fill:none;stroke:#FFFFFF;stroke-width:0.25;stroke-miterlimit:10;" x1="256" y1="40.5" x2="254" y2="40.5"/>
				
					<line style="fill:none;stroke:#FFFFFF;stroke-width:0.25;stroke-miterlimit:10;stroke-dasharray:4,4;" x1="250" y1="40.5" x2="4" y2="40.5"/>
				<line style="fill:none;stroke:#FFFFFF;stroke-width:0.25;stroke-miterlimit:10;" x1="2" y1="40.5" x2="0" y2="40.5"/>
			</g>
		</g>
		<g>
			<g>
				<line style="fill:none;stroke:#FFFFFF;stroke-width:0.25;stroke-miterlimit:10;" x1="256" y1="215.5" x2="254" y2="215.5"/>
				
					<line style="fill:none;stroke:#FFFFFF;stroke-width:0.25;stroke-miterlimit:10;stroke-dasharray:4,4;" x1="250" y1="215.5" x2="4" y2="215.5"/>
				<line style="fill:none;stroke:#FFFFFF;stroke-width:0.25;stroke-miterlimit:10;" x1="2" y1="215.5" x2="0" y2="215.5"/>
			</g>
		</g>
	</g>
</g>
<g id="border">
	<rect style="opacity:0;fill:none;stroke:#231F20;stroke-width:0.1;stroke-miterlimit:10;" width="256" height="256"/>
</g>
<g id="icons">
	<g>
		<path style="fill:none;" d="M128,121.876c-3.378,0-6.124,2.746-6.124,6.124s2.746,6.124,6.124,6.124s6.124-2.746,6.124-6.124
			S131.378,121.876,128,121.876z"/>
		<path style="fill:none;" d="M128,102.436c-14.097,0-25.564,11.468-25.564,25.564s11.468,25.564,25.564,25.564
			s25.564-11.468,25.564-25.564S142.097,102.436,128,102.436z M128,142.705c-8.108,0-14.705-6.596-14.705-14.705
			s6.597-14.705,14.705-14.705s14.705,6.596,14.705,14.705S136.108,142.705,128,142.705z"/>
		<path style="fill:#FFFFFF;" d="M128,93.854c-6.165,0-11.948,1.651-16.946,4.521c9.839-15.487,27.134-25.795,46.801-25.795
			c2.37,0,4.291-1.921,4.291-4.29S160.225,64,157.854,64c-35.289,0-64,28.71-64,64c0,18.828,15.317,34.146,34.146,34.146
			c6.165,0,11.948-1.651,16.946-4.521c-9.839,15.487-27.134,25.795-46.801,25.795c-2.37,0-4.291,1.921-4.291,4.29
			S95.775,192,98.146,192c35.289,0,64-28.71,64-64C162.146,109.172,146.828,93.854,128,93.854z M128,153.564
			c-14.097,0-25.564-11.468-25.564-25.564s11.468-25.564,25.564-25.564s25.564,11.468,25.564,25.564S142.097,153.564,128,153.564z"
			/>
		<path style="fill:#FFFFFF;" d="M128,113.295c-8.108,0-14.705,6.596-14.705,14.705s6.597,14.705,14.705,14.705
			s14.705-6.596,14.705-14.705S136.108,113.295,128,113.295z M128,134.124c-3.378,0-6.124-2.746-6.124-6.124
			s2.746-6.124,6.124-6.124s6.124,2.746,6.124,6.124S131.378,134.124,128,134.124z"/>
	</g>
</g>
</svg>
