<?xml version="1.0" encoding="iso-8859-1"?>
<!-- Generator: Adobe Illustrator 16.0.0, SVG Export Plug-In . SVG Version: 6.00 Build 0)  -->
<!DOCTYPE svg PUBLIC "-//W3C//DTD SVG 1.1//EN" "http://www.w3.org/Graphics/SVG/1.1/DTD/svg11.dtd">
<svg version="1.1" xmlns="http://www.w3.org/2000/svg" xmlns:xlink="http://www.w3.org/1999/xlink" x="0px" y="0px" width="256px"
	 height="256px" viewBox="0 0 256 256" style="enable-background:new 0 0 256 256;" xml:space="preserve">
<g id="bg_light" style="display:none;">
	<rect style="display:inline;fill:#0079C1;" width="256" height="256"/>
</g>
<g id="guides" style="display:none;">
	<g style="display:inline;">
		<g>
			<g>
				<line style="fill:none;stroke:#FFFFFF;stroke-width:0.25;stroke-miterlimit:10;" x1="40.5" y1="0" x2="40.5" y2="2"/>
				
					<line style="fill:none;stroke:#FFFFFF;stroke-width:0.25;stroke-miterlimit:10;stroke-dasharray:4,4;" x1="40.5" y1="6" x2="40.5" y2="252"/>
				<line style="fill:none;stroke:#FFFFFF;stroke-width:0.25;stroke-miterlimit:10;" x1="40.5" y1="254" x2="40.5" y2="256"/>
			</g>
		</g>
		<g>
			<g>
				<line style="fill:none;stroke:#FFFFFF;stroke-width:0.25;stroke-miterlimit:10;" x1="215.5" y1="0" x2="215.5" y2="2"/>
				
					<line style="fill:none;stroke:#FFFFFF;stroke-width:0.25;stroke-miterlimit:10;stroke-dasharray:4,4;" x1="215.5" y1="6" x2="215.5" y2="252"/>
				<line style="fill:none;stroke:#FFFFFF;stroke-width:0.25;stroke-miterlimit:10;" x1="215.5" y1="254" x2="215.5" y2="256"/>
			</g>
		</g>
		<g>
			<g>
				<line style="fill:none;stroke:#FFFFFF;stroke-width:0.25;stroke-miterlimit:10;" x1="256" y1="40.5" x2="254" y2="40.5"/>
				
					<line style="fill:none;stroke:#FFFFFF;stroke-width:0.25;stroke-miterlimit:10;stroke-dasharray:4,4;" x1="250" y1="40.5" x2="4" y2="40.5"/>
				<line style="fill:none;stroke:#FFFFFF;stroke-width:0.25;stroke-miterlimit:10;" x1="2" y1="40.5" x2="0" y2="40.5"/>
			</g>
		</g>
		<g>
			<g>
				<line style="fill:none;stroke:#FFFFFF;stroke-width:0.25;stroke-miterlimit:10;" x1="256" y1="215.5" x2="254" y2="215.5"/>
				
					<line style="fill:none;stroke:#FFFFFF;stroke-width:0.25;stroke-miterlimit:10;stroke-dasharray:4,4;" x1="250" y1="215.5" x2="4" y2="215.5"/>
				<line style="fill:none;stroke:#FFFFFF;stroke-width:0.25;stroke-miterlimit:10;" x1="2" y1="215.5" x2="0" y2="215.5"/>
			</g>
		</g>
	</g>
</g>
<g id="border">
	<rect style="opacity:0;fill:none;stroke:#231F20;stroke-width:0.1;stroke-miterlimit:10;" width="256" height="256"/>
</g>
<g id="icons">
	<g>
		<path style="fill:#F0C419;" d="M128,50c-1.433,0-2.603,1.166-2.603,2.603v15.604c0,1.434,1.17,2.588,2.603,2.588
			s2.603-1.154,2.603-2.588V52.603C130.603,51.166,129.433,50,128,50L128,50z M128,50"/>
		<path style="fill:#F0C419;" d="M128,185.207c-1.433,0-2.603,1.153-2.603,2.586v15.604c0,1.437,1.17,2.603,2.603,2.603
			s2.603-1.166,2.603-2.603v-15.604C130.603,186.36,129.433,185.207,128,185.207L128,185.207z M128,185.207"/>
		<path style="fill:#F0C419;" d="M203.397,125.397h-15.603c-1.435,0-2.59,1.17-2.59,2.603s1.155,2.603,2.59,2.603h15.603
			c1.435,0,2.603-1.17,2.603-2.603S204.832,125.397,203.397,125.397L203.397,125.397z M203.397,125.397"/>
		<path style="fill:#F0C419;" d="M70.793,128c0-1.433-1.153-2.603-2.586-2.603H52.603c-1.437,0-2.603,1.17-2.603,2.603
			s1.166,2.603,2.603,2.603h15.604C69.64,130.603,70.793,129.433,70.793,128L70.793,128z M70.793,128"/>
		<path style="fill:#F0C419;" d="M170.288,88.314c0.66,0,1.333-0.254,1.841-0.761l14.904-14.918c1.016-1.018,1.016-2.655,0-3.669
			c-1.016-1.017-2.653-1.017-3.669,0l-14.917,14.904c-1.016,1.015-1.016,2.666,0,3.683
			C168.955,88.061,169.615,88.314,170.288,88.314L170.288,88.314z M170.288,88.314"/>
		<path style="fill:#F0C419;" d="M83.871,168.445l-14.904,14.919c-1.018,1.018-1.018,2.655,0,3.669
			c0.508,0.507,1.166,0.76,1.826,0.76c0.673,0,1.337-0.253,1.843-0.76l14.919-14.905c1.014-1.013,1.014-2.666,0-3.683
			C86.537,167.433,84.885,167.433,83.871,168.445L83.871,168.445z M83.871,168.445"/>
		<path style="fill:#F0C419;" d="M172.129,168.445c-1.016-1.013-2.666-1.013-3.682,0c-1.016,1.017-1.016,2.67,0,3.683l14.917,14.905
			c0.508,0.507,1.168,0.76,1.841,0.76c0.66,0,1.32-0.253,1.828-0.76c1.016-1.014,1.016-2.651,0-3.669L172.129,168.445z
			 M172.129,168.445"/>
		<path style="fill:#F0C419;" d="M72.636,68.967c-1.018-1.017-2.655-1.017-3.669,0c-1.018,1.014-1.018,2.651,0,3.669l14.904,14.918
			c0.508,0.507,1.181,0.761,1.839,0.761c0.673,0,1.333-0.254,1.845-0.761c1.014-1.017,1.014-2.668,0-3.683L72.636,68.967z
			 M72.636,68.967"/>
		<path style="fill:#F0C419;" d="M180.647,105.656c0.432,0.992,1.384,1.572,2.399,1.572c0.343,0,0.686-0.062,1.016-0.201
			l7.186-3.048c1.32-0.556,1.93-2.081,1.371-3.402c-0.559-1.321-2.095-1.941-3.402-1.383l-7.186,3.047
			C180.711,102.8,180.089,104.336,180.647,105.656L180.647,105.656z M180.647,105.656"/>
		<path style="fill:#F0C419;" d="M75.353,150.343c-0.571-1.319-2.097-1.929-3.415-1.371l-7.186,3.049
			c-1.32,0.557-1.932,2.08-1.371,3.403c0.419,0.988,1.384,1.585,2.397,1.585c0.332,0,0.673-0.063,1.005-0.204l7.186-3.046
			C75.287,153.2,75.913,151.663,75.353,150.343L75.353,150.343z M75.353,150.343"/>
		<path style="fill:#F0C419;" d="M191.654,150.915l-7.236-2.921c-1.32-0.547-2.844,0.104-3.377,1.435
			c-0.546,1.334,0.102,2.846,1.435,3.379l7.236,2.932c0.317,0.127,0.647,0.191,0.965,0.191c1.028,0,2.006-0.624,2.412-1.639
			C193.622,152.973,192.987,151.448,191.654,150.915L191.654,150.915z M191.654,150.915"/>
		<path style="fill:#F0C419;" d="M64.346,105.085l7.238,2.921c0.313,0.14,0.646,0.189,0.965,0.189c1.039,0,2.006-0.609,2.412-1.626
			c0.546-1.332-0.105-2.844-1.438-3.375l-7.232-2.933c-1.333-0.533-2.844,0.114-3.377,1.447
			C62.38,103.027,63.013,104.552,64.346,105.085L64.346,105.085z M64.346,105.085"/>
		<path style="fill:#F0C419;" d="M153.759,182.03c-0.559-1.319-2.095-1.943-3.415-1.383c-1.32,0.572-1.93,2.096-1.371,3.415
			l3.047,7.185c0.419,0.992,1.384,1.573,2.399,1.573c0.33,0,0.673-0.062,1.003-0.202c1.32-0.558,1.942-2.081,1.384-3.4
			L153.759,182.03z M153.759,182.03"/>
		<path style="fill:#F0C419;" d="M104.639,75.555c0.332,0,0.686-0.063,1.018-0.202c1.318-0.571,1.93-2.097,1.371-3.415l-3.049-7.186
			c-0.555-1.32-2.08-1.944-3.402-1.371c-1.318,0.559-1.94,2.082-1.38,3.402l3.045,7.186
			C102.66,74.961,103.625,75.555,104.639,75.555L104.639,75.555z M104.639,75.555"/>
		<path style="fill:#F0C419;" d="M106.57,181.039c-1.32-0.533-2.846,0.105-3.377,1.438l-2.933,7.233
			c-0.533,1.322,0.114,2.844,1.447,3.377c0.317,0.127,0.646,0.191,0.965,0.191c1.026,0,2.006-0.611,2.412-1.624l2.922-7.238
			C108.553,183.085,107.901,181.572,106.57,181.039L106.57,181.039z M106.57,181.039"/>
		<path style="fill:#F0C419;" d="M150.395,75.148c1.028,0,2.006-0.608,2.412-1.625l2.933-7.234c0.533-1.321-0.114-2.843-1.447-3.376
			c-1.32-0.545-2.844,0.101-3.377,1.434l-2.92,7.238c-0.546,1.332,0.102,2.844,1.435,3.377
			C149.747,75.1,150.077,75.148,150.395,75.148L150.395,75.148z M150.395,75.148"/>
		<path style="fill:#F0C419;" d="M180,128c0,28.717-23.283,52.001-52,52.001S76,156.717,76,128s23.283-52,52-52S180,99.283,180,128
			L180,128z M180,128"/>
		<path style="fill:#FFE001;" d="M167,128c0,21.544-17.456,39-39,39s-39-17.456-39-39s17.456-39,39-39S167,106.456,167,128L167,128z
			 M167,128"/>
	</g>
</g>
</svg>
