<?xml version="1.0" encoding="iso-8859-1"?>
<!-- Generator: Adobe Illustrator 16.0.0, SVG Export Plug-In . SVG Version: 6.00 Build 0)  -->
<!DOCTYPE svg PUBLIC "-//W3C//DTD SVG 1.1//EN" "http://www.w3.org/Graphics/SVG/1.1/DTD/svg11.dtd">
<svg version="1.1" xmlns="http://www.w3.org/2000/svg" xmlns:xlink="http://www.w3.org/1999/xlink" x="0px" y="0px" width="256px"
	 height="256px" viewBox="0 0 256 256" style="enable-background:new 0 0 256 256;" xml:space="preserve">
<g id="bg_light" style="display:none;">
	<rect style="display:inline;fill:#0079C1;" width="256" height="256"/>
</g>
<g id="guides" style="display:none;">
	<g style="display:inline;">
		<g>
			<g>
				<line style="fill:none;stroke:#FFFFFF;stroke-width:0.25;stroke-miterlimit:10;" x1="40.5" y1="0" x2="40.5" y2="2"/>
				
					<line style="fill:none;stroke:#FFFFFF;stroke-width:0.25;stroke-miterlimit:10;stroke-dasharray:4,4;" x1="40.5" y1="6" x2="40.5" y2="252"/>
				<line style="fill:none;stroke:#FFFFFF;stroke-width:0.25;stroke-miterlimit:10;" x1="40.5" y1="254" x2="40.5" y2="256"/>
			</g>
		</g>
		<g>
			<g>
				<line style="fill:none;stroke:#FFFFFF;stroke-width:0.25;stroke-miterlimit:10;" x1="215.5" y1="0" x2="215.5" y2="2"/>
				
					<line style="fill:none;stroke:#FFFFFF;stroke-width:0.25;stroke-miterlimit:10;stroke-dasharray:4,4;" x1="215.5" y1="6" x2="215.5" y2="252"/>
				<line style="fill:none;stroke:#FFFFFF;stroke-width:0.25;stroke-miterlimit:10;" x1="215.5" y1="254" x2="215.5" y2="256"/>
			</g>
		</g>
		<g>
			<g>
				<line style="fill:none;stroke:#FFFFFF;stroke-width:0.25;stroke-miterlimit:10;" x1="256" y1="40.5" x2="254" y2="40.5"/>
				
					<line style="fill:none;stroke:#FFFFFF;stroke-width:0.25;stroke-miterlimit:10;stroke-dasharray:4,4;" x1="250" y1="40.5" x2="4" y2="40.5"/>
				<line style="fill:none;stroke:#FFFFFF;stroke-width:0.25;stroke-miterlimit:10;" x1="2" y1="40.5" x2="0" y2="40.5"/>
			</g>
		</g>
		<g>
			<g>
				<line style="fill:none;stroke:#FFFFFF;stroke-width:0.25;stroke-miterlimit:10;" x1="256" y1="215.5" x2="254" y2="215.5"/>
				
					<line style="fill:none;stroke:#FFFFFF;stroke-width:0.25;stroke-miterlimit:10;stroke-dasharray:4,4;" x1="250" y1="215.5" x2="4" y2="215.5"/>
				<line style="fill:none;stroke:#FFFFFF;stroke-width:0.25;stroke-miterlimit:10;" x1="2" y1="215.5" x2="0" y2="215.5"/>
			</g>
		</g>
	</g>
</g>
<g id="border">
	<rect style="opacity:0;fill:none;stroke:#231F20;stroke-width:0.1;stroke-miterlimit:10;" width="256" height="256"/>
</g>
<g id="icons">
	<g>
		<g>
			<path style="fill:#F0C419;" d="M98.46,78.199c0.979,0,1.777-0.788,1.777-1.767V65.777c0-0.981-0.798-1.777-1.777-1.777
				c-0.978,0-1.777,0.796-1.777,1.777v10.655C96.683,77.411,97.482,78.199,98.46,78.199z"/>
			<path style="fill:#F0C419;" d="M59.396,117.262c0-0.979-0.788-1.777-1.767-1.777H46.975c-0.98,0-1.776,0.798-1.776,1.777
				s0.796,1.777,1.776,1.777H57.63C58.608,119.04,59.396,118.241,59.396,117.262z"/>
			<path style="fill:#F0C419;" d="M127.337,90.163c0.45,0,0.909-0.174,1.256-0.52l10.179-10.187c0.693-0.694,0.693-1.813,0-2.505
				c-0.694-0.695-1.813-0.695-2.505,0L126.08,87.129c-0.694,0.693-0.694,1.82,0,2.515C126.427,89.989,126.877,90.163,127.337,90.163
				z"/>
			<path style="fill:#F0C419;" d="M70.842,144.88c-0.695-0.692-1.823-0.692-2.515,0l-10.178,10.188
				c-0.694,0.695-0.694,1.813,0,2.505c0.347,0.346,0.796,0.52,1.247,0.52c0.458,0,0.913-0.174,1.258-0.52l10.188-10.177
				C71.534,146.703,71.534,145.575,70.842,144.88z"/>
			<path style="fill:#F0C419;" d="M68.327,89.644c0.347,0.346,0.806,0.52,1.255,0.52c0.46,0,0.91-0.174,1.26-0.52
				c0.692-0.694,0.692-1.822,0-2.515L60.654,76.952c-0.694-0.695-1.813-0.695-2.505,0c-0.694,0.692-0.694,1.811,0,2.505
				L68.327,89.644z"/>
			<path style="fill:#F0C419;" d="M62.51,132.519c-0.39-0.901-1.433-1.317-2.333-0.935l-4.905,2.08
				c-0.902,0.38-1.319,1.421-0.937,2.323c0.286,0.675,0.944,1.084,1.638,1.084c0.227,0,0.459-0.045,0.686-0.141l4.907-2.079
				C62.464,134.471,62.895,133.42,62.51,132.519z"/>
			<path style="fill:#F0C419;" d="M54.993,101.615l4.942,1.995c0.216,0.095,0.442,0.128,0.659,0.128c0.709,0,1.369-0.416,1.648-1.11
				c0.372-0.91-0.072-1.942-0.982-2.306l-4.94-2.002c-0.909-0.364-1.941,0.077-2.306,0.988
				C53.652,100.209,54.083,101.25,54.993,101.615z"/>
			<path style="fill:#F0C419;" d="M80.871,80.367c0.286,0.678,0.945,1.083,1.637,1.083c0.228,0,0.468-0.042,0.695-0.138
				c0.899-0.39,1.317-1.431,0.935-2.332l-2.079-4.906c-0.382-0.902-1.423-1.328-2.325-0.937c-0.9,0.381-1.324,1.422-0.942,2.323
				L80.871,80.367z"/>
			<path style="fill:#F0C419;" d="M113.094,81.044c0.217,0.096,0.44,0.128,0.659,0.128c0.701,0,1.37-0.415,1.646-1.109l2.004-4.94
				c0.362-0.903-0.079-1.94-0.989-2.305c-0.902-0.373-1.94,0.068-2.305,0.978l-1.994,4.942
				C111.741,79.647,112.184,80.68,113.094,81.044z"/>
			<path style="fill:#F0C419;" d="M80.709,137.111c-5.449-4.875-8.881-11.959-8.881-19.849c0-14.711,11.921-26.631,26.632-26.631
				c7.048,0,13.448,2.74,18.212,7.208c3.13-1.177,6.458-1.943,9.92-2.229c-6.491-8.424-16.675-13.857-28.132-13.857
				c-19.609,0-35.508,15.9-35.508,35.509c0,10.588,4.641,20.087,11.991,26.594c0.652-1.013,1.353-1.995,2.117-2.934
				C78.174,139.552,79.399,138.279,80.709,137.111z"/>
			<path style="fill:#FFE001;" d="M71.828,117.262c0,7.89,3.432,14.974,8.881,19.849c3.473-3.098,7.57-5.446,11.997-6.854
				c0.895-14.871,10.61-27.394,23.966-32.418c-4.764-4.468-11.164-7.208-18.212-7.208C83.749,90.631,71.828,102.551,71.828,117.262z
				"/>
		</g>
		<g>
			<g>
				<path style="fill:#D5D6DB;" d="M97.26,134.023c-0.004-0.193-0.008-0.385-0.008-0.579c0-18.421,14.936-33.356,33.357-33.356
					c15.878,0,29.162,11.091,32.532,25.948c3.143-1.759,6.761-2.766,10.619-2.766c12.035,0,21.792,9.758,21.792,21.792
					c0,0.494-0.021,0.979-0.052,1.464c8.934,3.317,15.301,11.917,15.301,22.005c0,12.962-10.508,23.47-23.469,23.47h-83.699
					c-16.204,0-29.338-13.134-29.338-29.336C74.296,148.651,84.12,136.936,97.26,134.023L97.26,134.023z M97.26,134.023"/>
			</g>
		</g>
	</g>
</g>
</svg>
