<?xml version="1.0" encoding="iso-8859-1"?>
<!-- Generator: Adobe Illustrator 16.0.0, SVG Export Plug-In . SVG Version: 6.00 Build 0)  -->
<!DOCTYPE svg PUBLIC "-//W3C//DTD SVG 1.1//EN" "http://www.w3.org/Graphics/SVG/1.1/DTD/svg11.dtd">
<svg version="1.1" xmlns="http://www.w3.org/2000/svg" xmlns:xlink="http://www.w3.org/1999/xlink" x="0px" y="0px" width="256px"
	 height="256px" viewBox="0 0 256 256" style="enable-background:new 0 0 256 256;" xml:space="preserve">
<g id="bg_light" style="display:none;">
	<rect style="display:inline;fill:#0079C1;" width="256" height="256"/>
</g>
<g id="guides" style="display:none;">
	<g style="display:inline;">
		<g>
			<g>
				<line style="fill:none;stroke:#FFFFFF;stroke-width:0.25;stroke-miterlimit:10;" x1="40.5" y1="0" x2="40.5" y2="2"/>
				
					<line style="fill:none;stroke:#FFFFFF;stroke-width:0.25;stroke-miterlimit:10;stroke-dasharray:4,4;" x1="40.5" y1="6" x2="40.5" y2="252"/>
				<line style="fill:none;stroke:#FFFFFF;stroke-width:0.25;stroke-miterlimit:10;" x1="40.5" y1="254" x2="40.5" y2="256"/>
			</g>
		</g>
		<g>
			<g>
				<line style="fill:none;stroke:#FFFFFF;stroke-width:0.25;stroke-miterlimit:10;" x1="215.5" y1="0" x2="215.5" y2="2"/>
				
					<line style="fill:none;stroke:#FFFFFF;stroke-width:0.25;stroke-miterlimit:10;stroke-dasharray:4,4;" x1="215.5" y1="6" x2="215.5" y2="252"/>
				<line style="fill:none;stroke:#FFFFFF;stroke-width:0.25;stroke-miterlimit:10;" x1="215.5" y1="254" x2="215.5" y2="256"/>
			</g>
		</g>
		<g>
			<g>
				<line style="fill:none;stroke:#FFFFFF;stroke-width:0.25;stroke-miterlimit:10;" x1="256" y1="40.5" x2="254" y2="40.5"/>
				
					<line style="fill:none;stroke:#FFFFFF;stroke-width:0.25;stroke-miterlimit:10;stroke-dasharray:4,4;" x1="250" y1="40.5" x2="4" y2="40.5"/>
				<line style="fill:none;stroke:#FFFFFF;stroke-width:0.25;stroke-miterlimit:10;" x1="2" y1="40.5" x2="0" y2="40.5"/>
			</g>
		</g>
		<g>
			<g>
				<line style="fill:none;stroke:#FFFFFF;stroke-width:0.25;stroke-miterlimit:10;" x1="256" y1="215.5" x2="254" y2="215.5"/>
				
					<line style="fill:none;stroke:#FFFFFF;stroke-width:0.25;stroke-miterlimit:10;stroke-dasharray:4,4;" x1="250" y1="215.5" x2="4" y2="215.5"/>
				<line style="fill:none;stroke:#FFFFFF;stroke-width:0.25;stroke-miterlimit:10;" x1="2" y1="215.5" x2="0" y2="215.5"/>
			</g>
		</g>
	</g>
</g>
<g id="border">
	<rect style="opacity:0;fill:none;stroke:#231F20;stroke-width:0.1;stroke-miterlimit:10;" width="256" height="256"/>
</g>
<g id="icons">
	<g>
		<g>
			<path style="fill:#D5D6DB;" d="M112.692,158.922h-2.712l-4.152,4.152c-0.68,0.686-1.563,1.156-2.513,1.358h3.868L112.692,158.922
				z"/>
			<path style="fill:#D5D6DB;" d="M139.552,158.922h-2.714l5.51,5.511h3.858c-0.942-0.2-1.809-0.665-2.507-1.365L139.552,158.922z"
				/>
			<path style="fill:#D5D6DB;" d="M98.748,163.06c-0.75-0.744-1.236-1.703-1.396-2.744l-2.765,2.759
				c-0.692,0.694-1.555,1.158-2.495,1.358h9.181C100.322,164.229,99.434,163.756,98.748,163.06z"/>
			<path style="fill:#969AA4;" d="M173.405,122.512c0.03-0.446,0.052-0.895,0.052-1.345c0-11.099-8.996-20.092-20.088-20.092
				c-3.558,0-6.895,0.93-9.79,2.551c-3.106-13.695-15.353-23.92-29.987-23.92c-16.979,0-30.747,13.767-30.747,30.75
				c0,0.177,0.002,0.356,0.008,0.53c-12.112,2.687-21.169,13.486-21.169,26.402c0,14.936,12.107,27.044,27.042,27.044h1.299
				c-0.945-0.2-1.815-0.668-2.512-1.37c-1.438-1.438-1.81-3.553-1.112-5.347c-1.069-0.919-1.749-2.279-1.749-3.795
				c0-1.52,0.682-2.881,1.753-3.797c-0.698-1.794-0.325-3.907,1.115-5.354c0.951-0.949,2.204-1.468,3.538-1.468
				c1.332,0,2.587,0.521,3.529,1.463l2.765,2.763c0.16-1.042,0.647-2.004,1.408-2.763c0.94-0.941,2.198-1.463,3.533-1.463
				s2.593,0.521,3.536,1.464l4.151,4.154h2.715l-8.259-8.263h-6.354c-2.756,0-5.002-2.246-5.002-5.003
				c0-1.752,0.909-3.297,2.284-4.188c-0.57-0.826-0.878-1.805-0.878-2.83c0-1.335,0.523-2.593,1.471-3.537
				c0.936-0.938,2.19-1.46,3.526-1.46c1.024,0,2.005,0.307,2.831,0.878c0.892-1.373,2.436-2.284,4.189-2.284
				c2.757,0,5.001,2.244,5.001,5.002v6.355l8.262,8.258v-2.715l-4.155-4.152c-1.946-1.95-1.946-5.122,0-7.072
				c0.762-0.759,1.724-1.243,2.762-1.404l-2.763-2.765c-1.943-1.943-1.945-5.112-0.001-7.06c0.955-0.951,2.207-1.466,3.538-1.466
				c0.633,0,1.251,0.114,1.823,0.341c0.919-1.072,2.279-1.749,3.797-1.749c1.516,0,2.879,0.677,3.795,1.747
				c0.573-0.227,1.188-0.339,1.82-0.339c1.336,0,2.589,0.517,3.534,1.458c1.951,1.955,1.95,5.124,0.004,7.07l-2.76,2.762
				c1.042,0.161,2.002,0.647,2.76,1.405c0.944,0.944,1.464,2.198,1.464,3.535s-0.52,2.592-1.464,3.538l-4.152,4.15v2.712
				l8.254-8.254v-6.356c0-2.758,2.243-5.002,5-5.002c1.756,0,3.303,0.91,4.195,2.281c0.826-0.569,1.803-0.875,2.829-0.875
				c1.336,0,2.593,0.521,3.537,1.47c1.726,1.718,1.923,4.41,0.586,6.357c1.374,0.892,2.284,2.436,2.284,4.188
				c0,2.757-2.245,5.003-5.002,5.003h-6.355l-8.263,8.263h2.718l4.153-4.154c0.946-0.943,2.199-1.464,3.533-1.464
				c1.332,0,2.586,0.521,3.531,1.461c0.779,0.781,1.247,1.756,1.402,2.771l2.768-2.768c0.944-0.943,2.201-1.464,3.536-1.464
				s2.589,0.521,3.532,1.461c1.447,1.448,1.821,3.566,1.124,5.36c1.07,0.916,1.75,2.277,1.75,3.797c0,1.514-0.678,2.875-1.746,3.794
				c0.226,0.573,0.341,1.19,0.341,1.821c0,1.338-0.52,2.595-1.467,3.538c-0.685,0.687-1.566,1.156-2.515,1.358h6.383
				c11.947,0,21.634-9.688,21.634-21.636C187.512,133.496,181.641,125.567,173.405,122.512z"/>
			<path style="fill:#D5D6DB;" d="M154.93,163.063l-2.754-2.751c-0.159,1.041-0.646,2.004-1.404,2.763
				c-0.691,0.694-1.558,1.158-2.498,1.358h9.181C156.505,164.229,155.617,163.758,154.93,163.063z"/>
		</g>
		<path style="fill:#FFFFFF;" d="M162.006,153.921c0-1.172-0.952-2.126-2.124-2.126h-1.899l1.997-1.994
			c0.824-0.827,0.824-2.171-0.002-3c-0.802-0.802-2.202-0.803-3.005,0l-4.994,4.994h-5.232l1.992-1.994c0.826-0.827,0.826-2.171,0-3
			c-0.805-0.802-2.196-0.803-3,0l-4.994,4.994h-10.853l14.012-14.014h7.549c1.173,0,2.126-0.954,2.126-2.126
			c0-1.165-0.953-2.115-2.126-2.115h-3.3l3.397-3.403c0.825-0.828,0.825-2.174,0-2.999c-0.802-0.802-2.205-0.802-3.007,0
			l-3.395,3.397v-3.3c0-1.172-0.953-2.124-2.126-2.124c-1.17,0-2.122,0.952-2.122,2.124v7.546l-14.008,14.008v-10.847l4.994-4.993
			c0.401-0.402,0.623-0.937,0.623-1.504c0-0.566-0.222-1.1-0.623-1.502c-0.803-0.804-2.203-0.804-3.006,0.001l-1.988,1.992v-5.227
			l4.994-5.002c0.827-0.827,0.828-2.171-0.002-2.999c-0.803-0.8-2.198-0.801-3.004,0l-1.988,1.987v-1.89
			c0-1.171-0.954-2.124-2.125-2.124s-2.125,0.953-2.125,2.124v1.896l-1.997-1.993c-0.799-0.8-2.191-0.802-2.998,0.001
			c-0.826,0.827-0.825,2.171,0,2.998l4.995,5.002v5.229l-1.995-1.994c-0.801-0.805-2.195-0.805-3-0.001
			c-0.4,0.402-0.621,0.936-0.621,1.502c0,0.567,0.221,1.102,0.621,1.504l4.995,4.993v10.847l-14.015-14.008v-7.546
			c0-1.172-0.952-2.124-2.124-2.124c-1.169,0-2.116,0.952-2.116,2.124v3.302l-3.404-3.399c-0.803-0.802-2.198-0.801-2.998-0.002
			c-0.4,0.402-0.623,0.934-0.623,1.501c0,0.564,0.221,1.1,0.623,1.501l3.396,3.402h-3.3c-1.173,0-2.125,0.95-2.125,2.115
			c0,1.172,0.952,2.126,2.125,2.126h7.548l14.008,14.014h-10.846l-4.998-4.994c-0.801-0.802-2.203-0.802-3.002,0
			c-0.402,0.401-0.625,0.934-0.624,1.502c0,0.564,0.223,1.096,0.624,1.498l1.996,1.994h-5.232l-4.999-4.994
			c-0.802-0.802-2.194-0.803-3.002,0c-0.824,0.829-0.823,2.173,0,3l1.994,1.994h-1.896c-1.171,0-2.124,0.954-2.124,2.126
			s0.953,2.124,2.124,2.124h1.893l-1.99,1.99c-0.4,0.401-0.62,0.934-0.62,1.501c0,0.569,0.22,1.101,0.618,1.5
			c0.797,0.803,2.195,0.811,3.003,0.003l4.999-4.994h5.229l-1.991,1.989c-0.402,0.402-0.625,0.935-0.625,1.502
			c0,0.569,0.223,1.102,0.621,1.5c0.787,0.794,2.222,0.793,3.005,0.003l4.998-4.994h10.844l-14.006,14.007h-7.548
			c-1.173,0-2.125,0.955-2.125,2.126c0,1.17,0.952,2.125,2.125,2.125h3.298l-3.395,3.395c-0.4,0.399-0.622,0.933-0.623,1.502
			c0,0.569,0.221,1.102,0.623,1.507c0.807,0.801,2.197,0.796,2.998,0l3.404-3.398v3.298c0,1.172,0.947,2.123,2.116,2.123
			c1.172,0,2.124-0.951,2.124-2.123v-7.548l14.015-14.016v10.854l-4.995,4.998c-0.826,0.826-0.825,2.17,0,2.993
			c0.796,0.799,2.191,0.809,2.998,0.002l1.997-1.992v5.234l-4.995,4.995c-0.4,0.4-0.621,0.932-0.621,1.502
			c0,0.569,0.221,1.103,0.618,1.499c0.794,0.805,2.199,0.811,3.001,0.002l1.997-1.996v1.901c0,1.172,0.954,2.126,2.125,2.126
			s2.125-0.954,2.125-2.126v-1.898l1.986,1.992c0.791,0.796,2.22,0.794,3.008,0.001c0.401-0.398,0.623-0.932,0.623-1.501
			c0-0.57-0.222-1.102-0.623-1.502l-4.994-4.995V175.9l1.991,1.989c0.788,0.79,2.208,0.793,3.003-0.002
			c0.827-0.823,0.828-2.167,0-2.995l-4.994-4.996v-10.854l14.008,14.016v7.548c0,1.172,0.952,2.123,2.122,2.123
			c1.173,0,2.126-0.951,2.126-2.123v-3.296l3.396,3.396c0.797,0.791,2.2,0.796,3.005-0.001c0.401-0.404,0.622-0.937,0.622-1.505
			c0-0.569-0.221-1.104-0.623-1.503l-3.396-3.395h3.299c1.173,0,2.126-0.955,2.126-2.125c0-1.171-0.953-2.126-2.126-2.126h-7.549
			l-14.011-14.007h10.852l4.992,4.992c0.803,0.804,2.199,0.807,3.002,0.002c0.4-0.401,0.621-0.934,0.621-1.503
			c0-0.567-0.221-1.1-0.621-1.501l-1.99-1.99h5.23l4.992,4.991c0.789,0.794,2.216,0.796,3.009,0.003
			c0.399-0.402,0.62-0.934,0.62-1.503c0-0.567-0.221-1.1-0.622-1.502l-1.993-1.989h1.897
			C161.054,156.045,162.006,155.093,162.006,153.921z"/>
		<path style="fill:#FFFFFF;" d="M146.241,97.455c2.4-0.75,4.914-1.137,7.443-1.137c9.612,0,17.974,5.455,22.156,13.43
			c7.718-2.768,14.223-8.09,18.476-14.96c-2.052,0.364-4.158,0.563-6.312,0.563c-19.861,0-35.964-16.097-35.964-35.962
			c0-6.93,1.966-13.397,5.363-18.89c-16.849,2.985-29.649,17.691-29.649,35.397c0,0.56,0.016,1.112,0.042,1.662
			C136.198,81.451,142.881,88.504,146.241,97.455z"/>
		<path style="fill:#FFFFFF;" d="M115.236,200.532c0-0.251-0.203-0.455-0.454-0.455h-0.406l0.426-0.429
			c0.178-0.176,0.178-0.464,0-0.641c-0.171-0.173-0.469-0.173-0.643,0l-1.067,1.069h-1.122l0.429-0.429
			c0.175-0.176,0.175-0.464-0.002-0.641c-0.17-0.173-0.47-0.173-0.642,0l-1.069,1.069h-2.323l3-3h1.615
			c0.251,0,0.456-0.204,0.456-0.456c0-0.249-0.205-0.45-0.456-0.45h-0.706l0.729-0.729c0.175-0.178,0.175-0.466,0-0.642
			c-0.172-0.173-0.472-0.173-0.646-0.001l-0.726,0.728v-0.707c0-0.25-0.205-0.453-0.454-0.453c-0.25,0-0.455,0.203-0.455,0.453
			v1.615l-2.998,2.999v-2.321l1.069-1.07c0.086-0.085,0.134-0.2,0.134-0.32c0-0.122-0.048-0.235-0.134-0.322
			c-0.172-0.172-0.472-0.173-0.644,0l-0.426,0.427v-1.119l1.069-1.07c0.177-0.177,0.177-0.463,0-0.642
			c-0.172-0.172-0.472-0.172-0.644,0l-0.426,0.425v-0.405c0-0.25-0.205-0.454-0.456-0.454c-0.25,0-0.453,0.204-0.453,0.454v0.405
			l-0.428-0.425c-0.172-0.172-0.468-0.172-0.642,0c-0.177,0.179-0.177,0.465,0,0.642l1.069,1.07v1.12l-0.428-0.428
			c-0.172-0.173-0.47-0.173-0.642,0c-0.087,0.087-0.132,0.2-0.132,0.322c0,0.12,0.045,0.235,0.132,0.32l1.069,1.07v2.321l-3-3
			v-1.614c0-0.25-0.203-0.453-0.455-0.453c-0.249,0-0.452,0.203-0.452,0.453v0.707l-0.729-0.728c-0.172-0.172-0.47-0.172-0.642,0
			c-0.084,0.087-0.132,0.2-0.132,0.32c0,0.121,0.048,0.236,0.132,0.322l0.729,0.729h-0.706c-0.251,0-0.456,0.201-0.456,0.45
			c0,0.252,0.205,0.456,0.456,0.456h1.613l2.998,3h-2.32l-1.068-1.069c-0.172-0.173-0.472-0.173-0.644,0
			c-0.086,0.086-0.134,0.199-0.134,0.32s0.048,0.234,0.134,0.32l0.427,0.429h-1.118l-1.071-1.069c-0.172-0.173-0.47-0.173-0.643,0
			c-0.176,0.177-0.176,0.465,0,0.641l0.428,0.429h-0.406c-0.251,0-0.454,0.204-0.454,0.455s0.203,0.455,0.454,0.455h0.406
			l-0.428,0.425c-0.085,0.085-0.133,0.2-0.133,0.321s0.048,0.235,0.133,0.32c0.171,0.173,0.469,0.174,0.643,0l1.071-1.066h1.118
			l-0.427,0.425c-0.086,0.085-0.134,0.2-0.134,0.321s0.048,0.235,0.134,0.32c0.168,0.17,0.474,0.17,0.644,0l1.068-1.066h2.32
			l-2.996,2.996h-1.615c-0.251,0-0.456,0.204-0.456,0.455c0,0.25,0.205,0.454,0.456,0.454h0.706l-0.729,0.728
			c-0.084,0.086-0.132,0.2-0.132,0.321s0.048,0.235,0.132,0.322c0.174,0.173,0.472,0.171,0.642-0.001l0.729-0.726v0.705
			c0,0.251,0.203,0.455,0.452,0.455c0.252,0,0.455-0.204,0.455-0.455v-1.615l3-2.999v2.323l-1.069,1.068
			c-0.177,0.178-0.177,0.465,0,0.642c0.17,0.171,0.47,0.173,0.642,0l0.428-0.426v1.119l-1.069,1.069
			c-0.087,0.086-0.132,0.2-0.132,0.321c0,0.122,0.045,0.236,0.13,0.321c0.172,0.173,0.472,0.174,0.644,0.001l0.428-0.428v0.407
			c0,0.251,0.203,0.454,0.453,0.454c0.251,0,0.456-0.203,0.456-0.454v-0.406l0.426,0.427c0.168,0.17,0.476,0.17,0.644,0
			c0.086-0.086,0.134-0.2,0.134-0.322c0-0.121-0.048-0.235-0.134-0.321l-1.069-1.069v-1.119l0.426,0.426
			c0.17,0.169,0.474,0.169,0.644,0c0.177-0.177,0.177-0.464,0-0.642l-1.069-1.068v-2.323l2.998,2.999v1.615
			c0,0.251,0.205,0.455,0.455,0.455c0.249,0,0.454-0.204,0.454-0.455v-0.705l0.728,0.727c0.17,0.169,0.472,0.171,0.644-0.001
			c0.084-0.084,0.132-0.2,0.132-0.321s-0.048-0.235-0.132-0.32l-0.729-0.729h0.706c0.251,0,0.456-0.204,0.456-0.454
			c0-0.251-0.205-0.455-0.456-0.455h-1.615l-3-2.996h2.323l1.069,1.066c0.172,0.173,0.472,0.174,0.644,0
			c0.084-0.085,0.132-0.199,0.132-0.32s-0.048-0.236-0.132-0.321l-0.427-0.425h1.12l1.067,1.066c0.168,0.17,0.474,0.171,0.643,0
			c0.087-0.085,0.135-0.199,0.135-0.32s-0.048-0.236-0.135-0.321l-0.426-0.425h0.406
			C115.033,200.987,115.236,200.783,115.236,200.532z"/>
		<path style="fill:#FFFFFF;" d="M146.362,207.528c0-0.25-0.201-0.453-0.453-0.453h-0.406l0.428-0.428
			c0.178-0.177,0.178-0.466,0-0.642c-0.172-0.172-0.472-0.172-0.645,0l-1.067,1.069h-1.12l0.426-0.428
			c0.178-0.177,0.178-0.466,0-0.642c-0.171-0.172-0.469-0.172-0.641,0l-1.071,1.069h-2.321l3-3h1.615
			c0.25,0,0.454-0.205,0.454-0.455c0-0.249-0.204-0.453-0.454-0.453h-0.708l0.728-0.729c0.178-0.177,0.178-0.465,0-0.64
			c-0.172-0.173-0.472-0.173-0.643,0l-0.728,0.726v-0.706c0-0.252-0.205-0.455-0.454-0.455c-0.25,0-0.456,0.203-0.456,0.455v1.615
			l-2.997,2.998v-2.321l1.068-1.069c0.087-0.086,0.135-0.199,0.135-0.322c0-0.12-0.048-0.234-0.135-0.319
			c-0.171-0.173-0.469-0.173-0.643,0l-0.426,0.425v-1.118l1.068-1.07c0.178-0.178,0.178-0.466,0-0.643
			c-0.171-0.171-0.469-0.171-0.643,0.001l-0.426,0.425v-0.404c0-0.252-0.203-0.455-0.454-0.455c-0.25,0-0.455,0.203-0.455,0.455
			v0.404l-0.427-0.425c-0.173-0.172-0.469-0.172-0.643,0c-0.178,0.176-0.178,0.464,0,0.642l1.069,1.07v1.119l-0.427-0.426
			c-0.173-0.173-0.471-0.173-0.643,0c-0.085,0.085-0.132,0.199-0.132,0.319c0,0.123,0.047,0.236,0.132,0.322l1.069,1.069v2.321
			l-2.998-2.998v-1.615c0-0.252-0.205-0.455-0.456-0.455c-0.25,0-0.453,0.203-0.453,0.455v0.706l-0.728-0.726
			c-0.172-0.173-0.472-0.173-0.644-0.002c-0.085,0.087-0.132,0.201-0.132,0.321c0,0.122,0.047,0.235,0.132,0.321l0.728,0.728h-0.706
			c-0.25,0-0.455,0.204-0.455,0.453c0,0.25,0.205,0.455,0.455,0.455h1.613l3.002,3h-2.323l-1.068-1.069
			c-0.172-0.172-0.472-0.172-0.644,0c-0.085,0.085-0.134,0.201-0.134,0.321c0,0.121,0.049,0.234,0.134,0.32l0.428,0.428h-1.12
			l-1.07-1.069c-0.172-0.172-0.47-0.172-0.642,0.001c-0.178,0.175-0.178,0.464,0,0.641l0.426,0.428h-0.406
			c-0.25,0-0.453,0.203-0.453,0.453c0,0.252,0.203,0.455,0.453,0.455h0.406l-0.426,0.426c-0.087,0.086-0.132,0.199-0.132,0.323
			c0,0.12,0.045,0.234,0.132,0.321c0.17,0.171,0.47,0.174,0.642,0l1.07-1.07h1.118l-0.426,0.426
			c-0.085,0.086-0.134,0.199-0.134,0.323c0,0.121,0.049,0.234,0.134,0.32c0.17,0.17,0.476,0.17,0.644,0.001l1.068-1.07h2.321
			l-2.998,2.998h-1.615c-0.25,0-0.455,0.204-0.455,0.456c0,0.249,0.205,0.454,0.455,0.454h0.706l-0.728,0.727
			c-0.085,0.086-0.132,0.199-0.132,0.321s0.047,0.236,0.132,0.323c0.174,0.172,0.472,0.17,0.644,0l0.728-0.728v0.706
			c0,0.25,0.203,0.455,0.453,0.455c0.251,0,0.456-0.205,0.456-0.455v-1.616l2.998-2.999v2.323l-1.069,1.069
			c-0.178,0.177-0.178,0.464,0,0.642c0.17,0.17,0.47,0.172,0.643,0l0.427-0.428v1.122l-1.069,1.068
			c-0.085,0.085-0.132,0.199-0.132,0.319c0,0.124,0.047,0.237,0.132,0.322c0.17,0.172,0.47,0.174,0.643,0.002l0.427-0.429v0.407
			c0,0.251,0.205,0.455,0.455,0.455c0.251,0,0.454-0.204,0.454-0.455v-0.407l0.426,0.427c0.17,0.17,0.476,0.17,0.643,0.002
			c0.087-0.087,0.135-0.2,0.135-0.324c0-0.12-0.048-0.234-0.135-0.319l-1.068-1.068v-1.122l0.428,0.428
			c0.168,0.168,0.472,0.168,0.641,0c0.178-0.178,0.178-0.465,0-0.643l-1.068-1.068v-2.323l2.997,2.999v1.616
			c0,0.25,0.206,0.455,0.456,0.455c0.249,0,0.454-0.205,0.454-0.455v-0.706l0.728,0.728c0.171,0.17,0.471,0.17,0.643,0
			c0.085-0.087,0.134-0.201,0.134-0.321c0-0.124-0.049-0.237-0.134-0.323l-0.726-0.727h0.706c0.25,0,0.454-0.205,0.454-0.454
			c0-0.252-0.204-0.456-0.454-0.456h-1.615l-3-2.998h2.321l1.069,1.07c0.174,0.173,0.472,0.173,0.643,0
			c0.087-0.087,0.132-0.201,0.132-0.321c0-0.124-0.045-0.237-0.132-0.323l-0.426-0.426h1.12l1.067,1.07
			c0.169,0.169,0.475,0.169,0.645,0c0.085-0.087,0.132-0.201,0.132-0.321c0-0.124-0.047-0.237-0.132-0.323l-0.428-0.426h0.406
			C146.161,207.983,146.362,207.78,146.362,207.528z"/>
		<path style="fill:#FFFFFF;" d="M84.109,186.532c0-0.25-0.203-0.454-0.453-0.454H83.25l0.428-0.427
			c0.176-0.178,0.176-0.466-0.002-0.643c-0.172-0.171-0.472-0.171-0.644,0l-1.068,1.069h-1.118l0.426-0.427
			c0.176-0.178,0.176-0.466-0.002-0.643c-0.172-0.171-0.47-0.171-0.64,0l-1.07,1.069h-2.323l3-3h1.615
			c0.252,0,0.453-0.204,0.453-0.454s-0.201-0.454-0.453-0.454h-0.706l0.726-0.728c0.18-0.178,0.18-0.465,0-0.641
			c-0.17-0.173-0.472-0.173-0.642,0l-0.728,0.727v-0.707c0-0.251-0.205-0.455-0.453-0.455c-0.253,0-0.456,0.204-0.456,0.455v1.615
			l-2.998,2.998v-2.32l1.069-1.07c0.087-0.085,0.134-0.199,0.134-0.322c0-0.12-0.047-0.234-0.134-0.319
			c-0.172-0.173-0.472-0.173-0.643,0l-0.427,0.426v-1.118l1.069-1.071c0.178-0.178,0.178-0.464,0-0.643
			c-0.172-0.171-0.472-0.171-0.643,0.001l-0.427,0.426v-0.404c0-0.252-0.205-0.454-0.455-0.454c-0.251,0-0.454,0.202-0.454,0.454
			v0.404l-0.428-0.426c-0.172-0.172-0.47-0.172-0.641,0c-0.178,0.178-0.178,0.464,0,0.642l1.068,1.071v1.118l-0.428-0.426
			c-0.172-0.173-0.47-0.173-0.641,0c-0.087,0.085-0.135,0.199-0.135,0.319c0,0.123,0.048,0.237,0.135,0.322l1.068,1.07v2.32
			l-3-2.998v-1.615c0-0.251-0.203-0.455-0.455-0.455c-0.251,0-0.452,0.204-0.452,0.455v0.707l-0.729-0.727
			c-0.172-0.173-0.47-0.172-0.641-0.001c-0.085,0.086-0.133,0.2-0.133,0.32c0,0.122,0.048,0.236,0.133,0.321l0.726,0.728H70.43
			c-0.25,0-0.456,0.204-0.456,0.454s0.206,0.454,0.456,0.454h1.613l3,3H72.72l-1.067-1.069c-0.172-0.171-0.474-0.171-0.645,0
			c-0.085,0.087-0.133,0.201-0.133,0.321c0,0.122,0.048,0.234,0.133,0.321l0.428,0.427h-1.12l-1.069-1.069
			c-0.171-0.171-0.469-0.171-0.643,0.002c-0.176,0.175-0.176,0.463,0,0.641l0.426,0.427h-0.404c-0.25,0-0.455,0.204-0.455,0.454
			c0,0.251,0.205,0.455,0.455,0.455h0.404l-0.426,0.426c-0.085,0.086-0.132,0.2-0.132,0.322c0,0.12,0.047,0.235,0.132,0.321
			c0.172,0.171,0.47,0.174,0.643,0l1.069-1.069h1.12l-0.428,0.426c-0.085,0.086-0.133,0.2-0.133,0.322s0.048,0.235,0.133,0.321
			c0.169,0.169,0.477,0.169,0.645,0l1.067-1.069h2.321l-2.996,2.997H70.43c-0.25,0-0.456,0.205-0.456,0.456
			c0,0.25,0.206,0.454,0.456,0.454h0.704l-0.726,0.727c-0.085,0.086-0.133,0.199-0.133,0.322c-0.002,0.121,0.048,0.235,0.133,0.322
			c0.174,0.173,0.469,0.171,0.641,0l0.729-0.727v0.705c0,0.25,0.201,0.455,0.452,0.455c0.252,0,0.455-0.205,0.455-0.455v-1.615
			l3-2.999v2.322l-1.068,1.071c-0.178,0.175-0.178,0.463,0,0.64c0.169,0.172,0.469,0.174,0.641,0.001l0.428-0.427v1.121
			l-1.068,1.067c-0.087,0.086-0.135,0.2-0.135,0.321c0,0.122,0.048,0.236,0.133,0.32c0.171,0.173,0.471,0.175,0.643,0.002
			l0.428-0.428v0.407c0,0.25,0.203,0.454,0.454,0.454c0.25,0,0.455-0.204,0.455-0.454v-0.407l0.427,0.426
			c0.167,0.17,0.473,0.17,0.643,0.002c0.087-0.086,0.134-0.2,0.134-0.322c0-0.121-0.047-0.235-0.134-0.321l-1.069-1.067v-1.121
			l0.427,0.427c0.169,0.168,0.473,0.168,0.643-0.001c0.178-0.177,0.178-0.465,0-0.643l-1.069-1.068v-2.322l2.998,2.999v1.615
			c0,0.25,0.203,0.455,0.456,0.455c0.248,0,0.453-0.205,0.453-0.455v-0.705l0.728,0.727c0.17,0.171,0.47,0.171,0.642,0
			c0.087-0.087,0.134-0.201,0.134-0.321c0-0.124-0.047-0.237-0.134-0.323l-0.726-0.727h0.706c0.252,0,0.453-0.204,0.453-0.454
			c0-0.251-0.201-0.456-0.453-0.456h-1.615l-3-2.997h2.323l1.068,1.069c0.172,0.173,0.47,0.173,0.644,0
			c0.085-0.086,0.132-0.201,0.132-0.321c0-0.122-0.047-0.236-0.132-0.322l-0.426-0.426h1.118l1.068,1.069
			c0.17,0.169,0.476,0.169,0.644,0c0.087-0.086,0.134-0.201,0.134-0.321c0-0.122-0.047-0.236-0.134-0.322l-0.426-0.426h0.406
			C83.906,186.987,84.109,186.783,84.109,186.532z"/>
		<path style="fill:#FFFFFF;" d="M177.491,193.531c0-0.25-0.203-0.454-0.455-0.454h-0.406l0.428-0.427
			c0.178-0.178,0.178-0.466,0-0.644c-0.172-0.17-0.472-0.17-0.644,0l-1.068,1.07h-1.12l0.426-0.427c0.178-0.178,0.178-0.466,0-0.644
			c-0.172-0.17-0.47-0.17-0.642,0l-1.068,1.07h-2.323l3-3.001h1.613c0.25,0,0.455-0.202,0.455-0.452
			c0-0.251-0.205-0.454-0.455-0.454h-0.704l0.726-0.729c0.178-0.178,0.178-0.466,0-0.643c-0.17-0.171-0.472-0.171-0.644,0
			l-0.728,0.729v-0.706c0-0.251-0.203-0.455-0.453-0.455c-0.251,0-0.456,0.204-0.456,0.455v1.614l-2.996,2.998v-2.322l1.067-1.069
			c0.087-0.083,0.134-0.199,0.134-0.321c0-0.121-0.047-0.235-0.134-0.32c-0.172-0.172-0.472-0.172-0.643,0l-0.425,0.427v-1.117
			l1.067-1.072c0.178-0.179,0.178-0.465,0-0.643c-0.172-0.17-0.472-0.172-0.643,0l-0.425,0.428v-0.407
			c0-0.251-0.205-0.454-0.455-0.454c-0.251,0-0.456,0.203-0.456,0.454v0.407l-0.426-0.428c-0.174-0.17-0.47-0.172-0.641,0
			c-0.18,0.178-0.18,0.464,0,0.643l1.066,1.072v1.117l-0.426-0.427c-0.174-0.172-0.47-0.172-0.641,0
			c-0.087,0.085-0.135,0.199-0.135,0.32c0,0.122,0.048,0.238,0.135,0.321l1.066,1.069v2.322l-3-2.998v-1.614
			c0-0.251-0.203-0.455-0.453-0.455c-0.251,0-0.454,0.204-0.454,0.455v0.706l-0.728-0.729c-0.174-0.171-0.472-0.17-0.641,0
			c-0.087,0.086-0.135,0.199-0.135,0.321s0.048,0.236,0.135,0.321l0.726,0.729h-0.706c-0.251,0-0.454,0.203-0.454,0.454
			c0,0.25,0.203,0.452,0.454,0.452h1.615l2.998,3.001h-2.321l-1.069-1.07c-0.172-0.17-0.472-0.17-0.643,0
			c-0.087,0.087-0.133,0.2-0.133,0.321c0,0.123,0.046,0.235,0.133,0.322l0.426,0.427h-1.118l-1.071-1.07
			c-0.169-0.17-0.469-0.17-0.641,0.001c-0.178,0.177-0.176,0.465,0,0.643l0.426,0.427h-0.406c-0.25,0-0.453,0.204-0.453,0.454
			c0,0.251,0.203,0.455,0.453,0.455h0.406l-0.426,0.425c-0.085,0.087-0.134,0.201-0.134,0.321c0,0.122,0.049,0.237,0.134,0.323
			c0.17,0.171,0.47,0.173,0.641,0l1.071-1.069h1.118l-0.426,0.425c-0.087,0.087-0.133,0.201-0.133,0.321
			c0,0.124,0.046,0.237,0.133,0.323c0.167,0.168,0.476,0.168,0.643,0l1.069-1.069h2.321l-2.998,2.997h-1.615
			c-0.251,0-0.454,0.204-0.454,0.455s0.203,0.455,0.454,0.455h0.706l-0.726,0.727c-0.087,0.086-0.135,0.199-0.135,0.321
			c0,0.121,0.048,0.237,0.135,0.322c0.171,0.172,0.469,0.171,0.641,0l0.728-0.728v0.706c0,0.251,0.203,0.455,0.454,0.455
			c0.25,0,0.453-0.204,0.453-0.455v-1.615l3-2.999v2.323l-1.066,1.068c-0.18,0.178-0.18,0.466,0,0.642
			c0.167,0.172,0.467,0.174,0.641,0.001l0.426-0.426v1.119l-1.066,1.069c-0.087,0.087-0.135,0.2-0.135,0.321
			c0,0.12,0.048,0.236,0.133,0.319c0.169,0.173,0.469,0.175,0.643,0.002l0.426-0.428v0.406c0,0.251,0.205,0.456,0.456,0.456
			c0.25,0,0.455-0.205,0.455-0.456v-0.406l0.425,0.426c0.169,0.171,0.475,0.171,0.643,0.002c0.087-0.085,0.134-0.201,0.134-0.321
			c0-0.121-0.047-0.234-0.134-0.321l-1.067-1.069v-1.119l0.425,0.426c0.169,0.168,0.475,0.168,0.643-0.001
			c0.178-0.176,0.178-0.464,0-0.642l-1.067-1.068v-2.323l2.996,2.999v1.615c0,0.251,0.205,0.455,0.456,0.455
			c0.25,0,0.453-0.204,0.453-0.455v-0.706l0.728,0.728c0.17,0.169,0.472,0.171,0.644,0c0.085-0.085,0.134-0.201,0.134-0.322
			c0-0.122-0.049-0.235-0.134-0.321l-0.726-0.727h0.704c0.25,0,0.455-0.204,0.455-0.455s-0.205-0.455-0.455-0.455h-1.613l-3-2.997
			h2.323l1.066,1.069c0.174,0.171,0.472,0.171,0.644,0c0.087-0.086,0.132-0.201,0.132-0.323c0-0.12-0.045-0.234-0.132-0.321
			l-0.426-0.425h1.12l1.068,1.069c0.168,0.168,0.474,0.168,0.644,0c0.085-0.086,0.132-0.201,0.132-0.323
			c0-0.12-0.047-0.234-0.132-0.321l-0.426-0.425h0.404C177.288,193.986,177.491,193.782,177.491,193.531z"/>
	</g>
</g>
</svg>
