<?xml version="1.0" encoding="iso-8859-1"?>
<!-- Generator: Adobe Illustrator 16.0.0, SVG Export Plug-In . SVG Version: 6.00 Build 0)  -->
<!DOCTYPE svg PUBLIC "-//W3C//DTD SVG 1.1//EN" "http://www.w3.org/Graphics/SVG/1.1/DTD/svg11.dtd">
<svg version="1.1" xmlns="http://www.w3.org/2000/svg" xmlns:xlink="http://www.w3.org/1999/xlink" x="0px" y="0px" width="256px"
	 height="256px" viewBox="0 0 256 256" style="enable-background:new 0 0 256 256;" xml:space="preserve">
<g id="bg_light" style="display:none;">
	<rect style="display:inline;fill:#0079C1;" width="256" height="256"/>
</g>
<g id="guides" style="display:none;">
	<g style="display:inline;">
		<g>
			<g>
				<line style="fill:none;stroke:#FFFFFF;stroke-width:0.25;stroke-miterlimit:10;" x1="40.5" y1="0" x2="40.5" y2="2"/>
				
					<line style="fill:none;stroke:#FFFFFF;stroke-width:0.25;stroke-miterlimit:10;stroke-dasharray:4,4;" x1="40.5" y1="6" x2="40.5" y2="252"/>
				<line style="fill:none;stroke:#FFFFFF;stroke-width:0.25;stroke-miterlimit:10;" x1="40.5" y1="254" x2="40.5" y2="256"/>
			</g>
		</g>
		<g>
			<g>
				<line style="fill:none;stroke:#FFFFFF;stroke-width:0.25;stroke-miterlimit:10;" x1="215.5" y1="0" x2="215.5" y2="2"/>
				
					<line style="fill:none;stroke:#FFFFFF;stroke-width:0.25;stroke-miterlimit:10;stroke-dasharray:4,4;" x1="215.5" y1="6" x2="215.5" y2="252"/>
				<line style="fill:none;stroke:#FFFFFF;stroke-width:0.25;stroke-miterlimit:10;" x1="215.5" y1="254" x2="215.5" y2="256"/>
			</g>
		</g>
		<g>
			<g>
				<line style="fill:none;stroke:#FFFFFF;stroke-width:0.25;stroke-miterlimit:10;" x1="256" y1="40.5" x2="254" y2="40.5"/>
				
					<line style="fill:none;stroke:#FFFFFF;stroke-width:0.25;stroke-miterlimit:10;stroke-dasharray:4,4;" x1="250" y1="40.5" x2="4" y2="40.5"/>
				<line style="fill:none;stroke:#FFFFFF;stroke-width:0.25;stroke-miterlimit:10;" x1="2" y1="40.5" x2="0" y2="40.5"/>
			</g>
		</g>
		<g>
			<g>
				<line style="fill:none;stroke:#FFFFFF;stroke-width:0.25;stroke-miterlimit:10;" x1="256" y1="215.5" x2="254" y2="215.5"/>
				
					<line style="fill:none;stroke:#FFFFFF;stroke-width:0.25;stroke-miterlimit:10;stroke-dasharray:4,4;" x1="250" y1="215.5" x2="4" y2="215.5"/>
				<line style="fill:none;stroke:#FFFFFF;stroke-width:0.25;stroke-miterlimit:10;" x1="2" y1="215.5" x2="0" y2="215.5"/>
			</g>
		</g>
	</g>
</g>
<g id="border">
	<rect style="opacity:0;fill:none;stroke:#231F20;stroke-width:0.1;stroke-miterlimit:10;" width="256" height="256"/>
</g>
<g id="icons">
	<path style="fill:#FFFFFF;" d="M191,128c0-1.851-1.506-3.357-3.358-3.357h-3.834l3.822-3.822c1.304-1.305,1.304-3.429-0.001-4.738
		c-1.269-1.264-3.481-1.265-4.748,0.001l-8.558,8.558h-9.598l3.813-3.821c1.305-1.306,1.305-3.431-0.001-4.739
		c-1.268-1.264-3.467-1.266-4.738,0.001l-8.556,8.558h-19.147l24.305-24.308h12.925c1.851,0,3.357-1.506,3.357-3.357
		c0-1.844-1.506-3.343-3.357-3.343h-6.212l6.2-6.209c1.305-1.311,1.304-3.436-0.001-4.738c-1.266-1.27-3.483-1.269-4.749,0
		l-6.198,6.199v-6.211c0-1.851-1.505-3.357-3.356-3.357c-1.851,0-3.357,1.506-3.357,3.357v12.923l-24.294,24.295v-19.135l8.557-8.56
		c1.309-1.309,1.309-3.437,0-4.746c-1.268-1.268-3.482-1.27-4.75,0.001l-3.807,3.816v-9.592l8.557-8.569
		c1.305-1.305,1.305-3.429-0.001-4.739c-1.269-1.263-3.48-1.264-4.748,0.001l-3.808,3.809v-3.821c0-1.852-1.506-3.358-3.358-3.358
		c-1.851,0-3.357,1.506-3.357,3.358v3.825l-3.822-3.813c-1.265-1.264-3.464-1.267-4.738,0.001c-1.304,1.307-1.303,3.432,0,4.736
		l8.559,8.57v9.596l-3.82-3.821c-1.266-1.268-3.47-1.269-4.738,0c-1.309,1.309-1.309,3.437,0,4.746l8.558,8.56v19.136
		l-24.307-24.297V82.675c0-1.851-1.507-3.357-3.359-3.357c-1.843,0-3.342,1.506-3.342,3.357v6.214l-6.211-6.202
		c-1.27-1.267-3.474-1.264-4.734-0.001c-0.635,0.632-0.985,1.472-0.986,2.364c-0.001,0.895,0.348,1.739,0.984,2.376l6.199,6.208
		h-6.212c-1.852,0-3.358,1.5-3.358,3.343c0,1.851,1.507,3.357,3.358,3.357h12.922l24.297,24.308h-19.137l-8.559-8.558
		c-1.266-1.267-3.481-1.265-4.744-0.001c-0.635,0.635-0.985,1.477-0.985,2.371c0,0.894,0.35,1.735,0.984,2.367l3.82,3.821h-9.598
		l-8.568-8.559c-1.267-1.265-3.466-1.268-4.739,0.001c-1.304,1.307-1.303,3.431,0,4.736l3.813,3.822h-3.826
		c-1.851,0-3.357,1.506-3.357,3.357c0,1.852,1.506,3.358,3.357,3.358h3.822l-3.809,3.809c-1.309,1.309-1.309,3.438-0.002,4.744
		c1.258,1.266,3.465,1.281,4.741,0.002l8.568-8.555h9.594l-3.815,3.808c-0.635,0.634-0.985,1.476-0.985,2.374
		s0.35,1.741,0.981,2.369c1.244,1.258,3.509,1.256,4.747,0.003l8.559-8.554h19.136L95.598,155.65H82.675
		c-1.852,0-3.358,1.507-3.358,3.358s1.507,3.357,3.358,3.357h6.21l-6.195,6.197c-0.635,0.632-0.985,1.475-0.986,2.371
		c0,0.898,0.349,1.744,0.986,2.382c1.275,1.268,3.468,1.258,4.734-0.001l6.211-6.201v6.213c0,1.851,1.499,3.356,3.342,3.356
		c1.852,0,3.359-1.506,3.359-3.356V160.4l24.307-24.309v19.149l-8.56,8.559c-1.304,1.307-1.304,3.432,0,4.735
		c1.256,1.258,3.46,1.273,4.738,0.001l3.822-3.813v9.601l-8.558,8.559c-0.634,0.632-0.982,1.476-0.982,2.373
		c0,0.897,0.349,1.739,0.977,2.366c1.255,1.271,3.473,1.285,4.742,0.004l3.821-3.818v3.838c0,1.851,1.506,3.355,3.357,3.355
		c1.852,0,3.358-1.505,3.358-3.355v-3.834l3.805,3.813c0.624,0.629,1.491,0.991,2.377,0.991c0.898,0,1.743-0.353,2.375-0.988
		c0.633-0.632,0.982-1.474,0.982-2.371c0-0.897-0.348-1.741-0.981-2.373l-8.557-8.559v-9.597l3.809,3.81
		c1.25,1.245,3.492,1.249,4.748-0.001c1.305-1.304,1.305-3.429,0-4.736l-8.557-8.558v-19.148l24.294,24.308v12.927
		c0,1.851,1.506,3.356,3.357,3.356c1.851,0,3.356-1.506,3.356-3.356v-6.211l6.2,6.2c0.625,0.622,1.491,0.979,2.373,0.979
		c0.893,0,1.735-0.347,2.374-0.981c0.634-0.635,0.983-1.479,0.983-2.376c0-0.898-0.349-1.741-0.983-2.374l-6.197-6.198h6.21
		c1.851,0,3.357-1.506,3.357-3.357s-1.506-3.358-3.357-3.358H160.4l-24.305-24.292h19.147l8.555,8.554
		c1.266,1.269,3.471,1.273,4.739,0c0.634-0.631,0.982-1.476,0.982-2.372c0-0.897-0.348-1.74-0.982-2.373l-3.809-3.809h9.595
		l8.555,8.552c1.244,1.254,3.499,1.257,4.752,0.002c1.309-1.307,1.309-3.437-0.001-4.746l-3.817-3.808h3.831
		C189.494,131.358,191,129.852,191,128z"/>
</g>
</svg>
