<?xml version="1.0" encoding="iso-8859-1"?>
<!-- Generator: Adobe Illustrator 16.0.0, SVG Export Plug-In . SVG Version: 6.00 Build 0)  -->
<!DOCTYPE svg PUBLIC "-//W3C//DTD SVG 1.1//EN" "http://www.w3.org/Graphics/SVG/1.1/DTD/svg11.dtd">
<svg version="1.1" xmlns="http://www.w3.org/2000/svg" xmlns:xlink="http://www.w3.org/1999/xlink" x="0px" y="0px" width="256px"
	 height="256px" viewBox="0 0 256 256" style="enable-background:new 0 0 256 256;" xml:space="preserve">
<g id="bg_light" style="display:none;">
	<rect style="display:inline;fill:#0079C1;" width="256" height="256"/>
</g>
<g id="guides" style="display:none;">
	<g style="display:inline;">
		<g>
			<g>
				<line style="fill:none;stroke:#FFFFFF;stroke-width:0.25;stroke-miterlimit:10;" x1="40.5" y1="0" x2="40.5" y2="2"/>
				
					<line style="fill:none;stroke:#FFFFFF;stroke-width:0.25;stroke-miterlimit:10;stroke-dasharray:4,4;" x1="40.5" y1="6" x2="40.5" y2="252"/>
				<line style="fill:none;stroke:#FFFFFF;stroke-width:0.25;stroke-miterlimit:10;" x1="40.5" y1="254" x2="40.5" y2="256"/>
			</g>
		</g>
		<g>
			<g>
				<line style="fill:none;stroke:#FFFFFF;stroke-width:0.25;stroke-miterlimit:10;" x1="215.5" y1="0" x2="215.5" y2="2"/>
				
					<line style="fill:none;stroke:#FFFFFF;stroke-width:0.25;stroke-miterlimit:10;stroke-dasharray:4,4;" x1="215.5" y1="6" x2="215.5" y2="252"/>
				<line style="fill:none;stroke:#FFFFFF;stroke-width:0.25;stroke-miterlimit:10;" x1="215.5" y1="254" x2="215.5" y2="256"/>
			</g>
		</g>
		<g>
			<g>
				<line style="fill:none;stroke:#FFFFFF;stroke-width:0.25;stroke-miterlimit:10;" x1="256" y1="40.5" x2="254" y2="40.5"/>
				
					<line style="fill:none;stroke:#FFFFFF;stroke-width:0.25;stroke-miterlimit:10;stroke-dasharray:4,4;" x1="250" y1="40.5" x2="4" y2="40.5"/>
				<line style="fill:none;stroke:#FFFFFF;stroke-width:0.25;stroke-miterlimit:10;" x1="2" y1="40.5" x2="0" y2="40.5"/>
			</g>
		</g>
		<g>
			<g>
				<line style="fill:none;stroke:#FFFFFF;stroke-width:0.25;stroke-miterlimit:10;" x1="256" y1="215.5" x2="254" y2="215.5"/>
				
					<line style="fill:none;stroke:#FFFFFF;stroke-width:0.25;stroke-miterlimit:10;stroke-dasharray:4,4;" x1="250" y1="215.5" x2="4" y2="215.5"/>
				<line style="fill:none;stroke:#FFFFFF;stroke-width:0.25;stroke-miterlimit:10;" x1="2" y1="215.5" x2="0" y2="215.5"/>
			</g>
		</g>
	</g>
</g>
<g id="border">
	<rect style="opacity:0;fill:none;stroke:#231F20;stroke-width:0.1;stroke-miterlimit:10;" width="256" height="256"/>
</g>
<g id="icons">
	<g>
		<g>
			<path style="fill:#FFFFFF;" d="M111.813,108.437l-13.428,48.777h17.962l0.091,40.086l39.537-62.366h-17.789l9.067-26.497H111.813
				z"/>
		</g>
		<g>
			<path style="fill:#D5D6DB;" d="M188.513,105.347c0.037-0.553,0.062-1.109,0.062-1.67c0-13.756-11.149-24.908-24.903-24.908
				c-4.41,0-8.548,1.153-12.138,3.164c-3.853-16.981-19.035-29.654-37.178-29.654c-21.053,0-38.12,17.067-38.12,38.122
				c0,0.219,0.001,0.44,0.007,0.659C61.228,94.388,50,107.776,50,123.792c0,18.516,15.008,33.525,33.525,33.525h10.163
				l14.697-53.381h45.165l-9.067,26.497h19.674l-17.043,26.884h32.066c14.812,0,26.821-12.009,26.821-26.82
				C206,118.969,198.723,109.137,188.513,105.347z"/>
		</g>
		<g>
			<path style="fill:#5AC8FA;" d="M141.075,202.063c-0.954,0-1.914-0.276-2.758-0.854c-2.225-1.528-2.791-4.567-1.266-6.791
				l18.353-26.753c1.527-2.228,4.567-2.793,6.792-1.268c2.224,1.526,2.79,4.565,1.265,6.79l-18.355,26.754
				C144.159,201.32,142.63,202.063,141.075,202.063z"/>
		</g>
		<g>
			<path style="fill:#5AC8FA;" d="M86.978,203.722c-0.968,0-1.945-0.287-2.797-0.882c-2.21-1.547-2.748-4.594-1.2-6.803
				l14.016-19.929c1.546-2.211,4.591-2.746,6.802-1.202c2.21,1.548,2.748,4.594,1.199,6.803l-14.016,19.929
				C90.033,202.997,88.518,203.722,86.978,203.722z"/>
		</g>
		<g>
			<path style="fill:#5AC8FA;" d="M170.032,197.523c-0.943,0-1.897-0.271-2.735-0.842c-2.234-1.513-2.817-4.552-1.304-6.782
				l8.67-12.755c1.513-2.232,4.551-2.815,6.781-1.305c2.233,1.515,2.816,4.551,1.303,6.784l-8.667,12.756
				C173.134,196.773,171.597,197.523,170.032,197.523z"/>
		</g>
		<g>
			<path style="fill:#5AC8FA;" d="M70.279,187.316c-0.943,0-1.897-0.271-2.736-0.842c-2.232-1.514-2.815-4.553-1.303-6.783
				l8.669-12.755c1.514-2.232,4.553-2.815,6.782-1.304c2.234,1.514,2.816,4.55,1.302,6.784l-8.667,12.756
				C73.38,186.566,71.843,187.316,70.279,187.316z"/>
		</g>
	</g>
</g>
</svg>
