<?xml version="1.0" encoding="iso-8859-1"?>
<!-- Generator: Adobe Illustrator 16.0.0, SVG Export Plug-In . SVG Version: 6.00 Build 0)  -->
<!DOCTYPE svg PUBLIC "-//W3C//DTD SVG 1.1//EN" "http://www.w3.org/Graphics/SVG/1.1/DTD/svg11.dtd">
<svg version="1.1" xmlns="http://www.w3.org/2000/svg" xmlns:xlink="http://www.w3.org/1999/xlink" x="0px" y="0px" width="256px"
	 height="256px" viewBox="0 0 256 256" style="enable-background:new 0 0 256 256;" xml:space="preserve">
<g id="bg_light" style="display:none;">
	<rect style="display:inline;fill:#0079C1;" width="256" height="256"/>
</g>
<g id="guides" style="display:none;">
	<g style="display:inline;">
		<g>
			<g>
				<line style="fill:none;stroke:#FFFFFF;stroke-width:0.25;stroke-miterlimit:10;" x1="40.5" y1="0" x2="40.5" y2="2"/>
				
					<line style="fill:none;stroke:#FFFFFF;stroke-width:0.25;stroke-miterlimit:10;stroke-dasharray:4,4;" x1="40.5" y1="6" x2="40.5" y2="252"/>
				<line style="fill:none;stroke:#FFFFFF;stroke-width:0.25;stroke-miterlimit:10;" x1="40.5" y1="254" x2="40.5" y2="256"/>
			</g>
		</g>
		<g>
			<g>
				<line style="fill:none;stroke:#FFFFFF;stroke-width:0.25;stroke-miterlimit:10;" x1="215.5" y1="0" x2="215.5" y2="2"/>
				
					<line style="fill:none;stroke:#FFFFFF;stroke-width:0.25;stroke-miterlimit:10;stroke-dasharray:4,4;" x1="215.5" y1="6" x2="215.5" y2="252"/>
				<line style="fill:none;stroke:#FFFFFF;stroke-width:0.25;stroke-miterlimit:10;" x1="215.5" y1="254" x2="215.5" y2="256"/>
			</g>
		</g>
		<g>
			<g>
				<line style="fill:none;stroke:#FFFFFF;stroke-width:0.25;stroke-miterlimit:10;" x1="256" y1="40.5" x2="254" y2="40.5"/>
				
					<line style="fill:none;stroke:#FFFFFF;stroke-width:0.25;stroke-miterlimit:10;stroke-dasharray:4,4;" x1="250" y1="40.5" x2="4" y2="40.5"/>
				<line style="fill:none;stroke:#FFFFFF;stroke-width:0.25;stroke-miterlimit:10;" x1="2" y1="40.5" x2="0" y2="40.5"/>
			</g>
		</g>
		<g>
			<g>
				<line style="fill:none;stroke:#FFFFFF;stroke-width:0.25;stroke-miterlimit:10;" x1="256" y1="215.5" x2="254" y2="215.5"/>
				
					<line style="fill:none;stroke:#FFFFFF;stroke-width:0.25;stroke-miterlimit:10;stroke-dasharray:4,4;" x1="250" y1="215.5" x2="4" y2="215.5"/>
				<line style="fill:none;stroke:#FFFFFF;stroke-width:0.25;stroke-miterlimit:10;" x1="2" y1="215.5" x2="0" y2="215.5"/>
			</g>
		</g>
	</g>
</g>
<g id="border">
	<rect style="opacity:0;fill:none;stroke:#231F20;stroke-width:0.1;stroke-miterlimit:10;" width="256" height="256"/>
</g>
<g id="icons">
	<g>
		<g>
			<path style="fill:#FFFFFF;" d="M197.18,78.33H58.82c-2.661,0-4.82-2.16-4.82-4.821c0-2.664,2.159-4.821,4.82-4.821H197.18
				c2.661,0,4.82,2.157,4.82,4.821C202,76.17,199.841,78.33,197.18,78.33z"/>
		</g>
		<g>
			<path style="fill:#FFFFFF;" d="M179.503,100.769H79.516c-2.663,0-4.82-2.158-4.82-4.821c0-2.662,2.157-4.82,4.82-4.82h99.987
				c2.662,0,4.82,2.158,4.82,4.82C184.323,98.61,182.165,100.769,179.503,100.769z"/>
		</g>
		<g>
			<path style="fill:#FFFFFF;" d="M195.036,123.208h-88.738c-2.663,0-4.821-2.158-4.821-4.82c0-2.664,2.158-4.82,4.821-4.82h88.738
				c2.663,0,4.82,2.156,4.82,4.82C199.856,121.05,197.699,123.208,195.036,123.208z"/>
		</g>
		<g>
			<path style="fill:#FFFFFF;" d="M179.503,145.646h-57.85c-2.663,0-4.82-2.157-4.82-4.82c0-2.661,2.157-4.82,4.82-4.82h57.85
				c2.662,0,4.82,2.159,4.82,4.82C184.323,143.489,182.165,145.646,179.503,145.646z"/>
		</g>
		<g>
			<path style="fill:#FFFFFF;" d="M162.006,168.088h-36.944c-2.662,0-4.82-2.16-4.82-4.821c0-2.662,2.158-4.82,4.82-4.82h36.944
				c2.661,0,4.82,2.158,4.82,4.82C166.826,165.928,164.667,168.088,162.006,168.088z"/>
		</g>
		<g>
			<path style="fill:#FFFFFF;" d="M137.007,187.313h-18.014c-2.663,0-4.822-2.157-4.822-4.821c0-2.661,2.159-4.821,4.822-4.821
				h18.014c2.663,0,4.822,2.16,4.822,4.821C141.829,185.155,139.67,187.313,137.007,187.313z"/>
		</g>
	</g>
</g>
</svg>
