<?xml version="1.0" encoding="iso-8859-1"?>
<!-- Generator: Adobe Illustrator 16.0.0, SVG Export Plug-In . SVG Version: 6.00 Build 0)  -->
<!DOCTYPE svg PUBLIC "-//W3C//DTD SVG 1.1//EN" "http://www.w3.org/Graphics/SVG/1.1/DTD/svg11.dtd">
<svg version="1.1" xmlns="http://www.w3.org/2000/svg" xmlns:xlink="http://www.w3.org/1999/xlink" x="0px" y="0px" width="256px"
	 height="256px" viewBox="0 0 256 256" style="enable-background:new 0 0 256 256;" xml:space="preserve">
<g id="bg_light" style="display:none;">
	<rect style="display:inline;fill:#0079C1;" width="256" height="256"/>
</g>
<g id="guides" style="display:none;">
	<g style="display:inline;">
		<g>
			<g>
				<line style="fill:none;stroke:#FFFFFF;stroke-width:0.25;stroke-miterlimit:10;" x1="40.5" y1="0" x2="40.5" y2="2"/>
				
					<line style="fill:none;stroke:#FFFFFF;stroke-width:0.25;stroke-miterlimit:10;stroke-dasharray:4,4;" x1="40.5" y1="6" x2="40.5" y2="252"/>
				<line style="fill:none;stroke:#FFFFFF;stroke-width:0.25;stroke-miterlimit:10;" x1="40.5" y1="254" x2="40.5" y2="256"/>
			</g>
		</g>
		<g>
			<g>
				<line style="fill:none;stroke:#FFFFFF;stroke-width:0.25;stroke-miterlimit:10;" x1="215.5" y1="0" x2="215.5" y2="2"/>
				
					<line style="fill:none;stroke:#FFFFFF;stroke-width:0.25;stroke-miterlimit:10;stroke-dasharray:4,4;" x1="215.5" y1="6" x2="215.5" y2="252"/>
				<line style="fill:none;stroke:#FFFFFF;stroke-width:0.25;stroke-miterlimit:10;" x1="215.5" y1="254" x2="215.5" y2="256"/>
			</g>
		</g>
		<g>
			<g>
				<line style="fill:none;stroke:#FFFFFF;stroke-width:0.25;stroke-miterlimit:10;" x1="256" y1="40.5" x2="254" y2="40.5"/>
				
					<line style="fill:none;stroke:#FFFFFF;stroke-width:0.25;stroke-miterlimit:10;stroke-dasharray:4,4;" x1="250" y1="40.5" x2="4" y2="40.5"/>
				<line style="fill:none;stroke:#FFFFFF;stroke-width:0.25;stroke-miterlimit:10;" x1="2" y1="40.5" x2="0" y2="40.5"/>
			</g>
		</g>
		<g>
			<g>
				<line style="fill:none;stroke:#FFFFFF;stroke-width:0.25;stroke-miterlimit:10;" x1="256" y1="215.5" x2="254" y2="215.5"/>
				
					<line style="fill:none;stroke:#FFFFFF;stroke-width:0.25;stroke-miterlimit:10;stroke-dasharray:4,4;" x1="250" y1="215.5" x2="4" y2="215.5"/>
				<line style="fill:none;stroke:#FFFFFF;stroke-width:0.25;stroke-miterlimit:10;" x1="2" y1="215.5" x2="0" y2="215.5"/>
			</g>
		</g>
	</g>
</g>
<g id="border">
	<rect style="opacity:0;fill:none;stroke:#231F20;stroke-width:0.1;stroke-miterlimit:10;" width="256" height="256"/>
</g>
<g id="icons">
	<g>
		<g>
			<path style="fill:#969AA4;" d="M55.537,118.42c-1.519,0-3.032-0.623-4.125-1.843c-2.04-2.278-1.846-5.777,0.431-7.816
				c19.389-17.363,42.61-12.378,63.098-7.979c9.826,2.109,19.106,4.094,27.922,3.97c7.701-0.115,13.265-3.103,15.667-8.412
				c2.002-4.427,1.325-9.772-1.685-13.303c-3.451-4.048-9.36-5.183-16.642-3.197c-2.949,0.804-5.992-0.935-6.797-3.884
				c-0.804-2.949,0.935-5.992,3.884-6.797c11.484-3.131,21.681-0.69,27.979,6.694c5.827,6.833,7.141,16.665,3.347,25.05
				c-4.208,9.301-13.534,14.738-25.587,14.918c-10.081,0.162-20.414-2.068-30.412-4.215c-19.644-4.218-38.198-8.202-53.389,5.402
				C58.172,117.953,56.852,118.42,55.537,118.42z"/>
		</g>
		<g>
			<path style="fill:#969AA4;" d="M180.141,173.928c-1.406,0-2.834-0.121-4.28-0.365c-9.68-1.626-18.644-8.673-22.837-17.953
				c-1.259-2.785-0.021-6.064,2.765-7.323c2.786-1.259,6.065-0.021,7.323,2.765c2.675,5.919,8.536,10.578,14.584,11.596
				c3.166,0.531,7.789,0.269,11.832-4.006c4.939-5.222,6.641-12.235,4.554-18.761c-1.965-6.142-6.859-10.403-13.426-11.694
				c-6.377-1.252-13.09,0.754-20.198,2.879c-2.944,0.88-5.987,1.79-9.047,2.466c-10.605,2.342-20.191,0.391-29.461-1.498
				c-2.924-0.595-5.948-1.211-8.936-1.673c-20.193-3.116-36.071-2.451-47.925,10.927c-2.028,2.288-5.527,2.5-7.814,0.472
				c-2.288-2.027-2.5-5.526-0.472-7.813c16.074-18.141,37.326-17.702,57.901-14.525c3.249,0.502,6.404,1.145,9.456,1.766
				c8.514,1.734,16.556,3.371,24.863,1.536c2.666-0.59,5.386-1.403,8.266-2.264c7.707-2.303,16.442-4.915,25.503-3.134
				c10.489,2.061,18.651,9.231,21.835,19.184c3.286,10.269,0.583,21.666-7.054,29.74
				C192.815,171.277,186.739,173.926,180.141,173.928z"/>
		</g>
		<g>
			<path style="fill:#969AA4;" d="M119.268,188.175c-3.811,0.002-7.609-0.768-11-2.355c-7.373-3.453-11.517-10.196-11.368-18.501
				c0.054-3.057,2.589-5.475,5.633-5.435c3.057,0.054,5.49,2.576,5.436,5.633c-0.071,3.963,1.563,6.67,4.995,8.276
				c4.963,2.324,12.238,1.416,16.219-2.024c2.826-2.442,3.578-5.693,2.299-9.938c-2.69-8.934-11.308-12.31-18.063-13.568
				c-15.203-2.834-34.795,2.717-41.921,11.877c-1.877,2.414-5.355,2.848-7.768,0.972c-2.413-1.878-2.848-5.354-0.971-7.769
				c9.658-12.417,33.294-19.575,52.688-15.964c13.823,2.577,23.282,10.127,26.635,21.26c2.523,8.378,0.459,16.218-5.662,21.508
				C131.858,186.088,125.547,188.175,119.268,188.175z"/>
		</g>
	</g>
</g>
</svg>
