<?xml version="1.0" encoding="iso-8859-1"?>
<!-- Generator: Adobe Illustrator 16.0.0, SVG Export Plug-In . SVG Version: 6.00 Build 0)  -->
<!DOCTYPE svg PUBLIC "-//W3C//DTD SVG 1.1//EN" "http://www.w3.org/Graphics/SVG/1.1/DTD/svg11.dtd">
<svg version="1.1" xmlns="http://www.w3.org/2000/svg" xmlns:xlink="http://www.w3.org/1999/xlink" x="0px" y="0px" width="256px"
	 height="256px" viewBox="0 0 256 256" style="enable-background:new 0 0 256 256;" xml:space="preserve">
<g id="bg_light" style="display:none;">
	<rect style="display:inline;fill:#0079C1;" width="256" height="256"/>
</g>
<g id="guides" style="display:none;">
	<g style="display:inline;">
		<g>
			<g>
				<line style="fill:none;stroke:#FFFFFF;stroke-width:0.25;stroke-miterlimit:10;" x1="40.5" y1="0" x2="40.5" y2="2"/>
				
					<line style="fill:none;stroke:#FFFFFF;stroke-width:0.25;stroke-miterlimit:10;stroke-dasharray:4,4;" x1="40.5" y1="6" x2="40.5" y2="252"/>
				<line style="fill:none;stroke:#FFFFFF;stroke-width:0.25;stroke-miterlimit:10;" x1="40.5" y1="254" x2="40.5" y2="256"/>
			</g>
		</g>
		<g>
			<g>
				<line style="fill:none;stroke:#FFFFFF;stroke-width:0.25;stroke-miterlimit:10;" x1="215.5" y1="0" x2="215.5" y2="2"/>
				
					<line style="fill:none;stroke:#FFFFFF;stroke-width:0.25;stroke-miterlimit:10;stroke-dasharray:4,4;" x1="215.5" y1="6" x2="215.5" y2="252"/>
				<line style="fill:none;stroke:#FFFFFF;stroke-width:0.25;stroke-miterlimit:10;" x1="215.5" y1="254" x2="215.5" y2="256"/>
			</g>
		</g>
		<g>
			<g>
				<line style="fill:none;stroke:#FFFFFF;stroke-width:0.25;stroke-miterlimit:10;" x1="256" y1="40.5" x2="254" y2="40.5"/>
				
					<line style="fill:none;stroke:#FFFFFF;stroke-width:0.25;stroke-miterlimit:10;stroke-dasharray:4,4;" x1="250" y1="40.5" x2="4" y2="40.5"/>
				<line style="fill:none;stroke:#FFFFFF;stroke-width:0.25;stroke-miterlimit:10;" x1="2" y1="40.5" x2="0" y2="40.5"/>
			</g>
		</g>
		<g>
			<g>
				<line style="fill:none;stroke:#FFFFFF;stroke-width:0.25;stroke-miterlimit:10;" x1="256" y1="215.5" x2="254" y2="215.5"/>
				
					<line style="fill:none;stroke:#FFFFFF;stroke-width:0.25;stroke-miterlimit:10;stroke-dasharray:4,4;" x1="250" y1="215.5" x2="4" y2="215.5"/>
				<line style="fill:none;stroke:#FFFFFF;stroke-width:0.25;stroke-miterlimit:10;" x1="2" y1="215.5" x2="0" y2="215.5"/>
			</g>
		</g>
	</g>
</g>
<g id="border">
	<rect style="opacity:0;fill:none;stroke:#231F20;stroke-width:0.1;stroke-miterlimit:10;" width="256" height="256"/>
</g>
<g id="icons">
	<g>
		<g>
			<g>
				<path style="fill:#F0C419;" d="M97.78,55.026c1.001,0,1.817-0.806,1.817-1.807V42.318c0-1.003-0.816-1.818-1.817-1.818
					c-0.999,0-1.818,0.815-1.818,1.818v10.901C95.962,54.22,96.781,55.026,97.78,55.026z"/>
				<path style="fill:#F0C419;" d="M57.818,94.987c0-1-0.806-1.818-1.808-1.818H45.111c-1.004,0-1.818,0.818-1.818,1.818
					c0,1.001,0.814,1.819,1.818,1.819h10.899C57.013,96.806,57.818,95.989,57.818,94.987z"/>
				<path style="fill:#F0C419;" d="M127.321,67.265c0.462,0,0.931-0.178,1.285-0.531l10.412-10.421c0.71-0.71,0.71-1.854,0-2.563
					c-0.709-0.71-1.854-0.71-2.562,0l-10.422,10.412c-0.71,0.709-0.71,1.862,0,2.573C126.391,67.087,126.852,67.265,127.321,67.265z
					"/>
				<path style="fill:#F0C419;" d="M69.526,123.241c-0.71-0.708-1.863-0.708-2.572,0l-10.411,10.422
					c-0.711,0.71-0.711,1.854,0,2.563c0.354,0.354,0.813,0.531,1.275,0.531c0.469,0,0.934-0.177,1.286-0.531l10.422-10.412
					C70.234,125.106,70.234,123.952,69.526,123.241z"/>
				<path style="fill:#F0C419;" d="M66.954,66.734c0.354,0.354,0.824,0.531,1.283,0.531c0.471,0,0.932-0.178,1.289-0.531
					c0.708-0.71,0.708-1.864,0-2.573L59.104,53.75c-0.71-0.71-1.854-0.71-2.562,0c-0.711,0.709-0.711,1.853,0,2.563L66.954,66.734z"
					/>
				<path style="fill:#F0C419;" d="M61.003,110.596c-0.399-0.923-1.466-1.349-2.386-0.958l-5.019,2.129
					c-0.923,0.389-1.35,1.452-0.959,2.377c0.293,0.69,0.968,1.108,1.676,1.108c0.231,0,0.47-0.045,0.702-0.143l5.02-2.127
					C60.957,112.591,61.396,111.518,61.003,110.596z"/>
				<path style="fill:#F0C419;" d="M53.314,78.98l5.056,2.041c0.221,0.097,0.452,0.131,0.674,0.131c0.726,0,1.401-0.426,1.687-1.136
					c0.381-0.93-0.074-1.986-1.006-2.358l-5.054-2.048c-0.93-0.373-1.986,0.08-2.358,1.011
					C51.941,77.543,52.383,78.608,53.314,78.98z"/>
				<path style="fill:#F0C419;" d="M79.787,57.244c0.293,0.692,0.967,1.107,1.674,1.107c0.232,0,0.479-0.043,0.712-0.141
					c0.92-0.399,1.348-1.464,0.956-2.385l-2.128-5.019c-0.39-0.923-1.454-1.358-2.378-0.958c-0.92,0.391-1.354,1.454-0.965,2.377
					L79.787,57.244z"/>
				<path style="fill:#F0C419;" d="M112.751,57.937c0.222,0.098,0.45,0.131,0.674,0.131c0.718,0,1.401-0.425,1.685-1.135
					l2.049-5.055c0.372-0.923-0.08-1.985-1.012-2.357c-0.923-0.381-1.985,0.07-2.357,1l-2.041,5.056
					C111.367,56.507,111.82,57.564,112.751,57.937z"/>
				<path style="fill:#F0C419;" d="M79.62,115.293c-5.574-4.987-9.084-12.234-9.084-20.306c0-15.049,12.195-27.243,27.244-27.243
					c7.21,0,13.758,2.803,18.632,7.373c3.201-1.204,6.605-1.987,10.148-2.279c-6.642-8.618-17.06-14.176-28.78-14.176
					c-20.061,0-36.324,16.265-36.324,36.325c0,10.832,4.746,20.551,12.267,27.206c0.667-1.036,1.385-2.04,2.166-3
					C77.027,117.79,78.281,116.489,79.62,115.293z"/>
				<path style="fill:#FFE001;" d="M70.536,94.987c0,8.072,3.51,15.318,9.084,20.306c3.554-3.167,7.745-5.571,12.273-7.012
					c0.916-15.212,10.855-28.023,24.519-33.164c-4.874-4.57-11.422-7.373-18.632-7.373C82.731,67.744,70.536,79.938,70.536,94.987z"
					/>
			</g>
			<g>
				<g>
					<path style="fill:#D5D6DB;" d="M96.553,112.135c-0.004-0.198-0.008-0.394-0.008-0.592c0-18.846,15.278-34.125,34.125-34.125
						c16.242,0,29.832,11.347,33.28,26.545c3.214-1.8,6.917-2.83,10.862-2.83c12.313,0,22.294,9.981,22.294,22.293
						c0,0.505-0.021,1.002-0.054,1.498c9.141,3.393,15.654,12.192,15.654,22.511c0,13.261-10.749,24.01-24.01,24.01h-85.625
						c-16.576,0-30.012-13.437-30.012-30.011C73.061,127.1,83.111,115.114,96.553,112.135L96.553,112.135z M96.553,112.135"/>
				</g>
			</g>
		</g>
		<g>
			<g>
				<path style="fill:#5AC8FA;" d="M91.175,201.117c-0.792,0-1.592-0.235-2.291-0.725c-1.812-1.27-2.253-3.768-0.985-5.58
					l10.622-15.639c1.27-1.812,3.768-2.252,5.578-0.985c1.812,1.27,2.254,3.768,0.984,5.58l-10.622,15.641
					C93.681,200.522,92.438,201.117,91.175,201.117z"/>
			</g>
			<g>
				<path style="fill:#5AC8FA;" d="M178.056,204.172c-0.792,0-1.593-0.235-2.291-0.725c-1.813-1.27-2.253-3.769-0.984-5.579
					l12.975-18.694c1.27-1.812,3.77-2.252,5.578-0.985c1.812,1.27,2.254,3.768,0.985,5.58l-12.977,18.695
					C180.564,203.576,179.319,204.172,178.056,204.172z"/>
			</g>
			<g>
				<path style="fill:#5AC8FA;" d="M112.751,215.5c-0.792,0-1.594-0.235-2.293-0.726c-1.812-1.269-2.252-3.765-0.982-5.577
					L121.971,191c1.268-1.813,3.769-2.253,5.578-0.985c1.812,1.27,2.252,3.768,0.983,5.579l-12.494,18.197
					C115.255,214.903,114.015,215.5,112.751,215.5z"/>
			</g>
			<g>
				<path style="fill:#5AC8FA;" d="M145.836,209.448c-0.796,0-1.597-0.234-2.296-0.725c-1.811-1.27-2.25-3.767-0.983-5.577
					l11.017-15.711c1.27-1.812,3.766-2.251,5.578-0.982c1.812,1.268,2.255,3.766,0.984,5.577l-11.017,15.709
					C148.34,208.853,147.099,209.448,145.836,209.448z"/>
			</g>
		</g>
	</g>
</g>
</svg>
