<?xml version="1.0" encoding="iso-8859-1"?>
<!-- Generator: Adobe Illustrator 16.0.0, SVG Export Plug-In . SVG Version: 6.00 Build 0)  -->
<!DOCTYPE svg PUBLIC "-//W3C//DTD SVG 1.1//EN" "http://www.w3.org/Graphics/SVG/1.1/DTD/svg11.dtd">
<svg version="1.1" xmlns="http://www.w3.org/2000/svg" xmlns:xlink="http://www.w3.org/1999/xlink" x="0px" y="0px" width="256px"
	 height="256px" viewBox="0 0 256 256" style="enable-background:new 0 0 256 256;" xml:space="preserve">
<g id="bg_light" style="display:none;">
	<rect style="display:inline;fill:#0079C1;" width="256" height="256"/>
</g>
<g id="guides" style="display:none;">
	<g style="display:inline;">
		<g>
			<g>
				<line style="fill:none;stroke:#FFFFFF;stroke-width:0.25;stroke-miterlimit:10;" x1="40.5" y1="0" x2="40.5" y2="2"/>
				
					<line style="fill:none;stroke:#FFFFFF;stroke-width:0.25;stroke-miterlimit:10;stroke-dasharray:4,4;" x1="40.5" y1="6" x2="40.5" y2="252"/>
				<line style="fill:none;stroke:#FFFFFF;stroke-width:0.25;stroke-miterlimit:10;" x1="40.5" y1="254" x2="40.5" y2="256"/>
			</g>
		</g>
		<g>
			<g>
				<line style="fill:none;stroke:#FFFFFF;stroke-width:0.25;stroke-miterlimit:10;" x1="215.5" y1="0" x2="215.5" y2="2"/>
				
					<line style="fill:none;stroke:#FFFFFF;stroke-width:0.25;stroke-miterlimit:10;stroke-dasharray:4,4;" x1="215.5" y1="6" x2="215.5" y2="252"/>
				<line style="fill:none;stroke:#FFFFFF;stroke-width:0.25;stroke-miterlimit:10;" x1="215.5" y1="254" x2="215.5" y2="256"/>
			</g>
		</g>
		<g>
			<g>
				<line style="fill:none;stroke:#FFFFFF;stroke-width:0.25;stroke-miterlimit:10;" x1="256" y1="40.5" x2="254" y2="40.5"/>
				
					<line style="fill:none;stroke:#FFFFFF;stroke-width:0.25;stroke-miterlimit:10;stroke-dasharray:4,4;" x1="250" y1="40.5" x2="4" y2="40.5"/>
				<line style="fill:none;stroke:#FFFFFF;stroke-width:0.25;stroke-miterlimit:10;" x1="2" y1="40.5" x2="0" y2="40.5"/>
			</g>
		</g>
		<g>
			<g>
				<line style="fill:none;stroke:#FFFFFF;stroke-width:0.25;stroke-miterlimit:10;" x1="256" y1="215.5" x2="254" y2="215.5"/>
				
					<line style="fill:none;stroke:#FFFFFF;stroke-width:0.25;stroke-miterlimit:10;stroke-dasharray:4,4;" x1="250" y1="215.5" x2="4" y2="215.5"/>
				<line style="fill:none;stroke:#FFFFFF;stroke-width:0.25;stroke-miterlimit:10;" x1="2" y1="215.5" x2="0" y2="215.5"/>
			</g>
		</g>
	</g>
</g>
<g id="border">
	<rect style="opacity:0;fill:none;stroke:#231F20;stroke-width:0.1;stroke-miterlimit:10;" width="256" height="256"/>
</g>
<g id="icons">
	<g>
		<path style="fill:#F0C419;" d="M128,122.945c-1.144,0-2.075,0.933-2.075,2.078v12.435c0,1.142,0.932,2.059,2.075,2.059
			s2.075-0.917,2.075-2.059v-12.435C130.075,123.878,129.144,122.945,128,122.945L128,122.945z M128,122.945"/>
		<path style="fill:#F0C419;" d="M175.053,138.063c-0.809-0.812-2.115-0.812-2.924,0l-11.891,11.882
			c-0.809,0.808-0.809,2.123,0,2.936c0.405,0.401,0.932,0.603,1.467,0.603c0.526,0,1.063-0.201,1.47-0.603l11.878-11.889
			C175.862,140.178,175.862,138.871,175.053,138.063L175.053,138.063z M175.053,138.063"/>
		<path style="fill:#F0C419;" d="M83.871,138.063c-0.808-0.812-2.115-0.812-2.924,0c-0.81,0.808-0.81,2.115,0,2.929l11.878,11.889
			c0.407,0.401,0.943,0.603,1.47,0.603c0.535,0,1.062-0.201,1.467-0.603c0.809-0.813,0.809-2.127,0-2.936L83.871,138.063z
			 M83.871,138.063"/>
		<path style="fill:#F0C419;" d="M179.506,163.252c-0.445-1.056-1.669-1.539-2.713-1.092l-5.728,2.426
			c-1.052,0.443-1.547,1.661-1.104,2.711c0.347,0.792,1.104,1.264,1.914,1.264c0.273,0,0.546-0.047,0.809-0.157l5.728-2.432
			C179.465,165.523,179.95,164.305,179.506,163.252L179.506,163.252z M179.506,163.252"/>
		<path style="fill:#F0C419;" d="M84.58,165.345l-5.769-2.334c-1.052-0.424-2.265,0.087-2.691,1.15
			c-0.435,1.063,0.081,2.266,1.144,2.692l5.769,2.329c0.253,0.112,0.516,0.149,0.769,0.149c0.83,0,1.599-0.482,1.922-1.294
			C86.158,166.975,85.643,165.767,84.58,165.345L84.58,165.345z M84.58,165.345"/>
		<path style="fill:#F0C419;" d="M108.855,134.703c-0.445-1.048-1.67-1.547-2.722-1.092c-1.053,0.445-1.538,1.661-1.095,2.712
			l2.43,5.728c0.335,0.793,1.103,1.266,1.902,1.266c0.273,0,0.547-0.05,0.81-0.159c1.053-0.46,1.548-1.674,1.104-2.727
			L108.855,134.703z M108.855,134.703"/>
		<path style="fill:#F0C419;" d="M148.956,133.241c-1.053-0.427-2.267,0.081-2.691,1.139l-2.326,5.77
			c-0.436,1.065,0.08,2.268,1.143,2.695c0.252,0.109,0.515,0.147,0.77,0.147c0.82,0,1.598-0.483,1.922-1.294l2.338-5.765
			C150.534,134.873,150.018,133.666,148.956,133.241L148.956,133.241z M148.956,133.241"/>
		<g>
			<path style="fill:#FFFFFF;" d="M210.727,192.587H45.273c-2.637,0-4.773-2.137-4.773-4.773c0-2.636,2.137-4.772,4.773-4.772
				h165.453c2.637,0,4.773,2.137,4.773,4.772C215.5,190.45,213.363,192.587,210.727,192.587z"/>
		</g>
		<g>
			<path style="fill:#F0C419;" d="M128,154.03c16.473,0,29.939,12.808,31.008,29.011h10.387
				c-1.081-21.926-19.202-39.373-41.395-39.373s-40.313,17.447-41.395,39.373h10.387C98.061,166.838,111.525,154.03,128,154.03z"/>
			<path style="fill:#FFE001;" d="M128,154.03c-16.475,0-29.939,12.808-31.008,29.011h62.016
				C157.939,166.838,144.473,154.03,128,154.03z"/>
		</g>
		<path style="fill:#FFFFFF;" d="M144.744,78.292l-13.561-13.56c-0.21-0.209-0.441-0.397-0.688-0.562
			c-0.108-0.073-0.227-0.123-0.34-0.185c-0.144-0.079-0.282-0.166-0.435-0.229c-0.146-0.061-0.299-0.096-0.45-0.14
			c-0.13-0.039-0.255-0.088-0.39-0.115c-0.282-0.056-0.569-0.085-0.856-0.086c-0.009,0-0.016-0.002-0.024-0.002
			c-0.004,0-0.007,0.001-0.011,0.001c-0.292,0-0.583,0.031-0.871,0.088c-0.132,0.026-0.253,0.076-0.381,0.113
			c-0.153,0.045-0.31,0.081-0.459,0.143c-0.149,0.062-0.284,0.147-0.425,0.224c-0.117,0.063-0.238,0.115-0.35,0.189
			c-0.247,0.166-0.478,0.353-0.688,0.562l-13.561,13.56c-1.758,1.757-1.758,4.606,0,6.364c0.878,0.879,2.03,1.318,3.182,1.318
			s2.304-0.439,3.182-1.318l5.881-5.88v24.755c0,2.485,2.015,4.5,4.5,4.5s4.5-2.015,4.5-4.5V78.776l5.881,5.88
			c0.879,0.878,2.03,1.318,3.182,1.318s2.304-0.439,3.182-1.318C146.502,82.898,146.502,80.049,144.744,78.292z"/>
	</g>
</g>
</svg>
