<?xml version="1.0" encoding="iso-8859-1"?>
<!-- Generator: Adobe Illustrator 16.0.0, SVG Export Plug-In . SVG Version: 6.00 Build 0)  -->
<!DOCTYPE svg PUBLIC "-//W3C//DTD SVG 1.1//EN" "http://www.w3.org/Graphics/SVG/1.1/DTD/svg11.dtd">
<svg version="1.1" xmlns="http://www.w3.org/2000/svg" xmlns:xlink="http://www.w3.org/1999/xlink" x="0px" y="0px" width="256px"
	 height="256px" viewBox="0 0 256 256" style="enable-background:new 0 0 256 256;" xml:space="preserve">
<g id="bg_light" style="display:none;">
	<rect style="display:inline;fill:#0079C1;" width="256" height="256"/>
</g>
<g id="guides" style="display:none;">
	<g style="display:inline;">
		<g>
			<g>
				<line style="fill:none;stroke:#FFFFFF;stroke-width:0.25;stroke-miterlimit:10;" x1="40.5" y1="0" x2="40.5" y2="2"/>
				
					<line style="fill:none;stroke:#FFFFFF;stroke-width:0.25;stroke-miterlimit:10;stroke-dasharray:4,4;" x1="40.5" y1="6" x2="40.5" y2="252"/>
				<line style="fill:none;stroke:#FFFFFF;stroke-width:0.25;stroke-miterlimit:10;" x1="40.5" y1="254" x2="40.5" y2="256"/>
			</g>
		</g>
		<g>
			<g>
				<line style="fill:none;stroke:#FFFFFF;stroke-width:0.25;stroke-miterlimit:10;" x1="215.5" y1="0" x2="215.5" y2="2"/>
				
					<line style="fill:none;stroke:#FFFFFF;stroke-width:0.25;stroke-miterlimit:10;stroke-dasharray:4,4;" x1="215.5" y1="6" x2="215.5" y2="252"/>
				<line style="fill:none;stroke:#FFFFFF;stroke-width:0.25;stroke-miterlimit:10;" x1="215.5" y1="254" x2="215.5" y2="256"/>
			</g>
		</g>
		<g>
			<g>
				<line style="fill:none;stroke:#FFFFFF;stroke-width:0.25;stroke-miterlimit:10;" x1="256" y1="40.5" x2="254" y2="40.5"/>
				
					<line style="fill:none;stroke:#FFFFFF;stroke-width:0.25;stroke-miterlimit:10;stroke-dasharray:4,4;" x1="250" y1="40.5" x2="4" y2="40.5"/>
				<line style="fill:none;stroke:#FFFFFF;stroke-width:0.25;stroke-miterlimit:10;" x1="2" y1="40.5" x2="0" y2="40.5"/>
			</g>
		</g>
		<g>
			<g>
				<line style="fill:none;stroke:#FFFFFF;stroke-width:0.25;stroke-miterlimit:10;" x1="256" y1="215.5" x2="254" y2="215.5"/>
				
					<line style="fill:none;stroke:#FFFFFF;stroke-width:0.25;stroke-miterlimit:10;stroke-dasharray:4,4;" x1="250" y1="215.5" x2="4" y2="215.5"/>
				<line style="fill:none;stroke:#FFFFFF;stroke-width:0.25;stroke-miterlimit:10;" x1="2" y1="215.5" x2="0" y2="215.5"/>
			</g>
		</g>
	</g>
</g>
<g id="border">
	<rect style="opacity:0;fill:none;stroke:#231F20;stroke-width:0.1;stroke-miterlimit:10;" width="256" height="256"/>
</g>
<g id="icons">
	<g>
		<g>
			<path style="fill:#F0C419;" d="M117.565,71.08c-0.728,0-1.322,0.593-1.322,1.322v7.928c0,0.729,0.595,1.314,1.322,1.314
				s1.322-0.585,1.322-1.314v-7.928C118.887,71.673,118.292,71.08,117.565,71.08L117.565,71.08z M117.565,71.08"/>
			<path style="fill:#F0C419;" d="M117.565,139.773c-0.728,0-1.322,0.586-1.322,1.315v7.927c0,0.73,0.595,1.323,1.322,1.323
				s1.322-0.593,1.322-1.323v-7.927C118.887,140.36,118.292,139.773,117.565,139.773L117.565,139.773z M117.565,139.773"/>
			<path style="fill:#F0C419;" d="M88.5,110.708c0-0.728-0.587-1.321-1.314-1.321h-7.929c-0.729,0-1.322,0.594-1.322,1.321
				c0,0.729,0.593,1.323,1.322,1.323h7.929C87.913,112.031,88.5,111.438,88.5,110.708L88.5,110.708z M88.5,110.708"/>
			<path style="fill:#F0C419;" d="M95.144,131.259l-7.572,7.58c-0.517,0.515-0.517,1.349,0,1.864
				c0.258,0.257,0.592,0.386,0.929,0.386c0.341,0,0.679-0.129,0.936-0.386l7.58-7.573c0.514-0.515,0.514-1.355,0-1.871
				C96.499,130.743,95.66,130.743,95.144,131.259L95.144,131.259z M95.144,131.259"/>
			<path style="fill:#F0C419;" d="M89.436,80.716c-0.518-0.516-1.349-0.516-1.865,0c-0.517,0.515-0.517,1.347,0,1.864l7.572,7.58
				c0.258,0.257,0.6,0.386,0.935,0.386c0.341,0,0.676-0.128,0.938-0.386c0.514-0.517,0.514-1.355,0-1.872L89.436,80.716z
				 M89.436,80.716"/>
			<path style="fill:#F0C419;" d="M90.816,122.062c-0.29-0.671-1.065-0.98-1.735-0.697l-3.651,1.548
				c-0.67,0.283-0.981,1.058-0.697,1.729c0.214,0.503,0.704,0.806,1.218,0.806c0.169,0,0.341-0.031,0.511-0.103l3.65-1.547
				C90.783,123.513,91.101,122.731,90.816,122.062L90.816,122.062z M90.816,122.062"/>
			<path style="fill:#F0C419;" d="M85.224,99.067l3.678,1.484c0.16,0.07,0.329,0.096,0.49,0.096c0.529,0,1.02-0.31,1.226-0.827
				c0.277-0.676-0.055-1.444-0.732-1.714l-3.674-1.491c-0.677-0.27-1.445,0.059-1.715,0.736
				C84.225,98.021,84.547,98.796,85.224,99.067L85.224,99.067z M85.224,99.067"/>
			<path style="fill:#F0C419;" d="M130.651,138.161c-0.284-0.671-1.064-0.988-1.735-0.704c-0.67,0.289-0.98,1.064-0.696,1.736
				l1.548,3.649c0.212,0.504,0.703,0.8,1.219,0.8c0.167,0,0.341-0.032,0.509-0.103c0.671-0.283,0.987-1.057,0.704-1.729
				L130.651,138.161z M130.651,138.161"/>
			<path style="fill:#F0C419;" d="M105.695,84.063c0.17,0,0.348-0.03,0.518-0.102c0.67-0.291,0.98-1.065,0.696-1.735l-1.549-3.651
				c-0.281-0.67-1.057-0.988-1.729-0.697c-0.67,0.284-0.985,1.058-0.701,1.729l1.546,3.65
				C104.69,83.762,105.18,84.063,105.695,84.063L105.695,84.063z M105.695,84.063"/>
			<path style="fill:#F0C419;" d="M106.676,137.657c-0.671-0.271-1.446,0.053-1.715,0.73l-1.49,3.675
				c-0.271,0.671,0.058,1.445,0.735,1.715c0.161,0.065,0.328,0.098,0.491,0.098c0.521,0,1.018-0.31,1.225-0.826l1.485-3.677
				C107.684,138.696,107.353,137.928,106.676,137.657L106.676,137.657z M106.676,137.657"/>
			<path style="fill:#F0C419;" d="M128.942,83.857c0.521,0,1.019-0.31,1.225-0.826l1.49-3.675c0.271-0.672-0.058-1.445-0.735-1.716
				c-0.671-0.277-1.445,0.051-1.715,0.729l-1.485,3.677c-0.275,0.677,0.051,1.444,0.73,1.716
				C128.614,83.833,128.78,83.857,128.942,83.857L128.942,83.857z M128.942,83.857"/>
			<g>
				<path style="fill:#EDE21B;" d="M132.65,123.55V97.868c-3.634-4.265-9.042-6.974-15.085-6.974
					c-10.945,0-19.815,8.869-19.815,19.814c0,10.946,8.87,19.815,19.815,19.815C123.609,130.523,129.017,127.816,132.65,123.55z"/>
			</g>
			<g>
				<path style="fill:#F0C419;" d="M132.65,89.026c-4.279-2.983-9.476-4.736-15.085-4.736c-14.591,0-26.42,11.83-26.42,26.418
					c0,14.591,11.829,26.42,26.42,26.42c5.61,0,10.807-1.754,15.085-4.737V89.026z"/>
			</g>
			<g>
				<path style="fill:#FFE001;" d="M132.65,123.55V97.868c-3.634-4.265-9.042-6.974-15.085-6.974
					c-10.945,0-19.815,8.869-19.815,19.814c0,10.946,8.87,19.815,19.815,19.815C123.609,130.523,129.017,127.816,132.65,123.55z"/>
			</g>
		</g>
		<path style="fill:#FFFFFF;" d="M152.47,192c-0.967,0-1.947-0.053-2.926-0.165c-11.699-1.292-21.167-10.731-22.501-22.417
			c-1.072-9.356,2.928-18.365,10.491-23.794V78.938c0-8.239,6.7-14.938,14.937-14.938c8.23,0,14.928,6.7,14.928,14.938v66.685
			c6.697,4.814,10.667,12.491,10.667,20.771c0,6.846-2.655,13.273-7.5,18.107C165.731,189.333,159.305,192,152.47,192L152.47,192z
			 M152.47,68.272c-5.886,0-10.667,4.781-10.667,10.666v68.958l-0.967,0.635c-6.821,4.459-10.489,12.271-9.563,20.397
			c1.125,9.739,9.01,17.591,18.749,18.667c6.532,0.737,12.928-1.513,17.532-6.104c4.031-4.033,6.25-9.397,6.25-15.097
			c0-7.219-3.625-13.893-9.708-17.863l-0.958-0.624V78.938C163.138,73.054,158.346,68.272,152.47,68.272L152.47,68.272z
			 M152.47,68.272"/>
		<path style="fill:#FF3A2F;" d="M156.979,151.96l-0.001-72.613c0-2.489-2.018-4.507-4.507-4.507c-2.489,0-4.507,2.019-4.507,4.507
			v72.613c-6.302,1.927-10.887,7.789-10.887,14.722c0,8.502,6.893,15.395,15.394,15.395c8.502,0,15.395-6.892,15.395-15.395
			C167.865,159.749,163.28,153.887,156.979,151.96z"/>
	</g>
</g>
</svg>
