<?xml version="1.0" encoding="iso-8859-1"?>
<!-- Generator: Adobe Illustrator 16.0.0, SVG Export Plug-In . SVG Version: 6.00 Build 0)  -->
<!DOCTYPE svg PUBLIC "-//W3C//DTD SVG 1.1//EN" "http://www.w3.org/Graphics/SVG/1.1/DTD/svg11.dtd">
<svg version="1.1" xmlns="http://www.w3.org/2000/svg" xmlns:xlink="http://www.w3.org/1999/xlink" x="0px" y="0px" width="256px"
	 height="256px" viewBox="0 0 256 256" style="enable-background:new 0 0 256 256;" xml:space="preserve">
<g id="bg_light" style="display:none;">
	<rect style="display:inline;fill:#0079C1;" width="256" height="256"/>
</g>
<g id="guides" style="display:none;">
	<g style="display:inline;">
		<g>
			<g>
				<line style="fill:none;stroke:#FFFFFF;stroke-width:0.25;stroke-miterlimit:10;" x1="40.5" y1="0" x2="40.5" y2="2"/>
				
					<line style="fill:none;stroke:#FFFFFF;stroke-width:0.25;stroke-miterlimit:10;stroke-dasharray:4,4;" x1="40.5" y1="6" x2="40.5" y2="252"/>
				<line style="fill:none;stroke:#FFFFFF;stroke-width:0.25;stroke-miterlimit:10;" x1="40.5" y1="254" x2="40.5" y2="256"/>
			</g>
		</g>
		<g>
			<g>
				<line style="fill:none;stroke:#FFFFFF;stroke-width:0.25;stroke-miterlimit:10;" x1="215.5" y1="0" x2="215.5" y2="2"/>
				
					<line style="fill:none;stroke:#FFFFFF;stroke-width:0.25;stroke-miterlimit:10;stroke-dasharray:4,4;" x1="215.5" y1="6" x2="215.5" y2="252"/>
				<line style="fill:none;stroke:#FFFFFF;stroke-width:0.25;stroke-miterlimit:10;" x1="215.5" y1="254" x2="215.5" y2="256"/>
			</g>
		</g>
		<g>
			<g>
				<line style="fill:none;stroke:#FFFFFF;stroke-width:0.25;stroke-miterlimit:10;" x1="256" y1="40.5" x2="254" y2="40.5"/>
				
					<line style="fill:none;stroke:#FFFFFF;stroke-width:0.25;stroke-miterlimit:10;stroke-dasharray:4,4;" x1="250" y1="40.5" x2="4" y2="40.5"/>
				<line style="fill:none;stroke:#FFFFFF;stroke-width:0.25;stroke-miterlimit:10;" x1="2" y1="40.5" x2="0" y2="40.5"/>
			</g>
		</g>
		<g>
			<g>
				<line style="fill:none;stroke:#FFFFFF;stroke-width:0.25;stroke-miterlimit:10;" x1="256" y1="215.5" x2="254" y2="215.5"/>
				
					<line style="fill:none;stroke:#FFFFFF;stroke-width:0.25;stroke-miterlimit:10;stroke-dasharray:4,4;" x1="250" y1="215.5" x2="4" y2="215.5"/>
				<line style="fill:none;stroke:#FFFFFF;stroke-width:0.25;stroke-miterlimit:10;" x1="2" y1="215.5" x2="0" y2="215.5"/>
			</g>
		</g>
	</g>
</g>
<g id="border">
	<rect style="opacity:0;fill:none;stroke:#231F20;stroke-width:0.1;stroke-miterlimit:10;" width="256" height="256"/>
</g>
<g id="icons">
	<g>
		<g>
			<path style="fill:#D5D6DB;" d="M76.243,89.928c-0.005-0.221-0.008-0.439-0.008-0.662c0-21.052,17.067-38.121,38.12-38.121
				c18.145,0,33.326,12.675,37.179,29.653c3.591-2.011,7.727-3.161,12.137-3.161c13.751,0,24.903,11.15,24.903,24.903
				c0,0.563-0.026,1.119-0.063,1.673C198.722,108.005,206,117.833,206,129.363c0,14.813-12.007,26.819-26.82,26.819H83.525
				C65.009,156.183,50,141.174,50,122.657C50,106.644,61.228,93.255,76.243,89.928L76.243,89.928z M76.243,89.928"/>
		</g>
		<g>
			<path style="fill:#5AC8FA;" d="M75.647,181.103c-1.097,0-2.203-0.326-3.169-1.001c-2.504-1.753-3.112-5.204-1.359-7.708
				l4.468-6.38c1.753-2.504,5.203-3.114,7.707-1.359c2.504,1.753,3.112,5.204,1.359,7.708l-4.468,6.379
				C79.108,180.279,77.391,181.103,75.647,181.103z"/>
		</g>
		<g>
			<path style="fill:#5AC8FA;" d="M105.162,178.643c-1.096,0-2.203-0.326-3.169-1.002c-2.504-1.753-3.112-5.204-1.359-7.708
				l4.468-6.38c1.753-2.504,5.203-3.114,7.707-1.359c2.504,1.753,3.113,5.204,1.359,7.708l-4.468,6.379
				C108.624,177.819,106.907,178.643,105.162,178.643z"/>
		</g>
		<g>
			<path style="fill:#5AC8FA;" d="M117.46,202.009c-1.096,0-2.203-0.326-3.169-1.002c-2.504-1.753-3.112-5.204-1.359-7.708
				l4.467-6.38c1.753-2.504,5.204-3.113,7.708-1.359c2.504,1.753,3.112,5.204,1.359,7.708l-4.468,6.379
				C120.921,201.185,119.205,202.009,117.46,202.009z"/>
		</g>
		<g>
			<path style="fill:#5AC8FA;" d="M141.032,186.431c-1.096,0-2.203-0.324-3.169-1.001c-2.504-1.752-3.112-5.204-1.359-7.707
				l4.468-6.381c1.753-2.503,5.203-3.112,7.708-1.358c2.504,1.752,3.112,5.204,1.359,7.707l-4.468,6.381
				C144.493,185.608,142.776,186.431,141.032,186.431z"/>
		</g>
		<g>
			<path style="fill:#5AC8FA;" d="M164.168,182.333c-1.097,0-2.204-0.326-3.169-1.002c-2.504-1.753-3.112-5.204-1.359-7.708
				l4.467-6.38c1.753-2.504,5.203-3.113,7.708-1.359c2.504,1.753,3.112,5.204,1.359,7.708l-4.468,6.379
				C167.629,181.508,165.913,182.333,164.168,182.333z"/>
		</g>
		<g>
			<path style="fill:#5AC8FA;" d="M172.957,204.854c-1.096,0-2.203-0.326-3.169-1.002c-2.504-1.753-3.112-5.204-1.359-7.708
				l4.468-6.38c1.753-2.505,5.203-3.113,7.707-1.359s3.113,5.204,1.359,7.708l-4.468,6.379
				C176.418,204.03,174.701,204.854,172.957,204.854z"/>
		</g>
		<g>
			<path style="fill:#5AC8FA;" d="M92.455,200.779c-1.097,0-2.204-0.325-3.17-1.001c-2.504-1.753-3.112-5.204-1.359-7.708
				l4.468-6.379c1.753-2.505,5.203-3.113,7.707-1.36c2.504,1.753,3.112,5.204,1.359,7.708l-4.467,6.379
				C95.916,199.956,94.199,200.779,92.455,200.779z"/>
		</g>
	</g>
</g>
</svg>
