<?xml version="1.0" encoding="iso-8859-1"?>
<!-- Generator: Adobe Illustrator 16.0.0, SVG Export Plug-In . SVG Version: 6.00 Build 0)  -->
<!DOCTYPE svg PUBLIC "-//W3C//DTD SVG 1.1//EN" "http://www.w3.org/Graphics/SVG/1.1/DTD/svg11.dtd">
<svg version="1.1" xmlns="http://www.w3.org/2000/svg" xmlns:xlink="http://www.w3.org/1999/xlink" x="0px" y="0px" width="256px"
	 height="256px" viewBox="0 0 256 256" style="enable-background:new 0 0 256 256;" xml:space="preserve">
<g id="bg_light" style="display:none;">
	<rect style="display:inline;fill:#0079C1;" width="256" height="256"/>
</g>
<g id="guides" style="display:none;">
	<g style="display:inline;">
		<g>
			<g>
				<line style="fill:none;stroke:#FFFFFF;stroke-width:0.25;stroke-miterlimit:10;" x1="40.5" y1="0" x2="40.5" y2="2"/>
				
					<line style="fill:none;stroke:#FFFFFF;stroke-width:0.25;stroke-miterlimit:10;stroke-dasharray:4,4;" x1="40.5" y1="6" x2="40.5" y2="252"/>
				<line style="fill:none;stroke:#FFFFFF;stroke-width:0.25;stroke-miterlimit:10;" x1="40.5" y1="254" x2="40.5" y2="256"/>
			</g>
		</g>
		<g>
			<g>
				<line style="fill:none;stroke:#FFFFFF;stroke-width:0.25;stroke-miterlimit:10;" x1="215.5" y1="0" x2="215.5" y2="2"/>
				
					<line style="fill:none;stroke:#FFFFFF;stroke-width:0.25;stroke-miterlimit:10;stroke-dasharray:4,4;" x1="215.5" y1="6" x2="215.5" y2="252"/>
				<line style="fill:none;stroke:#FFFFFF;stroke-width:0.25;stroke-miterlimit:10;" x1="215.5" y1="254" x2="215.5" y2="256"/>
			</g>
		</g>
		<g>
			<g>
				<line style="fill:none;stroke:#FFFFFF;stroke-width:0.25;stroke-miterlimit:10;" x1="256" y1="40.5" x2="254" y2="40.5"/>
				
					<line style="fill:none;stroke:#FFFFFF;stroke-width:0.25;stroke-miterlimit:10;stroke-dasharray:4,4;" x1="250" y1="40.5" x2="4" y2="40.5"/>
				<line style="fill:none;stroke:#FFFFFF;stroke-width:0.25;stroke-miterlimit:10;" x1="2" y1="40.5" x2="0" y2="40.5"/>
			</g>
		</g>
		<g>
			<g>
				<line style="fill:none;stroke:#FFFFFF;stroke-width:0.25;stroke-miterlimit:10;" x1="256" y1="215.5" x2="254" y2="215.5"/>
				
					<line style="fill:none;stroke:#FFFFFF;stroke-width:0.25;stroke-miterlimit:10;stroke-dasharray:4,4;" x1="250" y1="215.5" x2="4" y2="215.5"/>
				<line style="fill:none;stroke:#FFFFFF;stroke-width:0.25;stroke-miterlimit:10;" x1="2" y1="215.5" x2="0" y2="215.5"/>
			</g>
		</g>
	</g>
</g>
<g id="border">
	<rect style="opacity:0;fill:none;stroke:#231F20;stroke-width:0.1;stroke-miterlimit:10;" width="256" height="256"/>
</g>
<g id="icons">
	<g>
		<g>
			<path style="fill:#D5D6DB;" d="M112.841,157.771h-2.685l-4.113,4.112c-0.673,0.679-1.549,1.145-2.488,1.345h3.83L112.841,157.771
				z"/>
			<path style="fill:#D5D6DB;" d="M139.439,157.771h-2.688l5.458,5.457h3.82c-0.934-0.198-1.792-0.658-2.483-1.352L139.439,157.771z
				"/>
			<path style="fill:#D5D6DB;" d="M99.032,161.869c-0.742-0.737-1.223-1.687-1.383-2.718l-2.737,2.732
				c-0.685,0.688-1.54,1.146-2.472,1.345h9.092C100.591,163.026,99.711,162.559,99.032,161.869z"/>
			<path style="fill:#969AA4;" d="M172.965,121.715c0.03-0.441,0.05-0.886,0.05-1.332c0-10.99-8.908-19.896-19.892-19.896
				c-3.523,0-6.828,0.921-9.695,2.526c-3.076-13.563-15.203-23.688-29.696-23.688c-16.814,0-30.448,13.633-30.448,30.451
				c0,0.175,0.002,0.353,0.007,0.525c-11.994,2.66-20.962,13.355-20.962,26.146c0,14.791,11.989,26.781,26.779,26.781h1.286
				c-0.937-0.198-1.797-0.661-2.488-1.356c-1.424-1.425-1.792-3.519-1.101-5.295c-1.059-0.91-1.731-2.257-1.731-3.758
				c0-1.505,0.674-2.854,1.735-3.761c-0.691-1.776-0.323-3.869,1.104-5.301c0.942-0.94,2.183-1.454,3.504-1.454
				c1.319,0,2.561,0.516,3.495,1.449l2.737,2.735c0.16-1.031,0.641-1.984,1.395-2.735c0.932-0.933,2.176-1.449,3.499-1.449
				c1.323,0,2.568,0.517,3.502,1.45l4.112,4.113h2.688l-8.179-8.182h-6.292c-2.73,0-4.954-2.225-4.954-4.955
				c0-1.734,0.901-3.265,2.261-4.147c-0.564-0.818-0.869-1.787-0.869-2.803c0-1.322,0.517-2.567,1.456-3.503
				c0.927-0.929,2.169-1.445,3.492-1.445c1.015,0,1.985,0.304,2.803,0.869c0.883-1.359,2.413-2.262,4.148-2.262
				c2.731,0,4.953,2.223,4.953,4.953v6.294l8.182,8.178v-2.688l-4.114-4.112c-1.929-1.932-1.929-5.072,0-7.004
				c0.754-0.751,1.706-1.23,2.734-1.391l-2.735-2.737c-1.925-1.925-1.926-5.063-0.001-6.991c0.945-0.941,2.186-1.451,3.503-1.451
				c0.627,0,1.24,0.113,1.806,0.337c0.91-1.062,2.258-1.731,3.759-1.731s2.852,0.67,3.759,1.729
				c0.567-0.224,1.176-0.335,1.803-0.335c1.322,0,2.564,0.512,3.499,1.443c1.933,1.937,1.932,5.074,0.003,7.002l-2.731,2.734
				c1.031,0.16,1.982,0.642,2.732,1.392c0.935,0.936,1.45,2.178,1.45,3.501c0,1.324-0.515,2.566-1.451,3.504l-4.11,4.11v2.686
				l8.173-8.174v-6.295c0-2.73,2.221-4.953,4.952-4.953c1.738,0,3.27,0.901,4.154,2.259c0.817-0.563,1.785-0.866,2.801-0.866
				c1.324,0,2.567,0.517,3.503,1.455c1.709,1.701,1.904,4.367,0.58,6.296c1.36,0.883,2.261,2.412,2.261,4.147
				c0,2.73-2.222,4.955-4.953,4.955h-6.293l-8.182,8.182h2.691l4.113-4.113c0.938-0.935,2.179-1.45,3.5-1.45
				c1.319,0,2.561,0.516,3.497,1.447c0.772,0.773,1.235,1.738,1.389,2.743l2.74-2.74c0.936-0.935,2.18-1.45,3.502-1.45
				s2.564,0.516,3.499,1.447c1.433,1.434,1.803,3.531,1.112,5.308c1.06,0.907,1.733,2.256,1.733,3.761
				c0,1.499-0.671,2.847-1.729,3.757c0.222,0.567,0.337,1.179,0.337,1.804c0,1.324-0.515,2.569-1.452,3.504
				c-0.678,0.68-1.552,1.145-2.491,1.345h6.321c11.831,0,21.423-9.595,21.423-21.426
				C186.933,132.593,181.12,124.741,172.965,121.715z"/>
			<path style="fill:#D5D6DB;" d="M154.667,161.872l-2.727-2.725c-0.158,1.031-0.64,1.984-1.391,2.736
				c-0.684,0.688-1.542,1.146-2.473,1.345h9.091C156.228,163.026,155.349,162.561,154.667,161.872z"/>
		</g>
		<path style="fill:#FFFFFF;" d="M161.675,152.819c0-1.161-0.943-2.105-2.104-2.105h-1.881l1.978-1.975
			c0.816-0.819,0.816-2.15-0.002-2.972c-0.794-0.794-2.181-0.795-2.976,0l-4.945,4.946h-5.181l1.972-1.975
			c0.819-0.819,0.819-2.15,0-2.972c-0.796-0.794-2.174-0.795-2.97,0l-4.947,4.946h-10.748l13.876-13.878h7.475
			c1.162,0,2.106-0.944,2.106-2.105c0-1.153-0.944-2.095-2.106-2.095h-3.267l3.364-3.37c0.817-0.82,0.817-2.152,0-2.97
			c-0.794-0.794-2.184-0.794-2.977,0l-3.362,3.364v-3.268c0-1.16-0.944-2.104-2.104-2.104c-1.16,0-2.103,0.943-2.103,2.104v7.473
			l-13.872,13.872v-10.741l4.946-4.945c0.397-0.398,0.616-0.927,0.616-1.489c0-0.561-0.219-1.089-0.616-1.487
			c-0.794-0.796-2.183-0.796-2.977,0.001l-1.97,1.973v-5.176l4.946-4.953c0.818-0.819,0.819-2.149-0.001-2.97
			c-0.795-0.792-2.179-0.793-2.975,0l-1.97,1.968v-1.871c0-1.159-0.944-2.104-2.105-2.104c-1.159,0-2.103,0.944-2.103,2.104v1.877
			l-1.979-1.974c-0.792-0.792-2.17-0.794-2.97,0.001c-0.818,0.819-0.817,2.149,0,2.969l4.948,4.953v5.178l-1.977-1.975
			c-0.793-0.797-2.174-0.797-2.971-0.001c-0.396,0.398-0.616,0.927-0.616,1.487c0,0.563,0.219,1.091,0.616,1.489l4.948,4.945v10.741
			l-13.879-13.872v-7.473c0-1.16-0.944-2.104-2.104-2.104c-1.157,0-2.095,0.943-2.095,2.104v3.27l-3.371-3.366
			c-0.796-0.794-2.177-0.793-2.969-0.002c-0.397,0.398-0.617,0.925-0.617,1.486c0,0.56,0.219,1.089,0.616,1.486l3.364,3.369h-3.267
			c-1.162,0-2.105,0.941-2.105,2.095c0,1.161,0.943,2.105,2.105,2.105h7.474l13.872,13.878h-10.741l-4.949-4.946
			c-0.792-0.794-2.181-0.794-2.973,0c-0.399,0.397-0.619,0.925-0.618,1.488c0,0.559,0.221,1.085,0.618,1.483l1.977,1.975h-5.182
			l-4.95-4.946c-0.794-0.794-2.173-0.795-2.973,0c-0.816,0.821-0.815,2.152,0,2.972l1.975,1.975h-1.877
			c-1.16,0-2.104,0.944-2.104,2.105c0,1.16,0.943,2.103,2.104,2.103H91.9l-1.971,1.972c-0.397,0.397-0.614,0.924-0.614,1.486
			c0,0.563,0.217,1.09,0.612,1.485c0.79,0.795,2.173,0.803,2.974,0.003l4.95-4.946h5.178l-1.972,1.971
			c-0.398,0.398-0.619,0.925-0.619,1.487c0,0.563,0.221,1.091,0.615,1.485c0.779,0.786,2.201,0.785,2.976,0.003l4.949-4.946h10.739
			l-13.869,13.871h-7.475c-1.162,0-2.105,0.946-2.105,2.105c0,1.158,0.943,2.104,2.105,2.104h3.266l-3.361,3.361
			c-0.397,0.396-0.617,0.924-0.617,1.487c0,0.563,0.219,1.091,0.617,1.492c0.799,0.793,2.175,0.788,2.969,0l3.371-3.365v3.266
			c0,1.16,0.938,2.103,2.095,2.103c1.16,0,2.104-0.942,2.104-2.103v-7.475l13.879-13.879v10.749l-4.948,4.949
			c-0.818,0.818-0.817,2.148,0,2.964c0.789,0.791,2.17,0.801,2.97,0.002l1.979-1.973v5.184l-4.948,4.946
			c-0.396,0.396-0.616,0.923-0.616,1.487s0.219,1.092,0.613,1.484c0.787,0.797,2.178,0.803,2.972,0.002l1.979-1.977v1.883
			c0,1.161,0.944,2.105,2.103,2.105c1.161,0,2.105-0.944,2.105-2.105v-1.88l1.968,1.973c0.783,0.788,2.197,0.786,2.978,0.001
			c0.398-0.395,0.617-0.922,0.617-1.486s-0.219-1.091-0.616-1.487l-4.946-4.946v-5.181l1.971,1.97
			c0.782,0.782,2.188,0.785,2.975-0.002c0.818-0.815,0.819-2.146,0-2.966l-4.946-4.947v-10.749l13.872,13.879v7.475
			c0,1.16,0.943,2.103,2.103,2.103c1.161,0,2.104-0.942,2.104-2.103v-3.264l3.364,3.363c0.789,0.783,2.178,0.788,2.975-0.001
			c0.397-0.4,0.616-0.928,0.616-1.49c0-0.563-0.219-1.093-0.616-1.488l-3.363-3.361h3.266c1.162,0,2.106-0.946,2.106-2.104
			c0-1.159-0.944-2.105-2.106-2.105h-7.475l-13.875-13.871h10.746l4.944,4.944c0.795,0.796,2.178,0.799,2.972,0.002
			c0.396-0.397,0.616-0.925,0.616-1.488c0-0.563-0.219-1.089-0.616-1.486l-1.971-1.972h5.18l4.944,4.943
			c0.781,0.786,2.194,0.788,2.979,0.003c0.396-0.398,0.615-0.925,0.615-1.488c0-0.563-0.219-1.089-0.617-1.487l-1.973-1.971h1.878
			C160.732,154.922,161.675,153.979,161.675,152.819z"/>
		<g>
			<path style="fill:#5AC8FA;" d="M69.202,199.302c-0.742,0-1.491-0.215-2.147-0.665c-1.73-1.189-2.171-3.553-0.984-5.284
				l14.282-20.816c1.188-1.733,3.553-2.175,5.283-0.987c1.731,1.187,2.171,3.553,0.985,5.283l-14.283,20.819
				C71.603,198.725,70.412,199.302,69.202,199.302z"/>
		</g>
		<g>
			<path style="fill:#5AC8FA;" d="M157.96,199.302c-0.742,0-1.489-0.215-2.146-0.665c-1.732-1.189-2.172-3.553-0.986-5.284
				l14.283-20.816c1.189-1.733,3.553-2.175,5.284-0.987c1.731,1.187,2.171,3.553,0.984,5.283l-14.283,20.819
				C160.36,198.725,159.17,199.302,157.96,199.302z"/>
		</g>
		<g>
			<path style="fill:#5AC8FA;" d="M83.696,212.376c-0.753,0-1.513-0.222-2.177-0.686c-1.719-1.204-2.138-3.573-0.934-5.294
				l12.983-18.547c1.204-1.721,3.573-2.136,5.294-0.936c1.719,1.205,2.136,3.575,0.932,5.296l-12.983,18.545
				C86.073,211.813,84.894,212.376,83.696,212.376z"/>
		</g>
		<g>
			<path style="fill:#5AC8FA;" d="M109.524,209.506c-0.753,0-1.513-0.225-2.177-0.689c-1.719-1.204-2.137-3.572-0.933-5.29
				l5.621-8.029c1.204-1.718,3.572-2.138,5.292-0.935c1.719,1.205,2.136,3.576,0.933,5.295l-5.62,8.027
				C111.901,208.938,110.722,209.506,109.524,209.506z"/>
		</g>
		<g>
			<path style="fill:#5AC8FA;" d="M128.606,215.5c-0.734,0-1.476-0.21-2.129-0.655c-1.738-1.176-2.191-3.54-1.014-5.276
				l11.672-17.218c1.177-1.736,3.542-2.19,5.278-1.014c1.736,1.178,2.191,3.54,1.013,5.278l-11.67,17.217
				C131.02,214.914,129.824,215.5,128.606,215.5z"/>
		</g>
		<path style="fill:#FFFFFF;" d="M146.064,96.901c2.378-0.742,4.867-1.125,7.372-1.125c9.519,0,17.799,5.401,21.94,13.299
			c7.644-2.74,14.085-8.011,18.295-14.814c-2.03,0.36-4.117,0.558-6.25,0.558c-19.668,0-35.614-15.94-35.614-35.612
			c0-6.862,1.947-13.268,5.311-18.706c-16.685,2.956-29.36,17.52-29.36,35.054c0,0.554,0.016,1.102,0.04,1.646
			C136.119,81.054,142.736,88.037,146.064,96.901z"/>
	</g>
</g>
</svg>
