<?xml version="1.0" encoding="UTF-8"?><svg id="logo_facebook" xmlns="http://www.w3.org/2000/svg" viewBox="0 0 1080 1080"><defs><style>.cls-1{fill:#1877f2;}.cls-1,.cls-2{stroke-width:0px;}.cls-2{fill:#fff;}</style></defs><path class="cls-1" d="m1080,540C1080,241.77,838.23,0,540,0S0,241.77,0,540c0,269.53,197.47,492.93,455.62,533.44v-377.34h-137.11v-156.09h137.11v-118.97c0-135.34,80.62-210.09,203.97-210.09,59.08,0,120.88,10.55,120.88,10.55v132.89h-68.09c-67.08,0-88,41.63-88,84.33v101.3h149.77l-23.94,156.09h-125.82v377.34c258.15-40.51,455.62-263.91,455.62-533.44Z"/><path class="cls-2" d="m750.2,696.09l23.94-156.09h-149.77v-101.3c0-42.7,20.92-84.33,88-84.33h68.09v-132.89s-61.8-10.55-120.88-10.55c-123.35,0-203.97,74.76-203.97,210.09v118.97h-137.11v156.09h137.11v377.34c27.49,4.31,55.67,6.56,84.38,6.56s56.88-2.25,84.38-6.56v-377.34h125.82Z"/></svg>