<?xml version="1.0" encoding="UTF-8"?><svg id="logo_instagram" xmlns="http://www.w3.org/2000/svg" xmlns:xlink="http://www.w3.org/1999/xlink" viewBox="0 0 1080 1080"><defs><style>.cls-1{clip-path:url(#clippath);}.cls-2{fill:none;}.cls-2,.cls-3,.cls-4,.cls-5,.cls-6,.cls-7{stroke-width:0px;}.cls-3{fill:url(#radial-gradient);}.cls-4{fill:url(#radial-gradient-2);}.cls-5{fill:url(#radial-gradient-3);}.cls-6{fill:url(#radial-gradient-4);}.cls-7{fill:#fff;}</style><clipPath id="clippath"><circle class="cls-2" cx="540" cy="540" r="540"/></clipPath><radialGradient id="radial-gradient" cx="-142.31" cy="1028.18" fx="-142.31" fy="1028.18" r="119.26" gradientTransform="translate(-910.74 -3395.39) rotate(164.25) scale(5.79 -4.17)" gradientUnits="userSpaceOnUse"><stop offset="0" stop-color="#ff005f"/><stop offset="1" stop-color="#fc01d8"/></radialGradient><radialGradient id="radial-gradient-2" cx="-441.14" cy="1086.21" fx="-441.14" fy="1086.21" r="119.26" gradientTransform="translate(8617.17 -2025.51) rotate(-90) scale(7.23 -7.67)" gradientUnits="userSpaceOnUse"><stop offset="0" stop-color="#fc0"/><stop offset=".12" stop-color="#fc0"/><stop offset=".57" stop-color="#fe4a05"/><stop offset=".69" stop-color="#ff0f3f"/><stop offset="1" stop-color="#fe0657" stop-opacity="0"/></radialGradient><radialGradient id="radial-gradient-3" cx="-795.95" cy="1003.95" fx="-795.95" fy="1003.95" r="148.08" gradientTransform="translate(4250.48 986.93) rotate(-59.87) scale(2.41 -3.13)" gradientUnits="userSpaceOnUse"><stop offset="0" stop-color="#fc0"/><stop offset="1" stop-color="#fc0" stop-opacity="0"/></radialGradient><radialGradient id="radial-gradient-4" cx="-70.62" cy="1552.74" fx="-70.62" fy="1552.74" r="152.82" gradientTransform="translate(-797.15 -2144.46) rotate(164.27) scale(4.47 -1.52)" gradientUnits="userSpaceOnUse"><stop offset="0" stop-color="#780cff"/><stop offset="1" stop-color="#820bff" stop-opacity="0"/></radialGradient></defs><g class="cls-1"><path class="cls-3" d="m540.18,0C314.73,0,248.8.23,235.98,1.3c-46.26,3.85-75.05,11.13-106.42,26.75-24.17,12.01-43.23,25.92-62.05,45.43C33.25,109.06,12.49,152.82,4.97,204.85,1.32,230.11.25,235.26.04,364.27-.05,407.28.04,463.87.04,539.79c0,225.32.25,291.21,1.33,304,3.74,45.03,10.8,73.36,25.75,104.35,28.57,59.32,83.14,103.85,147.43,120.47,22.26,5.73,46.85,8.89,78.41,10.39,13.37.58,149.68,1,286.06,1s272.77-.17,285.81-.83c36.55-1.72,57.77-4.57,81.23-10.63,64.7-16.7,118.28-60.57,147.43-120.72,14.66-30.24,22.09-59.65,25.46-102.33.73-9.31,1.04-157.67,1.04-305.83s-.33-296.28-1.06-305.58c-3.41-43.37-10.84-72.53-25.97-103.36-12.42-25.23-26.21-44.08-46.22-63.34-35.72-34.13-79.42-54.9-131.48-62.41C850.04,1.3,845.01.22,715.93,0h-175.76Z"/><path class="cls-4" d="m540.18,0C314.73,0,248.8.23,235.98,1.3c-46.26,3.85-75.05,11.13-106.42,26.75-24.17,12.01-43.23,25.92-62.05,45.43C33.25,109.06,12.49,152.82,4.97,204.85,1.32,230.11.25,235.26.04,364.27-.05,407.28.04,463.87.04,539.79c0,225.32.25,291.21,1.33,304,3.74,45.03,10.8,73.36,25.75,104.35,28.57,59.32,83.14,103.85,147.43,120.47,22.26,5.73,46.85,8.89,78.41,10.39,13.37.58,149.68,1,286.06,1s272.77-.17,285.81-.83c36.55-1.72,57.77-4.57,81.23-10.63,64.7-16.7,118.28-60.57,147.43-120.72,14.66-30.24,22.09-59.65,25.46-102.33.73-9.31,1.04-157.67,1.04-305.83s-.33-296.28-1.06-305.58c-3.41-43.37-10.84-72.53-25.97-103.36-12.42-25.23-26.21-44.08-46.22-63.34-35.72-34.13-79.42-54.9-131.48-62.41C850.04,1.3,845.01.22,715.93,0h-175.76Z"/><path class="cls-5" d="m540.18,0C314.73,0,248.8.23,235.98,1.3c-46.26,3.85-75.05,11.13-106.42,26.75-24.17,12.01-43.23,25.92-62.05,45.43C33.25,109.06,12.49,152.82,4.97,204.85,1.32,230.11.25,235.26.04,364.27-.05,407.28.04,463.87.04,539.79c0,225.32.25,291.21,1.33,304,3.74,45.03,10.8,73.36,25.75,104.35,28.57,59.32,83.14,103.85,147.43,120.47,22.26,5.73,46.85,8.89,78.41,10.39,13.37.58,149.68,1,286.06,1s272.77-.17,285.81-.83c36.55-1.72,57.77-4.57,81.23-10.63,64.7-16.7,118.28-60.57,147.43-120.72,14.66-30.24,22.09-59.65,25.46-102.33.73-9.31,1.04-157.67,1.04-305.83s-.33-296.28-1.06-305.58c-3.41-43.37-10.84-72.53-25.97-103.36-12.42-25.23-26.21-44.08-46.22-63.34-35.72-34.13-79.42-54.9-131.48-62.41C850.04,1.3,845.01.22,715.93,0h-175.76Z"/><path class="cls-6" d="m540.18,0C314.73,0,248.8.23,235.98,1.3c-46.26,3.85-75.05,11.13-106.42,26.75-24.17,12.01-43.23,25.92-62.05,45.43C33.25,109.06,12.49,152.82,4.97,204.85,1.32,230.11.25,235.26.04,364.27-.05,407.28.04,463.87.04,539.79c0,225.32.25,291.21,1.33,304,3.74,45.03,10.8,73.36,25.75,104.35,28.57,59.32,83.14,103.85,147.43,120.47,22.26,5.73,46.85,8.89,78.41,10.39,13.37.58,149.68,1,286.06,1s272.77-.17,285.81-.83c36.55-1.72,57.77-4.57,81.23-10.63,64.7-16.7,118.28-60.57,147.43-120.72,14.66-30.24,22.09-59.65,25.46-102.33.73-9.31,1.04-157.67,1.04-305.83s-.33-296.28-1.06-305.58c-3.41-43.37-10.84-72.53-25.97-103.36-12.42-25.23-26.21-44.08-46.22-63.34-35.72-34.13-79.42-54.9-131.48-62.41C850.04,1.3,845.01.22,715.93,0h-175.76Z"/><path class="cls-7" d="m540.21,206.05c-90.74,0-102.13.4-137.77,2.02-35.57,1.63-59.85,7.25-81.09,15.51-21.98,8.53-40.62,19.93-59.19,38.5-18.59,18.56-30,37.19-38.56,59.14-8.28,21.24-13.92,45.5-15.52,81.03-1.59,35.61-2.01,47-2.01,137.68s.4,102.02,2.02,137.63c1.64,35.54,7.27,59.81,15.52,81.03,8.54,21.96,19.96,40.59,38.54,59.14,18.57,18.57,37.21,30.01,59.17,38.53,21.26,8.26,45.55,13.88,81.11,15.51,35.64,1.62,47.02,2.02,137.76,2.02s102.1-.4,137.74-2.02c35.57-1.63,59.88-7.25,81.14-15.51,21.97-8.53,40.58-19.96,59.15-38.53,18.59-18.56,30-37.19,38.56-59.14,8.21-21.24,13.85-45.5,15.52-81.03,1.6-35.61,2.02-46.97,2.02-137.64s-.42-102.05-2.02-137.67c-1.67-35.54-7.31-59.81-15.52-81.03-8.56-21.96-19.98-40.59-38.56-59.15-18.59-18.57-37.17-29.98-59.17-38.5-21.3-8.26-45.59-13.88-81.16-15.51-35.64-1.62-46.99-2.02-137.76-2.02h.1Zm-29.97,60.17c8.9-.01,18.82,0,29.97,0,89.21,0,99.78.32,135.01,1.92,32.58,1.49,50.26,6.93,62.04,11.5,15.59,6.05,26.71,13.29,38.4,24.97,11.69,11.69,18.93,22.82,25,38.4,4.57,11.76,10.02,29.42,11.51,61.98,1.6,35.2,1.95,45.77,1.95,134.87s-.35,99.68-1.95,134.87c-1.49,32.55-6.93,50.22-11.51,61.98-6.06,15.58-13.31,26.68-25,38.35-11.69,11.69-22.8,18.92-38.4,24.97-11.76,4.59-29.46,10.02-62.04,11.5-35.22,1.6-45.8,1.95-135.01,1.95s-99.79-.35-135.01-1.95c-32.58-1.5-50.26-6.94-62.04-11.51-15.59-6.05-26.73-13.29-38.42-24.97-11.69-11.69-18.93-22.79-25-38.38-4.57-11.76-10.02-29.42-11.51-61.98-1.6-35.2-1.92-45.77-1.92-134.93s.32-99.68,1.92-134.87c1.49-32.55,6.93-50.22,11.51-61.99,6.06-15.58,13.31-26.71,25-38.4,11.69-11.69,22.83-18.92,38.42-24.99,11.78-4.59,29.47-10.02,62.04-11.51,30.82-1.39,42.77-1.81,105.04-1.88v.08Zm208.33,55.44c-22.14,0-40.1,17.93-40.1,40.05s17.96,40.07,40.1,40.07,40.09-17.95,40.09-40.07-17.96-40.06-40.1-40.06h0Zm-178.35,46.81c-94.76,0-171.59,76.77-171.59,171.46s76.83,171.42,171.59,171.42,171.56-76.74,171.56-171.42-76.81-171.46-171.57-171.46h0Zm0,60.17c61.51,0,111.37,49.82,111.37,111.29s-49.87,111.29-111.37,111.29-111.37-49.83-111.37-111.29,49.86-111.29,111.37-111.29h0Z"/></g></svg>