<svg id="Layer_1" data-name="Layer 1" xmlns="http://www.w3.org/2000/svg" viewBox="0 0 98.6 44.6"><defs><style>.cls-1{fill:#19478d;}</style></defs><path class="cls-1" d="M38,23.6H19.9A4.44,4.44,0,0,1,24,21H44.3l8.9-8.7L54.9,21H78.7a4.44,4.44,0,0,1-4.1,2.6H57.7l-2.1.9,2.1,10.8L46.6,29.6,31.3,33.8l8.9-8.7L38,23.6Zm41.8-2.5h4A7.62,7.62,0,0,0,90,17L98.6,0H97.4a4.34,4.34,0,0,1-4.2,2.8H33.5a7.62,7.62,0,0,0-6.2,4.1L18.8,23.6h-4a7.62,7.62,0,0,0-6.2,4.1L0,44.6H1.2a4.34,4.34,0,0,1,4.2-2.8l59.7.1a7.62,7.62,0,0,0,6.2-4.1l8.5-16.7Z"/></svg>