<?xml version="1.0" encoding="UTF-8"?><svg id="Layer_2" xmlns="http://www.w3.org/2000/svg" viewBox="0 0 262.5 104.6"><defs><style>.cls-1{fill:none;}.cls-1,.cls-2,.cls-3,.cls-4{stroke-width:0px;}.cls-2{fill:#fff;}.cls-3{fill:#eb212e;}.cls-4{fill:#0079c1;}</style></defs><g id="Layer_1-2"><path class="cls-4" d="m25.3,47.7c0,4.5-2,7.1-7.3,7.1h-4.5v-14c.6,0,2.5-.1,3-.1h1.6c5.5,0,7.2,2.3,7.2,7m10.6,17.4c0-6.8-5.5-9.3-12.3-9.4v-.3c5.8-.4,10.5-2.9,10.5-8.7,0-6.5-5.4-7.7-11.3-7.7-7.3,0-15.7.1-22.8,0v1.7c1.6-.1,5.2.1,5.2,2v28.5c0,1.9-3.8,2.2-5.2,2.2v1.7c7-.1,15.2,0,22.2,0s13.7-2.6,13.7-10Zm-9.2-.7c0,6-2,8.7-8.9,8.7h-4.2v-16.4h4.5c6.3,0,8.6,2.1,8.6,7.7Z"/><path class="cls-4" d="m82.4,75h-9.7v-1.7c1.5,0,5.5-.1,5.5-2v-26.7h-.1l-14.7,30.9h-1.6l-14.4-30.8h-.1v26.6c0,2,4.2,2,5.8,2v1.7c-4.1-.1-9.6-.3-13.5,0v-1.7c1.6,0,5.2-.1,5.2-2v-28.6c0-1.9-3.8-2-5.2-2v-1.7c4.6.1,9.6.1,14.1,0l12.3,25.9,12.5-26c4.4.1,9.1.1,13.7,0v1.7c-1.5,0-5.4.1-5.4,2v28.5c0,2,3.8,2,5.4,2v1.7c-3.3.2-6.5.2-9.8.2"/><path class="cls-4" d="m126.2,56.9c0,7.1-.7,16.8-10.9,16.8s-11-9.9-11-16.8.7-16.8,11-16.8,10.9,9.7,10.9,16.8m9.5,0c0-11.9-7.3-18.7-20.5-18.7s-20.6,6.7-20.6,18.7,7.3,18.7,20.6,18.7c13.2.1,20.5-6.7,20.5-18.7Z"/><path class="cls-3" d="m210.2,0c-28.9,0-52.3,23.4-52.3,52.3s23.4,52.3,52.3,52.3,52.3-23.4,52.3-52.3S239.1,0,210.2,0Z"/><rect class="cls-1" x="185.5" y="23.7" width="49.4" height="51.4"/><path class="cls-2" d="m185.5,59.4h49.4v15.7h-49.4v-15.7Zm23.1-23.1l-9-11.8c-.4-.4-1-.9-1.6-.9s-1.2.3-1.6.7l-10.7,13.7v21.3l10.7-13.7c.4-.4,1-.7,1.6-.7.7,0,1.3.3,1.6.9l9.1,11.9c.3.4.9.7,1.5.7s1.2-.3,1.5-.7l9.1-11.9c.4-.4,1-.9,1.6-.9.7,0,1.3.3,1.6.7l10.7,13.8v-21.3l-10.7-13.7c-.4-.4-.9-.7-1.6-.7s-1.3.3-1.6.9l-9,11.8c-.4.4-1,.7-1.6.7-.7-.1-1.2-.3-1.6-.8Z"/></g></svg>