<?xml version="1.0" encoding="utf-8"?>
<!-- Generator: Adobe Illustrator 26.0.1, SVG Export Plug-In . SVG Version: 6.00 Build 0)  -->
<svg version="1.1" id="Layer_1" xmlns="http://www.w3.org/2000/svg" xmlns:xlink="http://www.w3.org/1999/xlink" x="0px" y="0px"
	 viewBox="0 0 320 190" style="enable-background:new 0 0 320 190;" xml:space="preserve">
<style type="text/css">
	.st0{opacity:0.1;}
	.st1{fill:#245529;}
</style>
<g class="st0">
	<path class="st1" d="M105,0c13,0,26,0,39,0c-1.2,5.5-2.4,11-3.7,16.4c-4.8,21.1-9.3,42.3-14.4,63.4c-6.6,27.3-13.6,54.6-20.8,81.8
		c-2.5,9.6-6.1,18.9-9.2,28.3c-32,0-64,0-96,0c0-1.3,0-2.7,0-4c1.1-0.6,2.5-1.1,3.3-2c4.9-6.1,9.7-12.2,14.4-18.4
		c20.6-27.9,38.2-57.5,53.7-88.5c6.7-13.4,12.9-27,18.8-40.7C95.4,24.4,100.1,12.1,105,0z"/>
	<path class="st1" d="M191,190.1c-20.7,0-41.3,0-62,0c1.5-6.6,3-13.2,4.4-19.8c5.2-23.2,10.6-46.4,15.5-69.7
		c5.3-24.9,10-49.9,15.1-74.8c1.8-8.7,4-17.2,6-25.7c11.7,0,23.3,0,35,0c-1,9.2-2.2,18.4-3.1,27.6c-1.7,18.6-3.5,37.2-4.8,55.8
		c-0.8,11.7-0.7,23.5-1.1,35.3c-0.2,7.1-0.5,14.2-1.1,21.3C193.8,156.8,192.4,173.4,191,190.1z"/>
	<path class="st1" d="M274,190.1c-18.3,0-36.7,0-55,0c0.3-10.8,0.8-21.6,1-32.3c0.4-20.4,0.6-40.9,1-61.3
		c0.2-12.4,0.4-24.9,1.1-37.3c0.5-9.1,1.7-18.1,2.7-27.1c1.3-10.7,2.8-21.3,4.2-32c10.3,0,20.7,0,31,0c-0.3,16-0.8,31.9-0.9,47.9
		c0,8,0.4,15.9,1.1,23.9c1.1,12,2.4,24,3.8,36c1.4,12.5,3,25,4.5,37.4C270.4,160.2,272.2,175.2,274,190.1z"/>
	<path class="st1" d="M320,79c0,37,0,74,0,111c-7.7,0-15.3,0-23,0c-0.1-2.2,0-4.3-0.3-6.5c-1.5-9.6-3.2-19.2-4.6-28.9
		c-2.8-20.5-5.8-40.9-8.1-61.4c-1.7-15.1-3.3-30.3-3.8-45.5c-0.5-15.9,0.5-31.9,0.8-47.8c9.3,0,18.7,0,28,0
		c0.3,7.6,0.1,15.3,1.1,22.8c2.3,17.8,5.2,35.6,7.9,53.3C318.2,77.1,319.3,78,320,79z"/>
</g>
</svg>
