<svg id="Layer_1" data-name="Layer 1" xmlns="http://www.w3.org/2000/svg" viewBox="0 0 410.93 102.73"><defs><style>.cls-1{fill:#231f20;}.cls-2{fill:#119962;}</style></defs><path class="cls-1" d="M105.42,34.35H98.88V56.06c0,4.38-2.55,7.22-7.75,7.22s-7.74-2.84-7.74-7.22V34.35H76.26V55.93c0,7.74,4,12.77,14.58,12.77s14.58-5,14.58-12.77Z"/><rect class="cls-1" x="144.66" y="34.35" width="7.1" height="33.97"/><polygon class="cls-1" points="154.85 34.35 154.85 39.65 165.74 39.65 165.74 68.32 172.87 68.32 172.87 39.65 183.76 39.65 183.76 34.35 154.85 34.35"/><polygon class="cls-1" points="213.77 68.32 213.77 62.9 193.98 62.9 193.98 53.61 206.51 53.61 206.51 48.18 193.98 48.18 193.98 39.65 212.78 39.65 212.78 34.35 186.86 34.35 186.86 68.32 213.77 68.32"/><path class="cls-1" d="M249.72,51.35c0,11.42-6.78,17-18.88,17H218.32v-34h13.93C244.07,34.35,249.72,41.86,249.72,51.35ZM225.43,62.9h4.12c9.47,0,13-2.71,13-11.55s-3.58-11.7-13-11.7h-4.12Z"/><path class="cls-1" d="M288.84,58.63c0,4.47-3.1,9.69-11.83,9.69H260.82v-34h15.64c7.08,0,11.3,3.27,11.3,8.72,0,3.56-1.57,6.09-4.57,7.41A8.56,8.56,0,0,1,288.84,58.63ZM267.67,48h8c3.6,0,5.59-1.49,5.59-4.19,0-2.08-.71-4.19-5.94-4.19h-7.61Zm7.17,15.4c6.32,0,7.17-2.53,7.17-5,0-2.21-.88-4.74-7.77-4.74h-6.57v9.75h7.17"/><path class="cls-1" d="M385.42,34.35h-7.84L364.35,48.17V34.35h-6.76v34h6.76V56.09l3.5-3.48,10.09,15.71h7.45s-12.24-19-13-20.08Z"/><polygon class="cls-1" points="346 34.35 346 56.86 330.97 34.35 323.91 34.35 323.91 68.32 329.99 68.32 329.99 43.68 346.19 68.32 352.04 68.32 352.04 34.35 346 34.35"/><polygon class="cls-1" points="133.07 34.35 133.07 56.86 118.03 34.35 110.98 34.35 110.98 68.32 117.06 68.32 117.06 43.68 133.25 68.32 139.1 68.32 139.1 34.35 133.07 34.35"/><path class="cls-1" d="M296.09,68.32h-6l11.82-34h7.37l11.56,34h-6.75L311,59.41H299.21ZM309,53.91l-3.79-11.36-4,11.36Z"/><path class="cls-2" d="M25.51,67.59c4.9,21,33.67,20.89,38,0Z"/><rect class="cls-2" x="25.51" y="19.44" width="17.47" height="45.07"/><rect class="cls-2" x="46.06" y="19.44" width="17.47" height="45.07"/></svg>