<?xml version="1.0" encoding="utf-8"?>
<!-- Generator: Adobe Illustrator 25.0.1, SVG Export Plug-In . SVG Version: 6.00 Build 0)  -->
<svg version="1.1" id="Layer_1" xmlns="http://www.w3.org/2000/svg" xmlns:xlink="http://www.w3.org/1999/xlink" x="0px" y="0px"
	 viewBox="0 0 489.8 142.8" style="enable-background:new 0 0 489.8 142.8;" xml:space="preserve">
<style type="text/css">
	.Arched_x0020_Green{fill:url(#SVGID_1_);stroke:#FFFFFF;stroke-width:0.25;stroke-miterlimit:1;}
	.st0{fill:#FFFFFF;}
	.st1{fill:#EE3224;}
	.st2{fill:none;}
</style>
<linearGradient id="SVGID_1_" gradientUnits="userSpaceOnUse" x1="-61.1187" y1="467.3765" x2="-60.4116" y2="466.6694">
	<stop  offset="0" style="stop-color:#20AC4B"/>
	<stop  offset="0.9831" style="stop-color:#19361A"/>
</linearGradient>
<g>
	<path class="st0" d="M51.5,68.2c0,3.1-1.4,4.9-5,4.9h-3.1v-9.6c0.4,0,1.7-0.1,2.1-0.1h1.1C50.3,63.4,51.5,65,51.5,68.2 M58.8,80.2
		c0-4.7-3.8-6.4-8.5-6.5v-0.2c4-0.3,7.2-2,7.2-6c0-4.5-3.7-5.3-7.8-5.3c-5,0-10.8,0.1-15.7,0v1.2c1.1-0.1,3.6,0.1,3.6,1.4v19.6
		c0,1.3-2.6,1.5-3.6,1.5v1.2c4.8-0.1,10.5,0,15.3,0C54.3,87.1,58.8,85.3,58.8,80.2z M52.5,79.7c0,4.1-1.4,6-6.1,6h-2.9V74.4h3.1
		C50.9,74.4,52.5,75.9,52.5,79.7z"/>
	<path class="st0" d="M90.8,87c-2.2,0-4.4,0-6.7,0v-1.2c1,0,3.8-0.1,3.8-1.4V66.1h-0.1L77.7,87.4h-1.1l-9.9-21.2h-0.1v18.3
		c0,1.4,2.9,1.4,4,1.4l0,1.2c-2.8-0.1-6.6-0.2-9.3,0v-1.2c1.1,0,3.6-0.1,3.6-1.4V64.8c0-1.3-2.6-1.4-3.6-1.4l0-1.2
		c3.2,0.1,6.6,0.1,9.7,0L79.5,80l8.6-17.8c3,0.1,6.3,0.1,9.4,0v1.2c-1,0-3.7,0.1-3.7,1.4v19.6c0,1.4,2.6,1.4,3.7,1.4v1.2
		C95.3,87,93.1,87,90.8,87"/>
	<path class="st0" d="M121,74.6c0,4.9-0.5,11.6-7.5,11.6c-7.1,0-7.6-6.8-7.6-11.6c0-4.9,0.5-11.6,7.6-11.6
		C120.4,63,121,69.7,121,74.6 M127.5,74.6c0-8.2-5-12.9-14.1-12.9c-9.1,0-14.2,4.6-14.2,12.9c0,8.3,5,12.9,14.2,12.9
		C122.5,87.5,127.5,82.8,127.5,74.6z"/>
</g>
<path class="st1" d="M178.8,35.4c-19.9,0-36,16.1-36,36c0,19.9,16.1,36,36,36c19.9,0,36-16.1,36-36
	C214.8,51.5,198.7,35.4,178.8,35.4z"/>
<rect x="161.8" y="51.7" class="st2" width="34" height="35.4"/>
<path class="st0" d="M161.8,76.3h34v10.8h-34V76.3z M177.7,60.4l-6.2-8.1c-0.3-0.3-0.7-0.6-1.1-0.6c-0.4,0-0.8,0.2-1.1,0.5l-7.4,9.4
	v14.7l7.4-9.5c0.3-0.3,0.7-0.5,1.1-0.5c0.5,0,0.9,0.2,1.1,0.6l6.3,8.2c0.2,0.3,0.6,0.5,1,0.5c0.4,0,0.8-0.2,1-0.5l6.3-8.2
	c0.3-0.3,0.7-0.6,1.1-0.6c0.5,0,0.9,0.2,1.1,0.5l7.4,9.5V61.6l-7.4-9.4c-0.3-0.3-0.6-0.5-1.1-0.5c-0.5,0-0.9,0.2-1.1,0.6l-6.2,8.1
	c-0.3,0.3-0.7,0.5-1.1,0.5C178.3,60.9,178,60.7,177.7,60.4z"/>
<rect class="st2" width="34" height="35.4"/>
<g>
	<path class="st2" d="M26.5,0.5C26.3,0.2,25.9,0,25.4,0c-0.5,0-0.9,0.2-1.1,0.6l-6.2,8.1C17.8,9,17.4,9.2,17,9.2S16.1,9,15.9,8.7
		L9.6,0.6C9.4,0.2,9,0,8.5,0C8.1,0,7.7,0.2,7.4,0.5L0,9.9v14.7l7.4-9.5c0.3-0.3,0.7-0.5,1.1-0.5c0.5,0,0.9,0.2,1.1,0.6l6.3,8.2
		c0.2,0.3,0.6,0.5,1,0.5s0.8-0.2,1-0.5l6.3-8.2c0.3-0.3,0.7-0.6,1.1-0.6c0.5,0,0.9,0.2,1.1,0.5l7.4,9.5V9.9L26.5,0.5z"/>
	<rect y="24.6" class="st2" width="34" height="10.8"/>
</g>
<rect x="455.8" y="107.4" class="st2" width="34" height="35.4"/>
<g>
	<path class="st2" d="M482.3,107.9c-0.3-0.3-0.6-0.5-1.1-0.5c-0.5,0-0.9,0.2-1.1,0.6l-6.2,8.1c-0.3,0.3-0.7,0.5-1.1,0.5
		c-0.4,0-0.8-0.2-1.1-0.5l-6.2-8.1c-0.3-0.3-0.7-0.6-1.1-0.6c-0.4,0-0.8,0.2-1.1,0.5l-7.4,9.4V132l7.4-9.5c0.3-0.3,0.7-0.5,1.1-0.5
		c0.5,0,0.9,0.2,1.1,0.6l6.3,8.2c0.2,0.3,0.6,0.5,1,0.5c0.4,0,0.8-0.2,1-0.5l6.3-8.2c0.3-0.3,0.7-0.6,1.1-0.6c0.5,0,0.9,0.2,1.1,0.5
		l7.4,9.5v-14.7L482.3,107.9z"/>
	<rect x="455.8" y="132" class="st2" width="34" height="10.8"/>
</g>
<rect class="st2" width="489.8" height="142.8"/>
<g>
	<path class="st0" d="M247.5,87.1v-1.2c1,0,3.7,0,3.7-1.3v-10h-12.3v10c0,1.3,2.7,1.3,3.7,1.3v1.2c-3.9-0.1-8.5-0.1-12.5,0v-1.2
		c1,0,3.7,0,3.7-1.3V64.1c0-1.3-2.7-1.3-3.7-1.3v-1.2c3.9,0.1,8.6,0.1,12.5,0v1.2c-1,0-3.7,0-3.7,1.3v9.1h12.3v-9.1
		c0-1.3-2.7-1.3-3.7-1.3v-1.2c3.9,0.1,8.6,0.1,12.5,0v1.2c-1,0-3.7,0-3.7,1.3v20.4c0,1.3,2.7,1.3,3.7,1.3v1.2
		C256,87,251.4,87,247.5,87.1z"/>
	<path class="st0" d="M276.8,87.2c-1.5,0-2.9-0.2-2.9-1.8c-1.8,1.5-3.5,2.1-5.9,2.1c-3.9,0-5.8-1.8-5.8-5.3c0-6,7.3-5.6,11.7-5.9
		v-2.7c0-2-1-3-3.2-3c-2.5,0-3.3,1.2-3.3,3.3c0,0.9-0.8,1.1-1.6,1.1c-1.3,0-2.2,0-2.2-1.5c0-3.4,3.9-4.1,6.9-4.1c4.7,0,8,0.6,8,5.5
		v8.3c0,2.5,0.2,2.8,3,2.8v1.2C279.8,87.1,278.3,87.2,276.8,87.2z M273.8,77.5c-3.8,0.3-6.8,0.6-6.8,4.8c0,1.7,0.6,3.5,2.9,3.5
		c3.1,0,4-2.6,4-5V77.5z"/>
	<path class="st0" d="M296.7,74.9c-3.5,0-0.7-3.8-3.1-3.8c-2.6,0-3.2,4.4-3.2,6.1v7.3c0,1.4,2.3,1.4,3.3,1.4v1.2
		c-3.7-0.1-7.4-0.1-11.1,0v-1.2c1,0,3.1-0.1,3.1-1.4V72.2c0-1.3-2.1-1.4-3.1-1.4l0-1.1c2.5,0,5.1,0,7.7-0.1v2.7l0.1,0
		c1-1.7,2.6-3,4.8-3c2.3,0,3.7,1.3,3.7,3.4C298.8,74.1,298.4,74.9,296.7,74.9z"/>
	<path class="st0" d="M315.3,74.9c-3.5,0-0.7-3.8-3.1-3.8c-2.6,0-3.2,4.4-3.2,6.1v7.3c0,1.4,2.3,1.4,3.3,1.4v1.2
		c-3.7-0.1-7.4-0.1-11.1,0v-1.2c1,0,3.1-0.1,3.1-1.4V72.2c0-1.3-2.1-1.4-3.1-1.4l0-1.1c2.5,0,5.1,0,7.7-0.1v2.7l0.1,0
		c1-1.7,2.6-3,4.8-3c2.3,0,3.7,1.3,3.7,3.4C317.4,74.1,317,74.9,315.3,74.9z"/>
	<path class="st0" d="M319.7,87.1v-1.2c1,0,3.1-0.1,3.1-1.4V72.2c0-1.2-2.2-1.2-3.1-1.3v-1.2c2.5,0,5.2,0.1,7.8,0v14.9
		c0,1.3,2.2,1.4,3.2,1.4v1.2C327.1,87,323.3,87,319.7,87.1z M325.2,66.3c-1.6,0-2.6-1.2-2.6-2.6c0-1.4,1-2.5,2.6-2.5
		c1.6,0,2.6,1.2,2.6,2.5C327.8,65.2,326.8,66.3,325.2,66.3z"/>
	<path class="st0" d="M340,87.5c-2.2,0-4.5-0.4-6.5-1v-5.4h1.8c0.1,2.8,1.4,5.3,4.8,5.3c2,0,4.2-0.9,4.2-3c0-4.3-10.5-2.3-10.5-8.5
		c0-4,3.3-5.5,7.3-5.5c1.9,0,3.8,0.4,5.6,1v4.6h-1.6c-0.3-2.5-1.2-4.3-4.3-4.3c-1.9,0-3.3,0.7-3.3,2.6c0,4.2,10.5,1.7,10.5,8.7
		C348,85.9,343.8,87.5,340,87.5z"/>
	<path class="st0" d="M373.7,87.1c-4.5,0-9.1-0.1-13.6,0v-1.2c0.9,0,3.7-0.1,3.7-1.3V64.1c0-1.3-2.7-1.4-3.7-1.3l0-1.2
		c4.7,0.1,9.5,0,14.2,0c4.5,0,8,1,8,5.7c0,3.8-2.8,5.5-6.6,5.9v0.1c4.7,0.3,8,2,8,6.7C383.7,85.3,378.8,87.1,373.7,87.1z M372,62.8
		c-1,0-2.1,0-3.1,0.1v9.8h3.3c3.6,0,4.9-1.8,4.9-4.9C377,64.5,375.8,62.8,372,62.8z M372.3,74.1h-3.4v11.7h2.5c4.5,0,6.8-1.8,6.8-6
		C378.2,75.9,376.7,74.1,372.3,74.1z"/>
	<path class="st0" d="M402.5,87.2c-1.5,0-2.9-0.2-2.9-1.8c-1.8,1.5-3.5,2.1-5.9,2.1c-3.9,0-5.8-1.8-5.8-5.3c0-6,7.3-5.6,11.7-5.9
		v-2.7c0-2-1-3-3.2-3c-2.5,0-3.3,1.2-3.3,3.3c0,0.9-0.8,1.1-1.6,1.1c-1.3,0-2.2,0-2.2-1.5c0-3.4,3.9-4.1,6.9-4.1c4.7,0,8,0.6,8,5.5
		v8.3c0,2.5,0.2,2.8,3,2.8v1.2C405.5,87.1,404,87.2,402.5,87.2z M399.5,77.5c-3.8,0.3-6.8,0.6-6.8,4.8c0,1.7,0.6,3.5,2.9,3.5
		c3.1,0,4-2.6,4-5V77.5z"/>
	<path class="st0" d="M421.3,87.1V86c1,0,2.9-0.1,2.9-1.4v-9.3c0-2.2-0.4-4.1-3.3-4.1c-3.3,0-4.5,2.6-4.5,5.2v8.2
		c0,1.2,2,1.4,2.9,1.4l0,1.1c-3.5-0.1-7.2-0.1-10.7,0V86c1,0,3.1-0.1,3.1-1.4V72.3c0-1.3-2.1-1.4-3.1-1.4v-1.1c2.5,0,5.1,0,7.6-0.1
		v2.6h0.1c1.8-2,3.7-2.9,6.6-2.9c4.3,0,6,1.9,6,5.7v9.5c0,1.3,2.1,1.4,3.1,1.4v1.2C428.5,87,424.8,87,421.3,87.1z"/>
	<path class="st0" d="M446.3,87.1v-1.1c0.3,0,1.4,0,1.3-0.5c-0.1-0.5-1-1.2-1.4-1.8c-1.1-1.4-2.2-2.7-3.3-4.1c0,0-0.5-0.8-0.5-0.8
		l-1.6,1.4v4.4c0,1.4,2,1.3,3.1,1.3v1.2c-3.5-0.1-7.3-0.1-10.8,0v-1.2c1,0,3.1-0.1,3.1-1.4V63.2c0-1.3-2-1.4-3.1-1.4l0-1.1
		c2.5,0,5.2,0.1,7.7-0.1l0,18c0,0,6.4-6.8,6.4-7.4c0-0.3-1.5-0.4-1.8-0.4v-1h7.9v1h-0.5c-0.9,0-2.7,0-3.3,0.6
		c-1.6,1.3-4.2,4.5-4.2,4.5l7.3,8.7c0.8,0.9,2.1,1.4,3.3,1.5v1.1C452.6,86.9,449.4,87.1,446.3,87.1z"/>
</g>
<g>
	<path class="st0" d="M218.4,46.5c-2.4,0-4.3,1.9-4.3,4.3c0,2.4,1.9,4.3,4.3,4.3c2.4,0,4.3-1.9,4.3-4.3
		C222.7,48.5,220.8,46.5,218.4,46.5L218.4,46.5z M218.4,54.5c-2,0-3.6-1.7-3.6-3.7c0-2,1.6-3.7,3.6-3.7c2,0,3.6,1.6,3.6,3.7
		C222,52.9,220.4,54.5,218.4,54.5"/>
	<path class="st0" d="M220.4,49.8c0-1-0.6-1.4-1.6-1.4h-1.9v4.9h0.6v-2.2h1l1.4,2.2h0.7l-1.5-2.2C219.9,51,220.4,50.4,220.4,49.8
		L220.4,49.8z M217.5,50.6v-1.7h1c0.9,0,1.3,0.3,1.3,0.9c0,0.6-0.4,0.8-1.3,0.8H217.5"/>
</g>
</svg>
