<svg id="fheo400_Image" data-name="fheo400 Image" xmlns="http://www.w3.org/2000/svg" viewBox="0 0 271.2 290.16"><defs><style>.cls-1{fill:#231f20;}</style></defs><rect class="cls-1" x="91.95" y="140.43" width="87.42" height="33.49"/><rect class="cls-1" x="91.95" y="99.47" width="87.42" height="33.49"/><path class="cls-1" d="M259.78,92.26,135.6,8.56,11.42,92.26h-1v33.48H26.82V225H244.49V125.74h16.28V92.26ZM60.31,191.5V99.69L135.6,49,211,99.77V191.5Z"/><path d="M26.82,251.46V231.58H41.2v2.34H29.45V240h11v2.34h-11v6.77H41.66v2.34Z"/><path d="M59,249.33a16.27,16.27,0,0,0,3.38,1.85L61.6,253a15.7,15.7,0,0,1-4.28-2.44,9.86,9.86,0,0,1-4.88,1.23,9.43,9.43,0,0,1-4.9-1.3,8.74,8.74,0,0,1-3.38-3.66A11.72,11.72,0,0,1,43,241.52a11.89,11.89,0,0,1,1.2-5.36,8.33,8.33,0,0,1,3.39-3.67,10.14,10.14,0,0,1,9.9,0,8.61,8.61,0,0,1,3.37,3.67A11.87,11.87,0,0,1,62,241.51a12.25,12.25,0,0,1-.75,4.41A9.11,9.11,0,0,1,59,249.33ZM53.2,246a9.73,9.73,0,0,1,3.76,1.9c1.54-1.41,2.32-3.53,2.32-6.36a10.21,10.21,0,0,0-.82-4.22,6.29,6.29,0,0,0-2.41-2.8,6.44,6.44,0,0,0-3.54-1,6.53,6.53,0,0,0-4.89,2c-1.29,1.35-1.94,3.35-1.94,6a8.43,8.43,0,0,0,1.92,5.95,6.38,6.38,0,0,0,4.91,2.08,6.83,6.83,0,0,0,2.66-.53,8.87,8.87,0,0,0-2.61-1.14Z"/><path d="M77.78,231.58h2.63v11.49a13.45,13.45,0,0,1-.68,4.76,5.82,5.82,0,0,1-2.44,2.87,8.74,8.74,0,0,1-4.65,1.1,9.56,9.56,0,0,1-4.57-1,5.48,5.48,0,0,1-2.54-2.79,13.42,13.42,0,0,1-.76-5V231.58H67.4v11.47a10.93,10.93,0,0,0,.49,3.82,3.63,3.63,0,0,0,1.65,1.89,5.67,5.67,0,0,0,2.87.67q2.9,0,4.14-1.32c.82-.88,1.23-2.56,1.23-5.06Z"/><path d="M81.19,251.46l7.64-19.88h2.83l8.14,19.88h-3l-2.32-6H86.17l-2.19,6Zm5.74-8.16h6.74l-2.08-5.51c-.63-1.67-1.1-3-1.41-4.12a25,25,0,0,1-1.07,3.79Z"/><path d="M101.39,251.46V231.58H104v17.54h9.8v2.34Z"/><path d="M123.64,251.46V231.58h2.63v8.16H136.6v-8.16h2.64v19.88H136.6v-9.37H126.27v9.37Z"/><path d="M142.12,241.78c0-3.3.89-5.89,2.66-7.75a9,9,0,0,1,6.86-2.81,9.52,9.52,0,0,1,5,1.32,8.61,8.61,0,0,1,3.37,3.67,12,12,0,0,1,1.16,5.34,11.77,11.77,0,0,1-1.22,5.41,8.33,8.33,0,0,1-3.46,3.61,9.86,9.86,0,0,1-4.83,1.23,9.38,9.38,0,0,1-5-1.36,8.69,8.69,0,0,1-3.35-3.7A11.2,11.2,0,0,1,142.12,241.78Zm2.71,0a8,8,0,0,0,1.94,5.66,6.74,6.74,0,0,0,9.74,0,8.44,8.44,0,0,0,1.92-5.93,10.31,10.31,0,0,0-.82-4.24,6.34,6.34,0,0,0-2.4-2.8,6.49,6.49,0,0,0-3.55-1,6.71,6.71,0,0,0-4.81,1.92C145.51,236.69,144.83,238.82,144.83,241.82Z"/><path d="M176.85,231.58h2.63v11.49a13.69,13.69,0,0,1-.68,4.76,5.84,5.84,0,0,1-2.45,2.87,8.74,8.74,0,0,1-4.65,1.1,9.59,9.59,0,0,1-4.57-1,5.46,5.46,0,0,1-2.53-2.79,13.22,13.22,0,0,1-.76-5V231.58h2.63v11.47a11.23,11.23,0,0,0,.48,3.82,3.61,3.61,0,0,0,1.66,1.89,5.63,5.63,0,0,0,2.86.67q2.91,0,4.14-1.32c.82-.88,1.24-2.56,1.24-5.06Z"/><path d="M182,245.07l2.48-.21a5.46,5.46,0,0,0,.82,2.44,4.47,4.47,0,0,0,2,1.55,7.65,7.65,0,0,0,3.05.59A7.27,7.27,0,0,0,193,249a3.65,3.65,0,0,0,1.72-1.22,2.89,2.89,0,0,0,.56-1.71,2.6,2.6,0,0,0-.54-1.63,3.93,3.93,0,0,0-1.79-1.17,33.16,33.16,0,0,0-3.54-1A17.89,17.89,0,0,1,185.6,241a5.25,5.25,0,0,1-2.12-1.85,4.48,4.48,0,0,1-.7-2.47,5.07,5.07,0,0,1,.85-2.82,5.27,5.27,0,0,1,2.5-2,9.31,9.31,0,0,1,3.65-.68,10.09,10.09,0,0,1,3.9.71,5.54,5.54,0,0,1,2.59,2.1,6,6,0,0,1,1,3.13l-2.52.19a4.09,4.09,0,0,0-1.38-2.85,5.37,5.37,0,0,0-3.46-1,5.56,5.56,0,0,0-3.48.87,2.64,2.64,0,0,0-1.1,2.11,2.27,2.27,0,0,0,.78,1.77,10.43,10.43,0,0,0,4,1.41,27.38,27.38,0,0,1,4.4,1.27,6,6,0,0,1,2.56,2,5,5,0,0,1,.83,2.83,5.46,5.46,0,0,1-.91,3,6.06,6.06,0,0,1-2.61,2.18,9.1,9.1,0,0,1-3.83.78A11.38,11.38,0,0,1,186,251a6.33,6.33,0,0,1-2.86-2.36A6.71,6.71,0,0,1,182,245.07Z"/><path d="M200.94,251.46V231.58h2.63v19.88Z"/><path d="M207.46,251.46V231.58h2.7l10.44,15.61V231.58h2.52v19.88h-2.7L210,235.84v15.62Z"/><path d="M236.07,243.66v-2.33h8.42v7.38a14.74,14.74,0,0,1-4,2.32,11.83,11.83,0,0,1-4.23.78,11.34,11.34,0,0,1-5.32-1.25,8.35,8.35,0,0,1-3.62-3.63,11.47,11.47,0,0,1-1.22-5.31,12.39,12.39,0,0,1,1.21-5.41,8.06,8.06,0,0,1,3.5-3.74,10.88,10.88,0,0,1,5.25-1.22,10.38,10.38,0,0,1,3.9.7,6.42,6.42,0,0,1,2.73,1.94,8.81,8.81,0,0,1,1.51,3.26l-2.38.65a7.51,7.51,0,0,0-1.11-2.39,4.57,4.57,0,0,0-1.9-1.39,6.93,6.93,0,0,0-2.74-.52A8,8,0,0,0,233,234a5.93,5.93,0,0,0-2.12,1.44,7,7,0,0,0-1.26,2,10.51,10.51,0,0,0-.76,4,9.71,9.71,0,0,0,.92,4.45,5.9,5.9,0,0,0,2.66,2.66,8.27,8.27,0,0,0,3.72.87,9.78,9.78,0,0,0,5.81-2.06v-3.71Z"/><path d="M26.82,270.17q0-5.64,3-8.83a10.3,10.3,0,0,1,7.82-3.19,10.86,10.86,0,0,1,5.66,1.5,9.77,9.77,0,0,1,3.84,4.18,13.58,13.58,0,0,1,1.32,6.08,13.34,13.34,0,0,1-1.39,6.17,9.57,9.57,0,0,1-3.94,4.12,11.27,11.27,0,0,1-5.5,1.4,10.71,10.71,0,0,1-5.72-1.55,10,10,0,0,1-3.82-4.22A12.87,12.87,0,0,1,26.82,270.17Zm3.09.05a9.06,9.06,0,0,0,2.21,6.45A7.24,7.24,0,0,0,37.64,279a7.2,7.2,0,0,0,5.57-2.38,9.62,9.62,0,0,0,2.19-6.75,11.63,11.63,0,0,0-.93-4.83,7.18,7.18,0,0,0-2.74-3.2,7.4,7.4,0,0,0-4-1.14,7.67,7.67,0,0,0-5.48,2.19Q29.92,265.11,29.91,270.22Z"/><path d="M51.58,281.21V258.55h8.54a19.93,19.93,0,0,1,3.45.22,6.77,6.77,0,0,1,2.8,1.06A5.52,5.52,0,0,1,68.18,262,7.38,7.38,0,0,1,67,270c-1.22,1.33-3.44,2-6.64,2H54.58v9.21Zm3-11.89h5.85a6.22,6.22,0,0,0,4.13-1.08,3.85,3.85,0,0,0,1.22-3,4.11,4.11,0,0,0-.72-2.44,3.35,3.35,0,0,0-1.89-1.33,12.5,12.5,0,0,0-2.8-.2H54.58Z"/><path d="M71.34,281.21V258.55h8.54a19.93,19.93,0,0,1,3.45.22,6.83,6.83,0,0,1,2.8,1.06A5.6,5.6,0,0,1,87.94,262a7.38,7.38,0,0,1-1.15,8q-1.85,2-6.64,2H74.33v9.21Zm3-11.89h5.86a6.24,6.24,0,0,0,4.13-1.08,3.85,3.85,0,0,0,1.22-3,4.11,4.11,0,0,0-.72-2.44,3.35,3.35,0,0,0-1.89-1.33,12.5,12.5,0,0,0-2.8-.2h-5.8Z"/><path d="M90.46,270.17q0-5.64,3-8.83a10.3,10.3,0,0,1,7.82-3.19,10.86,10.86,0,0,1,5.66,1.5,9.77,9.77,0,0,1,3.84,4.18,13.58,13.58,0,0,1,1.32,6.08,13.34,13.34,0,0,1-1.39,6.17,9.57,9.57,0,0,1-3.94,4.12,11.31,11.31,0,0,1-5.51,1.4,10.7,10.7,0,0,1-5.71-1.55,9.93,9.93,0,0,1-3.82-4.22A12.73,12.73,0,0,1,90.46,270.17Zm3.09.05a9.1,9.1,0,0,0,2.2,6.45,7.68,7.68,0,0,0,11.1,0A9.62,9.62,0,0,0,109,269.9a11.47,11.47,0,0,0-.94-4.83,7.09,7.09,0,0,0-2.73-3.2,7.4,7.4,0,0,0-4-1.14,7.65,7.65,0,0,0-5.48,2.19Q93.56,265.11,93.55,270.22Z"/><path d="M115.25,281.21V258.55h10a13.32,13.32,0,0,1,4.61.61,5.07,5.07,0,0,1,2.52,2.16,6.41,6.41,0,0,1,.94,3.41,5.7,5.7,0,0,1-1.56,4.07,7.92,7.92,0,0,1-4.82,2.1,7.71,7.71,0,0,1,1.8,1.13,15.35,15.35,0,0,1,2.49,3l3.94,6.17h-3.77l-3-4.71c-.88-1.36-1.6-2.4-2.17-3.13a6.85,6.85,0,0,0-1.52-1.51,4.44,4.44,0,0,0-1.37-.6,8.35,8.35,0,0,0-1.67-.11h-3.48v10.06Zm3-12.66h6.45a9.73,9.73,0,0,0,3.21-.42,3.5,3.5,0,0,0,1.77-1.36,3.71,3.71,0,0,0,.6-2,3.37,3.37,0,0,0-1.17-2.64,5.46,5.46,0,0,0-3.68-1h-7.18Z"/><path d="M142.48,281.21v-20H135v-2.68h18v2.68h-7.5v20Z"/><path d="M169.93,258.55h3v13.09a15.38,15.38,0,0,1-.78,5.43,6.57,6.57,0,0,1-2.79,3.27,9.84,9.84,0,0,1-5.29,1.26,10.91,10.91,0,0,1-5.21-1.1,6.26,6.26,0,0,1-2.89-3.18,15.07,15.07,0,0,1-.86-5.68V258.55h3v13.08a12.91,12.91,0,0,0,.54,4.35,4.18,4.18,0,0,0,1.89,2.15,6.48,6.48,0,0,0,3.27.76c2.2,0,3.78-.5,4.71-1.5s1.41-2.92,1.41-5.76Z"/><path d="M177.08,281.21V258.55h3.07l11.91,17.79V258.55h2.87v22.66h-3.08L180,263.4v17.81Z"/><path d="M199.42,281.21V258.55h3v22.66Z"/><path d="M212.23,281.21v-20h-7.46v-2.68h18v2.68h-7.5v20Z"/><path d="M232.45,281.21v-9.6l-8.73-13.06h3.65l4.46,6.83q1.24,1.92,2.31,3.84c.68-1.19,1.5-2.52,2.47-4l4.39-6.66h3.49l-9,13.06v9.6Z"/></svg>