<?xml version="1.0" encoding="utf-8"?>
<!-- Generator: Adobe Illustrator 26.2.0, SVG Export Plug-In . SVG Version: 6.00 Build 0)  -->
<svg version="1.1" id="Layer_1" xmlns="http://www.w3.org/2000/svg" xmlns:xlink="http://www.w3.org/1999/xlink" x="0px" y="0px"
	 viewBox="0 0 1000 1000" style="enable-background:new 0 0 1000 1000;" xml:space="preserve">
<style type="text/css">
	.st0{fill:#F1F2F2;}
	.st1{fill:#0068A9;}
	.st2{fill:#F48024;}
</style>
<g>
	<circle id="circle79" class="st0" cx="501.2" cy="410.5" r="127.4"/>
	<path id="path81" class="st1" d="M373.2,604.7h-54.5v5.3l1.1,0.1c19.1,2.3,20.9,4.8,20.9,14.5v101h21.6v-52.5h8.7
		c20.6,0,63.4,0,63.4-34.2C434.4,604.7,394.6,604.7,373.2,604.7 M370.5,663.8h-8.3v-39.2c0-9.2,0-10.6,17.6-10.6
		c19.7,0,30.7,8.9,30.7,24.9C410.4,660.9,390.2,663.8,370.5,663.8"/>
	<path id="path83" class="st1" d="M556.7,604.7H544V699c-3.4-4.6-67.7-94.3-67.7-94.3h-46v5.3l1.1,0.2c18.6,2.4,21,3.2,21,16.6v98.8
		h13.9V624.3c3.4,4.6,72.9,101.4,72.9,101.4h18.6v-121H556.7z"/>
	<path id="path85" class="st1" d="M574.5,661.2c0,33,20.1,66.3,65.2,66.3c14,0.4,28.2-1.3,41.7-4.9l0.9-0.2v-10l-1.6,0.5
		c-9.4,2.6-19.1,4.1-28.8,4.4c-36,0-53.5-19.8-53.5-60.5c0-27.2,13-43.5,34.6-43.5c14.5,0,23.1,5.7,25.3,16.9l0.2,1h23.8l-0.2-1.4
		c-0.8-6.3-6.7-27-47.9-27C594.6,602.8,574.5,622.4,574.5,661.2"/>
	<path id="path87" class="st2" d="M612.7,543.9c-8.3,0.1-15.1-6.7-15.2-15c-0.1-8.3,6.7-15.1,15-15.2c8.3-0.1,15.1,6.7,15.2,15
		c0,0,0,0,0,0.1C627.7,537,621,543.8,612.7,543.9 M612.7,510.2c-10.2-0.1-18.6,8.2-18.7,18.5s8.2,18.6,18.5,18.7s18.6-8.2,18.7-18.5
		c0-0.1,0-0.1,0-0.2C631.2,518.5,623,510.3,612.7,510.2C612.8,510.2,612.8,510.2,612.7,510.2 M610.4,530.5h1.3
		c3.8,0,3.4,2.2,3.4,4.7c-0.1,1.5,0.1,2.8,0.7,4.2h4.7c-0.4-2-0.6-4.2-0.6-6.3c0.1-2.1-1.5-4.1-3.7-4.2c-0.2,0-0.4,0-0.5,0v-0.1
		c2.6-0.2,4.5-2.4,4.4-5c0-0.1,0-0.2,0-0.2c0.3-2.8-1.7-5.3-4.5-5.7c-0.3,0-0.7,0-1,0h-9v21.5h4.8L610.4,530.5L610.4,530.5z
		 M610.4,521.4h2.2c1.5,0,2.5,0.8,2.5,2.8c0,1.4-0.6,3.2-2.5,3.2h-2.2V521.4z"/>
	<path id="path89" class="st2" d="M569.1,430h-28.4c1.5-4.4,0.7-9.2-1.8-13l-46.2-80.1c-5.6-10.1-12.4-19.5-20.1-27.8
		c0.2,0.1,0.3,0.2,0.4,0.2c18.5,10.2,55.5,31.1,126.4,72.7l4.1,2.4c13.1,7.6,20.9,19.3,18.6,28C619,423.6,599.7,430,569.1,430
		 M476.9,509.9l-4.1,2.3c-13.1,7.5-27.2,8.4-33.5,2c-8.2-8.2-4.3-28.2,11-54.5l14.2-24.6c3.1,3.4,7.5,5.2,12.2,4.8h92.4
		c11.5,0.2,23-1,34.2-3.5c-0.1,0.1-0.2,0.1-0.4,0.2C585,447.8,548.4,469.4,476.9,509.9 M427.4,339.8v-4.6c0.1-15.1,6.4-27.8,15-30.1
		c11.3-3,26.5,10.4,41.8,36.9l14.2,24.6c-4.5,1-8.3,4-10.4,8.1l-46.2,80.2c-5.9,9.9-10.6,20.4-14,31.3v-0.5
		C427.2,464.4,426.7,422,427.4,339.8 M501.3,273.1c-75.9,0-137.4,61.5-137.4,137.4s61.5,137.4,137.4,137.4s137.4-61.6,137.4-137.4
		l0,0C638.6,334.5,577.1,273.1,501.3,273.1"/>
</g>
</svg>
