<?xml version="1.0" encoding="utf-8"?>
<!-- Generator: Adobe Illustrator 16.0.0, SVG Export Plug-In . SVG Version: 6.00 Build 0)  -->
<!DOCTYPE svg PUBLIC "-//W3C//DTD SVG 1.1//EN" "http://www.w3.org/Graphics/SVG/1.1/DTD/svg11.dtd">
<svg version="1.1" xmlns="http://www.w3.org/2000/svg" xmlns:xlink="http://www.w3.org/1999/xlink" x="0px" y="0px"
	 width="179.798px" height="75px" viewBox="0 0 179.798 75" enable-background="new 0 0 179.798 75" xml:space="preserve">
<g id="Layer_1">
</g>
<g id="Layer_3">
	<g>
		<g>
			<g>
				<path fill="#F7D102" d="M0.282,66.455C0.282,70.842,3.365,75,7.984,75h59.885C72.486,75,75,70.068,75,65.684V7.299
					C75,2.898,72.486,0,67.869,0H7.984C3.365,0,0,2.898,0,7.299V67"/>
				<path fill="#023F7E" d="M40.523,63.012c0-0.945,0.21-1.992,0.609-3.1c10.258-6.121,20.964-15.527,25.832-22.935
					c0.206-0.007,0.393-0.021,0.58-0.021c1.435,0,2.367,0.893,2.367,2.002c0,6.826-17.303,21.893-29.014,26.367
					C40.662,64.74,40.523,63.996,40.523,63.012L40.523,63.012z M65.818,37.176c-4.779,6.537-14.337,14.5-23.388,19.916
					C47.064,48.818,58.991,38.805,65.818,37.176L65.818,37.176z M30.121,62.775c-0.006-0.076-0.02-0.168-0.02-0.246
					c0-2.039,0.784-4.406,2.117-6.955c9.174-4.594,18.766-11.982,25.376-19.086c3.012-3.245,5.399-6.426,6.862-9.25
					c0.527-0.118,1.029-0.172,1.487-0.172c2.604,0,2.966,1.851,2.966,3.09c0,1.713-0.911,3.816-2.471,6.14
					c-0.333,0.045-0.684,0.1-1.047,0.192c-7.631,1.773-21.479,12.908-26.204,22.457C35.914,60.707,32.812,62.045,30.121,62.775
					L30.121,62.775z M37.685,66.32c-0.899,0.184-1.728,0.297-2.493,0.297c-1.626,0-3.292-0.586-4.264-1.771
					c2.262-0.777,4.678-1.883,7.166-3.213c-0.357,1.127-0.555,2.221-0.555,3.242C37.539,65.414,37.596,65.891,37.685,66.32
					L37.685,66.32z M27.041,63.348c-0.312,0.027-0.613,0.045-0.91,0.045c-3.055,0-4.578-1.533-4.969-3.736
					c2.436-0.504,5.038-1.371,7.701-2.521C27.845,59.299,27.197,61.389,27.041,63.348L27.041,63.348z M18.195,57.049
					c-2.903-0.23-4.212-2.014-4.212-4.443c0-0.283,0.019-0.574,0.04-0.871c2.315-0.271,4.794-0.922,7.378-1.9
					C19.889,52.359,18.788,54.799,18.195,57.049L18.195,57.049z M11.709,48.512c-2.317-0.795-2.678-2.695-2.678-4.221
					c0-0.672,0.096-1.398,0.292-2.188c0.415,0.049,0.853,0.082,1.313,0.082c1.447,0,3.051-0.285,4.783-0.793
					C13.816,43.855,12.553,46.264,11.709,48.512L11.709,48.512z M7.525,36.488c-0.15-0.502-0.236-1.078-0.236-1.742
					c0-1.09,0.311-2.334,0.869-3.68c0.742,0.369,1.648,0.588,2.733,0.588c0.519,0,1.068-0.046,1.631-0.129
					c-1.306,1.68-2.466,3.342-3.452,4.963c-0.287,0.469-0.551,0.925-0.799,1.384C7.941,37.488,7.69,37.035,7.525,36.488
					L7.525,36.488z M39.593,3.946c1.604,0,2.417,0.862,2.417,2.101c0,0.35-0.061,0.735-0.15,1.127
					c-8.344,3.568-19.551,12.674-27.295,21.834c-0.562,0.102-1.086,0.164-1.564,0.164c-1.529,0-2.703-0.259-3.496-0.798
					C15.533,17.98,32.342,3.946,39.593,3.946L39.593,3.946z M17.782,28.019c6.805-8.087,16.289-16.237,23.727-19.802
					C38.881,14.654,26.266,24.654,17.782,28.019L17.782,28.019z M48.084,6.359c2.485,0,3.225,0.619,3.225,2.97
					c0,0.561-0.174,1.239-0.497,1.991c-9.479,2.953-23.171,14.082-31.877,25.168c-0.457,0.578-0.897,1.158-1.335,1.736
					c-1.965,0.633-3.813,0.992-5.478,0.992c-0.616,0-1.194-0.062-1.702-0.174c0.367-0.83,0.803-1.681,1.309-2.555
					c1.033-1.807,2.332-3.723,3.809-5.664c10.576-3.387,24.57-16.354,26.879-23.025C44.533,6.873,46.469,6.359,48.084,6.359
					L48.084,6.359z M21.091,36.883c0.098-0.131,0.187-0.264,0.296-0.395c7.719-10.299,19.941-20.811,28.919-24.113
					c-3.709,6.811-16.995,18.766-28.346,24.113C21.67,36.624,21.385,36.752,21.091,36.883L21.091,36.883z M55.4,11.312
					c2.482,0,3.592,1.243,3.592,3.105c0,1.224-0.464,2.668-1.314,4.271c-7.273,2.179-17.381,9.454-25.607,17.8
					c-3.242,3.291-6.205,6.75-8.573,10.139c-3.318,1.381-6.376,2.213-8.922,2.246c0.769-2.662,2.255-5.648,4.242-8.719
					c2.261-0.961,4.63-2.214,7.023-3.666c10.956-6.661,22.478-17.63,25.464-24.462C52.783,11.564,54.158,11.312,55.4,11.312
					L55.4,11.312z M27.201,44.902c2.077-2.789,4.539-5.65,7.215-8.414c7.348-7.575,16.24-14.363,22.731-16.854
					c-3.028,5.059-9.43,11.389-16.669,16.854C36.166,39.742,31.571,42.703,27.201,44.902L27.201,44.902z M63.297,27.541
					c-1.668,2.742-4.305,5.827-7.516,8.947c-5.941,5.734-13.885,11.566-21.416,15.549c3.613-5.32,9.044-10.969,14.559-15.549
					C54.158,32.119,59.454,28.742,63.297,27.541L63.297,27.541z M61.665,18.629c2.481,0,3.587,1.675,3.587,3.418
					c0,1.31-0.496,2.856-1.407,4.55c-4.185,1.015-10.626,4.812-16.956,9.892c-6.285,5.031-12.455,11.303-16.213,17.367
					c-3.426,1.541-6.668,2.609-9.482,3.027c0.396-2.49,1.709-5.41,3.633-8.488c6.155-2.855,12.596-7.174,18.262-11.906
					c6.98-5.828,12.755-12.267,15.302-17.287C59.598,18.831,60.693,18.629,61.665,18.629L61.665,18.629z M44.371,67.238
					c-0.616,0-1.221-0.066-1.769-0.256c12.644-6.107,28.052-20.908,28.052-27.889c0-1.297-0.678-2.205-1.803-2.605
					c-0.422-0.15-0.891-0.238-1.418-0.251c1.422-2.304,2.223-4.386,2.223-6.081c0-1.239-0.365-3.834-3.838-3.834
					c-0.299,0-0.619,0.02-0.963,0.07c0.74-1.619,1.14-3.111,1.14-4.415c0-2.796-1.849-3.97-4.33-3.97
					c-0.876,0-1.847,0.129-2.873,0.379c0.651-1.464,1.011-2.78,1.011-3.914c0-2.107-1.115-3.903-4.646-3.903
					c-1.057,0-2.238,0.179-3.473,0.513c0.242-0.734,0.373-1.398,0.373-1.995c0-2.366-1.487-3.47-3.973-3.47
					c-1.551,0-3.387,0.437-5.396,1.229c0.034-0.264,0.064-0.508,0.064-0.745c0-1.845-0.985-2.847-3.348-2.847
					c-7.738,0-23.557,12.113-31.172,23.07c-0.052-0.271-0.072-0.563-0.072-0.877c0-4.214,5.326-13.883,18.85-20.087l-0.377-0.745
					C12.382,10.504,5.494,21.854,5.494,26.567c0,1.016,0.254,2.021,0.803,2.856c-1.429,2.553-2.28,4.97-2.352,7.064
					c-0.004,0.08-0.004,0.17-0.004,0.241c0,2.003,0.959,3.614,2.693,4.56c-0.696,1.771-1.075,3.41-1.075,4.863
					c0,1.824,1.36,5.111,5.224,5.633c-0.134,0.756-0.201,1.482-0.201,2.184c0,2.607,1.8,6.199,6.006,6.199
					c0.375,0,0.742-0.018,1.131-0.039c0,0.102-0.009,0.191-0.009,0.289c0,3.959,2.731,5.822,6.317,5.822
					c1.004,0,2.083-0.121,3.219-0.35c0.846,2.674,3.74,3.822,5.841,3.822c1.714,0,3.685-0.422,5.81-1.164
					c0.941,0.848,2.338,1.164,3.975,1.164c6.21,0,18.482-7.562,23.936-17.361l-0.5-0.488C59.558,62.15,49.015,67.238,44.371,67.238"
					/>
			</g>
		</g>
		<g>
			<path fill="#FFFFFF" d="M108.704,35.232h-5.566V18.631l-5.43,10.801h-3.77L88.47,18.631v16.602h-5.566V6.756h5.488l7.422,15.391
				l7.402-15.391h5.488V35.232z"/>
			<path fill="#FFFFFF" d="M129.507,26.424H116.46c0,1.367,0.407,2.484,1.221,3.35c0.813,0.866,1.93,1.299,3.35,1.299
				c1.106,0,1.992-0.149,2.656-0.449c0.664-0.299,1.354-0.801,2.07-1.504l3.145,3.066c-1.133,1.133-2.292,1.963-3.477,2.49
				c-1.185,0.527-2.663,0.791-4.434,0.791c-2.812,0-5.124-0.811-6.934-2.432c-1.81-1.621-2.715-4.371-2.715-8.252
				c0-2.2,0.377-4.104,1.133-5.713c0.755-1.607,1.819-2.828,3.193-3.662c1.374-0.833,2.959-1.25,4.756-1.25
				c1.875,0,3.499,0.424,4.873,1.27c1.374,0.847,2.418,2.035,3.135,3.564c0.716,1.53,1.074,3.239,1.074,5.127V26.424z
				 M124.39,22.869c-0.039-0.833-0.202-1.582-0.488-2.246c-0.287-0.638-0.726-1.155-1.318-1.553
				c-0.593-0.396-1.312-0.596-2.158-0.596c-0.82,0-1.53,0.199-2.129,0.596c-0.599,0.397-1.048,0.915-1.348,1.553
				c-0.287,0.717-0.449,1.465-0.488,2.246H124.39z M126.382,4.275l-4.551,6.797h-3.496l2.559-6.797H126.382z"/>
			<path fill="#FFFFFF" d="M141.372,35.232h-2.852c-1.328,0-2.449-0.279-3.359-0.839c-0.912-0.559-1.586-1.287-2.021-2.185
				c-0.438-0.897-0.654-1.873-0.654-2.927V18.963h-2.208v-3.965h2.208V8.826h5.195v6.172h3.691v3.965h-3.691v9.983
				c0,1.261,0.598,1.892,1.797,1.892h1.895V35.232z"/>
			<path fill="#FFFFFF" d="M160.552,26.424h-13.047c0,1.367,0.407,2.484,1.221,3.35c0.813,0.866,1.931,1.299,3.35,1.299
				c1.106,0,1.992-0.149,2.656-0.449c0.664-0.299,1.354-0.801,2.07-1.504l3.145,3.066c-1.133,1.133-2.292,1.963-3.477,2.49
				s-2.663,0.791-4.434,0.791c-2.812,0-5.124-0.811-6.934-2.432s-2.715-4.371-2.715-8.252c0-2.2,0.378-4.104,1.133-5.713
				c0.755-1.607,1.819-2.828,3.193-3.662c1.374-0.833,2.959-1.25,4.756-1.25c1.875,0,3.499,0.424,4.873,1.27
				c1.374,0.847,2.419,2.035,3.135,3.564c0.716,1.53,1.074,3.239,1.074,5.127V26.424z M155.435,22.869
				c-0.039-0.833-0.202-1.582-0.488-2.246c-0.286-0.638-0.726-1.155-1.318-1.553c-0.593-0.396-1.312-0.596-2.158-0.596
				c-0.82,0-1.53,0.199-2.129,0.596c-0.599,0.397-1.048,0.915-1.348,1.553c-0.286,0.717-0.449,1.465-0.488,2.246H155.435z
				 M157.427,4.275l-4.551,6.797h-3.496l2.559-6.797H157.427z"/>
			<path fill="#FFFFFF" d="M179.798,24.783c0,1.289-0.068,2.422-0.205,3.398s-0.382,1.853-0.733,2.627
				c-0.353,0.775-0.828,1.475-1.428,2.1c-1.616,1.706-3.78,2.559-6.491,2.559c-2.686,0-4.836-0.853-6.452-2.559
				c-0.457-0.469-0.835-0.97-1.135-1.504c-0.3-0.533-0.544-1.133-0.732-1.797c-0.189-0.664-0.32-1.422-0.392-2.275
				c-0.071-0.853-0.107-1.702-0.107-2.549c0-0.859,0.036-1.709,0.107-2.549s0.199-1.582,0.382-2.227s0.427-1.236,0.732-1.777
				c0.307-0.54,0.688-1.045,1.145-1.514c1.616-1.705,3.767-2.559,6.452-2.559c2.711,0,4.875,0.854,6.491,2.559
				c0.899,0.938,1.519,2.019,1.857,3.242C179.628,21.184,179.798,22.791,179.798,24.783z M174.563,24.783
				c0-1.311-0.075-2.353-0.224-3.125c-0.149-0.771-0.472-1.404-0.965-1.897c-0.636-0.61-1.447-0.915-2.435-0.915
				c-0.961,0-1.76,0.305-2.396,0.915c-0.494,0.52-0.815,1.178-0.965,1.976c-0.149,0.799-0.224,1.814-0.224,3.047
				c0,1.246,0.074,2.274,0.224,3.086c0.149,0.811,0.471,1.477,0.965,1.995c0.636,0.61,1.435,0.915,2.396,0.915
				c0.987,0,1.799-0.305,2.435-0.915c0.493-0.493,0.815-1.132,0.965-1.917C174.488,27.162,174.563,26.107,174.563,24.783z"/>
			<path fill="#FFFFFF" d="M108.704,70.232h-5.566V53.631l-5.43,10.801h-3.77L88.47,53.631v16.602h-5.566V41.756h5.488l7.422,15.391
				l7.402-15.391h5.488V70.232z"/>
			<path fill="#FFFFFF" d="M129.507,61.424H116.46c0,1.367,0.407,2.484,1.221,3.35c0.813,0.867,1.93,1.299,3.35,1.299
				c1.106,0,1.992-0.148,2.656-0.449c0.664-0.299,1.354-0.801,2.07-1.504l3.145,3.066c-1.133,1.133-2.292,1.963-3.477,2.49
				c-1.185,0.527-2.663,0.791-4.434,0.791c-2.812,0-5.124-0.811-6.934-2.432c-1.81-1.621-2.715-4.371-2.715-8.252
				c0-2.199,0.377-4.104,1.133-5.713c0.755-1.607,1.819-2.828,3.193-3.662c1.374-0.832,2.959-1.25,4.756-1.25
				c1.875,0,3.499,0.424,4.873,1.27c1.374,0.848,2.418,2.035,3.135,3.564c0.716,1.531,1.074,3.24,1.074,5.127V61.424z
				 M124.39,57.869c-0.039-0.832-0.202-1.582-0.488-2.246c-0.287-0.637-0.726-1.154-1.318-1.553
				c-0.593-0.396-1.312-0.596-2.158-0.596c-0.82,0-1.53,0.199-2.129,0.596c-0.599,0.398-1.048,0.916-1.348,1.553
				c-0.287,0.717-0.449,1.465-0.488,2.246H124.39z M126.382,39.275l-4.551,6.797h-3.496l2.559-6.797H126.382z"/>
			<path fill="#FFFFFF" d="M148.578,70.232H143.5v-1.961c-0.691,0.783-1.451,1.346-2.279,1.686s-1.79,0.51-2.885,0.51
				c-0.691,0-1.351-0.074-1.977-0.225c-0.626-0.148-1.213-0.367-1.76-0.654c-0.548-0.285-1.011-0.617-1.39-0.996
				c-0.626-0.598-1.099-1.377-1.418-2.334s-0.519-1.92-0.597-2.891c-0.078-0.969-0.117-2.164-0.117-3.584
				c0-1.406,0.039-2.59,0.117-3.555c0.078-0.963,0.28-1.92,0.606-2.871c0.326-0.949,0.796-1.725,1.408-2.324
				c0.587-0.586,1.327-1.045,2.221-1.377s1.849-0.498,2.866-0.498c1.095,0,2.051,0.158,2.865,0.471
				c0.815,0.314,1.556,0.85,2.221,1.609v-9.482h5.195V70.232z M143.383,59.783c0-1.322-0.085-2.396-0.254-3.221
				s-0.515-1.484-1.035-1.977c-0.521-0.494-1.276-0.74-2.266-0.74c-1.003,0-1.758,0.246-2.266,0.74
				c-0.508,0.492-0.843,1.154-1.006,1.986c-0.163,0.83-0.244,1.9-0.244,3.211c0,1.324,0.081,2.404,0.244,3.242
				s0.501,1.506,1.016,2.004c0.515,0.5,1.267,0.75,2.256,0.75c0.977,0,1.729-0.25,2.256-0.75c0.527-0.498,0.876-1.164,1.045-1.994
				S143.383,61.121,143.383,59.783z"/>
			<path fill="#FFFFFF" d="M157.686,43.514c0,0.912-0.312,1.688-0.938,2.324c-0.625,0.639-1.394,0.957-2.305,0.957
				c-0.898,0-1.67-0.322-2.314-0.967s-0.967-1.416-0.967-2.314s0.322-1.662,0.967-2.295c0.645-0.631,1.416-0.947,2.314-0.947
				c0.469,0,0.896,0.082,1.279,0.244c0.384,0.164,0.726,0.395,1.025,0.693c0.3,0.301,0.53,0.643,0.693,1.025
				C157.604,42.619,157.686,43.045,157.686,43.514z M157.041,70.232h-5.195v-20.84h5.195V70.232z"/>
			<path fill="#FFFFFF" d="M176.056,70.232h-5.078v-1.797c-0.677,0.703-1.409,1.211-2.197,1.523s-1.761,0.469-2.92,0.469
				s-2.181-0.152-3.066-0.459c-0.886-0.305-1.634-0.764-2.246-1.377c-1.146-1.172-1.719-2.734-1.719-4.688
				c0-1.119,0.264-2.139,0.791-3.057s1.321-1.643,2.383-2.178c1.062-0.533,2.373-0.801,3.936-0.801h4.922v-1.035
				c0-1.158-0.303-1.994-0.908-2.51c-0.605-0.514-1.592-0.771-2.959-0.771c-0.989,0-1.761,0.125-2.314,0.371
				c-0.554,0.248-1.116,0.697-1.689,1.348l-3.32-3.242c0.964-1.08,2.012-1.828,3.145-2.246c1.133-0.416,2.591-0.625,4.375-0.625
				c2.917,0,5.124,0.619,6.621,1.855c1.497,1.238,2.246,3.074,2.246,5.508V70.232z M170.86,62.557v-1.133h-4.121
				c-0.925,0-1.641,0.209-2.148,0.625c-0.508,0.418-0.762,0.996-0.762,1.738c0,0.756,0.251,1.346,0.752,1.768
				c0.501,0.424,1.247,0.635,2.236,0.635c0.769,0,1.399-0.064,1.895-0.195c0.495-0.129,0.957-0.396,1.387-0.801
				C170.606,64.725,170.86,63.846,170.86,62.557z"/>
		</g>
	</g>
</g>
</svg>
