<?xml version="1.0" encoding="iso-8859-1"?>
<!-- Generator: Adobe Illustrator 16.0.0, SVG Export Plug-In . SVG Version: 6.00 Build 0)  -->
<!DOCTYPE svg PUBLIC "-//W3C//DTD SVG 1.1//EN" "http://www.w3.org/Graphics/SVG/1.1/DTD/svg11.dtd">
<svg version="1.1" id="Layer_1" xmlns="http://www.w3.org/2000/svg" xmlns:xlink="http://www.w3.org/1999/xlink" x="0px" y="0px"
	 width="312px" height="32px" viewBox="104 20 312 32" style="enable-background:new 104 20 312 32;" xml:space="preserve">
<g>
	<polygon style="fill:#FFFFFF;" points="110.016,37.067 104.606,37.067 104.606,34.138 118.743,34.138 118.743,37.067 
		113.354,37.067 113.354,50.771 110.016,50.771 	"/>
	<polygon style="fill:#FFFFFF;" points="121.653,34.136 124.996,34.136 124.996,40.59 132.426,40.59 132.426,34.136 135.79,34.136 
		135.79,50.771 132.426,50.771 132.426,43.659 124.996,43.659 124.996,50.771 121.653,50.771 	"/>
	<polygon style="fill:#FFFFFF;" points="139.725,34.136 150.792,34.136 150.792,37.067 143.066,37.067 143.066,40.772 
		149.156,40.772 149.156,43.705 143.066,43.705 143.066,47.909 150.792,47.909 150.792,50.771 139.725,50.771 	"/>
	<path style="fill:#FFFFFF;" d="M159.542,42.452c0-7.202,2.907-8.566,7.454-8.566c2.727,0,3.978,0.341,4.75,0.502l-0.568,2.837
		c-1.229-0.201-2.454-0.404-4.228-0.404c-2.909,0-3.907,1.179-3.907,4.975v1.229c0,3.705,1.021,5.109,3.953,5.109
		c2.182,0,3.703-0.383,4.203-0.476l0.547,2.794c-0.889,0.254-2.14,0.548-4.796,0.548C162.36,50.999,159.542,49.657,159.542,42.452"
		/>
	<path style="fill:#FFFFFF;" d="M181.765,38.522c0,0-2.429,6.542-2.452,6.542h4.887L181.765,38.522z M177.201,50.771h-3.343
		l6.456-16.747h3.066l6.453,16.747h-3.521l-1.112-2.998h-6.888L177.201,50.771"/>
	<polygon style="fill:#FFFFFF;" points="192.157,34.136 195.473,34.136 202.793,44.729 202.793,34.136 205.996,34.136 
		205.996,50.771 203.134,50.771 195.361,39.476 195.361,50.771 192.157,50.771 	"/>
	<path style="fill:#FFFFFF;" d="M216.224,38.522c0,0-2.429,6.542-2.45,6.542h4.887L216.224,38.522z M211.659,50.771h-3.343
		l6.456-16.747h3.066l6.455,16.747h-3.521l-1.114-2.998h-6.886L211.659,50.771"/>
	<path style="fill:#FFFFFF;" d="M232.82,48.113c2.908,0,4.022-1.296,4.022-5.114v-1.091c0-3.842-1.114-5.047-4.022-5.047h-2.863
		v11.253L232.82,48.113L232.82,48.113z M226.616,34.136h6.228c4.929,0,7.522,1.158,7.522,8.316c0,7.16-2.594,8.318-7.522,8.318
		h-6.228V34.136"/>
	<rect x="243.413" y="34.136" style="fill:#FFFFFF;" width="3.362" height="16.635"/>
	<path style="fill:#FFFFFF;" d="M257.068,38.522c0,0-2.43,6.542-2.451,6.542h4.886L257.068,38.522z M252.503,50.771h-3.341
		l6.456-16.747h3.064l6.455,16.747h-3.521l-1.112-2.998h-6.886L252.503,50.771"/>
	<polygon style="fill:#FFFFFF;" points="267.389,34.136 270.703,34.136 278.024,44.729 278.024,34.136 281.229,34.136 
		281.229,50.771 278.366,50.771 270.592,39.476 270.592,50.771 267.389,50.771 	"/>
	<path style="fill:#FFFFFF;" d="M298.069,42.999c1.498,0,2.796-0.229,2.796-3.068c0-2.842-1.34-3.044-2.843-3.044h-3.501v6.112
		H298.069z M291.206,34.136h6.863c4.112,0,6.137,1.091,6.137,5.748c0,4.685-2.091,5.818-6.184,5.818h-3.501v5.068h-3.315V34.136"/>
	<path style="fill:#FFFFFF;" d="M313.981,42.771c1.794,0,2.792-0.409,2.792-2.955c0-2.566-1.113-2.929-2.839-2.929h-3.272v5.884
		H313.981z M321.206,50.771h-3.817l-3.567-5.294h-3.158v5.294h-3.319V34.136h6.638c4.113,0,6.136,0.978,6.136,5.639
		c0,3.248-1.022,4.499-2.955,4.976L321.206,50.771"/>
	<polygon style="fill:#FFFFFF;" points="324.188,34.136 335.252,34.136 335.252,37.067 327.529,37.067 327.529,40.772 
		333.616,40.772 333.616,43.705 327.529,43.705 327.529,47.909 335.252,47.909 335.252,50.771 324.188,50.771 	"/>
	<path style="fill:#FFFFFF;" d="M338.374,50.292l0.521-2.794c0.684,0.16,3.708,0.615,5.299,0.615c2.361,0,3.087-0.319,3.087-2.047
		c0-1.546-0.479-1.704-3.201-2.251c-4.546-0.908-5.66-1.612-5.66-5.225c0-3.478,2.229-4.656,6.024-4.656
		c2.023,0,4.816,0.338,5.543,0.565l-0.524,2.818c-1.043-0.162-3.133-0.479-5.047-0.479c-1.928,0-2.608,0.436-2.608,1.796
		c0,1.568,0.521,1.754,3.134,2.273c4.364,0.863,5.772,1.41,5.772,5.183c0,3.727-2.088,4.864-6.545,4.864
		C341.647,50.955,339.148,50.52,338.374,50.292"/>
	<path style="fill:#FFFFFF;" d="M353.33,50.292l0.523-2.794c0.685,0.16,3.702,0.615,5.292,0.615c2.368,0,3.093-0.319,3.093-2.047
		c0-1.546-0.476-1.704-3.201-2.251c-4.548-0.908-5.66-1.612-5.66-5.225c0-3.478,2.228-4.656,6.022-4.656
		c2.025,0,4.821,0.338,5.546,0.565l-0.527,2.818c-1.041-0.162-3.132-0.479-5.043-0.479c-1.931,0-2.612,0.436-2.612,1.796
		c0,1.568,0.523,1.754,3.136,2.273c4.364,0.863,5.772,1.41,5.772,5.183c0,3.727-2.092,4.864-6.544,4.864
		C356.602,50.955,354.104,50.52,353.33,50.292"/>
	<path style="fill:#ED1D24;" d="M374.495,33.211V21h8.568v13.132h-4.882c0.639,3.321,4.882,4.541,4.882,4.541v1.801
		C383.063,40.474,375.47,39.027,374.495,33.211"/>
	<path style="fill:#ED1D24;" d="M415.394,21h-8.569v13.132h4.881c-0.64,3.321-4.881,4.541-4.881,4.541v1.801
		c0,0,7.593-1.446,8.569-7.263"/>
	<path style="fill:#ED1D24;" d="M393.314,25.224L393.314,25.224c-0.019,0.033-0.035,0.05-0.07,0.057
		c-0.037,0.01-0.065-0.002-0.095-0.023l-1.464-0.967l0.973,4.715c0.007,0.053-0.005,0.101-0.051,0.126
		c-0.043,0.021-0.093,0.013-0.124-0.022l-2.197-2.147l-0.729,1.171c-0.01,0.02-0.028,0.036-0.05,0.045
		c-0.025,0.007-0.047,0.007-0.067,0.002l-2.228-0.477l0.775,2.214c0.007,0.016,0.007,0.032,0.004,0.052
		c-0.007,0.027-0.019,0.042-0.04,0.059l-0.973,0.856l4.437,3.24c0.026,0.019,0.043,0.033,0.053,0.063
		c0.007,0.027,0.004,0.056-0.011,0.081l-0.948,1.581l3.891-0.587c0.048-0.008,0.131,0.021,0.131,0.112v3.268h0.927v-3.268
		c0-0.091,0.081-0.119,0.134-0.112l3.891,0.587l-0.949-1.581c-0.014-0.025-0.018-0.054-0.009-0.081
		c0.008-0.029,0.025-0.043,0.046-0.063l4.443-3.24l-0.975-0.856c-0.02-0.016-0.034-0.031-0.039-0.059
		c-0.006-0.02-0.004-0.036,0.003-0.052l0.778-2.214l-2.229,0.477c-0.021,0.005-0.047,0.005-0.068-0.002
		c-0.021-0.009-0.043-0.025-0.051-0.045l-0.727-1.171l-2.199,2.147c-0.032,0.036-0.082,0.044-0.124,0.022
		c-0.047-0.025-0.063-0.073-0.054-0.126l0.979-4.715l-1.465,0.967c-0.032,0.021-0.064,0.033-0.097,0.023
		c-0.035-0.007-0.054-0.023-0.069-0.057h-0.004l-1.677-3.419L393.314,25.224"/>
</g>
</svg>
