<?xml version="1.0" encoding="iso-8859-1"?>
<!-- Generator: Adobe Illustrator 16.0.0, SVG Export Plug-In . SVG Version: 6.00 Build 0)  -->
<!DOCTYPE svg PUBLIC "-//W3C//DTD SVG 1.1//EN" "http://www.w3.org/Graphics/SVG/1.1/DTD/svg11.dtd">
<svg version="1.1" id="Layer_1" xmlns="http://www.w3.org/2000/svg" xmlns:xlink="http://www.w3.org/1999/xlink" x="0px" y="0px"
	 width="104.195px" height="32px" viewBox="76.36 20 104.195 32" style="enable-background:new 76.36 20 104.195 32;"
	 xml:space="preserve">
<g>
	<path style="fill:#FFFFFF;" d="M123.869,40.918h-1.691c-0.152,0-0.209-0.139-0.277-0.275l-1.996-3.361h-0.307
		c-0.362,0-1.481-0.039-1.8-0.055v3.416c0,0.15-0.112,0.275-0.266,0.275h-1.386c-0.15,0-0.276-0.125-0.276-0.275V31.56
		c0-0.277,0.164-0.375,0.443-0.415c0.722-0.111,2.271-0.18,3.284-0.18c2.134,0,4.105,0.763,4.105,3.131v0.126
		c0,1.468-0.734,2.271-1.871,2.711l2.175,3.709c0.028,0.041,0.028,0.08,0.028,0.111C124.035,40.848,123.979,40.918,123.869,40.918z
		 M121.79,34.096c0-1.039-0.807-1.481-2.192-1.481c-0.291,0-1.553,0.026-1.8,0.054v3.006c0.219,0.014,1.562,0.042,1.8,0.042
		c1.427,0,2.192-0.275,2.192-1.495V34.096z M127.729,38.189c0,1.162,0.044,1.191,1.092,1.191h3.509c0.152,0,0.278,0.127,0.278,0.277
		v0.887c0,0.193-0.069,0.264-0.278,0.289c-0.442,0.072-1.347,0.193-2.994,0.193c-2.3,0-3.521,0.016-3.521-2.84v-4.384
		c0-2.855,1.221-2.839,3.521-2.839c1.647,0,2.552,0.125,2.994,0.193c0.209,0.027,0.278,0.097,0.278,0.292v0.885
		c0,0.152-0.126,0.28-0.278,0.28h-3.509c-1.048,0-1.092,0.029-1.092,1.189v1.271h4.437c0.152,0,0.276,0.126,0.276,0.276v1
		c0,0.15-0.124,0.277-0.276,0.277h-4.437V38.189z M138.832,41.027c-2.228,0-4.151-0.969-4.151-3.922v-5.766
		c0-0.154,0.126-0.265,0.278-0.265h1.369c0.154,0,0.278,0.111,0.278,0.265v5.768c0,1.578,0.729,2.33,2.226,2.33
		c1.497,0,2.227-0.752,2.227-2.33v-5.768c0-0.154,0.124-0.265,0.276-0.265h1.371c0.152,0,0.278,0.111,0.278,0.265v5.768
		C142.984,40.059,141.064,41.027,138.832,41.027z M152.098,32.682h-2.764v7.96c0,0.15-0.13,0.275-0.282,0.275h-1.371
		c-0.152,0-0.278-0.125-0.278-0.275v-7.96h-2.765c-0.15,0-0.277-0.095-0.277-0.248v-1.095c0-0.154,0.127-0.265,0.277-0.265h7.46
		c0.15,0,0.276,0.111,0.276,0.265v1.095C152.374,32.586,152.248,32.682,152.098,32.682z M170.916,40.918h-1.69
		c-0.152,0-0.209-0.139-0.274-0.275l-1.998-3.361h-0.311c-0.356,0-1.479-0.039-1.8-0.055v3.416c0,0.15-0.11,0.275-0.26,0.275h-1.385
		c-0.154,0-0.278-0.125-0.278-0.275V31.56c0-0.277,0.164-0.375,0.442-0.415c0.72-0.111,2.271-0.18,3.28-0.18
		c2.136,0,4.107,0.763,4.107,3.131v0.126c0,1.468-0.737,2.271-1.873,2.711l2.178,3.709c0.03,0.041,0.03,0.08,0.03,0.111
		C171.085,40.848,171.026,40.918,170.916,40.918z M168.839,34.096c0-1.039-0.808-1.481-2.196-1.481c-0.289,0-1.549,0.026-1.8,0.054
		v3.006c0.225,0.014,1.569,0.042,1.8,0.042c1.431,0,2.196-0.275,2.196-1.495V34.096z M176.206,41.035
		c-1.224,0-2.466-0.211-3.132-0.361c-0.138-0.029-0.265-0.125-0.265-0.277v-0.998c0-0.152,0.127-0.264,0.265-0.264
		c0.013,0,0.013,0,0.026,0c0.557,0.068,1.854,0.25,3.134,0.25c1.232,0,1.609-0.443,1.609-1.246c0-1.041-2.481-1.615-3.691-2.114
		c-1.208-0.499-1.635-1.452-1.635-2.422c0-1.525,1.23-2.634,3.807-2.634c1.323,0,2.531,0.251,3.002,0.364
		c0.139,0.028,0.248,0.125,0.248,0.262v1.026c0,0.138-0.094,0.249-0.234,0.249c-0.012,0-0.012,0-0.027,0
		c-0.914-0.083-1.861-0.251-3.068-0.251c-1.025,0-1.795,0.36-1.795,0.983c0,0.457,0.521,0.875,1.136,1.12
		c0.615,0.241,1.423,0.557,2.347,0.927c1.166,0.472,1.924,1.16,1.924,2.49C179.852,39.537,178.978,41.035,176.206,41.035z
		 M155.71,38.189c0,1.162,0.044,1.191,1.094,1.191h3.511c0.148,0,0.276,0.127,0.276,0.277v0.887c0,0.193-0.072,0.264-0.276,0.289
		c-0.446,0.072-1.347,0.193-2.995,0.193c-2.305,0-3.521,0.016-3.521-2.84v-4.384c0-2.855,1.216-2.839,3.521-2.839
		c1.648,0,2.549,0.125,2.995,0.193c0.207,0.027,0.276,0.097,0.276,0.292v0.885c0,0.152-0.128,0.28-0.276,0.28h-3.511
		c-1.05,0-1.094,0.029-1.094,1.189v1.271h4.437c0.154,0,0.274,0.126,0.274,0.276v1c0,0.15-0.12,0.277-0.274,0.277h-4.437V38.189z"/>
	<g>
		
			<linearGradient id="SVGID_1_" gradientUnits="userSpaceOnUse" x1="-92.1675" y1="683.877" x2="-100.6209" y2="688.7576" gradientTransform="matrix(0.9996 0.0286 -0.0286 0.9996 208.7584 -647.2889)">
			<stop  offset="0" style="stop-color:#FF9100"/>
			<stop  offset="0.05" style="stop-color:#FF8D00"/>
			<stop  offset="0.2503" style="stop-color:#FF8300"/>
			<stop  offset="0.5" style="stop-color:#FF8000"/>
			<stop  offset="0.7497" style="stop-color:#FF8300"/>
			<stop  offset="0.95" style="stop-color:#FF8D00"/>
			<stop  offset="1" style="stop-color:#FF9100"/>
		</linearGradient>
		<path style="fill:url(#SVGID_1_);" d="M91.146,31.677c0.159,0.298,0.05,0.672-0.249,0.833c-0.304,0.163-0.676,0.048-0.837-0.251
			c-0.164-0.298-0.051-0.673,0.247-0.833C90.607,31.262,90.984,31.375,91.146,31.677z M88.098,36.502
			c-0.174,0.096-0.24,0.318-0.146,0.492c0.096,0.18,0.317,0.24,0.49,0.143c0.177-0.09,0.248-0.314,0.149-0.488
			C88.492,36.473,88.277,36.406,88.098,36.502z M88.036,35.018c-0.203,0.11-0.279,0.367-0.17,0.57
			c0.114,0.209,0.369,0.283,0.575,0.173c0.204-0.111,0.282-0.372,0.172-0.574C88.501,34.98,88.246,34.905,88.036,35.018z
			 M88.422,33.59c-0.236,0.128-0.322,0.422-0.199,0.655c0.129,0.233,0.422,0.324,0.655,0.196c0.237-0.125,0.326-0.42,0.199-0.656
			C88.945,33.552,88.655,33.466,88.422,33.59z M89.206,32.356c-0.269,0.146-0.367,0.472-0.222,0.742
			c0.143,0.261,0.469,0.361,0.733,0.219c0.269-0.143,0.367-0.476,0.224-0.736C89.801,32.316,89.469,32.212,89.206,32.356z
			 M88.604,37.906c-0.148,0.078-0.201,0.262-0.122,0.414c0.079,0.143,0.26,0.199,0.411,0.121c0.146-0.084,0.2-0.266,0.12-0.412
			C88.934,37.885,88.75,37.826,88.604,37.906z M95.616,32.855c0.094,0.175,0.314,0.241,0.495,0.15
			c0.175-0.1,0.243-0.319,0.147-0.497c-0.098-0.176-0.315-0.244-0.491-0.146C95.587,32.462,95.522,32.68,95.616,32.855z
			 M94.385,32.072c0.111,0.205,0.372,0.28,0.572,0.169c0.21-0.112,0.286-0.368,0.173-0.573c-0.108-0.207-0.368-0.283-0.57-0.174
			C94.354,31.607,94.273,31.868,94.385,32.072z M92.961,31.69c0.125,0.235,0.417,0.322,0.65,0.194
			c0.24-0.129,0.324-0.42,0.199-0.656c-0.124-0.233-0.418-0.323-0.653-0.193C92.919,31.162,92.837,31.454,92.961,31.69z
			 M91.475,31.749c0.142,0.269,0.475,0.364,0.739,0.225c0.263-0.146,0.359-0.474,0.219-0.741c-0.14-0.263-0.474-0.364-0.739-0.219
			C91.43,31.155,91.336,31.487,91.475,31.749z M96.542,33.966c0.078,0.146,0.262,0.2,0.405,0.121
			c0.148-0.078,0.203-0.259,0.123-0.406c-0.08-0.15-0.26-0.205-0.41-0.13C96.519,33.634,96.46,33.822,96.542,33.966z M95.496,39.736
			c-0.163-0.301-0.536-0.418-0.84-0.252c-0.298,0.16-0.413,0.535-0.247,0.834c0.164,0.299,0.537,0.408,0.838,0.25
			C95.545,40.406,95.655,40.029,95.496,39.736z M89.936,39.139c-0.094-0.176-0.314-0.238-0.49-0.146
			c-0.176,0.09-0.242,0.316-0.148,0.488c0.094,0.18,0.313,0.244,0.491,0.146C89.963,39.535,90.03,39.316,89.936,39.139z
			 M91.169,39.92c-0.113-0.201-0.37-0.281-0.572-0.168c-0.21,0.115-0.284,0.369-0.171,0.572c0.106,0.207,0.365,0.285,0.57,0.174
			C91.203,40.385,91.279,40.125,91.169,39.92z M92.596,40.303c-0.124-0.234-0.421-0.316-0.659-0.195
			c-0.236,0.129-0.319,0.424-0.196,0.656c0.13,0.236,0.423,0.324,0.657,0.197C92.637,40.838,92.723,40.539,92.596,40.303z
			 M94.08,40.244c-0.145-0.266-0.473-0.361-0.739-0.221s-0.358,0.471-0.215,0.738c0.139,0.262,0.467,0.367,0.732,0.217
			C94.126,40.84,94.221,40.508,94.08,40.244z M97.451,35.497c0.179-0.103,0.246-0.324,0.153-0.498
			c-0.097-0.177-0.318-0.24-0.491-0.146c-0.18,0.093-0.246,0.317-0.148,0.493C97.056,35.521,97.281,35.587,97.451,35.497z
			 M97.52,36.977c0.206-0.111,0.279-0.367,0.167-0.573c-0.108-0.206-0.364-0.281-0.57-0.171c-0.207,0.113-0.28,0.367-0.174,0.576
			C97.051,37.012,97.315,37.086,97.52,36.977z M97.131,38.404c0.24-0.131,0.324-0.42,0.202-0.658
			c-0.128-0.232-0.42-0.322-0.656-0.195c-0.236,0.125-0.323,0.424-0.198,0.658C96.608,38.441,96.901,38.529,97.131,38.404z
			 M96.353,39.633c0.264-0.137,0.36-0.473,0.218-0.734c-0.145-0.264-0.473-0.365-0.736-0.221c-0.266,0.143-0.361,0.475-0.219,0.736
			C95.754,39.68,96.085,39.779,96.353,39.633z"/>
		
			<linearGradient id="SVGID_2_" gradientUnits="userSpaceOnUse" x1="-75.1621" y1="582.292" x2="-88.3047" y2="582.292" gradientTransform="matrix(0.9595 0.2818 -0.2818 0.9595 335.2883 -499.6784)">
			<stop  offset="0" style="stop-color:#FF9100"/>
			<stop  offset="0.05" style="stop-color:#FF8D00"/>
			<stop  offset="0.2503" style="stop-color:#FF8300"/>
			<stop  offset="0.5" style="stop-color:#FF8000"/>
			<stop  offset="0.7497" style="stop-color:#FF8300"/>
			<stop  offset="0.95" style="stop-color:#FF8D00"/>
			<stop  offset="1" style="stop-color:#FF9100"/>
		</linearGradient>
		<path style="fill:url(#SVGID_2_);" d="M95.307,30.204c-0.122,0.418-0.563,0.659-0.983,0.533c-0.427-0.125-0.659-0.563-0.538-0.985
			c0.121-0.419,0.562-0.663,0.985-0.541C95.193,29.336,95.436,29.778,95.307,30.204z M87.701,32.077
			c-0.207-0.056-0.426,0.06-0.487,0.268c-0.061,0.206,0.06,0.423,0.267,0.483c0.207,0.061,0.423-0.056,0.485-0.264
			C88.03,32.358,87.907,32.141,87.701,32.077z M89.077,30.563c-0.259-0.076-0.524,0.073-0.599,0.329
			c-0.075,0.258,0.069,0.524,0.328,0.6c0.255,0.075,0.524-0.073,0.601-0.328C89.482,30.909,89.334,30.641,89.077,30.563z
			 M90.841,29.497c-0.327-0.094-0.667,0.092-0.765,0.415c-0.095,0.326,0.094,0.667,0.419,0.763s0.668-0.087,0.762-0.415
			C91.35,29.935,91.162,29.592,90.841,29.497z M92.794,29.06c-0.37-0.111-0.749,0.102-0.859,0.467
			c-0.108,0.367,0.1,0.749,0.467,0.858c0.367,0.108,0.749-0.104,0.858-0.467C93.369,29.552,93.159,29.167,92.794,29.06z
			 M86.831,33.951c-0.154-0.046-0.316,0.043-0.36,0.197c-0.045,0.156,0.041,0.32,0.196,0.367c0.156,0.045,0.318-0.046,0.363-0.201
			C87.075,34.159,86.988,33.997,86.831,33.951z M98.68,35.711c-0.062,0.206,0.056,0.427,0.267,0.486
			c0.208,0.062,0.425-0.058,0.485-0.267c0.061-0.204-0.056-0.422-0.265-0.485C98.96,35.386,98.737,35.504,98.68,35.711z
			 M98.227,33.753c-0.078,0.26,0.074,0.528,0.329,0.603c0.259,0.076,0.524-0.071,0.6-0.329c0.075-0.257-0.07-0.524-0.325-0.598
			C98.573,33.352,98.301,33.5,98.227,33.753z M97.161,31.992c-0.098,0.33,0.091,0.668,0.415,0.764
			c0.327,0.095,0.666-0.093,0.764-0.419c0.097-0.323-0.09-0.663-0.418-0.759C97.6,31.482,97.26,31.669,97.161,31.992z
			 M95.659,30.624c-0.108,0.364,0.103,0.749,0.469,0.857c0.367,0.108,0.751-0.105,0.858-0.471c0.109-0.365-0.101-0.75-0.467-0.858
			C96.15,30.044,95.769,30.258,95.659,30.624z M98.521,37.689c-0.043,0.154,0.043,0.318,0.195,0.363
			c0.158,0.045,0.319-0.043,0.363-0.201c0.048-0.152-0.041-0.316-0.197-0.363C98.73,37.445,98.566,37.533,98.521,37.689z
			 M91.769,42.252c0.123-0.422-0.115-0.865-0.539-0.988c-0.423-0.123-0.864,0.117-0.985,0.537c-0.121,0.426,0.114,0.863,0.539,0.988
			C91.205,42.91,91.648,42.668,91.769,42.252z M86.871,36.289c0.063-0.207-0.055-0.424-0.264-0.486
			c-0.207-0.062-0.423,0.06-0.488,0.267c-0.063,0.206,0.061,0.421,0.267,0.483C86.593,36.615,86.81,36.498,86.871,36.289z
			 M87.325,38.246c0.076-0.256-0.071-0.523-0.325-0.596c-0.26-0.078-0.529,0.068-0.601,0.326c-0.071,0.254,0.068,0.525,0.328,0.602
			C86.979,38.654,87.251,38.504,87.325,38.246z M88.394,40.01c0.095-0.324-0.094-0.67-0.419-0.766
			c-0.326-0.096-0.663,0.092-0.762,0.42c-0.096,0.324,0.088,0.664,0.416,0.76C87.957,40.523,88.296,40.336,88.394,40.01z
			 M89.895,41.381c0.106-0.363-0.103-0.75-0.471-0.857c-0.367-0.109-0.747,0.102-0.855,0.471c-0.106,0.361,0.099,0.746,0.467,0.855
			C89.402,41.955,89.785,41.744,89.895,41.381z M97.849,39.922c0.211,0.061,0.43-0.057,0.49-0.264
			c0.06-0.207-0.059-0.428-0.266-0.488s-0.425,0.057-0.487,0.268C97.526,39.645,97.645,39.863,97.849,39.922z M96.476,41.438
			c0.256,0.076,0.523-0.07,0.598-0.324c0.078-0.26-0.069-0.529-0.323-0.604c-0.259-0.076-0.527,0.072-0.604,0.328
			C96.071,41.092,96.221,41.361,96.476,41.438z M94.712,42.504c0.329,0.098,0.668-0.09,0.765-0.416
			c0.096-0.322-0.089-0.664-0.417-0.76c-0.325-0.098-0.67,0.088-0.765,0.412C94.2,42.068,94.389,42.41,94.712,42.504z
			 M92.761,42.939c0.367,0.111,0.753-0.098,0.857-0.463c0.106-0.367-0.1-0.752-0.467-0.859c-0.368-0.109-0.752,0.102-0.859,0.469
			C92.185,42.449,92.396,42.832,92.761,42.939z"/>
		
			<linearGradient id="SVGID_3_" gradientUnits="userSpaceOnUse" x1="-88.0024" y1="615.3945" x2="-102.8744" y2="606.2043" gradientTransform="matrix(0.9732 0.2298 -0.2298 0.9732 326.0187 -536.4999)">
			<stop  offset="0" style="stop-color:#FF9100"/>
			<stop  offset="0.05" style="stop-color:#FF8D00"/>
			<stop  offset="0.2503" style="stop-color:#FF8300"/>
			<stop  offset="0.5" style="stop-color:#FF8000"/>
			<stop  offset="0.7497" style="stop-color:#FF8300"/>
			<stop  offset="0.95" style="stop-color:#FF8D00"/>
			<stop  offset="1" style="stop-color:#FF9100"/>
		</linearGradient>
		<path style="fill:url(#SVGID_3_);" d="M99.256,30.607c-0.385,0.407-1.031,0.427-1.44,0.039c-0.411-0.387-0.429-1.031-0.04-1.439
			c0.385-0.409,1.027-0.431,1.438-0.045C99.623,29.549,99.642,30.193,99.256,30.607z M89.098,28.291
			c-0.203-0.189-0.521-0.181-0.711,0.02c-0.189,0.203-0.181,0.518,0.02,0.709c0.204,0.189,0.521,0.181,0.711-0.02
			C89.309,28.799,89.297,28.48,89.098,28.291z M91.644,27.322c-0.251-0.234-0.642-0.22-0.876,0.027
			c-0.234,0.251-0.224,0.642,0.027,0.879c0.247,0.233,0.641,0.22,0.877-0.028C91.904,27.951,91.894,27.557,91.644,27.322z
			 M94.376,27.123c-0.316-0.299-0.814-0.281-1.114,0.031c-0.296,0.318-0.283,0.816,0.036,1.115c0.315,0.299,0.815,0.284,1.111-0.033
			C94.709,27.919,94.692,27.422,94.376,27.123z M96.961,27.783c-0.361-0.339-0.918-0.318-1.254,0.037
			c-0.335,0.355-0.32,0.914,0.036,1.253c0.355,0.336,0.92,0.319,1.253-0.036C97.331,28.681,97.316,28.119,96.961,27.783z
			 M86.939,29.988c-0.154-0.141-0.39-0.134-0.529,0.015c-0.144,0.151-0.136,0.388,0.014,0.53c0.153,0.144,0.39,0.135,0.53-0.016
			C87.095,30.365,87.089,30.13,86.939,29.988z M99.98,39.23c-0.19,0.203-0.181,0.521,0.021,0.711
			c0.203,0.191,0.521,0.182,0.712-0.023c0.188-0.201,0.181-0.518-0.021-0.711C100.489,39.02,100.171,39.029,99.98,39.23z
			 M100.625,36.635c-0.233,0.25-0.22,0.643,0.029,0.877c0.252,0.236,0.641,0.223,0.877-0.027c0.234-0.25,0.226-0.641-0.028-0.875
			C101.256,36.375,100.861,36.387,100.625,36.635z M100.428,33.902c-0.3,0.317-0.285,0.816,0.034,1.114
			c0.316,0.3,0.815,0.283,1.113-0.035c0.3-0.314,0.283-0.814-0.034-1.112C101.225,33.571,100.726,33.585,100.428,33.902z
			 M99.473,31.369c-0.335,0.356-0.32,0.917,0.038,1.254s0.919,0.316,1.252-0.038c0.338-0.358,0.321-0.916-0.037-1.254
			C100.372,30.995,99.811,31.014,99.473,31.369z M98.597,41.484c-0.141,0.15-0.134,0.389,0.017,0.529
			c0.152,0.139,0.388,0.133,0.528-0.02c0.143-0.148,0.138-0.387-0.016-0.527C98.979,41.324,98.738,41.33,98.597,41.484z
			 M87.778,42.793c0.387-0.41,0.367-1.053-0.042-1.443c-0.413-0.387-1.057-0.365-1.441,0.043c-0.384,0.414-0.367,1.053,0.044,1.443
			C86.748,43.221,87.395,43.203,87.778,42.793z M85.572,32.768c0.187-0.201,0.18-0.52-0.023-0.71
			c-0.201-0.191-0.518-0.179-0.709,0.02c-0.192,0.201-0.181,0.518,0.023,0.709C85.063,32.975,85.38,32.969,85.572,32.768z
			 M84.925,35.364c0.235-0.248,0.222-0.644-0.025-0.877c-0.253-0.237-0.646-0.224-0.879,0.027c-0.23,0.25-0.224,0.639,0.026,0.875
			C84.296,35.625,84.689,35.611,84.925,35.364z M85.124,38.096c0.299-0.314,0.285-0.814-0.033-1.115
			c-0.316-0.299-0.813-0.281-1.114,0.033c-0.298,0.314-0.283,0.816,0.034,1.115C84.328,38.43,84.826,38.414,85.124,38.096z
			 M86.077,40.631c0.335-0.355,0.319-0.92-0.037-1.254c-0.357-0.338-0.917-0.314-1.25,0.037c-0.337,0.355-0.324,0.916,0.033,1.256
			C85.182,41.004,85.744,40.984,86.077,40.631z M96.454,43.709c0.204,0.189,0.521,0.18,0.711-0.021
			c0.19-0.199,0.181-0.518-0.022-0.711c-0.2-0.189-0.52-0.182-0.71,0.023C96.242,43.201,96.253,43.521,96.454,43.709z
			 M93.908,44.676c0.249,0.236,0.642,0.221,0.876-0.027c0.234-0.246,0.227-0.641-0.024-0.875s-0.644-0.223-0.88,0.027
			C93.647,44.047,93.658,44.441,93.908,44.676z M91.174,44.875c0.32,0.301,0.815,0.285,1.113-0.031
			c0.299-0.316,0.286-0.816-0.031-1.113c-0.316-0.301-0.817-0.283-1.117,0.031C90.842,44.078,90.856,44.58,91.174,44.875z
			 M88.595,44.217c0.356,0.336,0.918,0.316,1.25-0.037c0.335-0.357,0.322-0.918-0.037-1.254c-0.356-0.334-0.919-0.316-1.252,0.039
			C88.221,43.316,88.236,43.879,88.595,44.217z"/>
		
			<linearGradient id="SVGID_4_" gradientUnits="userSpaceOnUse" x1="-48.7383" y1="653.8828" x2="-60.2666" y2="633.9152" gradientTransform="matrix(0.9932 0.1161 -0.1161 0.9932 221.6641 -597.191)">
			<stop  offset="0" style="stop-color:#FF9100"/>
			<stop  offset="0.05" style="stop-color:#FF8D00"/>
			<stop  offset="0.2503" style="stop-color:#FF8300"/>
			<stop  offset="0.5" style="stop-color:#FF8000"/>
			<stop  offset="0.7497" style="stop-color:#FF8300"/>
			<stop  offset="0.95" style="stop-color:#FF8D00"/>
			<stop  offset="1" style="stop-color:#FF9100"/>
		</linearGradient>
		<path style="fill:url(#SVGID_4_);" d="M103.395,32.766c-0.625,0.269-1.353-0.021-1.623-0.647
			c-0.271-0.629,0.019-1.352,0.646-1.623c0.625-0.269,1.352,0.016,1.622,0.646C104.311,31.767,104.021,32.495,103.395,32.766z
			 M94.725,24.906c-0.073-0.373-0.433-0.609-0.801-0.535c-0.37,0.073-0.609,0.43-0.535,0.801c0.074,0.368,0.433,0.608,0.802,0.534
			C94.56,25.633,94.798,25.274,94.725,24.906z M97.649,25.542c-0.114-0.444-0.564-0.708-1.004-0.595
			c-0.441,0.112-0.71,0.56-0.596,1.004c0.113,0.441,0.564,0.709,1.004,0.595C97.494,26.434,97.763,25.983,97.649,25.542z
			 M100.346,26.843c-0.17-0.544-0.746-0.846-1.287-0.675c-0.541,0.168-0.848,0.745-0.677,1.29c0.169,0.542,0.748,0.844,1.289,0.675
			C100.213,27.963,100.515,27.385,100.346,26.843z M102.497,28.761c-0.219-0.591-0.872-0.887-1.458-0.67
			c-0.588,0.217-0.891,0.867-0.67,1.458c0.218,0.588,0.871,0.888,1.456,0.671C102.414,30.003,102.714,29.349,102.497,28.761z
			 M88.861,25.673c-0.108-0.253-0.4-0.367-0.651-0.259c-0.252,0.108-0.369,0.399-0.26,0.652c0.108,0.25,0.401,0.365,0.652,0.257
			C88.854,26.215,88.971,25.924,88.861,25.673z M101.233,42.035c-0.308,0.219-0.38,0.643-0.163,0.951
			c0.219,0.307,0.644,0.377,0.952,0.16c0.306-0.217,0.38-0.641,0.159-0.949C101.966,41.891,101.539,41.816,101.233,42.035z
			 M102.589,39.377c-0.386,0.244-0.501,0.756-0.257,1.141c0.244,0.387,0.753,0.498,1.138,0.254c0.385-0.242,0.501-0.75,0.256-1.139
			C103.482,39.248,102.973,39.135,102.589,39.377z M103.229,36.385c-0.493,0.277-0.672,0.906-0.394,1.402
			c0.28,0.498,0.908,0.672,1.401,0.391c0.497-0.277,0.673-0.902,0.394-1.4C104.352,36.283,103.726,36.107,103.229,36.385z
			 M103.19,33.385c-0.56,0.277-0.79,0.958-0.514,1.519c0.281,0.567,0.96,0.792,1.522,0.514c0.56-0.276,0.793-0.955,0.512-1.52
			C104.435,33.337,103.752,33.107,103.19,33.385z M96.948,45.678c-0.252,0.109-0.368,0.4-0.26,0.648
			c0.11,0.256,0.401,0.371,0.652,0.26c0.252-0.107,0.369-0.4,0.261-0.65C97.492,45.686,97.2,45.566,96.948,45.678z M83.132,41.504
			c0.625-0.27,0.913-0.996,0.644-1.625c-0.271-0.627-0.996-0.912-1.621-0.645c-0.625,0.271-0.918,0.994-0.646,1.623
			C81.778,41.486,82.509,41.773,83.132,41.504z M84.316,29.966c0.307-0.219,0.38-0.643,0.163-0.949
			c-0.22-0.31-0.643-0.38-0.949-0.164c-0.309,0.22-0.383,0.641-0.162,0.951C83.585,30.109,84.01,30.183,84.316,29.966z
			 M82.962,32.624c0.387-0.243,0.5-0.755,0.257-1.141c-0.245-0.387-0.754-0.498-1.139-0.255c-0.385,0.246-0.501,0.752-0.255,1.138
			C82.067,32.752,82.577,32.867,82.962,32.624z M82.319,35.616c0.496-0.278,0.673-0.907,0.394-1.401
			c-0.279-0.497-0.906-0.671-1.401-0.393c-0.496,0.278-0.673,0.904-0.394,1.401C81.196,35.717,81.823,35.894,82.319,35.616z
			 M82.359,38.615c0.562-0.277,0.791-0.957,0.513-1.521c-0.28-0.564-0.959-0.79-1.521-0.512c-0.56,0.277-0.794,0.955-0.514,1.52
			C81.115,38.666,81.798,38.895,82.359,38.615z M90.825,47.096c0.073,0.371,0.433,0.609,0.803,0.537
			c0.368-0.074,0.608-0.434,0.534-0.807c-0.074-0.367-0.434-0.607-0.803-0.531C90.99,46.367,90.751,46.729,90.825,47.096z
			 M87.901,46.459c0.112,0.443,0.562,0.709,1.004,0.596s0.709-0.561,0.597-1.004c-0.113-0.441-0.564-0.709-1.005-0.596
			C88.056,45.566,87.789,46.016,87.901,46.459z M85.204,45.156c0.17,0.549,0.745,0.846,1.287,0.674
			c0.543-0.166,0.847-0.74,0.678-1.285c-0.169-0.543-0.748-0.846-1.29-0.676C85.337,44.037,85.033,44.615,85.204,45.156z
			 M83.053,43.238c0.219,0.594,0.872,0.889,1.457,0.67c0.591-0.217,0.891-0.867,0.672-1.459c-0.218-0.586-0.871-0.889-1.458-0.668
			C83.136,41.998,82.834,42.652,83.053,43.238z M99.286,44.238c-0.228,0.184-0.269,0.52-0.087,0.748
			c0.184,0.23,0.519,0.27,0.749,0.088c0.23-0.184,0.27-0.516,0.088-0.748C99.854,44.094,99.52,44.057,99.286,44.238z M94.295,46.391
			c-0.289,0.043-0.491,0.314-0.449,0.604c0.044,0.293,0.315,0.492,0.604,0.449c0.291-0.041,0.494-0.309,0.45-0.604
			C94.859,46.549,94.589,46.35,94.295,46.391z M91.705,25.006c-0.043-0.291-0.314-0.492-0.606-0.449
			c-0.289,0.043-0.491,0.311-0.45,0.604c0.044,0.292,0.313,0.492,0.605,0.45C91.545,25.566,91.747,25.298,91.705,25.006z
			 M86.351,27.014c-0.184-0.231-0.517-0.268-0.749-0.088c-0.229,0.184-0.271,0.517-0.087,0.749c0.183,0.231,0.518,0.269,0.747,0.088
			C86.493,27.58,86.533,27.246,86.351,27.014z"/>
		
			<linearGradient id="SVGID_5_" gradientUnits="userSpaceOnUse" x1="-29.2261" y1="697.7656" x2="-29.2261" y2="668.2354" gradientTransform="matrix(1 0 0 1 122 -647)">
			<stop  offset="0" style="stop-color:#FF9100"/>
			<stop  offset="0.05" style="stop-color:#FF8D00"/>
			<stop  offset="0.2503" style="stop-color:#FF8300"/>
			<stop  offset="0.5" style="stop-color:#FF8000"/>
			<stop  offset="0.7497" style="stop-color:#FF8300"/>
			<stop  offset="0.95" style="stop-color:#FF8D00"/>
			<stop  offset="1" style="stop-color:#FF9100"/>
		</linearGradient>
		<path style="fill:url(#SVGID_5_);" d="M106.905,37.582c-0.873,0-1.58-0.709-1.58-1.583c0-0.878,0.708-1.58,1.582-1.58
			c0.871,0,1.58,0.703,1.58,1.581C108.487,36.873,107.778,37.582,106.905,37.582z M100.695,23.941
			c0.102-0.475-0.201-0.934-0.672-1.034c-0.472-0.101-0.935,0.196-1.035,0.669c-0.1,0.473,0.2,0.936,0.672,1.036
			C100.132,24.713,100.596,24.412,100.695,23.941z M103.813,26.172c0.092-0.58-0.304-1.117-0.879-1.208
			c-0.576-0.091-1.118,0.298-1.21,0.878c-0.093,0.577,0.302,1.12,0.878,1.21C103.178,27.144,103.721,26.749,103.813,26.172z
			 M106.323,29.072c0.076-0.727-0.449-1.373-1.173-1.45c-0.722-0.075-1.373,0.447-1.449,1.175c-0.076,0.723,0.451,1.373,1.174,1.449
			C105.6,30.321,106.247,29.795,106.323,29.072z M107.88,32.417c0.042-0.807-0.576-1.485-1.375-1.526
			c-0.801-0.044-1.485,0.568-1.528,1.374c-0.041,0.803,0.575,1.487,1.373,1.528C107.152,33.835,107.838,33.219,107.88,32.417z
			 M93.411,21.868c0-0.352-0.286-0.633-0.637-0.633c-0.35,0-0.635,0.281-0.635,0.633c0,0.352,0.285,0.636,0.635,0.636
			C93.125,22.504,93.411,22.22,93.411,21.868z M99.66,47.387c-0.472,0.102-0.772,0.564-0.672,1.035
			c0.101,0.475,0.563,0.773,1.036,0.674c0.47-0.1,0.772-0.563,0.671-1.037C100.596,47.588,100.132,47.287,99.66,47.387z
			 M102.603,44.949c-0.577,0.09-0.972,0.633-0.879,1.209c0.091,0.58,0.634,0.969,1.21,0.879c0.575-0.094,0.97-0.631,0.878-1.211
			C103.721,45.25,103.178,44.857,102.603,44.949z M104.875,41.756c-0.723,0.074-1.25,0.725-1.174,1.447
			c0.076,0.729,0.727,1.248,1.449,1.174c0.724-0.078,1.249-0.723,1.173-1.449C106.246,42.203,105.599,41.678,104.875,41.756z
			 M106.35,38.207c-0.798,0.043-1.414,0.729-1.372,1.527c0.042,0.807,0.726,1.416,1.527,1.375c0.799-0.043,1.417-0.721,1.375-1.527
			C107.838,38.781,107.152,38.166,106.35,38.207z M92.774,49.498c-0.35,0-0.635,0.281-0.635,0.635c0,0.35,0.285,0.633,0.635,0.633
			c0.351,0,0.637-0.283,0.637-0.635S93.125,49.498,92.774,49.498z M78.644,37.582c0.871,0,1.578-0.709,1.578-1.583
			c0-0.878-0.707-1.58-1.578-1.58c-0.87,0-1.583,0.703-1.583,1.581C77.061,36.873,77.773,37.582,78.644,37.582z M85.889,24.613
			c0.472-0.101,0.772-0.564,0.673-1.037c-0.102-0.474-0.563-0.771-1.035-0.671c-0.472,0.102-0.774,0.561-0.674,1.036
			C84.954,24.412,85.417,24.713,85.889,24.613z M82.947,27.052c0.577-0.09,0.972-0.634,0.88-1.211
			c-0.092-0.579-0.634-0.969-1.211-0.877c-0.576,0.09-0.97,0.629-0.878,1.208C81.83,26.749,82.372,27.144,82.947,27.052z
			 M80.674,30.245c0.724-0.077,1.25-0.726,1.175-1.449c-0.077-0.728-0.727-1.25-1.449-1.173c-0.726,0.077-1.25,0.722-1.173,1.45
			C79.302,29.795,79.948,30.321,80.674,30.245z M79.197,33.793c0.802-0.042,1.417-0.726,1.376-1.528
			c-0.043-0.807-0.726-1.417-1.529-1.375c-0.799,0.042-1.418,0.72-1.376,1.526C77.71,33.219,78.396,33.835,79.197,33.793z
			 M84.854,48.059c-0.101,0.475,0.201,0.938,0.672,1.037c0.472,0.1,0.935-0.199,1.036-0.674c0.1-0.471-0.201-0.934-0.673-1.035
			C85.418,47.287,84.954,47.588,84.854,48.059z M81.739,45.826c-0.093,0.58,0.302,1.117,0.878,1.211
			c0.576,0.09,1.118-0.299,1.211-0.879c0.091-0.576-0.304-1.117-0.881-1.209C82.372,44.857,81.831,45.25,81.739,45.826z
			 M79.227,42.928c-0.077,0.727,0.447,1.371,1.172,1.449c0.724,0.074,1.373-0.447,1.449-1.174c0.076-0.723-0.45-1.373-1.175-1.447
			C79.949,41.678,79.303,42.205,79.227,42.928z M77.669,39.582c-0.042,0.807,0.577,1.484,1.375,1.527
			c0.804,0.041,1.487-0.57,1.53-1.375c0.041-0.799-0.575-1.484-1.376-1.527C78.397,38.166,77.71,38.781,77.669,39.582z
			 M96.255,48.992c-0.363,0.096-0.579,0.471-0.482,0.834c0.099,0.365,0.473,0.58,0.836,0.48c0.364-0.096,0.581-0.469,0.483-0.832
			C96.994,49.109,96.62,48.895,96.255,48.992z M89.294,48.992c-0.363-0.096-0.737,0.117-0.836,0.482
			c-0.097,0.365,0.119,0.736,0.482,0.832c0.364,0.1,0.739-0.115,0.838-0.48C89.874,49.463,89.658,49.088,89.294,48.992z
			 M97.093,22.527c0.098-0.364-0.12-0.736-0.484-0.834c-0.364-0.096-0.736,0.116-0.835,0.482c-0.098,0.364,0.119,0.737,0.482,0.835
			C96.62,23.106,96.994,22.891,97.093,22.527z M89.777,22.173c-0.099-0.365-0.473-0.578-0.837-0.481
			c-0.363,0.097-0.581,0.469-0.483,0.834c0.099,0.364,0.474,0.58,0.837,0.482C89.658,22.912,89.874,22.538,89.777,22.173z"/>
	</g>
</g>
</svg>
