<?xml version="1.0" encoding="utf-8"?>
<!-- Generator: Adobe Illustrator 26.2.1, SVG Export Plug-In . SVG Version: 6.00 Build 0)  -->
<svg version="1.1" id="Layer_1" xmlns="http://www.w3.org/2000/svg" xmlns:xlink="http://www.w3.org/1999/xlink" x="0px" y="0px"
	 viewBox="0 0 372.8 207.4" style="enable-background:new 0 0 372.8 207.4;" xml:space="preserve">
<style type="text/css">
	.st0{fill:#FFFFFF;}
	.st1{fill:#EB212E;}
	.st2{fill:none;}
</style>
<g>
	<g>
		<path class="st0" d="M74.8,99.1c0,4.5-2,7.1-7.3,7.1H63V92.2c0.6,0,2.5-0.1,3-0.1h1.6C73.1,92.1,74.8,94.4,74.8,99.1 M85.4,116.5
			c0-6.8-5.5-9.3-12.3-9.4v-0.3c5.8-0.4,10.5-2.9,10.5-8.7c0-6.5-5.4-7.7-11.3-7.7c-7.3,0-15.7,0.1-22.8,0v1.7
			c1.6-0.1,5.2,0.1,5.2,2v28.5c0,1.9-3.8,2.2-5.2,2.2v1.7c7-0.1,15.2,0,22.2,0C78.9,126.5,85.4,123.9,85.4,116.5z M76.2,115.8
			c0,6-2,8.7-8.9,8.7h-4.2v-16.4h4.5C73.9,108.1,76.2,110.2,76.2,115.8z"/>
		<path class="st0" d="M131.9,126.4c-3.2,0-6.4,0-9.7,0v-1.7c1.5,0,5.5-0.1,5.5-2V96h-0.1l-14.7,30.9h-1.6L96.9,96.1h-0.1v26.6
			c0,2,4.2,2,5.8,2v1.7c-4.1-0.1-9.6-0.3-13.5,0v-1.7c1.6,0,5.2-0.1,5.2-2V94.1c0-1.9-3.8-2-5.2-2v-1.7c4.6,0.1,9.6,0.1,14.1,0
			l12.3,25.9L128,90.3c4.4,0.1,9.1,0.1,13.7,0v1.7c-1.5,0-5.4,0.1-5.4,2v28.5c0,2,3.8,2,5.4,2v1.7
			C138.4,126.4,135.2,126.4,131.9,126.4"/>
		<path class="st0" d="M175.7,108.3c0,7.1-0.7,16.8-10.9,16.8c-10.3,0-11-9.9-11-16.8c0-7.1,0.7-16.8,11-16.8
			C174.9,91.5,175.7,101.2,175.7,108.3 M185.2,108.3c0-11.9-7.3-18.7-20.5-18.7s-20.6,6.7-20.6,18.7s7.3,18.7,20.6,18.7
			C177.9,127.1,185.2,120.3,185.2,108.3z"/>
	</g>
	<path class="st1" d="M259.7,51.4c-28.9,0-52.3,23.4-52.3,52.3s23.4,52.3,52.3,52.3s52.3-23.4,52.3-52.3S288.6,51.4,259.7,51.4z"/>
	<rect x="235" y="75.1" class="st2" width="49.4" height="51.4"/>
	<path class="st0" d="M235,110.8h49.4v15.7H235V110.8z M258.1,87.7l-9-11.8c-0.4-0.4-1-0.9-1.6-0.9s-1.2,0.3-1.6,0.7l-10.7,13.7
		v21.3L245.9,97c0.4-0.4,1-0.7,1.6-0.7c0.7,0,1.3,0.3,1.6,0.9l9.1,11.9c0.3,0.4,0.9,0.7,1.5,0.7s1.2-0.3,1.5-0.7l9.1-11.9
		c0.4-0.4,1-0.9,1.6-0.9c0.7,0,1.3,0.3,1.6,0.7l10.7,13.8V89.5l-10.7-13.7c-0.4-0.4-0.9-0.7-1.6-0.7c-0.7,0-1.3,0.3-1.6,0.9l-9,11.8
		c-0.4,0.4-1,0.7-1.6,0.7C259,88.4,258.5,88.2,258.1,87.7z"/>
	<rect class="st2" width="49.4" height="51.4"/>
	<g>
		<path class="st2" d="M38.5,0.7C38.2,0.3,37.6,0,36.9,0s-1.3,0.3-1.6,0.9l-9,11.8c-0.4,0.4-1,0.7-1.6,0.7c-0.6,0-1.3-0.3-1.6-0.7
			L13.9,0.9C13.7,0.3,13.1,0,12.3,0c-0.6,0-1.2,0.3-1.6,0.7L0,14.4v21.3l10.7-13.8c0.4-0.4,1-0.7,1.6-0.7c0.7,0,1.3,0.3,1.6,0.9
			L23.1,34c0.3,0.4,0.9,0.7,1.5,0.7s1.2-0.3,1.5-0.7l9.1-11.9c0.4-0.4,1-0.9,1.6-0.9c0.7,0,1.3,0.3,1.6,0.7l10.7,13.8V14.4L38.5,0.7
			z"/>
		<rect y="35.7" class="st2" width="49.4" height="15.7"/>
	</g>
	<g>
		<path class="st2" d="M361.9,156.7c-0.3-0.4-0.9-0.7-1.6-0.7c-0.7,0-1.3,0.3-1.6,0.9l-9,11.8c-0.4,0.4-1,0.7-1.6,0.7
			c-0.6,0-1.3-0.3-1.6-0.7l-9.1-11.8c-0.3-0.6-0.9-0.9-1.6-0.9c-0.6,0-1.2,0.3-1.6,0.7l-10.7,13.7v21.3l10.7-13.8
			c0.4-0.4,1-0.7,1.6-0.7c0.7,0,1.3,0.3,1.6,0.9l9.1,11.9c0.3,0.4,0.9,0.7,1.5,0.7c0.6,0,1.2-0.3,1.5-0.7l9.1-11.9
			c0.4-0.4,1-0.9,1.6-0.9c0.7,0,1.3,0.3,1.6,0.7l10.7,13.8v-21.3L361.9,156.7z"/>
		<rect x="323.4" y="191.7" class="st2" width="49.4" height="15.7"/>
	</g>
	<line class="st2" x1="0" y1="207.4" x2="0" y2="0"/>
	<g>
		<path class="st0" d="M317.2,67.5c-3.5,0-6.2,2.8-6.2,6.2c0,3.5,2.8,6.2,6.2,6.2c3.5,0,6.2-2.8,6.2-6.2
			C323.4,70.4,320.7,67.5,317.2,67.5L317.2,67.5z M317.2,79.2c-2.9,0-5.2-2.5-5.2-5.4c0-2.9,2.3-5.4,5.2-5.4s5.2,2.3,5.2,5.4
			C322.4,76.8,320.1,79.2,317.2,79.2"/>
		<path class="st0" d="M320.1,72.3c0-1.5-0.9-2-2.3-2H315v7.1h0.9v-3.2h1.5l2,3.2h1l-2.2-3.2C319.4,74.1,320.1,73.2,320.1,72.3
			L320.1,72.3z M315.9,73.5V71h1.5c1.3,0,1.9,0.4,1.9,1.3c0,0.9-0.6,1.2-1.9,1.2H315.9"/>
	</g>
</g>
</svg>
