<?xml version="1.0" encoding="utf-8"?>
<!-- Generator: Adobe Illustrator 16.0.0, SVG Export Plug-In . SVG Version: 6.00 Build 0)  -->
<!DOCTYPE svg PUBLIC "-//W3C//DTD SVG 1.1//EN" "http://www.w3.org/Graphics/SVG/1.1/DTD/svg11.dtd">
<svg version="1.1" id="Layer_1" xmlns="http://www.w3.org/2000/svg" xmlns:xlink="http://www.w3.org/1999/xlink" x="0px" y="0px"
	 width="492.457px" height="187.867px" viewBox="0 0 492.457 187.867" enable-background="new 0 0 492.457 187.867"
	 xml:space="preserve">
<g>
	<g>
		<g>
			<g>
				<path fill="#FFFFFF" d="M52.571,68.853c0,3.127-1.371,4.87-4.968,4.87h-3.062v-9.594c0.39-0.036,1.695-0.07,2.084-0.07h1.056
					C51.354,64.059,52.571,65.693,52.571,68.853 M59.913,80.815c0-4.723-3.848-6.42-8.52-6.526v-0.176
					c3.971-0.317,7.234-1.989,7.234-6.007c0-4.461-3.692-5.296-7.819-5.296c-4.964,0-10.793,0.137-15.745,0v1.249
					c1.055-0.07,3.59,0.07,3.59,1.384v19.606c0,1.271-2.611,1.483-3.59,1.483v1.213c4.799-0.146,10.469,0,15.275,0
					C55.399,87.746,59.913,85.999,59.913,80.815 M53.577,80.393c0,4.056-1.358,5.996-6.088,5.996h-2.947V75.031h3.14
					C51.979,75.031,53.577,76.549,53.577,80.393"/>
				<path fill="#FFFFFF" d="M91.935,87.704c-2.222,0-4.443-0.031-6.664,0.039v-1.248c1.014,0,3.813-0.069,3.813-1.449V66.782h-0.075
					L78.802,88.026H77.75l-9.931-21.244h-0.078v18.264c0,1.418,2.923,1.449,3.975,1.449l0.039,1.248
					c-2.77-0.113-6.555-0.182-9.285,0v-1.248c1.057,0,3.59-0.103,3.59-1.449V65.471c0-1.31-2.611-1.414-3.59-1.414l-0.035-1.246
					c3.158,0.136,6.551,0.136,9.709,0l8.492,17.809l8.645-17.771c3.045,0.132,6.32,0.099,9.359-0.037v1.246
					c-1.015,0-3.662,0.071-3.662,1.414v19.574c0,1.38,2.61,1.449,3.662,1.449v1.248C96.416,87.672,94.157,87.704,91.935,87.704"/>
				<path fill="#FFFFFF" d="M122.046,75.231c0,4.869-0.471,11.648-7.518,11.648c-7.051,0-7.559-6.779-7.559-11.648
					c0-4.86,0.508-11.609,7.559-11.609C121.537,63.622,122.046,70.402,122.046,75.231 M128.638,75.231
					c0-8.236-5.033-12.855-14.109-12.855c-9.078,0-14.15,4.582-14.15,12.855c0,8.275,5.029,12.894,14.15,12.894
					C123.642,88.125,128.638,83.506,128.638,75.231"/>
				<path fill="#E2231A" d="M179.886,36.039c-19.871,0-35.996,16.12-35.996,35.998c0,19.88,16.125,35.992,35.996,35.992
					c19.89,0,36.006-16.112,36.006-35.992C215.892,52.159,199.775,36.039,179.886,36.039"/>
				<path fill="#FFFFFF" d="M162.904,76.944h33.972v10.779h-33.972V76.944z M178.79,61.049l-6.25-8.147
					c-0.254-0.335-0.656-0.552-1.108-0.552c-0.44,0-0.832,0.205-1.088,0.524l-7.439,9.376v14.693l7.397-9.48
					c0.262-0.334,0.671-0.55,1.13-0.55c0.464,0,0.877,0.222,1.14,0.563l6.28,8.212c0.237,0.315,0.614,0.518,1.039,0.518
					c0.423,0,0.8-0.202,1.039-0.518l6.278-8.212c0.265-0.341,0.676-0.563,1.142-0.563c0.459,0,0.866,0.216,1.129,0.55l7.397,9.48
					V62.25l-7.439-9.376c-0.255-0.319-0.648-0.524-1.087-0.524c-0.454,0-0.856,0.217-1.11,0.552l-6.25,8.147
					c-0.254,0.328-0.652,0.539-1.099,0.539C179.442,61.588,179.044,61.377,178.79,61.049"/>
				<path fill="#FFFFFF" d="M248.584,87.756v-1.192c0.994,0,3.699,0,3.699-1.338V75.208h-12.252v10.019
					c0,1.338,2.704,1.338,3.698,1.338v1.192c-3.938-0.145-8.513-0.145-12.449,0v-1.192c0.994,0,3.699,0,3.699-1.338V64.793
					c0-1.338-2.746-1.338-3.699-1.338v-1.194c3.898,0.146,8.553,0.146,12.449,0v1.194c-0.994,0-3.698,0-3.698,1.338v9.113h12.252
					v-9.113c0-1.303-2.744-1.338-3.699-1.338v-1.194c3.897,0.146,8.554,0.146,12.451,0v1.194c-0.994,0-3.74,0-3.74,1.338v20.433
					c0,1.338,2.746,1.338,3.74,1.338v1.192C257.097,87.612,252.522,87.612,248.584,87.756"/>
				<path fill="#FFFFFF" d="M277.856,87.829c-1.471,0-2.903-0.216-2.903-1.843c-1.75,1.519-3.5,2.132-5.929,2.132
					c-3.856,0-5.805-1.771-5.805-5.279c0-5.967,7.278-5.567,11.694-5.858v-2.748c0-1.953-0.994-3.038-3.224-3.038
					c-2.545,0-3.299,1.156-3.299,3.292c0,0.938-0.797,1.121-1.631,1.121c-1.274,0.034-2.19-0.037-2.19-1.483
					c0-3.4,3.94-4.123,6.922-4.123c4.653,0,7.996,0.615,7.996,5.496v8.282c0,2.459,0.237,2.785,2.985,2.821v1.156
					C280.92,87.756,279.369,87.829,277.856,87.829 M274.914,78.174c-3.778,0.324-6.842,0.578-6.842,4.847
					c0,1.733,0.596,3.47,2.862,3.47c3.144,0,3.979-2.604,3.979-4.99V78.174z"/>
				<path fill="#FFFFFF" d="M297.824,75.606c-3.5,0-0.717-3.834-3.104-3.834c-2.582,0-3.22,4.412-3.22,6.111v7.342
					c0,1.375,2.306,1.375,3.343,1.375v1.156c-3.662-0.107-7.44-0.145-11.101,0V86.6c0.994,0,3.144-0.072,3.144-1.375V72.893
					c0-1.301-2.108-1.373-3.144-1.411l-0.039-1.084c2.545,0,5.131,0.036,7.679-0.071v2.749l0.077-0.037
					c0.955-1.7,2.587-3.038,4.773-3.038c2.309,0,3.7,1.266,3.7,3.363C299.933,74.739,299.535,75.606,297.824,75.606"/>
				<path fill="#FFFFFF" d="M316.398,75.606c-3.5,0-0.717-3.834-3.104-3.834c-2.582,0-3.22,4.412-3.22,6.111v7.342
					c0,1.375,2.306,1.375,3.343,1.375v1.156c-3.662-0.107-7.44-0.145-11.101,0V86.6c0.994,0,3.144-0.072,3.144-1.375V72.893
					c0-1.301-2.108-1.373-3.144-1.411l-0.039-1.084c2.545,0,5.131,0.036,7.679-0.071v2.749l0.077-0.037
					c0.955-1.7,2.586-3.038,4.773-3.038c2.309,0,3.7,1.266,3.7,3.363C318.507,74.739,318.109,75.606,316.398,75.606"/>
				<path fill="#FFFFFF" d="M320.813,87.756V86.6c0.994,0,3.142-0.108,3.142-1.375V72.821c0-1.193-2.228-1.229-3.142-1.266v-1.157
					c2.548,0,5.212,0.108,7.759-0.037v14.864c0,1.267,2.187,1.375,3.181,1.375v1.156C328.172,87.613,324.393,87.613,320.813,87.756
					 M326.262,66.999c-1.631,0-2.625-1.156-2.625-2.566c0-1.412,1.035-2.533,2.625-2.533c1.592,0,2.627,1.158,2.627,2.533
					C328.889,65.842,327.854,66.999,326.262,66.999"/>
				<path fill="#FFFFFF" d="M341.059,88.118c-2.188,0-4.455-0.36-6.522-1.012v-5.388h1.789c0.08,2.785,1.353,5.278,4.813,5.278
					c2.026,0,4.176-0.866,4.176-2.965c0-4.268-10.461-2.276-10.461-8.498c0-3.979,3.34-5.534,7.279-5.534
					c1.948,0,3.819,0.362,5.649,0.978v4.557h-1.632c-0.28-2.532-1.235-4.34-4.336-4.34c-1.909,0-3.262,0.723-3.262,2.569
					c0,4.229,10.502,1.699,10.502,8.714C349.055,86.563,344.915,88.118,341.059,88.118"/>
				<path fill="#FFFFFF" d="M374.829,87.757c-4.537,0-9.111-0.146-13.646,0v-1.194c0.914,0,3.698-0.107,3.698-1.338V64.793
					c0-1.266-2.743-1.375-3.698-1.339l-0.039-1.192c4.731,0.144,9.506,0,14.239,0c4.494,0,7.996,1.049,7.996,5.713
					c0,3.797-2.784,5.461-6.603,5.932v0.146c4.734,0.289,7.996,1.988,7.996,6.653C384.773,85.985,379.878,87.757,374.829,87.757
					 M373.079,63.49c-1.035,0-2.111,0-3.144,0.11v9.836h3.301c3.621,0,4.853-1.772,4.853-4.918
					C378.089,65.155,376.936,63.49,373.079,63.49 M373.355,74.739h-3.42v11.717h2.545c4.535,0,6.842-1.846,6.842-6.04
					C379.322,76.51,377.771,74.739,373.355,74.739"/>
				<path fill="#FFFFFF" d="M403.544,87.829c-1.469,0-2.901-0.216-2.901-1.843c-1.75,1.519-3.502,2.132-5.928,2.132
					c-3.859,0-5.808-1.771-5.808-5.279c0-5.967,7.28-5.567,11.694-5.858v-2.748c0-1.953-0.994-3.038-3.221-3.038
					c-2.548,0-3.302,1.156-3.302,3.292c0,0.938-0.795,1.121-1.631,1.121c-1.274,0.034-2.188-0.037-2.188-1.483
					c0-3.4,3.938-4.123,6.922-4.123c4.653,0,7.996,0.615,7.996,5.496v8.282c0,2.459,0.237,2.785,2.983,2.821v1.156
					C406.609,87.756,405.057,87.829,403.544,87.829 M400.602,78.174c-3.778,0.324-6.842,0.578-6.842,4.847
					c0,1.733,0.598,3.47,2.864,3.47c3.144,0,3.978-2.604,3.978-4.99V78.174z"/>
				<path fill="#FFFFFF" d="M422.398,87.756v-1.121c0.994-0.034,2.903-0.145,2.903-1.409v-9.293c0-2.242-0.437-4.124-3.34-4.124
					c-3.343,0-4.537,2.604-4.537,5.244v8.173c0,1.157,1.99,1.375,2.906,1.375l0.038,1.12c-3.461-0.145-7.241-0.109-10.7,0.035
					v-1.121c1.035-0.034,3.142-0.071,3.142-1.409V72.929c0-1.302-2.106-1.375-3.142-1.409v-1.121c2.545,0,5.09,0.035,7.638-0.072
					v2.566h0.079c1.83-1.988,3.658-2.893,6.563-2.893c4.336,0,5.968,1.917,5.968,5.713v9.513c0,1.265,2.108,1.375,3.103,1.375v1.155
					C429.559,87.65,425.859,87.612,422.398,87.756"/>
				<path fill="#FFFFFF" d="M447.377,87.721V86.6c0.317,0,1.433,0.035,1.312-0.471c-0.119-0.506-0.955-1.229-1.392-1.808
					c-1.112-1.373-2.188-2.748-3.342-4.086c-0.039-0.037-0.517-0.761-0.517-0.761l-1.591,1.41v4.449
					c0,1.446,2.029,1.266,3.101,1.266v1.156c-3.538-0.144-7.278-0.144-10.817,0V86.6c0.953,0,3.101-0.145,3.101-1.375V63.852
					c0-1.301-2.028-1.374-3.062-1.41l-0.039-1.121c2.545,0,5.17,0.071,7.717-0.072l-0.04,17.973c0,0,6.364-6.762,6.364-7.413
					c0-0.289-1.472-0.36-1.75-0.36v-1.05h7.877v1.013h-0.479c-0.875,0-2.664,0.037-3.299,0.579
					c-1.593,1.337-4.218,4.483-4.218,4.483l7.279,8.681c0.795,0.938,2.067,1.446,3.303,1.481v1.121
					C453.741,87.577,450.479,87.721,447.377,87.721"/>
				<path fill="#FFFFFF" d="M219.511,47.204c-2.362,0-4.275,1.916-4.275,4.278s1.913,4.278,4.275,4.278
					c2.36,0,4.274-1.916,4.274-4.278S221.871,47.204,219.511,47.204 M219.511,55.168c-2,0-3.623-1.652-3.623-3.687
					c0-2.035,1.623-3.683,3.623-3.683s3.623,1.647,3.623,3.683C223.134,53.516,221.511,55.168,219.511,55.168"/>
				<path fill="#FFFFFF" d="M221.49,50.415c0-0.953-0.554-1.387-1.624-1.387h-1.901v4.909h0.595V51.76h1.027l1.387,2.177h0.715
					l-1.467-2.177C221.009,51.635,221.49,51.097,221.49,50.415 M218.56,51.243v-1.701h1.027c0.872,0,1.27,0.258,1.27,0.853
					s-0.397,0.849-1.27,0.849H218.56"/>
			</g>
		</g>
	</g>
	<g>
		<path fill="#FFFFFF" d="M53.568,145.729H50.34l-2.913-12.025c-0.143-0.543-0.314-1.6-0.372-2.17h-0.057
			c-0.086,0.656-0.2,1.514-0.371,2.17l-2.914,12.025h-3.199l-4.513-19.652h3.627l2.457,12.854c0.114,0.543,0.257,1.572,0.314,2.344
			h0.057c0.086-0.771,0.286-1.828,0.4-2.344l2.999-12.854h2.685l2.885,12.854c0.143,0.602,0.285,1.572,0.371,2.344h0.057
			c0.057-0.629,0.229-1.771,0.343-2.344l2.571-12.854h3.313L53.568,145.729z"/>
		<path fill="#FFFFFF" d="M62.647,139.304c0.257,2.684,1.771,4.283,4.313,4.283c1.4,0,2.914-0.398,3.799-0.885l0.829,2.229
			c-1.257,0.656-3.171,1.113-5.113,1.113c-4.656,0-7.227-3.229-7.227-8.055c0-4.828,2.456-7.971,6.627-7.971
			c3.999,0,6.255,2.629,6.255,7.428v0.457L62.647,139.304z M65.761,132.104c-2.2,0-3.313,2.086-3.313,5.113v0.314l6.341-1
			C68.76,133.733,67.846,132.104,65.761,132.104z"/>
		<path fill="#FFFFFF" d="M75.955,131.19h-1.885l2.313-7.055c0.372-0.629,1.057-1.057,1.942-1.057c0.886,0,1.286,0.484,1.4,1.057
			L75.955,131.19z"/>
		<path fill="#FFFFFF" d="M86.979,132.618c-0.457-0.199-1.028-0.314-1.571-0.314c-0.628,0-1.257,0.115-1.656,0.314v13.111h-3.485
			v-14.596c1.371-0.658,3.285-1.086,5.771-1.086c0.628,0,1.371,0.057,1.656,0.086L86.979,132.618z"/>
		<path fill="#FFFFFF" d="M92.376,139.304c0.257,2.684,1.771,4.283,4.313,4.283c1.4,0,2.914-0.398,3.799-0.885l0.829,2.229
			c-1.257,0.656-3.171,1.113-5.113,1.113c-4.656,0-7.227-3.229-7.227-8.055c0-4.828,2.456-7.971,6.627-7.971
			c3.999,0,6.255,2.629,6.255,7.428v0.457L92.376,139.304z M95.49,132.104c-2.2,0-3.313,2.086-3.313,5.113v0.314l6.341-1
			C98.489,133.733,97.575,132.104,95.49,132.104z"/>
		<path fill="#FFFFFF" d="M121.449,145.729v-10.711c0-1.486-0.628-2.686-2.713-2.686c-0.885,0-1.743,0.229-2.485,0.629v12.768
			h-3.485v-22.422h3.485v7.684c0.914-0.516,2.085-0.828,3.428-0.828c3.856,0,5.256,2.342,5.256,4.77v10.797H121.449z"/>
		<path fill="#FFFFFF" d="M131.473,139.304c0.257,2.684,1.771,4.283,4.313,4.283c1.399,0,2.913-0.398,3.799-0.885l0.828,2.229
			c-1.257,0.656-3.17,1.113-5.113,1.113c-4.656,0-7.227-3.229-7.227-8.055c0-4.828,2.457-7.971,6.627-7.971
			c3.999,0,6.256,2.629,6.256,7.428v0.457L131.473,139.304z M134.586,132.104c-2.199,0-3.313,2.086-3.313,5.113v0.314l6.342-1
			C137.585,133.733,136.671,132.104,134.586,132.104z"/>
		<path fill="#FFFFFF" d="M150.807,132.618c-0.457-0.199-1.028-0.314-1.571-0.314c-0.629,0-1.257,0.115-1.657,0.314v13.111h-3.484
			v-14.596c1.371-0.658,3.285-1.086,5.77-1.086c0.629,0,1.371,0.057,1.657,0.086L150.807,132.618z"/>
		<path fill="#FFFFFF" d="M156.204,139.304c0.257,2.684,1.771,4.283,4.313,4.283c1.399,0,2.913-0.398,3.799-0.885l0.828,2.229
			c-1.257,0.656-3.17,1.113-5.113,1.113c-4.656,0-7.227-3.229-7.227-8.055c0-4.828,2.457-7.971,6.627-7.971
			c3.999,0,6.256,2.629,6.256,7.428v0.457L156.204,139.304z M159.317,132.104c-2.199,0-3.313,2.086-3.313,5.113v0.314l6.342-1
			C162.317,133.733,161.403,132.104,159.317,132.104z"/>
		<path fill="#FFFFFF" d="M181.592,145.931c-2.571,0-4.113-1.543-4.113-4.258v-9.141h-1.714v-2.199h1.714v-3.398l3.485-0.971v4.369
			h2.514v2.199h-2.514v9.141c0,1.172,0.571,1.857,1.657,1.857c0.314,0,0.6-0.057,0.857-0.143v2.199
			C183.021,145.815,182.363,145.931,181.592,145.931z"/>
		<path fill="#FFFFFF" d="M192.102,146.044c-4.37,0-6.513-3.371-6.513-8.027c0-4.627,2.143-7.998,6.513-7.998
			c4.371,0,6.513,3.371,6.513,7.998C198.614,142.673,196.472,146.044,192.102,146.044z M192.102,132.19
			c-2.256,0-3.027,2.543-3.027,5.77c0,3.229,0.771,5.77,3.027,5.77c2.257,0,3.028-2.541,3.028-5.77
			C195.13,134.761,194.358,132.19,192.102,132.19z"/>
		<path fill="#FFFFFF" d="M218.205,145.729v-10.711c0-1.486-0.629-2.686-2.714-2.686c-0.886,0-1.742,0.229-2.485,0.629v12.768
			h-3.484v-22.422h3.484v7.684c0.914-0.516,2.085-0.828,3.428-0.828c3.856,0,5.256,2.342,5.256,4.77v10.797H218.205z"/>
		<path fill="#FFFFFF" d="M228.228,139.304c0.257,2.684,1.771,4.283,4.313,4.283c1.399,0,2.913-0.398,3.799-0.885l0.828,2.229
			c-1.257,0.656-3.17,1.113-5.113,1.113c-4.656,0-7.227-3.229-7.227-8.055c0-4.828,2.457-7.971,6.627-7.971
			c3.999,0,6.256,2.629,6.256,7.428v0.457L228.228,139.304z M231.341,132.104c-2.199,0-3.313,2.086-3.313,5.113v0.314l6.342-1
			C234.34,133.733,233.426,132.104,231.341,132.104z"/>
		<path fill="#FFFFFF" d="M240.993,145.729v-22.422h3.485v22.422H240.993z"/>
		<path fill="#FFFFFF" d="M254.102,145.958c-0.914,0-1.8-0.172-2.313-0.342v6.256h-3.456v-20.738
			c1.514-0.742,3.37-1.115,5.313-1.115c4.599,0,7.228,2.914,7.228,7.828C260.872,142.901,258.13,145.958,254.102,145.958z
			 M253.588,132.134c-0.629,0-1.314,0.086-1.8,0.314v11.111c0.371,0.143,0.942,0.256,1.543,0.256c2.742,0,4.084-2.113,4.084-5.883
			C257.415,134.304,256.387,132.134,253.588,132.134z"/>
		<path fill="#FFFFFF" d="M265.268,145.958c-1.143,0-2.085-0.941-2.085-2.084s0.942-2.086,2.085-2.086s2.085,0.943,2.085,2.086
			S266.41,145.958,265.268,145.958z"/>
		<path fill="#FFFFFF" d="M272.378,131.854v5.709h-1.382v-5.709h-1.432v-0.949h4.245v0.949H272.378z M280.069,137.563l-0.399-4.244
			c-0.017-0.232-0.05-0.666-0.05-0.766h-0.033c-0.067,0.365-0.101,0.5-0.184,0.766l-1.299,4.244h-0.782l-1.281-4.244
			c-0.084-0.283-0.15-0.6-0.184-0.766h-0.033c0,0.033-0.017,0.383-0.05,0.766l-0.433,4.244h-1.166l0.783-6.658h1.398l1.231,4.063
			c0.083,0.283,0.133,0.549,0.184,0.85h0.033c0.033-0.283,0.083-0.566,0.166-0.85l1.215-4.063h1.415l0.783,6.658H280.069z"/>
	</g>
</g>
</svg>
