<?xml version="1.0" encoding="utf-8"?>
<!-- Generator: Adobe Illustrator 26.0.1, SVG Export Plug-In . SVG Version: 6.00 Build 0)  -->
<svg version="1.1" id="Layer_1" xmlns="http://www.w3.org/2000/svg" xmlns:xlink="http://www.w3.org/1999/xlink" x="0px" y="0px"
	 viewBox="0 0 1100.9 380.4" style="enable-background:new 0 0 1100.9 380.4;" xml:space="preserve">
<style type="text/css">
	.st0{fill:#FFFFFF;}
	.st1{fill:#E2231A;}
</style>
<g>
	<g>
		<g>
			<g>
				<path class="st0" d="M92,130.7c0,7.4-3.3,11.5-11.8,11.5h-7.3v-22.7c0.9-0.1,4-0.2,4.9-0.2h2.5C89.1,119.3,92,123.2,92,130.7
					 M109.4,159c0-11.2-9.1-15.2-20.2-15.5v-0.4c9.4-0.8,17.1-4.7,17.1-14.2c0-10.6-8.8-12.6-18.5-12.6c-11.8,0-25.6,0.3-37.3,0v3
					c2.5-0.2,8.5,0.2,8.5,3.3v46.5c0,3-6.2,3.5-8.5,3.5v2.9c11.4-0.3,24.8,0,36.2,0C98.7,175.5,109.4,171.3,109.4,159 M94.4,158
					c0,9.6-3.2,14.2-14.4,14.2h-7v-26.9h7.4C90.6,145.3,94.4,148.9,94.4,158"/>
				<path class="st0" d="M185.3,175.4c-5.3,0-10.5-0.1-15.8,0.1v-3c2.4,0,9-0.2,9-3.4v-43.3h-0.2l-24.2,50.4h-2.5l-23.5-50.4h-0.2
					v43.3c0,3.4,6.9,3.4,9.4,3.4l0.1,3c-6.6-0.3-15.5-0.4-22,0v-3c2.5,0,8.5-0.2,8.5-3.4v-46.4c0-3.1-6.2-3.4-8.5-3.4l-0.1-3
					c7.5,0.3,15.5,0.3,23,0l20.1,42.2l20.5-42.1c7.2,0.3,15,0.2,22.2-0.1v3c-2.4,0-8.7,0.2-8.7,3.4v46.4c0,3.3,6.2,3.4,8.7,3.4v3
					C195.9,175.3,190.6,175.4,185.3,175.4"/>
				<path class="st0" d="M256.7,145.8c0,11.5-1.1,27.6-17.8,27.6c-16.7,0-17.9-16.1-17.9-27.6c0-11.5,1.2-27.5,17.9-27.5
					C255.5,118.3,256.7,134.3,256.7,145.8 M272.3,145.8c0-19.5-11.9-30.5-33.4-30.5c-21.5,0-33.5,10.9-33.5,30.5
					c0,19.6,11.9,30.6,33.5,30.6C260.5,176.4,272.3,165.4,272.3,145.8"/>
				<path class="st1" d="M393.8,52.9c-47.1,0-85.3,38.2-85.3,85.3c0,47.1,38.2,85.3,85.3,85.3c47.2,0,85.4-38.2,85.4-85.3
					C479.2,91.1,441,52.9,393.8,52.9"/>
				<path class="st0" d="M353.5,149.9h80.5v25.6h-80.5V149.9z M391.2,112.2l-14.8-19.3c-0.6-0.8-1.6-1.3-2.6-1.3c-1,0-2,0.5-2.6,1.2
					L353.5,115v34.8l17.5-22.5c0.6-0.8,1.6-1.3,2.7-1.3c1.1,0,2.1,0.5,2.7,1.3l14.9,19.5c0.6,0.7,1.5,1.2,2.5,1.2
					c1,0,1.9-0.5,2.5-1.2l14.9-19.5c0.6-0.8,1.6-1.3,2.7-1.3c1.1,0,2.1,0.5,2.7,1.3l17.5,22.5V115l-17.6-22.2
					c-0.6-0.8-1.5-1.2-2.6-1.2c-1.1,0-2,0.5-2.6,1.3l-14.8,19.3c-0.6,0.8-1.5,1.3-2.6,1.3C392.7,113.5,391.8,113,391.2,112.2"/>
				<path class="st0" d="M556.7,175.5v-2.8c2.4,0,8.8,0,8.8-3.2v-23.7h-29v23.8c0,3.2,6.4,3.2,8.8,3.2v2.8c-9.3-0.3-20.2-0.3-29.5,0
					v-2.8c2.4,0,8.8,0,8.8-3.2V121c0-3.2-6.5-3.2-8.8-3.2V115c9.2,0.3,20.3,0.3,29.5,0v2.8c-2.4,0-8.8,0-8.8,3.2v21.6h29V121
					c0-3.1-6.5-3.2-8.8-3.2V115c9.2,0.3,20.3,0.3,29.5,0v2.8c-2.4,0-8.9,0-8.9,3.2v48.4c0,3.2,6.5,3.2,8.9,3.2v2.8
					C576.8,175.1,566,175.1,556.7,175.5"/>
				<path class="st0" d="M626.1,175.7c-3.5,0-6.9-0.5-6.9-4.4c-4.1,3.6-8.3,5.1-14.1,5.1c-9.1,0-13.8-4.2-13.8-12.5
					c0-14.1,17.3-13.2,27.7-13.9v-6.5c0-4.6-2.4-7.2-7.6-7.2c-6,0-7.8,2.7-7.8,7.8c0,2.2-1.9,2.7-3.9,2.7c-3,0.1-5.2-0.1-5.2-3.5
					c0-8.1,9.3-9.8,16.4-9.8c11,0,19,1.5,19,13v19.6c0,5.8,0.6,6.6,7.1,6.7v2.7C633.3,175.5,629.6,175.7,626.1,175.7 M619.1,152.8
					c-9,0.8-16.2,1.4-16.2,11.5c0,4.1,1.4,8.2,6.8,8.2c7.5,0,9.4-6.2,9.4-11.8L619.1,152.8L619.1,152.8z"/>
				<path class="st0" d="M673.4,146.7c-8.3,0-1.7-9.1-7.4-9.1c-6.1,0-7.6,10.5-7.6,14.5v17.4c0,3.3,5.5,3.3,7.9,3.3v2.7
					c-8.7-0.3-17.6-0.3-26.3,0v-2.7c2.4,0,7.5-0.2,7.5-3.3v-29.2c0-3.1-5-3.3-7.5-3.3l-0.1-2.6c6,0,12.2,0.1,18.2-0.2v6.5l0.2-0.1
					c2.3-4,6.1-7.2,11.3-7.2c5.5,0,8.8,3,8.8,8C678.4,144.6,677.4,146.7,673.4,146.7"/>
				<path class="st0" d="M717.4,146.7c-8.3,0-1.7-9.1-7.4-9.1c-6.1,0-7.6,10.5-7.6,14.5v17.4c0,3.3,5.5,3.3,7.9,3.3v2.7
					c-8.7-0.3-17.6-0.3-26.3,0v-2.7c2.4,0,7.5-0.2,7.5-3.3v-29.2c0-3.1-5-3.3-7.5-3.3l-0.1-2.6c6,0,12.2,0.1,18.2-0.2v6.5l0.2-0.1
					c2.3-4,6.1-7.2,11.3-7.2c5.5,0,8.8,3,8.8,8C722.4,144.6,721.5,146.7,717.4,146.7"/>
				<path class="st0" d="M727.9,175.5v-2.7c2.4,0,7.4-0.3,7.4-3.3v-29.4c0-2.8-5.3-2.9-7.4-3v-2.7c6,0,12.4,0.3,18.4-0.1v35.2
					c0,3,5.2,3.3,7.5,3.3v2.7C745.3,175.1,736.4,175.1,727.9,175.5 M740.8,126.3c-3.9,0-6.2-2.7-6.2-6.1c0-3.3,2.5-6,6.2-6
					c3.8,0,6.2,2.7,6.2,6C747,123.5,744.6,126.3,740.8,126.3"/>
				<path class="st0" d="M775.9,176.3c-5.2,0-10.6-0.9-15.5-2.4v-12.8h4.2c0.2,6.6,3.2,12.5,11.4,12.5c4.8,0,9.9-2.1,9.9-7
					c0-10.1-24.8-5.4-24.8-20.1c0-9.4,7.9-13.1,17.3-13.1c4.6,0,9.1,0.9,13.4,2.3v10.8H788c-0.7-6-2.9-10.3-10.3-10.3
					c-4.5,0-7.7,1.7-7.7,6.1c0,10,24.9,4,24.9,20.7C794.8,172.7,785,176.3,775.9,176.3"/>
				<path class="st0" d="M855.9,175.5c-10.8,0-21.6-0.3-32.4,0v-2.8c2.2,0,8.8-0.3,8.8-3.2V121c0-3-6.5-3.3-8.8-3.2l-0.1-2.8
					c11.2,0.3,22.5,0,33.8,0c10.7,0,19,2.5,19,13.5c0,9-6.6,12.9-15.7,14.1v0.3c11.2,0.7,19,4.7,19,15.8
					C879.5,171.3,867.9,175.5,855.9,175.5 M851.8,118c-2.5,0-5,0-7.5,0.3v23.3h7.8c8.6,0,11.5-4.2,11.5-11.7
					C863.7,121.9,860.9,118,851.8,118 M852.5,144.6h-8.1v27.8h6c10.8,0,16.2-4.4,16.2-14.3C866.6,148.8,862.9,144.6,852.5,144.6"/>
				<path class="st0" d="M924,175.7c-3.5,0-6.9-0.5-6.9-4.4c-4.1,3.6-8.3,5.1-14.1,5.1c-9.1,0-13.8-4.2-13.8-12.5
					c0-14.1,17.3-13.2,27.7-13.9v-6.5c0-4.6-2.4-7.2-7.6-7.2c-6,0-7.8,2.7-7.8,7.8c0,2.2-1.9,2.7-3.9,2.7c-3,0.1-5.2-0.1-5.2-3.5
					c0-8.1,9.3-9.8,16.4-9.8c11,0,19,1.5,19,13v19.6c0,5.8,0.6,6.6,7.1,6.7v2.7C931.3,175.5,927.6,175.7,924,175.7 M917,152.8
					c-9,0.8-16.2,1.4-16.2,11.5c0,4.1,1.4,8.2,6.8,8.2c7.5,0,9.4-6.2,9.4-11.8V152.8z"/>
				<path class="st0" d="M968.7,175.5v-2.7c2.4-0.1,6.9-0.3,6.9-3.3v-22c0-5.3-1-9.8-7.9-9.8c-7.9,0-10.8,6.2-10.8,12.4v19.4
					c0,2.7,4.7,3.3,6.9,3.3l0.1,2.7c-8.2-0.3-17.2-0.3-25.4,0.1v-2.7c2.5-0.1,7.4-0.2,7.4-3.3v-29.2c0-3.1-5-3.3-7.4-3.3v-2.7
					c6,0,12.1,0.1,18.1-0.2v6.1h0.2c4.3-4.7,8.7-6.9,15.6-6.9c10.3,0,14.1,4.5,14.1,13.5v22.6c0,3,5,3.3,7.4,3.3v2.7
					C985.7,175.2,976.9,175.1,968.7,175.5"/>
				<path class="st0" d="M1027.9,175.4v-2.7c0.8,0,3.4,0.1,3.1-1.1c-0.3-1.2-2.3-2.9-3.3-4.3c-2.6-3.3-5.2-6.5-7.9-9.7
					c-0.1-0.1-1.2-1.8-1.2-1.8l-3.8,3.3v10.5c0,3.4,4.8,3,7.4,3v2.7c-8.4-0.3-17.3-0.3-25.6,0v-2.7c2.3,0,7.4-0.3,7.4-3.3v-50.7
					c0-3.1-4.8-3.3-7.3-3.3l-0.1-2.7c6,0,12.3,0.2,18.3-0.2l-0.1,42.6c0,0,15.1-16,15.1-17.6c0-0.7-3.5-0.9-4.1-0.9v-2.5h18.7v2.4
					h-1.1c-2.1,0-6.3,0.1-7.8,1.4c-3.8,3.2-10,10.6-10,10.6l17.3,20.6c1.9,2.2,4.9,3.4,7.8,3.5v2.7
					C1043,175.1,1035.3,175.4,1027.9,175.4"/>
				<path class="st0" d="M487.7,79.4c-5.6,0-10.1,4.5-10.1,10.1c0,5.6,4.5,10.1,10.1,10.1c5.6,0,10.1-4.5,10.1-10.1
					C497.9,83.9,493.3,79.4,487.7,79.4 M487.7,98.2c-4.7,0-8.6-3.9-8.6-8.7s3.8-8.7,8.6-8.7c4.7,0,8.6,3.9,8.6,8.7
					C496.3,94.3,492.5,98.2,487.7,98.2"/>
				<path class="st0" d="M492.4,87c0-2.3-1.3-3.3-3.8-3.3h-4.5v11.6h1.4v-5.2h2.4l3.3,5.2h1.7l-3.5-5.2
					C491.3,89.9,492.4,88.6,492.4,87 M485.5,88.9v-4h2.4c2.1,0,3,0.6,3,2c0,1.4-0.9,2-3,2L485.5,88.9"/>
			</g>
		</g>
	</g>
	<g>
		<path class="st0" d="M94.3,312.9h-7.7l-6.9-28.5c-0.3-1.3-0.7-3.8-0.9-5.1h-0.1c-0.2,1.6-0.5,3.6-0.9,5.1L71,312.9h-7.6
			l-10.7-46.6h8.6l5.8,30.5c0.3,1.3,0.6,3.7,0.7,5.6H68c0.2-1.8,0.7-4.3,0.9-5.6l7.1-30.5h6.4l6.8,30.5c0.3,1.4,0.7,3.7,0.9,5.6h0.1
			c0.1-1.5,0.5-4.2,0.8-5.6l6.1-30.5h7.9L94.3,312.9z"/>
		<path class="st0" d="M115.9,297.7c0.6,6.4,4.2,10.2,10.2,10.2c3.3,0,6.9-0.9,9-2.1l2,5.3c-3,1.6-7.5,2.6-12.1,2.6
			c-11,0-17.1-7.7-17.1-19.1c0-11.4,5.8-18.9,15.7-18.9c9.5,0,14.8,6.2,14.8,17.6v1.1L115.9,297.7z M123.2,280.6
			c-5.2,0-7.9,4.9-7.9,12.1v0.7l15-2.4C130.4,284.5,128.2,280.6,123.2,280.6z"/>
		<path class="st0" d="M147.4,278.5h-4.5l5.5-16.7c0.9-1.5,2.5-2.5,4.6-2.5c2.1,0,3,1.1,3.3,2.5L147.4,278.5z"/>
		<path class="st0" d="M173.5,281.8c-1.1-0.5-2.4-0.7-3.7-0.7c-1.5,0-3,0.3-3.9,0.7v31.1h-8.3v-34.6c3.3-1.6,7.8-2.6,13.7-2.6
			c1.5,0,3.3,0.1,3.9,0.2L173.5,281.8z"/>
		<path class="st0" d="M186.3,297.7c0.6,6.4,4.2,10.2,10.2,10.2c3.3,0,6.9-0.9,9-2.1l2,5.3c-3,1.6-7.5,2.6-12.1,2.6
			c-11,0-17.1-7.7-17.1-19.1c0-11.4,5.8-18.9,15.7-18.9c9.5,0,14.8,6.2,14.8,17.6v1.1L186.3,297.7z M193.7,280.6
			c-5.2,0-7.9,4.9-7.9,12.1v0.7l15-2.4C200.8,284.5,198.7,280.6,193.7,280.6z"/>
		<path class="st0" d="M255.3,312.9v-25.4c0-3.5-1.5-6.4-6.4-6.4c-2.1,0-4.1,0.5-5.9,1.5v30.3h-8.3v-53.2h8.3V278
			c2.2-1.2,4.9-2,8.1-2c9.1,0,12.5,5.6,12.5,11.3v25.6L255.3,312.9L255.3,312.9z"/>
		<path class="st0" d="M279,297.7c0.6,6.4,4.2,10.2,10.2,10.2c3.3,0,6.9-0.9,9-2.1l2,5.3c-3,1.6-7.5,2.6-12.1,2.6
			c-11,0-17.1-7.7-17.1-19.1c0-11.4,5.8-18.9,15.7-18.9c9.5,0,14.8,6.2,14.8,17.6v1.1L279,297.7z M286.4,280.6
			c-5.2,0-7.9,4.9-7.9,12.1v0.7l15-2.4C293.5,284.5,291.4,280.6,286.4,280.6z"/>
		<path class="st0" d="M324.9,281.8c-1.1-0.5-2.4-0.7-3.7-0.7c-1.5,0-3,0.3-3.9,0.7v31.1H309v-34.6c3.3-1.6,7.8-2.6,13.7-2.6
			c1.5,0,3.3,0.1,3.9,0.2L324.9,281.8z"/>
		<path class="st0" d="M337.7,297.7c0.6,6.4,4.2,10.2,10.2,10.2c3.3,0,6.9-0.9,9-2.1l2,5.3c-3,1.6-7.5,2.6-12.1,2.6
			c-11,0-17.1-7.7-17.1-19.1c0-11.4,5.8-18.9,15.7-18.9c9.5,0,14.8,6.2,14.8,17.6v1.1L337.7,297.7z M345,280.6
			c-5.2,0-7.9,4.9-7.9,12.1v0.7l15-2.4C352.2,284.5,350,280.6,345,280.6z"/>
		<path class="st0" d="M397.8,313.4c-6.1,0-9.8-3.7-9.8-10.1v-21.7H384v-5.2h4.1v-8.1l8.3-2.3v10.4h6v5.2h-6v21.7
			c0,2.8,1.4,4.4,3.9,4.4c0.7,0,1.4-0.1,2-0.3v5.2C401.2,313.1,399.7,313.4,397.8,313.4z"/>
		<path class="st0" d="M422.8,313.7c-10.4,0-15.4-8-15.4-19c0-11,5.1-19,15.4-19c10.4,0,15.4,8,15.4,19
			C438.2,305.7,433.1,313.7,422.8,313.7z M422.8,280.8c-5.3,0-7.2,6-7.2,13.7c0,7.7,1.8,13.7,7.2,13.7c5.4,0,7.2-6,7.2-13.7
			C429.9,286.9,428.1,280.8,422.8,280.8z"/>
		<path class="st0" d="M484.6,312.9v-25.4c0-3.5-1.5-6.4-6.4-6.4c-2.1,0-4.1,0.5-5.9,1.5v30.3h-8.3v-53.2h8.3V278
			c2.2-1.2,4.9-2,8.1-2c9.1,0,12.5,5.6,12.5,11.3v25.6L484.6,312.9L484.6,312.9z"/>
		<path class="st0" d="M508.4,297.7c0.6,6.4,4.2,10.2,10.2,10.2c3.3,0,6.9-0.9,9-2.1l2,5.3c-3,1.6-7.5,2.6-12.1,2.6
			c-11,0-17.1-7.7-17.1-19.1c0-11.4,5.8-18.9,15.7-18.9c9.5,0,14.8,6.2,14.8,17.6v1.1L508.4,297.7z M515.8,280.6
			c-5.2,0-7.9,4.9-7.9,12.1v0.7l15-2.4C522.9,284.5,520.7,280.6,515.8,280.6z"/>
		<path class="st0" d="M538.7,312.9v-53.2h8.3v53.2H538.7z"/>
		<path class="st0" d="M569.7,313.5c-2.2,0-4.3-0.4-5.5-0.8v14.8h-8.2v-49.2c3.6-1.8,8-2.6,12.6-2.6c10.9,0,17.1,6.9,17.1,18.6
			C585.8,306.2,579.3,313.5,569.7,313.5z M568.5,280.7c-1.5,0-3.1,0.2-4.3,0.7v26.3c0.9,0.3,2.2,0.6,3.7,0.6c6.5,0,9.7-5,9.7-13.9
			C577.6,285.8,575.2,280.7,568.5,280.7z"/>
		<path class="st0" d="M596.2,313.5c-2.7,0-4.9-2.2-4.9-4.9s2.2-4.9,4.9-4.9c2.7,0,4.9,2.2,4.9,4.9S598.9,313.5,596.2,313.5z"/>
		<path class="st0" d="M613.1,280v13.5h-3.3V280h-3.4v-2.2h10.1v2.2H613.1z M631.3,293.6l-0.9-10.1c0-0.5-0.1-1.6-0.1-1.8h-0.1
			c-0.2,0.9-0.2,1.2-0.4,1.8l-3.1,10.1h-1.9l-3-10.1c-0.2-0.7-0.4-1.4-0.4-1.8h-0.1c0,0.1,0,0.9-0.1,1.8l-1,10.1h-2.8l1.9-15.8h3.3
			l2.9,9.6c0.2,0.7,0.3,1.3,0.4,2h0.1c0.1-0.7,0.2-1.3,0.4-2l2.9-9.6h3.4l1.9,15.8H631.3z"/>
	</g>
</g>
</svg>
