<?xml version="1.0" encoding="utf-8"?>
<!-- Generator: Adobe Illustrator 26.2.1, SVG Export Plug-In . SVG Version: 6.00 Build 0)  -->
<svg version="1.1" xmlns="http://www.w3.org/2000/svg" xmlns:xlink="http://www.w3.org/1999/xlink" x="0px" y="0px"
	 viewBox="0 0 264 133.7" style="enable-background:new 0 0 264 133.7;" xml:space="preserve">
<style type="text/css">
	.st0{fill:#F99D1E;}
</style>
<g id="Layer_1">
	<g>
		<g>
			<path class="st0" d="M113.4,41.8c6.7,11.6,21.5,15.6,33.1,8.9c7.8-4.5,12.1-12.6,12.1-21h-7.8c0,5.7-3,11.2-8.2,14.2
				c-6.7,3.9-15,2.5-20.1-2.9L157,21c-0.5-1.2-1-2.3-1.7-3.5C148.7,5.9,133.8,2,122.3,8.7C110.7,15.4,106.7,30.2,113.4,41.8
				 M126.1,15.4c6.7-3.9,15-2.5,20.1,2.9l-27.7,16C116.5,27.2,119.4,19.3,126.1,15.4"/>
			<path class="st0" d="M149.5,66.8l-4-2.9h-8.6l-2.6-3.9c4.9,0,9.5-1.2,13.6-3.2l3.5,2.5l-0.4-4.2c1.7-1.1,3.3-2.5,4.8-3.9
				l-2.9-2.9c-4.8,4.8-11.3,7.7-18.6,7.7C119.7,56,108,44.2,108,29.7c0-12.2,8.3-22.4,19.5-25.4l-1.1-4c-2,0.5-4,1.3-5.8,2.2
				L117.2,0l0.4,4.2c-8.3,5.4-13.7,14.8-13.7,25.4c0,16.8,13.6,30.4,30.4,30.4l-2.6,3.9h-8.3l-4.1,2.9h-5.3l-2.6,2.4l46,0l-2.5-2.4
				H149.5z"/>
		</g>
		<g>
			<polygon points="0,77.9 16.9,77.9 16.9,81.5 4,81.5 4,91.7 16.2,91.7 16.2,95.3 4,95.3 4,107 17.5,107 17.5,110.6 0,110.6 			"/>
			<path d="M38.4,110.6h-3.7v-3h-0.1c-0.5,1.8-2.7,3.7-5.3,3.7c-5.8,0-8-5.2-8-12.9c0-5.1,0.8-12.9,7.7-12.9c2.2,0,4.5,1.3,5.4,3.4
				h0.1V77.9h3.8V110.6z M29.8,107.9c4.3,0,4.9-4,4.9-9.6c0-4.8-0.8-9.6-4.9-9.6c-3.6,0-4.5,3.8-4.5,9.6
				C25.3,104.2,26.3,107.9,29.8,107.9"/>
			<path d="M60.8,110.6h-3.7v-2.9H57c-1,2.2-3.6,3.5-6,3.5c-6.5,0-6.5-4.9-6.5-7.8V86h3.8v17c0,1.9,0.1,4.9,3.6,4.9
				c2.1,0,4.9-1.4,4.9-4.9V86h3.9V110.6z"/>
			<path d="M78.6,93.5c0-2.4-1-5.1-3.9-5.1c-2.4,0-4.8,1.2-4.8,10.2c0,3.2,0,9.6,4.7,9.6c3.3,0,4-3.5,4-6.1h3.9
				c0,3.9-1.9,9.2-8.1,9.2c-6,0-8.5-4.2-8.5-12.6c0-6.1,1.2-13.2,8.7-13.2c6.7,0,7.8,5.3,7.8,8.1H78.6z"/>
			<path d="M87,93.5c0-5.6,2.4-8.1,8.3-8.1c7.5,0,7.5,4.5,7.5,7v13.7c0,1,0,2,1.2,2c0.5,0,0.7-0.1,0.9-0.2v2.8
				c-0.3,0-1.3,0.2-2.2,0.2c-1.5,0-3.3,0-3.5-3.2H99c-1.2,2.2-3.6,3.5-5.9,3.5c-4.6,0-6.7-2.8-6.7-7.2c0-3.4,1.5-5.8,4.6-6.8
				l5.2-1.6C99,94.9,99,94.1,99,92c0-2.3-1.4-3.6-3.9-3.6c-4.2,0-4.2,3.9-4.2,4.8v0.2H87z M98.9,97.2c-1.4,1.5-4.8,1.8-6.5,2.9
				c-1.2,0.8-1.9,1.7-1.9,3.9c0,2.5,0.9,4.2,3.5,4.2c2.5,0,4.9-2.1,4.9-4.7V97.2z"/>
			<path d="M110.7,78.9h3.8V86h4.3v3h-4.3v15.8c0,2,0.5,2.8,2.5,2.8c0.8,0,1.3-0.1,1.7-0.1v3.2c-0.5,0.1-1.5,0.3-3.1,0.3
				c-4,0-4.9-1.7-4.9-4.9v-17h-3.6v-3h3.6V78.9z"/>
			<path d="M122.8,77.9h3.8v4.4h-3.8V77.9z M122.8,86h3.8v24.6h-3.8V86z"/>
			<path d="M140.7,85.4c7.1,0,8.8,6,8.8,12.9c0,6.9-1.8,12.9-8.8,12.9c-7.1,0-8.8-6-8.8-12.9C131.9,91.4,133.7,85.4,140.7,85.4
				 M145.6,98.3c0-5.3-0.8-9.9-4.9-9.9c-3.9,0-4.7,4.6-4.7,9.9c0,5.3,0.8,9.9,4.7,9.9C144.7,108.2,145.6,103.6,145.6,98.3"/>
			<path d="M154.6,86h3.7v2.9h0.1c1-2.2,3.6-3.5,6-3.5c6.5,0,6.5,4.9,6.5,7.8v17.4h-3.8v-17c0-1.9-0.1-4.9-3.6-4.9
				c-2.1,0-4.9,1.4-4.9,4.9v17h-3.8V86z"/>
			<polygon points="189.2,77.9 206.1,77.9 206.1,81.5 193.3,81.5 193.3,91.7 205.4,91.7 205.4,95.3 193.3,95.3 193.3,110.6 
				189.2,110.6 			"/>
			<path d="M210,77.9h3.9v4.4H210V77.9z M210,86h3.9v24.6l-3.9,0V86z"/>
			<path d="M220.3,86h3.9v3.7h0.1c1.1-2.3,2.6-4.3,5.3-4.3c0.8,0,1.3,0.1,1.7,0.3v3.8c-0.4,0-0.8-0.2-2.1-0.2c-1.9,0-5,1.7-5,5.8
				v15.5h-3.9V86z"/>
			<path d="M245.5,93.2c0-3.1-0.8-4.8-3.6-4.8c-1.2,0-4,0.3-4,3.8c0,2.9,3,3.4,6.1,4.4c3,1,6,2.1,6,6.9c0,5.2-3.4,7.7-7.9,7.7
				c-8.3,0-8.4-6.2-8.4-8.7h3.9c0,3,0.8,5.7,4.6,5.7c1.2,0,4.1-0.6,4.1-4.1c0-3.3-3-4-6-5c-3-1-6-1.9-6-7c0-4.6,3.6-6.8,7.8-6.8
				c7.2,0,7.4,4.9,7.5,7.8H245.5z"/>
			<path d="M255.9,78.9h3.8V86h4.3v3h-4.3v15.8c0,2,0.5,2.7,2.5,2.7c0.8,0,1.3-0.1,1.7-0.1v3.2c-0.5,0.1-1.5,0.3-3.1,0.3
				c-4,0-4.9-1.7-4.9-4.9v-17h-3.6v-3h3.6V78.9z"/>
			<polygon points="43.6,123.7 48.7,123.7 48.7,124.8 44.9,124.8 44.9,127.9 48.5,127.9 48.5,128.9 44.9,128.9 44.9,133.5 
				43.6,133.5 			"/>
			<polygon points="52.5,123.7 57.6,123.7 57.6,124.8 53.7,124.8 53.7,127.9 57.4,127.9 57.4,128.9 53.7,128.9 53.7,132.4 
				57.7,132.4 57.7,133.5 52.5,133.5 			"/>
			<path d="M61.7,123.7h2.6c3.1,0,3.4,2.2,3.4,4.9c0,2.5-0.6,4.9-3.3,4.9h-2.7V123.7z M62.9,132.5h1.3c2.1,0,2.3-2.1,2.3-3.9
				c0-1.9-0.1-3.9-2.3-3.9h-1.3V132.5z"/>
			<polygon points="72,123.7 77.1,123.7 77.1,124.8 73.2,124.8 73.2,127.9 76.9,127.9 76.9,128.9 73.2,128.9 73.2,132.4 77.2,132.4 
				77.2,133.5 72,133.5 			"/>
			<path d="M81.1,123.7h3.2c1.5,0,2.5,0.9,2.5,2.5c0,1.1-0.4,2.2-1.5,2.5v0c0.8,0.1,1.3,0.8,1.4,1.6l0.1,1.7
				c0.1,1.1,0.2,1.4,0.5,1.5h-1.5c-0.2-0.2-0.3-0.9-0.3-1.4l-0.1-1.5c-0.1-1.3-0.8-1.4-1.5-1.4h-1.6v4.4h-1.2V123.7z M82.3,128.1
				h1.2c0.7,0,2,0,2-1.9c0-1-0.6-1.6-1.8-1.6h-1.4V128.1z"/>
			<path d="M92.9,123.7h1.6l2.6,9.8h-1.3l-0.7-2.7h-3.1l-0.7,2.7h-1.3L92.9,123.7z M92.3,129.8H95l-1.2-4.8h0L92.3,129.8z"/>
			<polygon points="100.6,123.7 101.8,123.7 101.8,132.4 105.8,132.4 105.8,133.5 100.6,133.5 			"/>
			<path d="M121.5,130.1c-0.1,1.9-0.8,3.6-3,3.6c-2.8,0-3.2-2.6-3.2-5.1c0-2.5,0.5-5.1,3.2-5.1c2,0,2.8,1.1,2.9,3.1h-1.3
				c0-1.1-0.4-2.1-1.6-2.1c-1.7,0-1.9,1.8-1.9,4.1c0,2.3,0.2,4.1,1.9,4.1c1.5,0,1.7-1.4,1.7-2.6H121.5z"/>
			<path d="M125.4,123.7h3.2c1.5,0,2.5,0.9,2.5,2.5c0,1.1-0.4,2.2-1.5,2.5v0c0.9,0.1,1.3,0.8,1.4,1.6l0.1,1.7
				c0.1,1.1,0.2,1.4,0.5,1.5h-1.5c-0.2-0.2-0.3-0.9-0.3-1.4l-0.1-1.5c-0.1-1.3-0.8-1.4-1.5-1.4h-1.6v4.4h-1.2V123.7z M126.6,128.1
				h1.2c0.7,0,2,0,2-1.9c0-1-0.6-1.6-1.8-1.6h-1.4V128.1z"/>
			<polygon points="135.3,123.7 140.4,123.7 140.4,124.8 136.5,124.8 136.5,127.9 140.2,127.9 140.2,128.9 136.5,128.9 136.5,132.4 
				140.5,132.4 140.5,133.5 135.3,133.5 			"/>
			<path d="M144.5,123.7h2.6c3.1,0,3.4,2.2,3.4,4.9c0,2.5-0.6,4.9-3.3,4.9h-2.7V123.7z M145.8,132.5h1.3c2.1,0,2.3-2.1,2.3-3.9
				c0-1.9-0.1-3.9-2.3-3.9h-1.3V132.5z"/>
			<rect x="154.8" y="123.7" width="1.2" height="9.8"/>
			<polygon points="163.4,133.5 162.1,133.5 162.1,124.8 159.7,124.8 159.7,123.7 165.8,123.7 165.8,124.8 163.4,124.8 			"/>
			<path d="M175.4,123.7h1.2v6.9c0,1.4,0.5,2.1,1.7,2.1c1.3,0,1.7-0.8,1.7-2.1v-6.9h1.2v6.9c0,1.9-1,3.1-2.9,3.1
				c-2,0-2.9-1.1-2.9-3.1V123.7z"/>
			<polygon points="185.4,123.7 187,123.7 190.2,131.9 190.3,131.9 190.3,123.7 191.5,123.7 191.5,133.5 189.8,133.5 186.7,125.6 
				186.6,125.6 186.6,133.5 185.4,133.5 			"/>
			<rect x="195.8" y="123.7" width="1.2" height="9.8"/>
			<path d="M207.6,128.6c0,2.5-0.5,5.1-3.2,5.1c-2.7,0-3.2-2.6-3.2-5.1c0-2.5,0.5-5.1,3.2-5.1C207.1,123.5,207.6,126.1,207.6,128.6
				 M202.5,128.6c0,2.3,0.2,4.1,1.9,4.1c1.7,0,1.9-1.8,1.9-4.1c0-2.3-0.2-4.1-1.9-4.1C202.7,124.5,202.5,126.3,202.5,128.6"/>
			<polygon points="211.8,123.7 213.3,123.7 216.6,131.9 216.6,131.9 216.6,123.7 217.8,123.7 217.8,133.5 216.1,133.5 213,125.6 
				213,125.6 213,133.5 211.8,133.5 			"/>
			<polygon class="st0" points="230.5,130.2 243.6,128.3 230.5,126.6 			"/>
			<polygon class="st0" points="32.1,125.8 19,127.6 32.1,129.4 			"/>
		</g>
	</g>
</g>
<g id="Layer_2">
	<polygon class="st0" points="111.3,69.2 157.3,69.2 154.8,66.8 149.5,66.8 145.5,63.9 136.9,63.9 134.2,60.1 131.6,63.9 
		123.3,63.9 119.2,66.8 113.9,66.8 	"/>
</g>
<g id="Layer_3">
	<path class="st0" d="M152.9,48.3l2.9,2.9c0,0-2.9,2.7-4.8,3.9c0,0-7.3,4.7-14.7,4.9c0,0-18.2,2-28.4-15.3c0,0-9.5-14.9,0.9-31.4
		c0,0,5.8-9.8,17.7-12.9l1.1,4c0,0-16.2,3.6-19.2,21.3c0,0-3.8,18.9,15.4,28.2C123.7,53.7,139.2,61.4,152.9,48.3z"/>
</g>
</svg>
