<?xml version="1.0" encoding="utf-8"?>
<!-- Generator: Adobe Illustrator 26.2.1, SVG Export Plug-In . SVG Version: 6.00 Build 0)  -->
<svg version="1.1" id="Layer_1" xmlns="http://www.w3.org/2000/svg" xmlns:xlink="http://www.w3.org/1999/xlink" x="0px" y="0px"
	 viewBox="0 0 335.8 69.3" style="enable-background:new 0 0 335.8 69.3;" xml:space="preserve">
<style type="text/css">
	.st0{fill:#F99D1E;}
</style>
<g>
	<g>
		<path class="st0" d="M9.5,41.8c6.7,11.6,21.5,15.6,33.1,8.9c7.8-4.5,12.1-12.6,12.1-21h-7.8c0,5.7-3,11.2-8.2,14.2
			c-6.7,3.9-15,2.5-20.1-2.9l34.6-20c-0.5-1.2-1-2.3-1.7-3.5C44.8,5.9,30,2,18.4,8.7C6.8,15.4,2.8,30.2,9.5,41.8 M22.2,15.4
			c6.7-3.9,15-2.5,20.1,2.9l-27.7,16C12.6,27.2,15.5,19.3,22.2,15.4"/>
		<path class="st0" d="M45.6,66.8l-4-2.9H33l-2.6-3.9c4.9,0,9.5-1.2,13.6-3.2l3.5,2.5l-0.4-4.2c1.7-1.1,3.3-2.5,4.8-3.9L49,48.3
			C44.2,53,37.7,56,30.4,56C15.9,56,4.1,44.2,4.1,29.7c0-12.2,8.3-22.4,19.5-25.4l-1.1-4c-2,0.5-4,1.3-5.8,2.2L13.3,0l0.4,4.2
			C5.5,9.7,0,19,0,29.7C0,46.4,13.6,60,30.4,60.1l-2.6,3.9h-8.3l-4.1,2.9h-5.3l-2.6,2.4l46,0l-2.5-2.4H45.6z"/>
	</g>
	<g>
		<polygon points="71.8,13.4 88.7,13.4 88.7,17 75.8,17 75.8,27.3 88,27.3 88,30.8 75.8,30.8 75.8,42.6 89.3,42.6 89.3,46.1 
			71.8,46.1 		"/>
		<path d="M110.2,46.1h-3.7v-3h-0.1c-0.5,1.8-2.7,3.7-5.3,3.7c-5.8,0-8-5.2-8-12.9c0-5.1,0.8-12.9,7.7-12.9c2.2,0,4.5,1.3,5.4,3.4
			h0.1V13.4h3.8V46.1z M101.6,43.5c4.3,0,4.9-4,4.9-9.6c0-4.8-0.8-9.6-4.9-9.6c-3.6,0-4.5,3.8-4.5,9.6
			C97.1,39.7,98.1,43.5,101.6,43.5"/>
		<path d="M132.6,46.1h-3.7v-2.9h-0.1c-1,2.2-3.6,3.5-6,3.5c-6.5,0-6.5-4.9-6.5-7.8V21.6h3.8v17c0,1.9,0.1,4.9,3.6,4.9
			c2.1,0,4.9-1.4,4.9-4.9v-17h3.9V46.1z"/>
		<path d="M150.4,29c0-2.4-1-5.1-3.9-5.1c-2.4,0-4.8,1.2-4.8,10.2c0,3.2,0,9.6,4.7,9.6c3.3,0,4-3.5,4-6.1h3.9c0,3.9-1.9,9.2-8.1,9.2
			c-6,0-8.5-4.2-8.5-12.6c0-6.1,1.2-13.2,8.7-13.2c6.7,0,7.8,5.3,7.8,8.1H150.4z"/>
		<path d="M158.8,29c0-5.6,2.4-8.1,8.3-8.1c7.5,0,7.5,4.5,7.5,7v13.7c0,1,0,2,1.2,2c0.5,0,0.7-0.1,0.9-0.2v2.8
			c-0.3,0-1.3,0.2-2.2,0.2c-1.5,0-3.3,0-3.5-3.2h-0.1c-1.2,2.2-3.6,3.5-5.9,3.5c-4.6,0-6.7-2.8-6.7-7.2c0-3.4,1.5-5.8,4.6-6.8
			l5.2-1.6c2.8-0.9,2.8-1.6,2.8-3.7c0-2.3-1.4-3.6-3.9-3.6c-4.2,0-4.2,3.9-4.2,4.8V29H158.8z M170.7,32.8c-1.4,1.5-4.8,1.8-6.5,2.9
			c-1.2,0.8-1.9,1.7-1.9,3.9c0,2.5,0.9,4.2,3.5,4.2c2.5,0,4.9-2.1,4.9-4.7V32.8z"/>
		<path d="M182.5,14.4h3.8v7.1h4.3v3h-4.3v15.8c0,2,0.5,2.8,2.5,2.8c0.8,0,1.3-0.1,1.7-0.1v3.2c-0.5,0.1-1.5,0.3-3.1,0.3
			c-4,0-4.9-1.7-4.9-4.9v-17h-3.6v-3h3.6V14.4z"/>
		<path d="M194.6,13.4h3.8v4.4h-3.8V13.4z M194.6,21.6h3.8v24.6h-3.8V21.6z"/>
		<path d="M212.5,20.9c7.1,0,8.8,6,8.8,12.9c0,6.9-1.8,12.9-8.8,12.9c-7.1,0-8.8-6-8.8-12.9C203.7,26.9,205.5,20.9,212.5,20.9
			 M217.3,33.9c0-5.3-0.8-9.9-4.9-9.9c-3.9,0-4.7,4.6-4.7,9.9c0,5.3,0.8,9.9,4.7,9.9C216.5,43.8,217.3,39.2,217.3,33.9"/>
		<path d="M226.4,21.6h3.7v2.9h0.1c1-2.2,3.6-3.5,6-3.5c6.5,0,6.5,4.9,6.5,7.8v17.4h-3.8v-17c0-1.9-0.1-4.9-3.6-4.9
			c-2.1,0-4.9,1.4-4.9,4.9v17h-3.8V21.6z"/>
		<polygon points="261,13.4 277.9,13.4 277.9,17 265.1,17 265.1,27.3 277.2,27.3 277.2,30.8 265.1,30.8 265.1,46.1 261,46.1 		"/>
		<path d="M281.8,13.4h3.9v4.4h-3.9V13.4z M281.8,21.6h3.9v24.6l-3.9,0V21.6z"/>
		<path d="M292,21.6h3.9v3.7h0.1c1.1-2.3,2.6-4.3,5.3-4.3c0.8,0,1.3,0.1,1.7,0.3V25c-0.4,0-0.8-0.2-2.1-0.2c-1.9,0-5,1.7-5,5.8v15.5
			H292V21.6z"/>
		<path d="M317.3,28.8c0-3.1-0.8-4.8-3.6-4.8c-1.2,0-4,0.3-4,3.8c0,2.9,3,3.4,6.1,4.4c3,1,6,2.1,6,6.9c0,5.2-3.4,7.7-7.9,7.7
			c-8.3,0-8.4-6.2-8.4-8.7h3.9c0,3,0.8,5.7,4.6,5.7c1.2,0,4.1-0.6,4.1-4.1c0-3.3-3-4-6-5c-3-1-6-1.9-6-7c0-4.6,3.6-6.8,7.8-6.8
			c7.2,0,7.4,4.9,7.5,7.8H317.3z"/>
		<path d="M327.7,14.4h3.8v7.1h4.3v3h-4.3v15.8c0,2,0.5,2.7,2.5,2.7c0.8,0,1.3-0.1,1.7-0.1v3.2c-0.5,0.1-1.5,0.3-3.1,0.3
			c-4,0-4.9-1.7-4.9-4.9v-17h-3.6v-3h3.6V14.4z"/>
		<polygon points="115.4,59.2 120.5,59.2 120.5,60.3 116.6,60.3 116.6,63.4 120.3,63.4 120.3,64.5 116.6,64.5 116.6,69.1 
			115.4,69.1 		"/>
		<polygon points="124.3,59.2 129.4,59.2 129.4,60.3 125.5,60.3 125.5,63.4 129.1,63.4 129.1,64.5 125.5,64.5 125.5,68 129.5,68 
			129.5,69.1 124.3,69.1 		"/>
		<path d="M133.5,59.2h2.6c3.1,0,3.4,2.2,3.4,4.9c0,2.5-0.6,4.9-3.3,4.9h-2.7V59.2z M134.7,68.1h1.3c2.1,0,2.3-2.1,2.3-3.9
			c0-1.9-0.1-3.9-2.3-3.9h-1.3V68.1z"/>
		<polygon points="143.8,59.2 148.9,59.2 148.9,60.3 145,60.3 145,63.4 148.7,63.4 148.7,64.5 145,64.5 145,68 149,68 149,69.1 
			143.8,69.1 		"/>
		<path d="M152.9,59.2h3.2c1.5,0,2.5,0.9,2.5,2.5c0,1.1-0.4,2.2-1.5,2.5v0c0.8,0.1,1.3,0.8,1.4,1.6l0.1,1.7c0.1,1.1,0.2,1.4,0.5,1.5
			h-1.5c-0.2-0.2-0.3-0.9-0.3-1.4l-0.1-1.5c-0.1-1.3-0.8-1.4-1.5-1.4h-1.6v4.4h-1.2V59.2z M154.1,63.7h1.2c0.7,0,2,0,2-1.9
			c0-1-0.6-1.6-1.8-1.6h-1.4V63.7z"/>
		<path d="M164.7,59.2h1.6l2.6,9.8h-1.3l-0.7-2.7h-3.1l-0.7,2.7h-1.3L164.7,59.2z M164.1,65.4h2.6l-1.2-4.8h0L164.1,65.4z"/>
		<polygon points="172.4,59.2 173.6,59.2 173.6,68 177.6,68 177.6,69.1 172.4,69.1 		"/>
		<path d="M193.3,65.7c-0.1,1.9-0.8,3.6-3,3.6c-2.8,0-3.2-2.6-3.2-5.1c0-2.5,0.5-5.1,3.2-5.1c2,0,2.8,1.1,2.9,3.1H192
			c0-1.1-0.4-2.1-1.6-2.1c-1.7,0-1.9,1.8-1.9,4.1c0,2.3,0.2,4.1,1.9,4.1c1.5,0,1.7-1.4,1.7-2.6H193.3z"/>
		<path d="M197.2,59.2h3.2c1.5,0,2.5,0.9,2.5,2.5c0,1.1-0.4,2.2-1.5,2.5v0c0.9,0.1,1.3,0.8,1.4,1.6l0.1,1.7c0.1,1.1,0.2,1.4,0.5,1.5
			h-1.5c-0.2-0.2-0.3-0.9-0.3-1.4l-0.1-1.5c-0.1-1.3-0.8-1.4-1.5-1.4h-1.6v4.4h-1.2V59.2z M198.4,63.7h1.2c0.7,0,2,0,2-1.9
			c0-1-0.6-1.6-1.8-1.6h-1.4V63.7z"/>
		<polygon points="207.1,59.2 212.2,59.2 212.2,60.3 208.3,60.3 208.3,63.4 212,63.4 212,64.5 208.3,64.5 208.3,68 212.3,68 
			212.3,69.1 207.1,69.1 		"/>
		<path d="M216.3,59.2h2.6c3.1,0,3.4,2.2,3.4,4.9c0,2.5-0.6,4.9-3.3,4.9h-2.7V59.2z M217.5,68.1h1.3c2.1,0,2.3-2.1,2.3-3.9
			c0-1.9-0.1-3.9-2.3-3.9h-1.3V68.1z"/>
		<rect x="226.6" y="59.2" width="1.2" height="9.8"/>
		<polygon points="235.1,69.1 233.9,69.1 233.9,60.3 231.5,60.3 231.5,59.2 237.6,59.2 237.6,60.3 235.1,60.3 		"/>
		<path d="M247.2,59.2h1.2v6.9c0,1.4,0.5,2.1,1.7,2.1c1.3,0,1.7-0.7,1.7-2.1v-6.9h1.2v6.9c0,1.9-1,3.1-2.9,3.1c-2,0-2.9-1.1-2.9-3.1
			V59.2z"/>
		<polygon points="257.2,59.2 258.8,59.2 262,67.4 262.1,67.4 262.1,59.2 263.3,59.2 263.3,69.1 261.6,69.1 258.4,61.1 258.4,61.1 
			258.4,69.1 257.2,69.1 		"/>
		<rect x="267.6" y="59.2" width="1.2" height="9.8"/>
		<path d="M279.3,64.1c0,2.5-0.5,5.1-3.2,5.1c-2.7,0-3.2-2.6-3.2-5.1c0-2.5,0.5-5.1,3.2-5.1C278.9,59,279.3,61.7,279.3,64.1
			 M274.3,64.1c0,2.3,0.2,4.1,1.9,4.1c1.7,0,1.9-1.8,1.9-4.1c0-2.3-0.2-4.1-1.9-4.1C274.5,60,274.3,61.9,274.3,64.1"/>
		<polygon points="283.6,59.2 285.1,59.2 288.4,67.4 288.4,67.4 288.4,59.2 289.6,59.2 289.6,69.1 287.9,69.1 284.8,61.1 
			284.8,61.1 284.8,69.1 283.6,69.1 		"/>
		<polygon class="st0" points="302.3,65.7 315.4,63.9 302.3,62.1 		"/>
		<polygon class="st0" points="103.8,61.3 90.8,63.2 103.9,65 		"/>
	</g>
</g>
</svg>
